  0
SECTION
  2
HEADER
  9
$ACADVER
  1
AC1032
  9
$ACADMAINTVER
 90
      197
  9
$DWGCODEPAGE
  3
ANSI_1252
  9
$REQUIREDVERSIONS
160
                 0
  9
$INSBASE
 10
0.0
 20
0.0
 30
0.0
  9
$EXTMIN
 10
1.000000000000000E+20
 20
1.000000000000000E+20
 30
1.000000000000000E+20
  9
$EXTMAX
 10
-1.000000000000000E+20
 20
-1.000000000000000E+20
 30
-1.000000000000000E+20
  9
$LIMMIN
 10
0.0
 20
0.0
  9
$LIMMAX
 10
12.0
 20
9.0
  9
$ORTHOMODE
 70
     0
  9
$REGENMODE
 70
     1
  9
$FILLMODE
 70
     1
  9
$QTEXTMODE
 70
     0
  9
$MIRRTEXT
 70
     0
  9
$LTSCALE
 40
1.0
  9
$ATTMODE
 70
     1
  9
$TEXTSIZE
 40
0.2
  9
$TRACEWID
 40
0.05
  9
$TEXTSTYLE
  7
Standard
  9
$CLAYER
  8
0
  9
$CELTYPE
  6
ByLayer
  9
$CECOLOR
 62
   256
  9
$CELTSCALE
 40
1.0
  9
$DISPSILH
 70
     0
  9
$DIMSCALE
 40
1.0
  9
$DIMASZ
 40
0.18
  9
$DIMEXO
 40
0.0625
  9
$DIMDLI
 40
0.38
  9
$DIMRND
 40
0.0
  9
$DIMDLE
 40
0.0
  9
$DIMEXE
 40
0.18
  9
$DIMTP
 40
0.0
  9
$DIMTM
 40
0.0
  9
$DIMTXT
 40
0.18
  9
$DIMCEN
 40
0.09
  9
$DIMTSZ
 40
0.0
  9
$DIMTOL
 70
     0
  9
$DIMLIM
 70
     0
  9
$DIMTIH
 70
     1
  9
$DIMTOH
 70
     1
  9
$DIMSE1
 70
     0
  9
$DIMSE2
 70
     0
  9
$DIMTAD
 70
     0
  9
$DIMZIN
 70
     0
  9
$DIMBLK
  1

  9
$DIMASO
 70
     1
  9
$DIMSHO
 70
     1
  9
$DIMPOST
  1

  9
$DIMAPOST
  1

  9
$DIMALT
 70
     0
  9
$DIMALTD
 70
     2
  9
$DIMALTF
 40
25.4
  9
$DIMLFAC
 40
1.0
  9
$DIMTOFL
 70
     0
  9
$DIMTVP
 40
0.0
  9
$DIMTIX
 70
     0
  9
$DIMSOXD
 70
     0
  9
$DIMSAH
 70
     0
  9
$DIMBLK1
  1

  9
$DIMBLK2
  1

  9
$DIMSTYLE
  2
Standard
  9
$DIMCLRD
 70
     0
  9
$DIMCLRE
 70
     0
  9
$DIMCLRT
 70
     0
  9
$DIMTFAC
 40
1.0
  9
$DIMGAP
 40
0.09
  9
$DIMJUST
 70
     0
  9
$DIMSD1
 70
     0
  9
$DIMSD2
 70
     0
  9
$DIMTOLJ
 70
     1
  9
$DIMTZIN
 70
     0
  9
$DIMALTZ
 70
     0
  9
$DIMALTTZ
 70
     0
  9
$DIMUPT
 70
     0
  9
$DIMDEC
 70
     4
  9
$DIMTDEC
 70
     4
  9
$DIMALTU
 70
     2
  9
$DIMALTTD
 70
     2
  9
$DIMTXSTY
  7
Standard
  9
$DIMAUNIT
 70
     0
  9
$DIMADEC
 70
     0
  9
$DIMALTRND
 40
0.0
  9
$DIMAZIN
 70
     0
  9
$DIMDSEP
 70
    46
  9
$DIMATFIT
 70
     3
  9
$DIMFRAC
 70
     0
  9
$DIMLDRBLK
  1

  9
$DIMLUNIT
 70
     2
  9
$DIMLWD
 70
    -2
  9
$DIMLWE
 70
    -2
  9
$DIMTMOVE
 70
     0
  9
$DIMFXL
 40
1.0
  9
$DIMFXLON
 70
     0
  9
$DIMJOGANG
 40
0.7853981633974483
  9
$DIMTFILL
 70
     0
  9
$DIMTFILLCLR
 70
     0
  9
$DIMARCSYM
 70
     0
  9
$DIMLTYPE
  6

  9
$DIMLTEX1
  6

  9
$DIMLTEX2
  6

  9
$DIMTXTDIRECTION
 70
     0
  9
$LUNITS
 70
     2
  9
$LUPREC
 70
     4
  9
$SKETCHINC
 40
0.1
  9
$FILLETRAD
 40
0.0
  9
$AUNITS
 70
     0
  9
$AUPREC
 70
     0
  9
$MENU
  1
.
  9
$ELEVATION
 40
0.0
  9
$PELEVATION
 40
0.0
  9
$THICKNESS
 40
0.0
  9
$LIMCHECK
 70
     0
  9
$CHAMFERA
 40
0.0
  9
$CHAMFERB
 40
0.0
  9
$CHAMFERC
 40
0.0
  9
$CHAMFERD
 40
0.0
  9
$SKPOLY
 70
     0
  9
$TDCREATE
 40
2459697.418923611
  9
$TDUCREATE
 40
2459697.627256944
  9
$TDUPDATE
 40
2459697.418923611
  9
$TDUUPDATE
 40
2459697.627256944
  9
$TDINDWG
 40
0.0000000000
  9
$TDUSRTIMER
 40
0.0000000000
  9
$USRTIMER
 70
     1
  9
$ANGBASE
 50
0.0
  9
$ANGDIR
 70
     0
  9
$PDMODE
 70
     0
  9
$PDSIZE
 40
0.0
  9
$PLINEWID
 40
0.0
  9
$SPLFRAME
 70
     0
  9
$SPLINETYPE
 70
     6
  9
$SPLINESEGS
 70
     8
  9
$HANDSEED
  5
B6
  9
$SURFTAB1
 70
     6
  9
$SURFTAB2
 70
     6
  9
$SURFTYPE
 70
     6
  9
$SURFU
 70
     6
  9
$SURFV
 70
     6
  9
$UCSBASE
  2

  9
$UCSNAME
  2

  9
$UCSORG
 10
0.0
 20
0.0
 30
0.0
  9
$UCSXDIR
 10
1.0
 20
0.0
 30
0.0
  9
$UCSYDIR
 10
0.0
 20
1.0
 30
0.0
  9
$UCSORTHOREF
  2

  9
$UCSORTHOVIEW
 70
     0
  9
$UCSORGTOP
 10
0.0
 20
0.0
 30
0.0
  9
$UCSORGBOTTOM
 10
0.0
 20
0.0
 30
0.0
  9
$UCSORGLEFT
 10
0.0
 20
0.0
 30
0.0
  9
$UCSORGRIGHT
 10
0.0
 20
0.0
 30
0.0
  9
$UCSORGFRONT
 10
0.0
 20
0.0
 30
0.0
  9
$UCSORGBACK
 10
0.0
 20
0.0
 30
0.0
  9
$PUCSBASE
  2

  9
$PUCSNAME
  2

  9
$PUCSORG
 10
0.0
 20
0.0
 30
0.0
  9
$PUCSXDIR
 10
1.0
 20
0.0
 30
0.0
  9
$PUCSYDIR
 10
0.0
 20
1.0
 30
0.0
  9
$PUCSORTHOREF
  2

  9
$PUCSORTHOVIEW
 70
     0
  9
$PUCSORGTOP
 10
0.0
 20
0.0
 30
0.0
  9
$PUCSORGBOTTOM
 10
0.0
 20
0.0
 30
0.0
  9
$PUCSORGLEFT
 10
0.0
 20
0.0
 30
0.0
  9
$PUCSORGRIGHT
 10
0.0
 20
0.0
 30
0.0
  9
$PUCSORGFRONT
 10
0.0
 20
0.0
 30
0.0
  9
$PUCSORGBACK
 10
0.0
 20
0.0
 30
0.0
  9
$USERI1
 70
     0
  9
$USERI2
 70
     0
  9
$USERI3
 70
     0
  9
$USERI4
 70
     0
  9
$USERI5
 70
     0
  9
$USERR1
 40
0.0
  9
$USERR2
 40
0.0
  9
$USERR3
 40
0.0
  9
$USERR4
 40
0.0
  9
$USERR5
 40
0.0
  9
$WORLDVIEW
 70
     1
  9
$SHADEDGE
 70
     3
  9
$SHADEDIF
 70
    70
  9
$TILEMODE
 70
     1
  9
$MAXACTVP
 70
    64
  9
$PINSBASE
 10
0.0
 20
0.0
 30
0.0
  9
$PLIMCHECK
 70
     0
  9
$PEXTMIN
 10
1.000000000000000E+20
 20
1.000000000000000E+20
 30
1.000000000000000E+20
  9
$PEXTMAX
 10
-1.000000000000000E+20
 20
-1.000000000000000E+20
 30
-1.000000000000000E+20
  9
$PLIMMIN
 10
0.0
 20
0.0
  9
$PLIMMAX
 10
12.0
 20
9.0
  9
$UNITMODE
 70
     0
  9
$VISRETAIN
 70
     1
  9
$PLINEGEN
 70
     0
  9
$PSLTSCALE
 70
     1
  9
$TREEDEPTH
 70
  3020
  9
$CMLSTYLE
  2
Standard
  9
$CMLJUST
 70
     0
  9
$CMLSCALE
 40
1.0
  9
$PROXYGRAPHICS
 70
     1
  9
$MEASUREMENT
 70
     0
  9
$CELWEIGHT
370
    -1
  9
$ENDCAPS
280
     0
  9
$JOINSTYLE
280
     0
  9
$LWDISPLAY
290
     1
  9
$INSUNITS
 70
     4
  9
$HYPERLINKBASE
  1

  9
$STYLESHEET
  1

  9
$XEDIT
290
     1
  9
$CEPSNTYPE
380
     0
  9
$PSTYLEMODE
290
     1
  9
$FINGERPRINTGUID
  2
{E5807806-FF39-2345-865B-000F8A1CEDC9}
  9
$VERSIONGUID
  2
{0A597E44-6496-BD4F-9EE8-21C39267FA11}
  9
$EXTNAMES
290
     1
  9
$PSVPSCALE
 40
0.0
  9
$OLESTARTUP
290
     0
  9
$SORTENTS
280
   127
  9
$INDEXCTL
280
     0
  9
$HIDETEXT
280
     1
  9
$XCLIPFRAME
280
     2
  9
$HALOGAP
280
     0
  9
$OBSCOLOR
 70
   257
  9
$OBSLTYPE
280
     0
  9
$INTERSECTIONDISPLAY
280
     0
  9
$INTERSECTIONCOLOR
 70
   257
  9
$DIMASSOC
280
     2
  9
$PROJECTNAME
  1

  9
$CAMERADISPLAY
290
     0
  9
$LENSLENGTH
 40
50.0
  9
$CAMERAHEIGHT
 40
0.0
  9
$STEPSPERSEC
 40
2.0
  9
$STEPSIZE
 40
6.0
  9
$3DDWFPREC
 40
2.0
  9
$PSOLWIDTH
 40
0.25
  9
$PSOLHEIGHT
 40
4.0
  9
$LOFTANG1
 40
1.570796326794896
  9
$LOFTANG2
 40
1.570796326794896
  9
$LOFTMAG1
 40
0.0
  9
$LOFTMAG2
 40
0.0
  9
$LOFTPARAM
 70
     7
  9
$LOFTNORMALS
280
     1
  9
$LATITUDE
 40
37.795
  9
$LONGITUDE
 40
-122.394
  9
$NORTHDIRECTION
 40
0.0
  9
$TIMEZONE
 70
 -8000
  9
$LIGHTGLYPHDISPLAY
280
     1
  9
$TILEMODELIGHTSYNCH
280
     1
  9
$CMATERIAL
347
11
  9
$SOLIDHIST
280
     0
  9
$SHOWHIST
280
     1
  9
$DWFFRAME
280
     2
  9
$DGNFRAME
280
     0
  9
$REALWORLDSCALE
290
     1
  9
$INTERFERECOLOR
 62
     1
  9
$INTERFEREOBJVS
345
33
  9
$INTERFEREVPVS
346
30
  9
$CSHADOW
280
     0
  9
$SHADOWPLANELOCATION
 40
0.0
  0
ENDSEC
  0
SECTION
  2
CLASSES
  0
CLASS
  1
ACDBDICTIONARYWDFLT
  2
AcDbDictionaryWithDefault
  3
ObjectDBX Classes
 90
        0
 91
        1
280
     0
281
     0
  0
CLASS
  1
MATERIAL
  2
AcDbMaterial
  3
ObjectDBX Classes
 90
     1153
 91
        3
280
     0
281
     0
  0
CLASS
  1
VISUALSTYLE
  2
AcDbVisualStyle
  3
ObjectDBX Classes
 90
     4095
 91
       24
280
     0
281
     0
  0
CLASS
  1
SCALE
  2
AcDbScale
  3
ObjectDBX Classes
 90
     1153
 91
       17
280
     0
281
     0
  0
CLASS
  1
TABLESTYLE
  2
AcDbTableStyle
  3
ObjectDBX Classes
 90
     4095
 91
        1
280
     0
281
     0
  0
CLASS
  1
MLEADERSTYLE
  2
AcDbMLeaderStyle
  3
ACDB_MLEADERSTYLE_CLASS
 90
     4095
 91
        1
280
     0
281
     0
  0
CLASS
  1
ACDBSECTIONVIEWSTYLE
  2
AcDbSectionViewStyle
  3
ObjectDBX Classes
 90
     1025
 91
        1
280
     0
281
     0
  0
CLASS
  1
ACDBDETAILVIEWSTYLE
  2
AcDbDetailViewStyle
  3
ObjectDBX Classes
 90
     1025
 91
        1
280
     0
281
     0
  0
CLASS
  1
DICTIONARYVAR
  2
AcDbDictionaryVar
  3
ObjectDBX Classes
 90
        0
 91
        5
280
     0
281
     0
  0
CLASS
  1
CELLSTYLEMAP
  2
AcDbCellStyleMap
  3
ObjectDBX Classes
 90
     1152
 91
        1
280
     0
281
     0
  0
ENDSEC
  0
SECTION
  2
TABLES
  0
TABLE
  2
VPORT
  5
8
330
0
100
AcDbSymbolTable
 70
     1
  0
VPORT
  5
57
330
8
100
AcDbSymbolTableRecord
100
AcDbViewportTableRecord
  2
*Active
 70
     0
 10
0.0
 20
0.0
 11
1.0
 21
1.0
 12
0.0
 22
0.0
 13
0.0
 23
0.0
 14
1.0
 24
1.0
 15
0.0
 25
0.0
 16
0.0
 26
0.0
 36
1.0
 17
338.666666582
 27
338.666666582
 37
0.0
 40
690.87999982728
 41
1.0
 42
50.0
 43
0.0
 44
0.0
 50
0.0
 51
0.0
 71
     0
 72
   100
 73
     1
 74
     1
 75
     0
 76
     0
 77
     0
 78
     0
281
     0
 65
     1
110
0.0
120
0.0
130
0.0
111
1.0
121
0.0
131
0.0
112
0.0
122
1.0
132
0.0
 79
     0
146
0.0
 60
     3
 61
     5
292
     1
282
     1
141
0.0
142
0.0
 63
   250
421
  3355443
  0
ENDTAB
  0
TABLE
  2
LTYPE
  5
5
330
0
100
AcDbSymbolTable
 70
     1
  0
LTYPE
  5
5B
330
5
100
AcDbSymbolTableRecord
100
AcDbLinetypeTableRecord
  2
ByBlock
 70
     0
  3

 72
    65
 73
     0
 40
0.0
  0
LTYPE
  5
5C
330
5
100
AcDbSymbolTableRecord
100
AcDbLinetypeTableRecord
  2
ByLayer
 70
     0
  3

 72
    65
 73
     0
 40
0.0
  0
LTYPE
  5
5D
330
5
100
AcDbSymbolTableRecord
100
AcDbLinetypeTableRecord
  2
Continuous
 70
     0
  3
Solid line
 72
    65
 73
     0
 40
0.0
  0
ENDTAB
  0
TABLE
  2
LAYER
  5
2
330
0
100
AcDbSymbolTable
 70
     1
  0
LAYER
  5
54
330
2
100
AcDbSymbolTableRecord
100
AcDbLayerTableRecord
  2
0
 70
     0
 62
     7
  6
Continuous
370
     0
390
F
347
21
348
0
  0
ENDTAB
  0
TABLE
  2
STYLE
  5
3
330
0
100
AcDbSymbolTable
 70
     2
  0
STYLE
  5
55
330
3
100
AcDbSymbolTableRecord
100
AcDbTextStyleTableRecord
  2
Standard
 70
     0
 40
0.0
 41
1.0
 50
0.0
 71
     0
 42
0.2
  3
txt
  4

  0
STYLE
  5
5A
330
3
100
AcDbSymbolTableRecord
100
AcDbTextStyleTableRecord
  2
Annotative
 70
     0
 40
0.0
 41
1.0
 50
0.0
 71
     0
 42
0.2
  3
txt
  4

1001
AcadAnnotative
1000
AnnotativeData
1002
{
1070
     1
1070
     1
1002
}
  0
ENDTAB
  0
TABLE
  2
VIEW
  5
6
330
0
100
AcDbSymbolTable
 70
     0
  0
ENDTAB
  0
TABLE
  2
UCS
  5
7
330
0
100
AcDbSymbolTable
 70
     0
  0
ENDTAB
  0
TABLE
  2
APPID
  5
9
330
0
100
AcDbSymbolTable
 70
     2
  0
APPID
  5
56
330
9
100
AcDbSymbolTableRecord
100
AcDbRegAppTableRecord
  2
ACAD
 70
     0
  0
APPID
  5
5E
330
9
100
AcDbSymbolTableRecord
100
AcDbRegAppTableRecord
  2
AcadAnnotative
 70
     0
  0
ENDTAB
  0
TABLE
  2
DIMSTYLE
  5
A
330
0
100
AcDbSymbolTable
 70
     2
100
AcDbDimStyleTable
 71
     0
  0
DIMSTYLE
105
58
330
A
100
AcDbSymbolTableRecord
100
AcDbDimStyleTableRecord
  2
Standard
 70
     0
340
55
  0
DIMSTYLE
105
59
330
A
100
AcDbSymbolTableRecord
100
AcDbDimStyleTableRecord
  2
Annotative
 70
     0
340
55
1001
AcadAnnotative
1000
AnnotativeData
1002
{
1070
     1
1070
     1
1002
}
  0
ENDTAB
  0
TABLE
  2
BLOCK_RECORD
  5
1
330
0
100
AcDbSymbolTable
 70
     1
  0
BLOCK_RECORD
  5
70
330
1
100
AcDbSymbolTableRecord
100
AcDbBlockTableRecord
  2
*Model_Space
340
73
 70
     0
280
     1
281
     0
  0
BLOCK_RECORD
  5
6C
330
1
100
AcDbSymbolTableRecord
100
AcDbBlockTableRecord
  2
*Paper_Space
340
6F
 70
     0
280
     1
281
     0
  0
BLOCK_RECORD
  5
74
330
1
100
AcDbSymbolTableRecord
100
AcDbBlockTableRecord
  2
*Paper_Space0
340
77
 70
     0
280
     1
281
     0
  0
ENDTAB
  0
ENDSEC
  0
SECTION
  2
BLOCKS
  0
BLOCK
  5
71
330
70
100
AcDbEntity
  8
0
100
AcDbBlockBegin
  2
*Model_Space
 70
     0
 10
0.0
 20
0.0
 30
0.0
  3
*Model_Space
  1

  0
ENDBLK
  5
72
330
70
100
AcDbEntity
  8
0
100
AcDbBlockEnd
  0
BLOCK
  5
6D
330
6C
100
AcDbEntity
 67
     1
  8
0
100
AcDbBlockBegin
  2
*Paper_Space
 70
     0
 10
0.0
 20
0.0
 30
0.0
  3
*Paper_Space
  1

  0
ENDBLK
  5
6E
330
6C
100
AcDbEntity
 67
     1
  8
0
100
AcDbBlockEnd
  0
BLOCK
  5
75
330
74
100
AcDbEntity
 67
     1
  8
0
100
AcDbBlockBegin
  2
*Paper_Space0
 70
     0
 10
0.0
 20
0.0
 30
0.0
  3
*Paper_Space0
  1

  0
ENDBLK
  5
76
330
74
100
AcDbEntity
 67
     1
  8
0
100
AcDbBlockEnd
  0
ENDSEC
  0
SECTION
  2
ENTITIES
  0
CIRCLE
  5
78
330
70
100
AcDbEntity
  8
0
 62
    18
420
        0
370
    25
100
AcDbCircle
 10
453.7775414900712
 20
297.4930969865512
 30
0.0
 40
1.250000000000124
  0
CIRCLE
  5
79
330
70
100
AcDbEntity
  8
0
 62
    18
420
        0
370
    25
100
AcDbCircle
 10
453.7772853690021
 20
380.1930969865511
 30
0.0
 40
1.249999999999803
  0
CIRCLE
  5
7A
330
70
100
AcDbEntity
  8
0
 62
    18
420
        0
370
    25
100
AcDbCircle
 10
227.1267853701928
 20
380.1930969865511
 30
0.0
 40
1.250000000000003
  0
CIRCLE
  5
7B
330
70
100
AcDbEntity
  8
0
 62
    18
420
        0
370
    25
100
AcDbCircle
 10
227.1270414912617
 20
297.4930969865511
 30
0.0
 40
1.250000000000084
  0
SPLINE
  5
7C
330
70
100
AcDbEntity
  8
0
 62
    18
420
        0
370
    25
100
AcDbSpline
210
0.0
220
0.0
230
1.0
 70
     8
 71
     3
 72
    56
 73
    52
 74
     0
 42
0.0000000001
 43
0.0000000001
 40
0.0
 40
0.0
 40
0.0
 40
0.0
 40
1.0
 40
1.0
 40
1.0
 40
2.0
 40
2.0
 40
2.0
 40
3.0
 40
3.0
 40
3.0
 40
4.0
 40
4.0
 40
4.0
 40
5.0
 40
5.0
 40
5.0
 40
6.0
 40
6.0
 40
6.0
 40
7.0
 40
7.0
 40
7.0
 40
8.0
 40
8.0
 40
8.0
 40
9.0
 40
9.0
 40
9.0
 40
10.0
 40
10.0
 40
10.0
 40
11.0
 40
11.0
 40
11.0
 40
12.0
 40
12.0
 40
12.0
 40
13.0
 40
13.0
 40
13.0
 40
14.0
 40
14.0
 40
14.0
 40
15.0
 40
15.0
 40
15.0
 40
16.0
 40
16.0
 40
16.0
 40
17.0
 40
17.0
 40
17.0
 40
17.0
 10
441.4622853690024
 20
300.7430969865513
 30
0.0
 10
441.4622853690024
 20
300.7430969865513
 30
0.0
 10
239.4420414912618
 20
300.7430969865513
 30
0.0
 10
239.4420414912618
 20
300.7430969865513
 30
0.0
 10
238.4673708911017
 20
300.7430969865513
 30
0.0
 10
237.5326202611976
 20
300.3559105982081
 30
0.0
 10
236.8434240704011
 20
299.6667144074116
 30
0.0
 10
236.8434240704011
 20
299.6667144074116
 30
0.0
 10
232.7032960098669
 20
295.526586346877
 30
0.0
 10
232.7032960098669
 20
295.526586346877
 30
0.0
 10
232.2016361975183
 20
295.0249265345287
 30
0.0
 10
231.5212394805135
 20
294.7430969865512
 30
0.0
 10
230.8117853701926
 20
294.7430969865512
 30
0.0
 10
230.8117853701926
 20
294.7430969865512
 30
0.0
 10
223.4420414912619
 20
294.7430969865512
 30
0.0
 10
223.4420414912619
 20
294.7430969865512
 30
0.0
 10
222.7325873809407
 20
294.7430969865512
 30
0.0
 10
222.0521906639362
 20
295.0249265345287
 30
0.0
 10
221.5505308515879
 20
295.526586346877
 30
0.0
 10
221.5505308515879
 20
295.526586346877
 30
0.0
 10
217.4104027910533
 20
299.6667144074116
 30
0.0
 10
217.4104027910533
 20
299.6667144074116
 30
0.0
 10
216.9087429787047
 20
300.1683742197598
 30
0.0
 10
216.6269134307272
 20
300.848770936765
 30
0.0
 10
216.6269134307272
 20
301.5582250470855
 30
0.0
 10
216.6269134307272
 20
301.5582250470855
 30
0.0
 10
216.6269134307272
 20
376.1279689260167
 30
0.0
 10
216.6269134307272
 20
376.1279689260167
 30
0.0
 10
216.6269134307272
 20
376.8374230363372
 30
0.0
 10
216.9087429787047
 20
377.5178197533424
 30
0.0
 10
217.4104027910533
 20
378.0194795656906
 30
0.0
 10
217.4104027910533
 20
378.0194795656906
 30
0.0
 10
221.5505308515879
 20
382.1596076262252
 30
0.0
 10
221.5505308515879
 20
382.1596076262252
 30
0.0
 10
222.0521906639362
 20
382.6612674385738
 30
0.0
 10
222.7325873809407
 20
382.943096986551
 30
0.0
 10
223.4420414912619
 20
382.943096986551
 30
0.0
 10
223.4420414912619
 20
382.943096986551
 30
0.0
 10
230.8117853701926
 20
382.943096986551
 30
0.0
 10
230.8117853701926
 20
382.943096986551
 30
0.0
 10
231.5212394805135
 20
382.943096986551
 30
0.0
 10
232.2016361975183
 20
382.6612674385735
 30
0.0
 10
232.7032960098669
 20
382.1596076262252
 30
0.0
 10
232.7032960098669
 20
382.1596076262252
 30
0.0
 10
236.8434240704011
 20
378.0194795656906
 30
0.0
 10
236.8434240704011
 20
378.0194795656906
 30
0.0
 10
237.5326202611979
 20
377.3302833748941
 30
0.0
 10
238.4673708911017
 20
376.9430969865512
 30
0.0
 10
239.4420414912618
 20
376.9430969865512
 30
0.0
 10
239.4420414912618
 20
376.9430969865512
 30
0.0
 10
441.4622853690024
 20
376.9430969865512
 30
0.0
 10
441.4622853690024
 20
376.9430969865512
 30
0.0
  0
SPLINE
  5
7D
330
70
100
AcDbEntity
  8
0
 62
    18
420
        0
370
    25
100
AcDbSpline
210
0.0
220
0.0
230
1.0
 70
     8
 71
     3
 72
    50
 73
    46
 74
     0
 42
0.0000000001
 43
0.0000000001
 40
0.0
 40
0.0
 40
0.0
 40
0.0
 40
1.0
 40
1.0
 40
1.0
 40
2.0
 40
2.0
 40
2.0
 40
3.0
 40
3.0
 40
3.0
 40
4.0
 40
4.0
 40
4.0
 40
5.0
 40
5.0
 40
5.0
 40
6.0
 40
6.0
 40
6.0
 40
7.0
 40
7.0
 40
7.0
 40
8.0
 40
8.0
 40
8.0
 40
9.0
 40
9.0
 40
9.0
 40
10.0
 40
10.0
 40
10.0
 40
11.0
 40
11.0
 40
11.0
 40
12.0
 40
12.0
 40
12.0
 40
13.0
 40
13.0
 40
13.0
 40
14.0
 40
14.0
 40
14.0
 40
15.0
 40
15.0
 40
15.0
 40
15.0
 10
441.4622853690024
 20
376.9430969865512
 30
0.0
 10
442.4212934737435
 20
376.9430781261777
 30
0.0
 10
443.3423363134682
 20
377.3178538381507
 30
0.0
 10
444.028874918544
 20
377.9874516943717
 30
0.0
 10
444.028874918544
 20
377.9874516943717
 30
0.0
 10
448.2010308503975
 20
382.1596076262252
 30
0.0
 10
448.2010308503975
 20
382.1596076262252
 30
0.0
 10
448.7026906627458
 20
382.6612674385735
 30
0.0
 10
449.3830873797503
 20
382.943096986551
 30
0.0
 10
450.0925414900715
 20
382.943096986551
 30
0.0
 10
450.0925414900715
 20
382.943096986551
 30
0.0
 10
457.4622853690023
 20
382.943096986551
 30
0.0
 10
457.4622853690023
 20
382.943096986551
 30
0.0
 10
458.1717394793228
 20
382.943096986551
 30
0.0
 10
458.8521361963279
 20
382.6612674385735
 30
0.0
 10
459.3537960086761
 20
382.1596076262252
 30
0.0
 10
459.3537960086761
 20
382.1596076262252
 30
0.0
 10
463.4939240692108
 20
378.0194795656906
 30
0.0
 10
463.4939240692108
 20
378.0194795656906
 30
0.0
 10
463.995583881559
 20
377.5178197533424
 30
0.0
 10
464.2774134295366
 20
376.8374230363372
 30
0.0
 10
464.2774134295366
 20
376.1279689260167
 30
0.0
 10
464.2774134295366
 20
376.1279689260167
 30
0.0
 10
464.2774134295366
 20
301.5582250470855
 30
0.0
 10
464.2774134295366
 20
301.5582250470855
 30
0.0
 10
464.2774134295366
 20
300.848770936765
 30
0.0
 10
463.995583881559
 20
300.1683742197605
 30
0.0
 10
463.4939240692108
 20
299.6667144074116
 30
0.0
 10
463.4939240692108
 20
299.6667144074116
 30
0.0
 10
459.3537960086761
 20
295.526586346877
 30
0.0
 10
459.3537960086761
 20
295.526586346877
 30
0.0
 10
458.8521361963279
 20
295.0249265345287
 30
0.0
 10
458.1717394793228
 20
294.7430969865512
 30
0.0
 10
457.4622853690023
 20
294.7430969865512
 30
0.0
 10
457.4622853690023
 20
294.7430969865512
 30
0.0
 10
450.0925414900715
 20
294.7430969865512
 30
0.0
 10
450.0925414900715
 20
294.7430969865512
 30
0.0
 10
449.3830873797503
 20
294.7430969865512
 30
0.0
 10
448.7026906627458
 20
295.0249265345287
 30
0.0
 10
448.2010308503975
 20
295.526586346877
 30
0.0
 10
448.2010308503975
 20
295.526586346877
 30
0.0
 10
444.060902789863
 20
299.6667144074116
 30
0.0
 10
444.060902789863
 20
299.6667144074116
 30
0.0
 10
443.3717065990665
 20
300.3559105982081
 30
0.0
 10
442.4369559691625
 20
300.7430969865513
 30
0.0
 10
441.4622853690024
 20
300.7430969865513
 30
0.0
  0
SPLINE
  5
7E
330
70
100
AcDbEntity
  8
0
 62
    18
420
        0
370
    25
100
AcDbSpline
210
0.0
220
0.0
230
1.0
 70
     9
 71
     3
 72
    29
 73
    25
 74
     0
 42
0.0000000001
 43
0.0000000001
 40
0.0
 40
0.0
 40
0.0
 40
0.0
 40
1.0
 40
1.0
 40
1.0
 40
2.0
 40
2.0
 40
2.0
 40
3.0
 40
3.0
 40
3.0
 40
4.0
 40
4.0
 40
4.0
 40
5.0
 40
5.0
 40
5.0
 40
6.0
 40
6.0
 40
6.0
 40
7.0
 40
7.0
 40
7.0
 40
8.0
 40
8.0
 40
8.0
 40
8.0
 10
391.5769212354668
 20
317.7680938990864
 30
0.0
 10
391.5769212354668
 20
318.0442360270598
 30
0.0
 10
391.35305953496
 20
318.2680939128692
 30
0.0
 10
391.076921221684
 20
318.2680939128692
 30
0.0
 10
391.076921221684
 20
318.2680939128692
 30
0.0
 10
385.076921056291
 20
318.2680939128692
 30
0.0
 10
385.076921056291
 20
318.2680939128692
 30
0.0
 10
384.8007827430151
 20
318.2680939128692
 30
0.0
 10
384.5769210425083
 20
318.0442360270598
 30
0.0
 10
384.5769210425083
 20
317.7680938990864
 30
0.0
 10
384.5769210425083
 20
317.7680938990864
 30
0.0
 10
384.5769210425083
 20
303.7680935131694
 30
0.0
 10
384.5769210425083
 20
303.7680935131694
 30
0.0
 10
384.5769210425083
 20
303.4919475704987
 30
0.0
 10
384.8007827430151
 20
303.2680934993866
 30
0.0
 10
385.076921056291
 20
303.2680934993866
 30
0.0
 10
385.076921056291
 20
303.2680934993866
 30
0.0
 10
391.076921221684
 20
303.2680934993866
 30
0.0
 10
391.076921221684
 20
303.2680934993866
 30
0.0
 10
391.35305953496
 20
303.2680934993866
 30
0.0
 10
391.5769212354668
 20
303.4919475704987
 30
0.0
 10
391.5769212354668
 20
303.7680935131694
 30
0.0
 10
391.5769212354668
 20
303.7680935131694
 30
0.0
 10
391.5769212354668
 20
317.7680938990864
 30
0.0
 10
391.5769212354668
 20
317.7680938990864
 30
0.0
  0
SPLINE
  5
7F
330
70
100
AcDbEntity
  8
0
 62
    18
420
        0
370
    25
100
AcDbSpline
210
0.0
220
0.0
230
1.0
 70
     9
 71
     3
 72
    29
 73
    25
 74
     0
 42
0.0000000001
 43
0.0000000001
 40
0.0
 40
0.0
 40
0.0
 40
0.0
 40
1.0
 40
1.0
 40
1.0
 40
2.0
 40
2.0
 40
2.0
 40
3.0
 40
3.0
 40
3.0
 40
4.0
 40
4.0
 40
4.0
 40
5.0
 40
5.0
 40
5.0
 40
6.0
 40
6.0
 40
6.0
 40
7.0
 40
7.0
 40
7.0
 40
8.0
 40
8.0
 40
8.0
 40
8.0
 10
296.3269186098528
 20
317.7680938990864
 30
0.0
 10
296.3269186098528
 20
318.0442360270598
 30
0.0
 10
296.1030645387404
 20
318.2680939128692
 30
0.0
 10
295.8269185960701
 20
318.2680939128692
 30
0.0
 10
295.8269185960701
 20
318.2680939128692
 30
0.0
 10
289.8269184306767
 20
318.2680939128692
 30
0.0
 10
289.8269184306767
 20
318.2680939128692
 30
0.0
 10
289.5507724880064
 20
318.2680939128692
 30
0.0
 10
289.3269184168943
 20
318.0442360270598
 30
0.0
 10
289.3269184168943
 20
317.7680938990864
 30
0.0
 10
289.3269184168943
 20
317.7680938990864
 30
0.0
 10
289.3269184168943
 20
303.7680935131694
 30
0.0
 10
289.3269184168943
 20
303.7680935131694
 30
0.0
 10
289.3269184168943
 20
303.4919475704987
 30
0.0
 10
289.5507724880064
 20
303.2680934993866
 30
0.0
 10
289.8269184306767
 20
303.2680934993866
 30
0.0
 10
289.8269184306767
 20
303.2680934993866
 30
0.0
 10
295.8269185960701
 20
303.2680934993866
 30
0.0
 10
295.8269185960701
 20
303.2680934993866
 30
0.0
 10
296.1030645387404
 20
303.2680934993866
 30
0.0
 10
296.3269186098528
 20
303.4919475704987
 30
0.0
 10
296.3269186098528
 20
303.7680935131694
 30
0.0
 10
296.3269186098528
 20
303.7680935131694
 30
0.0
 10
296.3269186098528
 20
317.7680938990864
 30
0.0
 10
296.3269186098528
 20
317.7680938990864
 30
0.0
  0
SPLINE
  5
80
330
70
100
AcDbEntity
  8
0
 62
    18
420
        0
370
    25
100
AcDbSpline
210
0.0
220
0.0
230
1.0
 70
     9
 71
     3
 72
    29
 73
    25
 74
     0
 42
0.0000000001
 43
0.0000000001
 40
0.0
 40
0.0
 40
0.0
 40
0.0
 40
1.0
 40
1.0
 40
1.0
 40
2.0
 40
2.0
 40
2.0
 40
3.0
 40
3.0
 40
3.0
 40
4.0
 40
4.0
 40
4.0
 40
5.0
 40
5.0
 40
5.0
 40
6.0
 40
6.0
 40
6.0
 40
7.0
 40
7.0
 40
7.0
 40
8.0
 40
8.0
 40
8.0
 40
8.0
 10
286.8019168214125
 20
317.7680938990864
 30
0.0
 10
286.8019168214125
 20
318.0442360270598
 30
0.0
 10
286.5780627503004
 20
318.2680939128692
 30
0.0
 10
286.3019168076297
 20
318.2680939128692
 30
0.0
 10
286.3019168076297
 20
318.2680939128692
 30
0.0
 10
280.3019166422367
 20
318.2680939128692
 30
0.0
 10
280.3019166422367
 20
318.2680939128692
 30
0.0
 10
280.0257745142634
 20
318.2680939128692
 30
0.0
 10
279.8019166284539
 20
318.0442360270598
 30
0.0
 10
279.8019166284539
 20
317.7680938990864
 30
0.0
 10
279.8019166284539
 20
317.7680938990864
 30
0.0
 10
279.8019166284539
 20
303.7680935131694
 30
0.0
 10
279.8019166284539
 20
303.7680935131694
 30
0.0
 10
279.8019166284539
 20
303.4919475704987
 30
0.0
 10
280.0257745142634
 20
303.2680934993866
 30
0.0
 10
280.3019166422367
 20
303.2680934993866
 30
0.0
 10
280.3019166422367
 20
303.2680934993866
 30
0.0
 10
286.3019168076297
 20
303.2680934993866
 30
0.0
 10
286.3019168076297
 20
303.2680934993866
 30
0.0
 10
286.5780627503004
 20
303.2680934993866
 30
0.0
 10
286.8019168214125
 20
303.4919475704987
 30
0.0
 10
286.8019168214125
 20
303.7680935131694
 30
0.0
 10
286.8019168214125
 20
303.7680935131694
 30
0.0
 10
286.8019168214125
 20
317.7680938990864
 30
0.0
 10
286.8019168214125
 20
317.7680938990864
 30
0.0
  0
SPLINE
  5
81
330
70
100
AcDbEntity
  8
0
 62
    18
420
        0
370
    25
100
AcDbSpline
210
0.0
220
0.0
230
1.0
 70
     9
 71
     3
 72
    29
 73
    25
 74
     0
 42
0.0000000001
 43
0.0000000001
 40
0.0
 40
0.0
 40
0.0
 40
0.0
 40
1.0
 40
1.0
 40
1.0
 40
2.0
 40
2.0
 40
2.0
 40
3.0
 40
3.0
 40
3.0
 40
4.0
 40
4.0
 40
4.0
 40
5.0
 40
5.0
 40
5.0
 40
6.0
 40
6.0
 40
6.0
 40
7.0
 40
7.0
 40
7.0
 40
8.0
 40
8.0
 40
8.0
 40
8.0
 10
401.1019153945124
 20
317.7680938990864
 30
0.0
 10
401.1019153945124
 20
318.0442360270598
 30
0.0
 10
400.8780536940055
 20
318.2680939128692
 30
0.0
 10
400.6019153807296
 20
318.2680939128692
 30
0.0
 10
400.6019153807296
 20
318.2680939128692
 30
0.0
 10
394.6019152153366
 20
318.2680939128692
 30
0.0
 10
394.6019152153366
 20
318.2680939128692
 30
0.0
 10
394.3257769020607
 20
318.2680939128692
 30
0.0
 10
394.1019152015539
 20
318.0442360270598
 30
0.0
 10
394.1019152015539
 20
317.7680938990864
 30
0.0
 10
394.1019152015539
 20
317.7680938990864
 30
0.0
 10
394.1019152015539
 20
303.7680935131694
 30
0.0
 10
394.1019152015539
 20
303.7680935131694
 30
0.0
 10
394.1019152015539
 20
303.4919475704987
 30
0.0
 10
394.3257769020607
 20
303.2680934993866
 30
0.0
 10
394.6019152153366
 20
303.2680934993866
 30
0.0
 10
394.6019152153366
 20
303.2680934993866
 30
0.0
 10
400.6019153807296
 20
303.2680934993866
 30
0.0
 10
400.6019153807296
 20
303.2680934993866
 30
0.0
 10
400.8780536940055
 20
303.2680934993866
 30
0.0
 10
401.1019153945124
 20
303.4919475704987
 30
0.0
 10
401.1019153945124
 20
303.7680935131694
 30
0.0
 10
401.1019153945124
 20
303.7680935131694
 30
0.0
 10
401.1019153945124
 20
317.7680938990864
 30
0.0
 10
401.1019153945124
 20
317.7680938990864
 30
0.0
  0
SPLINE
  5
82
330
70
100
AcDbEntity
  8
0
 62
    18
420
        0
370
    25
100
AcDbSpline
210
0.0
220
0.0
230
1.0
 70
     9
 71
     3
 72
    29
 73
    25
 74
     0
 42
0.0000000001
 43
0.0000000001
 40
0.0
 40
0.0
 40
0.0
 40
0.0
 40
1.0
 40
1.0
 40
1.0
 40
2.0
 40
2.0
 40
2.0
 40
3.0
 40
3.0
 40
3.0
 40
4.0
 40
4.0
 40
4.0
 40
5.0
 40
5.0
 40
5.0
 40
6.0
 40
6.0
 40
6.0
 40
7.0
 40
7.0
 40
7.0
 40
8.0
 40
8.0
 40
8.0
 40
8.0
 10
333.451919633222
 20
360.9180966144167
 30
0.0
 10
333.451919633222
 20
360.6419544864434
 30
0.0
 10
333.675773704334
 20
360.418096600634
 30
0.0
 10
333.9519196470048
 20
360.418096600634
 30
0.0
 10
333.9519196470048
 20
360.418096600634
 30
0.0
 10
346.9519200053563
 20
360.418096600634
 30
0.0
 10
346.9519200053563
 20
360.418096600634
 30
0.0
 10
347.2280583186322
 20
360.418096600634
 30
0.0
 10
347.451920019139
 20
360.6419544864434
 30
0.0
 10
347.451920019139
 20
360.9180966144167
 30
0.0
 10
347.451920019139
 20
360.9180966144167
 30
0.0
 10
347.451920019139
 20
373.9180969727682
 30
0.0
 10
347.451920019139
 20
373.9180969727682
 30
0.0
 10
347.451920019139
 20
374.1942393540613
 30
0.0
 10
347.2280583186322
 20
374.418096986551
 30
0.0
 10
346.9519200053563
 20
374.418096986551
 30
0.0
 10
346.9519200053563
 20
374.418096986551
 30
0.0
 10
333.9519196470048
 20
374.418096986551
 30
0.0
 10
333.9519196470048
 20
374.418096986551
 30
0.0
 10
333.675773704334
 20
374.418096986551
 30
0.0
 10
333.451919633222
 20
374.1942393540613
 30
0.0
 10
333.451919633222
 20
373.9180969727682
 30
0.0
 10
333.451919633222
 20
373.9180969727682
 30
0.0
 10
333.451919633222
 20
360.9180966144167
 30
0.0
 10
333.451919633222
 20
360.9180966144167
 30
0.0
  0
SPLINE
  5
83
330
70
100
AcDbEntity
  8
0
 62
    18
420
        0
370
    25
100
AcDbSpline
210
0.0
220
0.0
230
1.0
 70
     9
 71
     3
 72
    29
 73
    25
 74
     0
 42
0.0000000001
 43
0.0000000001
 40
0.0
 40
0.0
 40
0.0
 40
0.0
 40
1.0
 40
1.0
 40
1.0
 40
2.0
 40
2.0
 40
2.0
 40
3.0
 40
3.0
 40
3.0
 40
4.0
 40
4.0
 40
4.0
 40
5.0
 40
5.0
 40
5.0
 40
6.0
 40
6.0
 40
6.0
 40
7.0
 40
7.0
 40
7.0
 40
8.0
 40
8.0
 40
8.0
 40
8.0
 10
271.5394156377545
 20
322.81809709005
 30
0.0
 10
271.5394156377545
 20
322.5419549620768
 30
0.0
 10
271.7632735235639
 20
322.3180970762673
 30
0.0
 10
272.0394156515373
 20
322.3180970762673
 30
0.0
 10
272.0394156515373
 20
322.3180970762673
 30
0.0
 10
285.0394121951914
 20
322.3180970762673
 30
0.0
 10
285.0394121951914
 20
322.3180970762673
 30
0.0
 10
285.3155581378621
 20
322.3180970762673
 30
0.0
 10
285.5394122089742
 20
322.5419549620768
 30
0.0
 10
285.5394122089742
 20
322.81809709005
 30
0.0
 10
285.5394122089742
 20
322.81809709005
 30
0.0
 10
285.5394122089742
 20
335.8180974484016
 30
0.0
 10
285.5394122089742
 20
335.8180974484016
 30
0.0
 10
285.5394122089742
 20
336.0942395763749
 30
0.0
 10
285.3155581378621
 20
336.3180974621844
 30
0.0
 10
285.0394121951914
 20
336.3180974621844
 30
0.0
 10
285.0394121951914
 20
336.3180974621844
 30
0.0
 10
272.0394156515373
 20
336.3180974621844
 30
0.0
 10
272.0394156515373
 20
336.3180974621844
 30
0.0
 10
271.7632735235639
 20
336.3180974621844
 30
0.0
 10
271.5394156377545
 20
336.0942395763749
 30
0.0
 10
271.5394156377545
 20
335.8180974484016
 30
0.0
 10
271.5394156377545
 20
335.8180974484016
 30
0.0
 10
271.5394156377545
 20
322.81809709005
 30
0.0
 10
271.5394156377545
 20
322.81809709005
 30
0.0
  0
SPLINE
  5
84
330
70
100
AcDbEntity
  8
0
 62
    18
420
        0
370
    25
100
AcDbSpline
210
0.0
220
0.0
230
1.0
 70
     9
 71
     3
 72
    29
 73
    25
 74
     0
 42
0.0000000001
 43
0.0000000001
 40
0.0
 40
0.0
 40
0.0
 40
0.0
 40
1.0
 40
1.0
 40
1.0
 40
2.0
 40
2.0
 40
2.0
 40
3.0
 40
3.0
 40
3.0
 40
4.0
 40
4.0
 40
4.0
 40
5.0
 40
5.0
 40
5.0
 40
6.0
 40
6.0
 40
6.0
 40
7.0
 40
7.0
 40
7.0
 40
8.0
 40
8.0
 40
8.0
 40
8.0
 10
219.1519134307274
 20
360.9180966144167
 30
0.0
 10
219.1519134307274
 20
360.6419544864434
 30
0.0
 10
219.3757710632171
 20
360.418096600634
 30
0.0
 10
219.6519134445101
 20
360.418096600634
 30
0.0
 10
219.6519134445101
 20
360.418096600634
 30
0.0
 10
232.6519138028616
 20
360.418096600634
 30
0.0
 10
232.6519138028616
 20
360.418096600634
 30
0.0
 10
232.928055930835
 20
360.418096600634
 30
0.0
 10
233.1519138166444
 20
360.6419544864434
 30
0.0
 10
233.1519138166444
 20
360.9180966144167
 30
0.0
 10
233.1519138166444
 20
360.9180966144167
 30
0.0
 10
233.1519138166444
 20
373.9180969727682
 30
0.0
 10
233.1519138166444
 20
373.9180969727682
 30
0.0
 10
233.1519138166444
 20
374.1942393540613
 30
0.0
 10
232.928055930835
 20
374.418096986551
 30
0.0
 10
232.6519138028616
 20
374.418096986551
 30
0.0
 10
232.6519138028616
 20
374.418096986551
 30
0.0
 10
219.6519134445101
 20
374.418096986551
 30
0.0
 10
219.6519134445101
 20
374.418096986551
 30
0.0
 10
219.3757710632171
 20
374.418096986551
 30
0.0
 10
219.1519134307274
 20
374.1942393540613
 30
0.0
 10
219.1519134307274
 20
373.9180969727682
 30
0.0
 10
219.1519134307274
 20
373.9180969727682
 30
0.0
 10
219.1519134307274
 20
360.9180966144167
 30
0.0
 10
219.1519134307274
 20
360.9180966144167
 30
0.0
  0
SPLINE
  5
85
330
70
100
AcDbEntity
  8
0
 62
    18
420
        0
370
    25
100
AcDbSpline
210
0.0
220
0.0
230
1.0
 70
     9
 71
     3
 72
    29
 73
    25
 74
     0
 42
0.0000000001
 43
0.0000000001
 40
0.0
 40
0.0
 40
0.0
 40
0.0
 40
1.0
 40
1.0
 40
1.0
 40
2.0
 40
2.0
 40
2.0
 40
3.0
 40
3.0
 40
3.0
 40
4.0
 40
4.0
 40
4.0
 40
5.0
 40
5.0
 40
5.0
 40
6.0
 40
6.0
 40
6.0
 40
7.0
 40
7.0
 40
7.0
 40
8.0
 40
8.0
 40
8.0
 40
8.0
 10
362.0269173691483
 20
303.7680935131694
 30
0.0
 10
362.0269173691483
 20
303.4919475704987
 30
0.0
 10
362.2507790696551
 20
303.2680934993866
 30
0.0
 10
362.5269173829311
 20
303.2680934993866
 30
0.0
 10
362.5269173829311
 20
303.2680934993866
 30
0.0
 10
375.5269177412826
 20
303.2680934993866
 30
0.0
 10
375.5269177412826
 20
303.2680934993866
 30
0.0
 10
375.8030560545585
 20
303.2680934993866
 30
0.0
 10
376.0269177550653
 20
303.4919475704987
 30
0.0
 10
376.0269177550653
 20
303.7680935131694
 30
0.0
 10
376.0269177550653
 20
303.7680935131694
 30
0.0
 10
376.0269177550653
 20
316.7680938715209
 30
0.0
 10
376.0269177550653
 20
316.7680938715209
 30
0.0
 10
376.0269177550653
 20
317.0442359994942
 30
0.0
 10
375.8030560545585
 20
317.2680938853036
 30
0.0
 10
375.5269177412826
 20
317.2680938853036
 30
0.0
 10
375.5269177412826
 20
317.2680938853036
 30
0.0
 10
362.5269173829311
 20
317.2680938853036
 30
0.0
 10
362.5269173829311
 20
317.2680938853036
 30
0.0
 10
362.2507790696551
 20
317.2680938853036
 30
0.0
 10
362.0269173691483
 20
317.0442359994942
 30
0.0
 10
362.0269173691483
 20
316.7680938715209
 30
0.0
 10
362.0269173691483
 20
316.7680938715209
 30
0.0
 10
362.0269173691483
 20
303.7680935131694
 30
0.0
 10
362.0269173691483
 20
303.7680935131694
 30
0.0
  0
SPLINE
  5
86
330
70
100
AcDbEntity
  8
0
 62
    18
420
        0
370
    25
100
AcDbSpline
210
0.0
220
0.0
230
1.0
 70
     9
 71
     3
 72
    29
 73
    25
 74
     0
 42
0.0000000001
 43
0.0000000001
 40
0.0
 40
0.0
 40
0.0
 40
0.0
 40
1.0
 40
1.0
 40
1.0
 40
2.0
 40
2.0
 40
2.0
 40
3.0
 40
3.0
 40
3.0
 40
4.0
 40
4.0
 40
4.0
 40
5.0
 40
5.0
 40
5.0
 40
6.0
 40
6.0
 40
6.0
 40
7.0
 40
7.0
 40
7.0
 40
8.0
 40
8.0
 40
8.0
 40
8.0
 10
404.8894216024325
 20
322.81809709005
 30
0.0
 10
404.8894216024325
 20
322.5419549620768
 30
0.0
 10
405.1132833029392
 20
322.3180970762673
 30
0.0
 10
405.3894216162152
 20
322.3180970762673
 30
0.0
 10
405.3894216162152
 20
322.3180970762673
 30
0.0
 10
418.3894219745667
 20
322.3180970762673
 30
0.0
 10
418.3894219745667
 20
322.3180970762673
 30
0.0
 10
418.6655602878427
 20
322.3180970762673
 30
0.0
 10
418.8894219883494
 20
322.5419549620768
 30
0.0
 10
418.8894219883494
 20
322.81809709005
 30
0.0
 10
418.8894219883494
 20
322.81809709005
 30
0.0
 10
418.8894219883494
 20
335.8180974484016
 30
0.0
 10
418.8894219883494
 20
335.8180974484016
 30
0.0
 10
418.8894219883494
 20
336.0942395763749
 30
0.0
 10
418.6655602878427
 20
336.3180974621844
 30
0.0
 10
418.3894219745667
 20
336.3180974621844
 30
0.0
 10
418.3894219745667
 20
336.3180974621844
 30
0.0
 10
405.3894216162152
 20
336.3180974621844
 30
0.0
 10
405.3894216162152
 20
336.3180974621844
 30
0.0
 10
405.1132833029392
 20
336.3180974621844
 30
0.0
 10
404.8894216024325
 20
336.0942395763749
 30
0.0
 10
404.8894216024325
 20
335.8180974484016
 30
0.0
 10
404.8894216024325
 20
335.8180974484016
 30
0.0
 10
404.8894216024325
 20
322.81809709005
 30
0.0
 10
404.8894216024325
 20
322.81809709005
 30
0.0
  0
SPLINE
  5
87
330
70
100
AcDbEntity
  8
0
 62
    18
420
        0
370
    25
100
AcDbSpline
210
0.0
220
0.0
230
1.0
 70
     9
 71
     3
 72
    29
 73
    25
 74
     0
 42
0.0000000001
 43
0.0000000001
 40
0.0
 40
0.0
 40
0.0
 40
0.0
 40
1.0
 40
1.0
 40
1.0
 40
2.0
 40
2.0
 40
2.0
 40
3.0
 40
3.0
 40
3.0
 40
4.0
 40
4.0
 40
4.0
 40
5.0
 40
5.0
 40
5.0
 40
6.0
 40
6.0
 40
6.0
 40
7.0
 40
7.0
 40
7.0
 40
8.0
 40
8.0
 40
8.0
 40
8.0
 10
385.8394180255518
 20
322.81809709005
 30
0.0
 10
385.8394180255518
 20
322.5419549620768
 30
0.0
 10
386.0632797260586
 20
322.3180970762673
 30
0.0
 10
386.3394180393346
 20
322.3180970762673
 30
0.0
 10
386.3394180393346
 20
322.3180970762673
 30
0.0
 10
399.3394183976861
 20
322.3180970762673
 30
0.0
 10
399.3394183976861
 20
322.3180970762673
 30
0.0
 10
399.6155567109621
 20
322.3180970762673
 30
0.0
 10
399.8394184114689
 20
322.5419549620768
 30
0.0
 10
399.8394184114689
 20
322.81809709005
 30
0.0
 10
399.8394184114689
 20
322.81809709005
 30
0.0
 10
399.8394184114689
 20
335.8180974484016
 30
0.0
 10
399.8394184114689
 20
335.8180974484016
 30
0.0
 10
399.8394184114689
 20
336.0942395763749
 30
0.0
 10
399.6155567109621
 20
336.3180974621844
 30
0.0
 10
399.3394183976861
 20
336.3180974621844
 30
0.0
 10
399.3394183976861
 20
336.3180974621844
 30
0.0
 10
386.3394180393346
 20
336.3180974621844
 30
0.0
 10
386.3394180393346
 20
336.3180974621844
 30
0.0
 10
386.0632797260586
 20
336.3180974621844
 30
0.0
 10
385.8394180255518
 20
336.0942395763749
 30
0.0
 10
385.8394180255518
 20
335.8180974484016
 30
0.0
 10
385.8394180255518
 20
335.8180974484016
 30
0.0
 10
385.8394180255518
 20
322.81809709005
 30
0.0
 10
385.8394180255518
 20
322.81809709005
 30
0.0
  0
SPLINE
  5
88
330
70
100
AcDbEntity
  8
0
 62
    18
420
        0
370
    25
100
AcDbSpline
210
0.0
220
0.0
230
1.0
 70
     9
 71
     3
 72
    29
 73
    25
 74
     0
 42
0.0000000001
 43
0.0000000001
 40
0.0
 40
0.0
 40
0.0
 40
0.0
 40
1.0
 40
1.0
 40
1.0
 40
2.0
 40
2.0
 40
2.0
 40
3.0
 40
3.0
 40
3.0
 40
4.0
 40
4.0
 40
4.0
 40
5.0
 40
5.0
 40
5.0
 40
6.0
 40
6.0
 40
6.0
 40
7.0
 40
7.0
 40
7.0
 40
8.0
 40
8.0
 40
8.0
 40
8.0
 10
366.7894144486711
 20
322.81809709005
 30
0.0
 10
366.7894144486711
 20
322.5419549620768
 30
0.0
 10
367.0132761491779
 20
322.3180970762673
 30
0.0
 10
367.2894144624539
 20
322.3180970762673
 30
0.0
 10
367.2894144624539
 20
322.3180970762673
 30
0.0
 10
380.2894148208054
 20
322.3180970762673
 30
0.0
 10
380.2894148208054
 20
322.3180970762673
 30
0.0
 10
380.5655531340813
 20
322.3180970762673
 30
0.0
 10
380.7894148345881
 20
322.5419549620768
 30
0.0
 10
380.7894148345881
 20
322.81809709005
 30
0.0
 10
380.7894148345881
 20
322.81809709005
 30
0.0
 10
380.7894148345881
 20
335.8180974484016
 30
0.0
 10
380.7894148345881
 20
335.8180974484016
 30
0.0
 10
380.7894148345881
 20
336.0942395763749
 30
0.0
 10
380.5655531340813
 20
336.3180974621844
 30
0.0
 10
380.2894148208054
 20
336.3180974621844
 30
0.0
 10
380.2894148208054
 20
336.3180974621844
 30
0.0
 10
367.2894144624539
 20
336.3180974621844
 30
0.0
 10
367.2894144624539
 20
336.3180974621844
 30
0.0
 10
367.0132761491779
 20
336.3180974621844
 30
0.0
 10
366.7894144486711
 20
336.0942395763749
 30
0.0
 10
366.7894144486711
 20
335.8180974484016
 30
0.0
 10
366.7894144486711
 20
335.8180974484016
 30
0.0
 10
366.7894144486711
 20
322.81809709005
 30
0.0
 10
366.7894144486711
 20
322.81809709005
 30
0.0
  0
SPLINE
  5
89
330
70
100
AcDbEntity
  8
0
 62
    18
420
        0
370
    25
100
AcDbSpline
210
0.0
220
0.0
230
1.0
 70
     9
 71
     3
 72
    29
 73
    25
 74
     0
 42
0.0000000001
 43
0.0000000001
 40
0.0
 40
0.0
 40
0.0
 40
0.0
 40
1.0
 40
1.0
 40
1.0
 40
2.0
 40
2.0
 40
2.0
 40
3.0
 40
3.0
 40
3.0
 40
4.0
 40
4.0
 40
4.0
 40
5.0
 40
5.0
 40
5.0
 40
6.0
 40
6.0
 40
6.0
 40
7.0
 40
7.0
 40
7.0
 40
8.0
 40
8.0
 40
8.0
 40
8.0
 10
347.7394108717904
 20
322.81809709005
 30
0.0
 10
347.7394108717904
 20
322.5419549620768
 30
0.0
 10
347.9632725722972
 20
322.3180970762673
 30
0.0
 10
348.2394108855732
 20
322.3180970762673
 30
0.0
 10
348.2394108855732
 20
322.3180970762673
 30
0.0
 10
361.2394112439247
 20
322.3180970762673
 30
0.0
 10
361.2394112439247
 20
322.3180970762673
 30
0.0
 10
361.5155495572007
 20
322.3180970762673
 30
0.0
 10
361.7394112577074
 20
322.5419549620768
 30
0.0
 10
361.7394112577074
 20
322.81809709005
 30
0.0
 10
361.7394112577074
 20
322.81809709005
 30
0.0
 10
361.7394112577074
 20
335.8180974484016
 30
0.0
 10
361.7394112577074
 20
335.8180974484016
 30
0.0
 10
361.7394112577074
 20
336.0942395763749
 30
0.0
 10
361.5155495572007
 20
336.3180974621844
 30
0.0
 10
361.2394112439247
 20
336.3180974621844
 30
0.0
 10
361.2394112439247
 20
336.3180974621844
 30
0.0
 10
348.2394108855732
 20
336.3180974621844
 30
0.0
 10
348.2394108855732
 20
336.3180974621844
 30
0.0
 10
347.9632725722972
 20
336.3180974621844
 30
0.0
 10
347.7394108717904
 20
336.0942395763749
 30
0.0
 10
347.7394108717904
 20
335.8180974484016
 30
0.0
 10
347.7394108717904
 20
335.8180974484016
 30
0.0
 10
347.7394108717904
 20
322.81809709005
 30
0.0
 10
347.7394108717904
 20
322.81809709005
 30
0.0
  0
SPLINE
  5
8A
330
70
100
AcDbEntity
  8
0
 62
    18
420
        0
370
    25
100
AcDbSpline
210
0.0
220
0.0
230
1.0
 70
     9
 71
     3
 72
    29
 73
    25
 74
     0
 42
0.0000000001
 43
0.0000000001
 40
0.0
 40
0.0
 40
0.0
 40
0.0
 40
1.0
 40
1.0
 40
1.0
 40
2.0
 40
2.0
 40
2.0
 40
3.0
 40
3.0
 40
3.0
 40
4.0
 40
4.0
 40
4.0
 40
5.0
 40
5.0
 40
5.0
 40
6.0
 40
6.0
 40
6.0
 40
7.0
 40
7.0
 40
7.0
 40
8.0
 40
8.0
 40
8.0
 40
8.0
 10
328.6894149243045
 20
322.81809709005
 30
0.0
 10
328.6894149243045
 20
322.5419549620768
 30
0.0
 10
328.9132689954166
 20
322.3180970762673
 30
0.0
 10
329.1894149380869
 20
322.3180970762673
 30
0.0
 10
329.1894149380869
 20
322.3180970762673
 30
0.0
 10
342.1894152964388
 20
322.3180970762673
 30
0.0
 10
342.1894152964388
 20
322.3180970762673
 30
0.0
 10
342.4655612391094
 20
322.3180970762673
 30
0.0
 10
342.6894153102215
 20
322.5419549620768
 30
0.0
 10
342.6894153102215
 20
322.81809709005
 30
0.0
 10
342.6894153102215
 20
322.81809709005
 30
0.0
 10
342.6894153102215
 20
335.8180974484016
 30
0.0
 10
342.6894153102215
 20
335.8180974484016
 30
0.0
 10
342.6894153102215
 20
336.0942395763749
 30
0.0
 10
342.4655612391094
 20
336.3180974621844
 30
0.0
 10
342.1894152964388
 20
336.3180974621844
 30
0.0
 10
342.1894152964388
 20
336.3180974621844
 30
0.0
 10
329.1894149380869
 20
336.3180974621844
 30
0.0
 10
329.1894149380869
 20
336.3180974621844
 30
0.0
 10
328.9132689954166
 20
336.3180974621844
 30
0.0
 10
328.6894149243045
 20
336.0942395763749
 30
0.0
 10
328.6894149243045
 20
335.8180974484016
 30
0.0
 10
328.6894149243045
 20
335.8180974484016
 30
0.0
 10
328.6894149243045
 20
322.81809709005
 30
0.0
 10
328.6894149243045
 20
322.81809709005
 30
0.0
  0
SPLINE
  5
8B
330
70
100
AcDbEntity
  8
0
 62
    18
420
        0
370
    25
100
AcDbSpline
210
0.0
220
0.0
230
1.0
 70
     9
 71
     3
 72
    29
 73
    25
 74
     0
 42
0.0000000001
 43
0.0000000001
 40
0.0
 40
0.0
 40
0.0
 40
0.0
 40
1.0
 40
1.0
 40
1.0
 40
2.0
 40
2.0
 40
2.0
 40
3.0
 40
3.0
 40
3.0
 40
4.0
 40
4.0
 40
4.0
 40
5.0
 40
5.0
 40
5.0
 40
6.0
 40
6.0
 40
6.0
 40
7.0
 40
7.0
 40
7.0
 40
8.0
 40
8.0
 40
8.0
 40
8.0
 10
309.6394189768186
 20
322.81809709005
 30
0.0
 10
309.6394189768186
 20
322.5419549620768
 30
0.0
 10
309.8632730479306
 20
322.3180970762673
 30
0.0
 10
310.1394189906013
 20
322.3180970762673
 30
0.0
 10
310.1394189906013
 20
322.3180970762673
 30
0.0
 10
323.1394193489528
 20
322.3180970762673
 30
0.0
 10
323.1394193489528
 20
322.3180970762673
 30
0.0
 10
323.4155652916235
 20
322.3180970762673
 30
0.0
 10
323.6394193627356
 20
322.5419549620768
 30
0.0
 10
323.6394193627356
 20
322.81809709005
 30
0.0
 10
323.6394193627356
 20
322.81809709005
 30
0.0
 10
323.6394193627356
 20
335.8180974484016
 30
0.0
 10
323.6394193627356
 20
335.8180974484016
 30
0.0
 10
323.6394193627356
 20
336.0942395763749
 30
0.0
 10
323.4155652916235
 20
336.3180974621844
 30
0.0
 10
323.1394193489528
 20
336.3180974621844
 30
0.0
 10
323.1394193489528
 20
336.3180974621844
 30
0.0
 10
310.1394189906013
 20
336.3180974621844
 30
0.0
 10
310.1394189906013
 20
336.3180974621844
 30
0.0
 10
309.8632730479306
 20
336.3180974621844
 30
0.0
 10
309.6394189768186
 20
336.0942395763749
 30
0.0
 10
309.6394189768186
 20
335.8180974484016
 30
0.0
 10
309.6394189768186
 20
335.8180974484016
 30
0.0
 10
309.6394189768186
 20
322.81809709005
 30
0.0
 10
309.6394189768186
 20
322.81809709005
 30
0.0
  0
SPLINE
  5
8C
330
70
100
AcDbEntity
  8
0
 62
    18
420
        0
370
    25
100
AcDbSpline
210
0.0
220
0.0
230
1.0
 70
     9
 71
     3
 72
    29
 73
    25
 74
     0
 42
0.0000000001
 43
0.0000000001
 40
0.0
 40
0.0
 40
0.0
 40
0.0
 40
1.0
 40
1.0
 40
1.0
 40
2.0
 40
2.0
 40
2.0
 40
3.0
 40
3.0
 40
3.0
 40
4.0
 40
4.0
 40
4.0
 40
5.0
 40
5.0
 40
5.0
 40
6.0
 40
6.0
 40
6.0
 40
7.0
 40
7.0
 40
7.0
 40
8.0
 40
8.0
 40
8.0
 40
8.0
 10
290.5894153999378
 20
322.81809709005
 30
0.0
 10
290.5894153999378
 20
322.5419549620768
 30
0.0
 10
290.8132694710499
 20
322.3180970762673
 30
0.0
 10
291.0894154137206
 20
322.3180970762673
 30
0.0
 10
291.0894154137206
 20
322.3180970762673
 30
0.0
 10
304.0894157720722
 20
322.3180970762673
 30
0.0
 10
304.0894157720722
 20
322.3180970762673
 30
0.0
 10
304.3655617147428
 20
322.3180970762673
 30
0.0
 10
304.5894157858549
 20
322.5419549620768
 30
0.0
 10
304.5894157858549
 20
322.81809709005
 30
0.0
 10
304.5894157858549
 20
322.81809709005
 30
0.0
 10
304.5894157858549
 20
335.8180974484016
 30
0.0
 10
304.5894157858549
 20
335.8180974484016
 30
0.0
 10
304.5894157858549
 20
336.0942395763749
 30
0.0
 10
304.3655617147428
 20
336.3180974621844
 30
0.0
 10
304.0894157720722
 20
336.3180974621844
 30
0.0
 10
304.0894157720722
 20
336.3180974621844
 30
0.0
 10
291.0894154137206
 20
336.3180974621844
 30
0.0
 10
291.0894154137206
 20
336.3180974621844
 30
0.0
 10
290.8132694710499
 20
336.3180974621844
 30
0.0
 10
290.5894153999378
 20
336.0942395763749
 30
0.0
 10
290.5894153999378
 20
335.8180974484016
 30
0.0
 10
290.5894153999378
 20
335.8180974484016
 30
0.0
 10
290.5894153999378
 20
322.81809709005
 30
0.0
 10
290.5894153999378
 20
322.81809709005
 30
0.0
  0
SPLINE
  5
8D
330
70
100
AcDbEntity
  8
0
 62
    18
420
        0
370
    25
100
AcDbSpline
210
0.0
220
0.0
230
1.0
 70
     9
 71
     3
 72
    29
 73
    25
 74
     0
 42
0.0000000001
 43
0.0000000001
 40
0.0
 40
0.0
 40
0.0
 40
0.0
 40
1.0
 40
1.0
 40
1.0
 40
2.0
 40
2.0
 40
2.0
 40
3.0
 40
3.0
 40
3.0
 40
4.0
 40
4.0
 40
4.0
 40
5.0
 40
5.0
 40
5.0
 40
6.0
 40
6.0
 40
6.0
 40
7.0
 40
7.0
 40
7.0
 40
8.0
 40
8.0
 40
8.0
 40
8.0
 10
252.4894158755712
 20
322.81809709005
 30
0.0
 10
252.4894158755712
 20
322.5419549620768
 30
0.0
 10
252.7132737613806
 20
322.3180970762673
 30
0.0
 10
252.989415889354
 20
322.3180970762673
 30
0.0
 10
252.989415889354
 20
322.3180970762673
 30
0.0
 10
265.9894162477055
 20
322.3180970762673
 30
0.0
 10
265.9894162477055
 20
322.3180970762673
 30
0.0
 10
266.2655583756788
 20
322.3180970762673
 30
0.0
 10
266.4894162614882
 20
322.5419549620768
 30
0.0
 10
266.4894162614882
 20
322.81809709005
 30
0.0
 10
266.4894162614882
 20
322.81809709005
 30
0.0
 10
266.4894162614882
 20
335.8180974484016
 30
0.0
 10
266.4894162614882
 20
335.8180974484016
 30
0.0
 10
266.4894162614882
 20
336.0942395763749
 30
0.0
 10
266.2655583756788
 20
336.3180974621844
 30
0.0
 10
265.9894162477055
 20
336.3180974621844
 30
0.0
 10
265.9894162477055
 20
336.3180974621844
 30
0.0
 10
252.989415889354
 20
336.3180974621844
 30
0.0
 10
252.989415889354
 20
336.3180974621844
 30
0.0
 10
252.7132737613806
 20
336.3180974621844
 30
0.0
 10
252.4894158755712
 20
336.0942395763749
 30
0.0
 10
252.4894158755712
 20
335.8180974484016
 30
0.0
 10
252.4894158755712
 20
335.8180974484016
 30
0.0
 10
252.4894158755712
 20
322.81809709005
 30
0.0
 10
252.4894158755712
 20
322.81809709005
 30
0.0
  0
SPLINE
  5
8E
330
70
100
AcDbEntity
  8
0
 62
    18
420
        0
370
    25
100
AcDbSpline
210
0.0
220
0.0
230
1.0
 70
     9
 71
     3
 72
    29
 73
    25
 74
     0
 42
0.0000000001
 43
0.0000000001
 40
0.0
 40
0.0
 40
0.0
 40
0.0
 40
1.0
 40
1.0
 40
1.0
 40
2.0
 40
2.0
 40
2.0
 40
3.0
 40
3.0
 40
3.0
 40
4.0
 40
4.0
 40
4.0
 40
5.0
 40
5.0
 40
5.0
 40
6.0
 40
6.0
 40
6.0
 40
7.0
 40
7.0
 40
7.0
 40
8.0
 40
8.0
 40
8.0
 40
8.0
 10
226.2956638183835
 20
322.81809709005
 30
0.0
 10
226.2956638183835
 20
322.5419549620768
 30
0.0
 10
226.5195212273556
 20
322.3180970762673
 30
0.0
 10
226.7956638321662
 20
322.3180970762673
 30
0.0
 10
226.7956638321662
 20
322.3180970762673
 30
0.0
 10
239.7956632368432
 20
322.3180970762673
 30
0.0
 10
239.7956632368432
 20
322.3180970762673
 30
0.0
 10
240.0718053648165
 20
322.3180970762673
 30
0.0
 10
240.2956632506259
 20
322.5419549620768
 30
0.0
 10
240.2956632506259
 20
322.81809709005
 30
0.0
 10
240.2956632506259
 20
322.81809709005
 30
0.0
 10
240.2956632506259
 20
335.8180974484016
 30
0.0
 10
240.2956632506259
 20
335.8180974484016
 30
0.0
 10
240.2956632506259
 20
336.0942395763749
 30
0.0
 10
240.0718053648165
 20
336.3180974621844
 30
0.0
 10
239.7956632368432
 20
336.3180974621844
 30
0.0
 10
239.7956632368432
 20
336.3180974621844
 30
0.0
 10
226.7956638321662
 20
336.3180974621844
 30
0.0
 10
226.7956638321662
 20
336.3180974621844
 30
0.0
 10
226.5195212273556
 20
336.3180974621844
 30
0.0
 10
226.2956638183835
 20
336.0942395763749
 30
0.0
 10
226.2956638183835
 20
335.8180974484016
 30
0.0
 10
226.2956638183835
 20
335.8180974484016
 30
0.0
 10
226.2956638183835
 20
322.81809709005
 30
0.0
 10
226.2956638183835
 20
322.81809709005
 30
0.0
  0
SPLINE
  5
8F
330
70
100
AcDbEntity
  8
0
 62
    18
420
        0
370
    25
100
AcDbSpline
210
0.0
220
0.0
230
1.0
 70
     9
 71
     3
 72
    29
 73
    25
 74
     0
 42
0.0000000001
 43
0.0000000001
 40
0.0
 40
0.0
 40
0.0
 40
0.0
 40
1.0
 40
1.0
 40
1.0
 40
2.0
 40
2.0
 40
2.0
 40
3.0
 40
3.0
 40
3.0
 40
4.0
 40
4.0
 40
4.0
 40
5.0
 40
5.0
 40
5.0
 40
6.0
 40
6.0
 40
6.0
 40
7.0
 40
7.0
 40
7.0
 40
8.0
 40
8.0
 40
8.0
 40
8.0
 10
440.6081725870377
 20
341.8680968522334
 30
0.0
 10
440.6081725870377
 20
341.5919547242601
 30
0.0
 10
440.8320342875445
 20
341.3680968384507
 30
0.0
 10
441.1081726008204
 20
341.3680968384507
 30
0.0
 10
441.1081726008204
 20
341.3680968384507
 30
0.0
 10
454.108172959172
 20
341.3680968384507
 30
0.0
 10
454.108172959172
 20
341.3680968384507
 30
0.0
 10
454.384311272448
 20
341.3680968384507
 30
0.0
 10
454.6081729729547
 20
341.5919547242601
 30
0.0
 10
454.6081729729547
 20
341.8680968522334
 30
0.0
 10
454.6081729729547
 20
341.8680968522334
 30
0.0
 10
454.6081729729547
 20
354.8680972105849
 30
0.0
 10
454.6081729729547
 20
354.8680972105849
 30
0.0
 10
454.6081729729547
 20
355.1442393385582
 30
0.0
 10
454.384311272448
 20
355.3680972243677
 30
0.0
 10
454.108172959172
 20
355.3680972243677
 30
0.0
 10
454.108172959172
 20
355.3680972243677
 30
0.0
 10
441.1081726008204
 20
355.3680972243677
 30
0.0
 10
441.1081726008204
 20
355.3680972243677
 30
0.0
 10
440.8320342875445
 20
355.3680972243677
 30
0.0
 10
440.6081725870377
 20
355.1442393385582
 30
0.0
 10
440.6081725870377
 20
354.8680972105849
 30
0.0
 10
440.6081725870377
 20
354.8680972105849
 30
0.0
 10
440.6081725870377
 20
341.8680968522334
 30
0.0
 10
440.6081725870377
 20
341.8680968522334
 30
0.0
  0
SPLINE
  5
90
330
70
100
AcDbEntity
  8
0
 62
    18
420
        0
370
    25
100
AcDbSpline
210
0.0
220
0.0
230
1.0
 70
     9
 71
     3
 72
    29
 73
    25
 74
     0
 42
0.0000000001
 43
0.0000000001
 40
0.0
 40
0.0
 40
0.0
 40
0.0
 40
1.0
 40
1.0
 40
1.0
 40
2.0
 40
2.0
 40
2.0
 40
3.0
 40
3.0
 40
3.0
 40
4.0
 40
4.0
 40
4.0
 40
5.0
 40
5.0
 40
5.0
 40
6.0
 40
6.0
 40
6.0
 40
7.0
 40
7.0
 40
7.0
 40
8.0
 40
8.0
 40
8.0
 40
8.0
 10
414.414415761478
 20
341.8680968522334
 30
0.0
 10
414.414415761478
 20
341.5919547242601
 30
0.0
 10
414.6382774619849
 20
341.3680968384507
 30
0.0
 10
414.9144157752608
 20
341.3680968384507
 30
0.0
 10
414.9144157752608
 20
341.3680968384507
 30
0.0
 10
427.9144161336123
 20
341.3680968384507
 30
0.0
 10
427.9144161336123
 20
341.3680968384507
 30
0.0
 10
428.1905544468883
 20
341.3680968384507
 30
0.0
 10
428.4144161473951
 20
341.5919547242601
 30
0.0
 10
428.4144161473951
 20
341.8680968522334
 30
0.0
 10
428.4144161473951
 20
341.8680968522334
 30
0.0
 10
428.4144161473951
 20
354.8680972105849
 30
0.0
 10
428.4144161473951
 20
354.8680972105849
 30
0.0
 10
428.4144161473951
 20
355.1442393385582
 30
0.0
 10
428.1905544468883
 20
355.3680972243677
 30
0.0
 10
427.9144161336123
 20
355.3680972243677
 30
0.0
 10
427.9144161336123
 20
355.3680972243677
 30
0.0
 10
414.9144157752608
 20
355.3680972243677
 30
0.0
 10
414.9144157752608
 20
355.3680972243677
 30
0.0
 10
414.6382774619849
 20
355.3680972243677
 30
0.0
 10
414.414415761478
 20
355.1442393385582
 30
0.0
 10
414.414415761478
 20
354.8680972105849
 30
0.0
 10
414.414415761478
 20
354.8680972105849
 30
0.0
 10
414.414415761478
 20
341.8680968522334
 30
0.0
 10
414.414415761478
 20
341.8680968522334
 30
0.0
  0
SPLINE
  5
91
330
70
100
AcDbEntity
  8
0
 62
    18
420
        0
370
    25
100
AcDbSpline
210
0.0
220
0.0
230
1.0
 70
     9
 71
     3
 72
    29
 73
    25
 74
     0
 42
0.0000000001
 43
0.0000000001
 40
0.0
 40
0.0
 40
0.0
 40
0.0
 40
1.0
 40
1.0
 40
1.0
 40
2.0
 40
2.0
 40
2.0
 40
3.0
 40
3.0
 40
3.0
 40
4.0
 40
4.0
 40
4.0
 40
5.0
 40
5.0
 40
5.0
 40
6.0
 40
6.0
 40
6.0
 40
7.0
 40
7.0
 40
7.0
 40
8.0
 40
8.0
 40
8.0
 40
8.0
 10
395.3644121845974
 20
341.8680968522334
 30
0.0
 10
395.3644121845974
 20
341.5919547242601
 30
0.0
 10
395.5882738851043
 20
341.3680968384507
 30
0.0
 10
395.8644121983801
 20
341.3680968384507
 30
0.0
 10
395.8644121983801
 20
341.3680968384507
 30
0.0
 10
408.8644125567316
 20
341.3680968384507
 30
0.0
 10
408.8644125567316
 20
341.3680968384507
 30
0.0
 10
409.1405508700076
 20
341.3680968384507
 30
0.0
 10
409.3644125705144
 20
341.5919547242601
 30
0.0
 10
409.3644125705144
 20
341.8680968522334
 30
0.0
 10
409.3644125705144
 20
341.8680968522334
 30
0.0
 10
409.3644125705144
 20
354.8680972105849
 30
0.0
 10
409.3644125705144
 20
354.8680972105849
 30
0.0
 10
409.3644125705144
 20
355.1442393385582
 30
0.0
 10
409.1405508700076
 20
355.3680972243677
 30
0.0
 10
408.8644125567316
 20
355.3680972243677
 30
0.0
 10
408.8644125567316
 20
355.3680972243677
 30
0.0
 10
395.8644121983801
 20
355.3680972243677
 30
0.0
 10
395.8644121983801
 20
355.3680972243677
 30
0.0
 10
395.5882738851043
 20
355.3680972243677
 30
0.0
 10
395.3644121845974
 20
355.1442393385582
 30
0.0
 10
395.3644121845974
 20
354.8680972105849
 30
0.0
 10
395.3644121845974
 20
354.8680972105849
 30
0.0
 10
395.3644121845974
 20
341.8680968522334
 30
0.0
 10
395.3644121845974
 20
341.8680968522334
 30
0.0
  0
SPLINE
  5
92
330
70
100
AcDbEntity
  8
0
 62
    18
420
        0
370
    25
100
AcDbSpline
210
0.0
220
0.0
230
1.0
 70
     9
 71
     3
 72
    29
 73
    25
 74
     0
 42
0.0000000001
 43
0.0000000001
 40
0.0
 40
0.0
 40
0.0
 40
0.0
 40
1.0
 40
1.0
 40
1.0
 40
2.0
 40
2.0
 40
2.0
 40
3.0
 40
3.0
 40
3.0
 40
4.0
 40
4.0
 40
4.0
 40
5.0
 40
5.0
 40
5.0
 40
6.0
 40
6.0
 40
6.0
 40
7.0
 40
7.0
 40
7.0
 40
8.0
 40
8.0
 40
8.0
 40
8.0
 10
376.3144238665062
 20
341.8680968522334
 30
0.0
 10
376.3144238665062
 20
341.5919547242601
 30
0.0
 10
376.538285567013
 20
341.3680968384507
 30
0.0
 10
376.8144238802889
 20
341.3680968384507
 30
0.0
 10
376.8144238802889
 20
341.3680968384507
 30
0.0
 10
389.8144242386405
 20
341.3680968384507
 30
0.0
 10
389.8144242386405
 20
341.3680968384507
 30
0.0
 10
390.0905625519164
 20
341.3680968384507
 30
0.0
 10
390.3144242524232
 20
341.5919547242601
 30
0.0
 10
390.3144242524232
 20
341.8680968522334
 30
0.0
 10
390.3144242524232
 20
341.8680968522334
 30
0.0
 10
390.3144242524232
 20
354.8680972105849
 30
0.0
 10
390.3144242524232
 20
354.8680972105849
 30
0.0
 10
390.3144242524232
 20
355.1442393385582
 30
0.0
 10
390.0905625519164
 20
355.3680972243677
 30
0.0
 10
389.8144242386405
 20
355.3680972243677
 30
0.0
 10
389.8144242386405
 20
355.3680972243677
 30
0.0
 10
376.8144238802889
 20
355.3680972243677
 30
0.0
 10
376.8144238802889
 20
355.3680972243677
 30
0.0
 10
376.538285567013
 20
355.3680972243677
 30
0.0
 10
376.3144238665062
 20
355.1442393385582
 30
0.0
 10
376.3144238665062
 20
354.8680972105849
 30
0.0
 10
376.3144238665062
 20
354.8680972105849
 30
0.0
 10
376.3144238665062
 20
341.8680968522334
 30
0.0
 10
376.3144238665062
 20
341.8680968522334
 30
0.0
  0
SPLINE
  5
93
330
70
100
AcDbEntity
  8
0
 62
    18
420
        0
370
    25
100
AcDbSpline
210
0.0
220
0.0
230
1.0
 70
     9
 71
     3
 72
    29
 73
    25
 74
     0
 42
0.0000000001
 43
0.0000000001
 40
0.0
 40
0.0
 40
0.0
 40
0.0
 40
1.0
 40
1.0
 40
1.0
 40
2.0
 40
2.0
 40
2.0
 40
3.0
 40
3.0
 40
3.0
 40
4.0
 40
4.0
 40
4.0
 40
5.0
 40
5.0
 40
5.0
 40
6.0
 40
6.0
 40
6.0
 40
7.0
 40
7.0
 40
7.0
 40
8.0
 40
8.0
 40
8.0
 40
8.0
 10
357.2644202896255
 20
341.8680968522334
 30
0.0
 10
357.2644202896255
 20
341.5919547242601
 30
0.0
 10
357.4882819901323
 20
341.3680968384507
 30
0.0
 10
357.7644203034083
 20
341.3680968384507
 30
0.0
 10
357.7644203034083
 20
341.3680968384507
 30
0.0
 10
370.7644206617598
 20
341.3680968384507
 30
0.0
 10
370.7644206617598
 20
341.3680968384507
 30
0.0
 10
371.0405589750357
 20
341.3680968384507
 30
0.0
 10
371.2644206755425
 20
341.5919547242601
 30
0.0
 10
371.2644206755425
 20
341.8680968522334
 30
0.0
 10
371.2644206755425
 20
341.8680968522334
 30
0.0
 10
371.2644206755425
 20
354.8680972105849
 30
0.0
 10
371.2644206755425
 20
354.8680972105849
 30
0.0
 10
371.2644206755425
 20
355.1442393385582
 30
0.0
 10
371.0405589750357
 20
355.3680972243677
 30
0.0
 10
370.7644206617598
 20
355.3680972243677
 30
0.0
 10
370.7644206617598
 20
355.3680972243677
 30
0.0
 10
357.7644203034083
 20
355.3680972243677
 30
0.0
 10
357.7644203034083
 20
355.3680972243677
 30
0.0
 10
357.4882819901323
 20
355.3680972243677
 30
0.0
 10
357.2644202896255
 20
355.1442393385582
 30
0.0
 10
357.2644202896255
 20
354.8680972105849
 30
0.0
 10
357.2644202896255
 20
354.8680972105849
 30
0.0
 10
357.2644202896255
 20
341.8680968522334
 30
0.0
 10
357.2644202896255
 20
341.8680968522334
 30
0.0
  0
SPLINE
  5
94
330
70
100
AcDbEntity
  8
0
 62
    18
420
        0
370
    25
100
AcDbSpline
210
0.0
220
0.0
230
1.0
 70
     9
 71
     3
 72
    29
 73
    25
 74
     0
 42
0.0000000001
 43
0.0000000001
 40
0.0
 40
0.0
 40
0.0
 40
0.0
 40
1.0
 40
1.0
 40
1.0
 40
2.0
 40
2.0
 40
2.0
 40
3.0
 40
3.0
 40
3.0
 40
4.0
 40
4.0
 40
4.0
 40
5.0
 40
5.0
 40
5.0
 40
6.0
 40
6.0
 40
6.0
 40
7.0
 40
7.0
 40
7.0
 40
8.0
 40
8.0
 40
8.0
 40
8.0
 10
338.2144167127448
 20
341.8680968522334
 30
0.0
 10
338.2144167127448
 20
341.5919547242601
 30
0.0
 10
338.4382707838569
 20
341.3680968384507
 30
0.0
 10
338.7144167265276
 20
341.3680968384507
 30
0.0
 10
338.7144167265276
 20
341.3680968384507
 30
0.0
 10
351.7144170848791
 20
341.3680968384507
 30
0.0
 10
351.7144170848791
 20
341.3680968384507
 30
0.0
 10
351.990555398155
 20
341.3680968384507
 30
0.0
 10
352.2144170986619
 20
341.5919547242601
 30
0.0
 10
352.2144170986619
 20
341.8680968522334
 30
0.0
 10
352.2144170986619
 20
341.8680968522334
 30
0.0
 10
352.2144170986619
 20
354.8680972105849
 30
0.0
 10
352.2144170986619
 20
354.8680972105849
 30
0.0
 10
352.2144170986619
 20
355.1442393385582
 30
0.0
 10
351.990555398155
 20
355.3680972243677
 30
0.0
 10
351.7144170848791
 20
355.3680972243677
 30
0.0
 10
351.7144170848791
 20
355.3680972243677
 30
0.0
 10
338.7144167265276
 20
355.3680972243677
 30
0.0
 10
338.7144167265276
 20
355.3680972243677
 30
0.0
 10
338.4382707838569
 20
355.3680972243677
 30
0.0
 10
338.2144167127448
 20
355.1442393385582
 30
0.0
 10
338.2144167127448
 20
354.8680972105849
 30
0.0
 10
338.2144167127448
 20
354.8680972105849
 30
0.0
 10
338.2144167127448
 20
341.8680968522334
 30
0.0
 10
338.2144167127448
 20
341.8680968522334
 30
0.0
  0
SPLINE
  5
95
330
70
100
AcDbEntity
  8
0
 62
    18
420
        0
370
    25
100
AcDbSpline
210
0.0
220
0.0
230
1.0
 70
     9
 71
     3
 72
    29
 73
    25
 74
     0
 42
0.0000000001
 43
0.0000000001
 40
0.0
 40
0.0
 40
0.0
 40
0.0
 40
1.0
 40
1.0
 40
1.0
 40
2.0
 40
2.0
 40
2.0
 40
3.0
 40
3.0
 40
3.0
 40
4.0
 40
4.0
 40
4.0
 40
5.0
 40
5.0
 40
5.0
 40
6.0
 40
6.0
 40
6.0
 40
7.0
 40
7.0
 40
7.0
 40
8.0
 40
8.0
 40
8.0
 40
8.0
 10
319.1644131358641
 20
341.8680968522334
 30
0.0
 10
319.1644131358641
 20
341.5919547242601
 30
0.0
 10
319.3882672069762
 20
341.3680968384507
 30
0.0
 10
319.6644131496469
 20
341.3680968384507
 30
0.0
 10
319.6644131496469
 20
341.3680968384507
 30
0.0
 10
332.6644135079984
 20
341.3680968384507
 30
0.0
 10
332.6644135079984
 20
341.3680968384507
 30
0.0
 10
332.9405594506691
 20
341.3680968384507
 30
0.0
 10
333.1644135217812
 20
341.5919547242601
 30
0.0
 10
333.1644135217812
 20
341.8680968522334
 30
0.0
 10
333.1644135217812
 20
341.8680968522334
 30
0.0
 10
333.1644135217812
 20
354.8680972105849
 30
0.0
 10
333.1644135217812
 20
354.8680972105849
 30
0.0
 10
333.1644135217812
 20
355.1442393385582
 30
0.0
 10
332.9405594506691
 20
355.3680972243677
 30
0.0
 10
332.6644135079984
 20
355.3680972243677
 30
0.0
 10
332.6644135079984
 20
355.3680972243677
 30
0.0
 10
319.6644131496469
 20
355.3680972243677
 30
0.0
 10
319.6644131496469
 20
355.3680972243677
 30
0.0
 10
319.3882672069762
 20
355.3680972243677
 30
0.0
 10
319.1644131358641
 20
355.1442393385582
 30
0.0
 10
319.1644131358641
 20
354.8680972105849
 30
0.0
 10
319.1644131358641
 20
354.8680972105849
 30
0.0
 10
319.1644131358641
 20
341.8680968522334
 30
0.0
 10
319.1644131358641
 20
341.8680968522334
 30
0.0
  0
SPLINE
  5
96
330
70
100
AcDbEntity
  8
0
 62
    18
420
        0
370
    25
100
AcDbSpline
210
0.0
220
0.0
230
1.0
 70
     9
 71
     3
 72
    29
 73
    25
 74
     0
 42
0.0000000001
 43
0.0000000001
 40
0.0
 40
0.0
 40
0.0
 40
0.0
 40
1.0
 40
1.0
 40
1.0
 40
2.0
 40
2.0
 40
2.0
 40
3.0
 40
3.0
 40
3.0
 40
4.0
 40
4.0
 40
4.0
 40
5.0
 40
5.0
 40
5.0
 40
6.0
 40
6.0
 40
6.0
 40
7.0
 40
7.0
 40
7.0
 40
8.0
 40
8.0
 40
8.0
 40
8.0
 10
300.1144171883782
 20
341.8680968522334
 30
0.0
 10
300.1144171883782
 20
341.5919547242601
 30
0.0
 10
300.3382712594902
 20
341.3680968384507
 30
0.0
 10
300.614417202161
 20
341.3680968384507
 30
0.0
 10
300.614417202161
 20
341.3680968384507
 30
0.0
 10
313.6144175605124
 20
341.3680968384507
 30
0.0
 10
313.6144175605124
 20
341.3680968384507
 30
0.0
 10
313.8905635031832
 20
341.3680968384507
 30
0.0
 10
314.1144175742952
 20
341.5919547242601
 30
0.0
 10
314.1144175742952
 20
341.8680968522334
 30
0.0
 10
314.1144175742952
 20
341.8680968522334
 30
0.0
 10
314.1144175742952
 20
354.8680972105849
 30
0.0
 10
314.1144175742952
 20
354.8680972105849
 30
0.0
 10
314.1144175742952
 20
355.1442393385582
 30
0.0
 10
313.8905635031832
 20
355.3680972243677
 30
0.0
 10
313.6144175605124
 20
355.3680972243677
 30
0.0
 10
313.6144175605124
 20
355.3680972243677
 30
0.0
 10
300.614417202161
 20
355.3680972243677
 30
0.0
 10
300.614417202161
 20
355.3680972243677
 30
0.0
 10
300.3382712594902
 20
355.3680972243677
 30
0.0
 10
300.1144171883782
 20
355.1442393385582
 30
0.0
 10
300.1144171883782
 20
354.8680972105849
 30
0.0
 10
300.1144171883782
 20
354.8680972105849
 30
0.0
 10
300.1144171883782
 20
341.8680968522334
 30
0.0
 10
300.1144171883782
 20
341.8680968522334
 30
0.0
  0
SPLINE
  5
97
330
70
100
AcDbEntity
  8
0
 62
    18
420
        0
370
    25
100
AcDbSpline
210
0.0
220
0.0
230
1.0
 70
     9
 71
     3
 72
    29
 73
    25
 74
     0
 42
0.0000000001
 43
0.0000000001
 40
0.0
 40
0.0
 40
0.0
 40
0.0
 40
1.0
 40
1.0
 40
1.0
 40
2.0
 40
2.0
 40
2.0
 40
3.0
 40
3.0
 40
3.0
 40
4.0
 40
4.0
 40
4.0
 40
5.0
 40
5.0
 40
5.0
 40
6.0
 40
6.0
 40
6.0
 40
7.0
 40
7.0
 40
7.0
 40
8.0
 40
8.0
 40
8.0
 40
8.0
 10
281.0644136114975
 20
341.8680968522334
 30
0.0
 10
281.0644136114975
 20
341.5919547242601
 30
0.0
 10
281.2882714973069
 20
341.3680968384507
 30
0.0
 10
281.5644136252802
 20
341.3680968384507
 30
0.0
 10
281.5644136252802
 20
341.3680968384507
 30
0.0
 10
294.5644139836318
 20
341.3680968384507
 30
0.0
 10
294.5644139836318
 20
341.3680968384507
 30
0.0
 10
294.8405599263024
 20
341.3680968384507
 30
0.0
 10
295.0644139974145
 20
341.5919547242601
 30
0.0
 10
295.0644139974145
 20
341.8680968522334
 30
0.0
 10
295.0644139974145
 20
341.8680968522334
 30
0.0
 10
295.0644139974145
 20
354.8680972105849
 30
0.0
 10
295.0644139974145
 20
354.8680972105849
 30
0.0
 10
295.0644139974145
 20
355.1442393385582
 30
0.0
 10
294.8405599263024
 20
355.3680972243677
 30
0.0
 10
294.5644139836318
 20
355.3680972243677
 30
0.0
 10
294.5644139836318
 20
355.3680972243677
 30
0.0
 10
281.5644136252802
 20
355.3680972243677
 30
0.0
 10
281.5644136252802
 20
355.3680972243677
 30
0.0
 10
281.2882714973069
 20
355.3680972243677
 30
0.0
 10
281.0644136114975
 20
355.1442393385582
 30
0.0
 10
281.0644136114975
 20
354.8680972105849
 30
0.0
 10
281.0644136114975
 20
354.8680972105849
 30
0.0
 10
281.0644136114975
 20
341.8680968522334
 30
0.0
 10
281.0644136114975
 20
341.8680968522334
 30
0.0
  0
SPLINE
  5
98
330
70
100
AcDbEntity
  8
0
 62
    18
420
        0
370
    25
100
AcDbSpline
210
0.0
220
0.0
230
1.0
 70
     9
 71
     3
 72
    29
 73
    25
 74
     0
 42
0.0000000001
 43
0.0000000001
 40
0.0
 40
0.0
 40
0.0
 40
0.0
 40
1.0
 40
1.0
 40
1.0
 40
2.0
 40
2.0
 40
2.0
 40
3.0
 40
3.0
 40
3.0
 40
4.0
 40
4.0
 40
4.0
 40
5.0
 40
5.0
 40
5.0
 40
6.0
 40
6.0
 40
6.0
 40
7.0
 40
7.0
 40
7.0
 40
8.0
 40
8.0
 40
8.0
 40
8.0
 10
262.0144138493142
 20
341.8680968522334
 30
0.0
 10
262.0144138493142
 20
341.5919547242601
 30
0.0
 10
262.2382717351236
 20
341.3680968384507
 30
0.0
 10
262.5144138630969
 20
341.3680968384507
 30
0.0
 10
262.5144138630969
 20
341.3680968384507
 30
0.0
 10
275.5144142214484
 20
341.3680968384507
 30
0.0
 10
275.5144142214484
 20
341.3680968384507
 30
0.0
 10
275.7905563494218
 20
341.3680968384507
 30
0.0
 10
276.0144142352312
 20
341.5919547242601
 30
0.0
 10
276.0144142352312
 20
341.8680968522334
 30
0.0
 10
276.0144142352312
 20
341.8680968522334
 30
0.0
 10
276.0144142352312
 20
354.8680972105849
 30
0.0
 10
276.0144142352312
 20
354.8680972105849
 30
0.0
 10
276.0144142352312
 20
355.1442393385582
 30
0.0
 10
275.7905563494218
 20
355.3680972243677
 30
0.0
 10
275.5144142214484
 20
355.3680972243677
 30
0.0
 10
275.5144142214484
 20
355.3680972243677
 30
0.0
 10
262.5144138630969
 20
355.3680972243677
 30
0.0
 10
262.5144138630969
 20
355.3680972243677
 30
0.0
 10
262.2382717351236
 20
355.3680972243677
 30
0.0
 10
262.0144138493142
 20
355.1442393385582
 30
0.0
 10
262.0144138493142
 20
354.8680972105849
 30
0.0
 10
262.0144138493142
 20
354.8680972105849
 30
0.0
 10
262.0144138493142
 20
341.8680968522334
 30
0.0
 10
262.0144138493142
 20
341.8680968522334
 30
0.0
  0
SPLINE
  5
99
330
70
100
AcDbEntity
  8
0
 62
    18
420
        0
370
    25
100
AcDbSpline
210
0.0
220
0.0
230
1.0
 70
     9
 71
     3
 72
    29
 73
    25
 74
     0
 42
0.0000000001
 43
0.0000000001
 40
0.0
 40
0.0
 40
0.0
 40
0.0
 40
1.0
 40
1.0
 40
1.0
 40
2.0
 40
2.0
 40
2.0
 40
3.0
 40
3.0
 40
3.0
 40
4.0
 40
4.0
 40
4.0
 40
5.0
 40
5.0
 40
5.0
 40
6.0
 40
6.0
 40
6.0
 40
7.0
 40
7.0
 40
7.0
 40
8.0
 40
8.0
 40
8.0
 40
8.0
 10
242.9644140871308
 20
341.8680968522334
 30
0.0
 10
242.9644140871308
 20
341.5919547242601
 30
0.0
 10
243.1882719729403
 20
341.3680968384507
 30
0.0
 10
243.4644141009136
 20
341.3680968384507
 30
0.0
 10
243.4644141009136
 20
341.3680968384507
 30
0.0
 10
256.4644144592651
 20
341.3680968384507
 30
0.0
 10
256.4644144592651
 20
341.3680968384507
 30
0.0
 10
256.7405565872385
 20
341.3680968384507
 30
0.0
 10
256.9644144730479
 20
341.5919547242601
 30
0.0
 10
256.9644144730479
 20
341.8680968522334
 30
0.0
 10
256.9644144730479
 20
341.8680968522334
 30
0.0
 10
256.9644144730479
 20
354.8680972105849
 30
0.0
 10
256.9644144730479
 20
354.8680972105849
 30
0.0
 10
256.9644144730479
 20
355.1442393385582
 30
0.0
 10
256.7405565872385
 20
355.3680972243677
 30
0.0
 10
256.4644144592651
 20
355.3680972243677
 30
0.0
 10
256.4644144592651
 20
355.3680972243677
 30
0.0
 10
243.4644141009136
 20
355.3680972243677
 30
0.0
 10
243.4644141009136
 20
355.3680972243677
 30
0.0
 10
243.1882719729403
 20
355.3680972243677
 30
0.0
 10
242.9644140871308
 20
355.1442393385582
 30
0.0
 10
242.9644140871308
 20
354.8680972105849
 30
0.0
 10
242.9644140871308
 20
354.8680972105849
 30
0.0
 10
242.9644140871308
 20
341.8680968522334
 30
0.0
 10
242.9644140871308
 20
341.8680968522334
 30
0.0
  0
SPLINE
  5
9A
330
70
100
AcDbEntity
  8
0
 62
    18
420
        0
370
    25
100
AcDbSpline
210
0.0
220
0.0
230
1.0
 70
     9
 71
     3
 72
    29
 73
    25
 74
     0
 42
0.0000000001
 43
0.0000000001
 40
0.0
 40
0.0
 40
0.0
 40
0.0
 40
1.0
 40
1.0
 40
1.0
 40
2.0
 40
2.0
 40
2.0
 40
3.0
 40
3.0
 40
3.0
 40
4.0
 40
4.0
 40
4.0
 40
5.0
 40
5.0
 40
5.0
 40
6.0
 40
6.0
 40
6.0
 40
7.0
 40
7.0
 40
7.0
 40
8.0
 40
8.0
 40
8.0
 40
8.0
 10
221.5331634010002
 20
341.8680968522334
 30
0.0
 10
221.5331634010002
 20
341.5919547242601
 30
0.0
 10
221.7570210483911
 20
341.3680968384507
 30
0.0
 10
222.033163414783
 20
341.3680968384507
 30
0.0
 10
222.033163414783
 20
341.3680968384507
 30
0.0
 10
235.0331642499714
 20
341.3680968384507
 30
0.0
 10
235.0331642499714
 20
341.3680968384507
 30
0.0
 10
235.309306377945
 20
341.3680968384507
 30
0.0
 10
235.5331642637545
 20
341.5919547242601
 30
0.0
 10
235.5331642637545
 20
341.8680968522334
 30
0.0
 10
235.5331642637545
 20
341.8680968522334
 30
0.0
 10
235.5331642637545
 20
354.8680972105849
 30
0.0
 10
235.5331642637545
 20
354.8680972105849
 30
0.0
 10
235.5331642637545
 20
355.1442393385582
 30
0.0
 10
235.309306377945
 20
355.3680972243677
 30
0.0
 10
235.0331642499714
 20
355.3680972243677
 30
0.0
 10
235.0331642499714
 20
355.3680972243677
 30
0.0
 10
222.033163414783
 20
355.3680972243677
 30
0.0
 10
222.033163414783
 20
355.3680972243677
 30
0.0
 10
221.7570210483911
 20
355.3680972243677
 30
0.0
 10
221.5331634010002
 20
355.1442393385582
 30
0.0
 10
221.5331634010002
 20
354.8680972105849
 30
0.0
 10
221.5331634010002
 20
354.8680972105849
 30
0.0
 10
221.5331634010002
 20
341.8680968522334
 30
0.0
 10
221.5331634010002
 20
341.8680968522334
 30
0.0
  0
SPLINE
  5
9B
330
70
100
AcDbEntity
  8
0
 62
    18
420
        0
370
    25
100
AcDbSpline
210
0.0
220
0.0
230
1.0
 70
     9
 71
     3
 72
    29
 73
    25
 74
     0
 42
0.0000000001
 43
0.0000000001
 40
0.0
 40
0.0
 40
0.0
 40
0.0
 40
1.0
 40
1.0
 40
1.0
 40
2.0
 40
2.0
 40
2.0
 40
3.0
 40
3.0
 40
3.0
 40
4.0
 40
4.0
 40
4.0
 40
5.0
 40
5.0
 40
5.0
 40
6.0
 40
6.0
 40
6.0
 40
7.0
 40
7.0
 40
7.0
 40
8.0
 40
8.0
 40
8.0
 40
8.0
 10
409.6519186819553
 20
360.9180966144167
 30
0.0
 10
409.6519186819553
 20
360.6419544864434
 30
0.0
 10
409.8757803824621
 20
360.418096600634
 30
0.0
 10
410.151918695738
 20
360.418096600634
 30
0.0
 10
410.151918695738
 20
360.418096600634
 30
0.0
 10
423.1519190540895
 20
360.418096600634
 30
0.0
 10
423.1519190540895
 20
360.418096600634
 30
0.0
 10
423.4280573673655
 20
360.418096600634
 30
0.0
 10
423.6519190678722
 20
360.6419544864434
 30
0.0
 10
423.6519190678722
 20
360.9180966144167
 30
0.0
 10
423.6519190678722
 20
360.9180966144167
 30
0.0
 10
423.6519190678722
 20
373.9180969727682
 30
0.0
 10
423.6519190678722
 20
373.9180969727682
 30
0.0
 10
423.6519190678722
 20
374.1942393540613
 30
0.0
 10
423.4280573673655
 20
374.418096986551
 30
0.0
 10
423.1519190540895
 20
374.418096986551
 30
0.0
 10
423.1519190540895
 20
374.418096986551
 30
0.0
 10
410.151918695738
 20
374.418096986551
 30
0.0
 10
410.151918695738
 20
374.418096986551
 30
0.0
 10
409.8757803824621
 20
374.418096986551
 30
0.0
 10
409.6519186819553
 20
374.1942393540613
 30
0.0
 10
409.6519186819553
 20
373.9180969727682
 30
0.0
 10
409.6519186819553
 20
373.9180969727682
 30
0.0
 10
409.6519186819553
 20
360.9180966144167
 30
0.0
 10
409.6519186819553
 20
360.9180966144167
 30
0.0
  0
SPLINE
  5
9C
330
70
100
AcDbEntity
  8
0
 62
    18
420
        0
370
    25
100
AcDbSpline
210
0.0
220
0.0
230
1.0
 70
     9
 71
     3
 72
    29
 73
    25
 74
     0
 42
0.0000000001
 43
0.0000000001
 40
0.0
 40
0.0
 40
0.0
 40
0.0
 40
1.0
 40
1.0
 40
1.0
 40
2.0
 40
2.0
 40
2.0
 40
3.0
 40
3.0
 40
3.0
 40
4.0
 40
4.0
 40
4.0
 40
5.0
 40
5.0
 40
5.0
 40
6.0
 40
6.0
 40
6.0
 40
7.0
 40
7.0
 40
7.0
 40
8.0
 40
8.0
 40
8.0
 40
8.0
 10
390.6019151050746
 20
360.9180966144167
 30
0.0
 10
390.6019151050746
 20
360.6419544864434
 30
0.0
 10
390.8257768055814
 20
360.418096600634
 30
0.0
 10
391.1019151188573
 20
360.418096600634
 30
0.0
 10
391.1019151188573
 20
360.418096600634
 30
0.0
 10
404.1019154772088
 20
360.418096600634
 30
0.0
 10
404.1019154772088
 20
360.418096600634
 30
0.0
 10
404.3780537904848
 20
360.418096600634
 30
0.0
 10
404.6019154909916
 20
360.6419544864434
 30
0.0
 10
404.6019154909916
 20
360.9180966144167
 30
0.0
 10
404.6019154909916
 20
360.9180966144167
 30
0.0
 10
404.6019154909916
 20
373.9180969727682
 30
0.0
 10
404.6019154909916
 20
373.9180969727682
 30
0.0
 10
404.6019154909916
 20
374.1942393540613
 30
0.0
 10
404.3780537904848
 20
374.418096986551
 30
0.0
 10
404.1019154772088
 20
374.418096986551
 30
0.0
 10
404.1019154772088
 20
374.418096986551
 30
0.0
 10
391.1019151188573
 20
374.418096986551
 30
0.0
 10
391.1019151188573
 20
374.418096986551
 30
0.0
 10
390.8257768055814
 20
374.418096986551
 30
0.0
 10
390.6019151050746
 20
374.1942393540613
 30
0.0
 10
390.6019151050746
 20
373.9180969727682
 30
0.0
 10
390.6019151050746
 20
373.9180969727682
 30
0.0
 10
390.6019151050746
 20
360.9180966144167
 30
0.0
 10
390.6019151050746
 20
360.9180966144167
 30
0.0
  0
SPLINE
  5
9D
330
70
100
AcDbEntity
  8
0
 62
    18
420
        0
370
    25
100
AcDbSpline
210
0.0
220
0.0
230
1.0
 70
     9
 71
     3
 72
    29
 73
    25
 74
     0
 42
0.0000000001
 43
0.0000000001
 40
0.0
 40
0.0
 40
0.0
 40
0.0
 40
1.0
 40
1.0
 40
1.0
 40
2.0
 40
2.0
 40
2.0
 40
3.0
 40
3.0
 40
3.0
 40
4.0
 40
4.0
 40
4.0
 40
5.0
 40
5.0
 40
5.0
 40
6.0
 40
6.0
 40
6.0
 40
7.0
 40
7.0
 40
7.0
 40
8.0
 40
8.0
 40
8.0
 40
8.0
 10
371.5519115281939
 20
360.9180966144167
 30
0.0
 10
371.5519115281939
 20
360.6419544864434
 30
0.0
 10
371.7757732287007
 20
360.418096600634
 30
0.0
 10
372.0519115419766
 20
360.418096600634
 30
0.0
 10
372.0519115419766
 20
360.418096600634
 30
0.0
 10
385.0519119003282
 20
360.418096600634
 30
0.0
 10
385.0519119003282
 20
360.418096600634
 30
0.0
 10
385.3280502136041
 20
360.418096600634
 30
0.0
 10
385.5519119141109
 20
360.6419544864434
 30
0.0
 10
385.5519119141109
 20
360.9180966144167
 30
0.0
 10
385.5519119141109
 20
360.9180966144167
 30
0.0
 10
385.5519119141109
 20
373.9180969727682
 30
0.0
 10
385.5519119141109
 20
373.9180969727682
 30
0.0
 10
385.5519119141109
 20
374.1942393540613
 30
0.0
 10
385.3280502136041
 20
374.418096986551
 30
0.0
 10
385.0519119003282
 20
374.418096986551
 30
0.0
 10
385.0519119003282
 20
374.418096986551
 30
0.0
 10
372.0519115419766
 20
374.418096986551
 30
0.0
 10
372.0519115419766
 20
374.418096986551
 30
0.0
 10
371.7757732287007
 20
374.418096986551
 30
0.0
 10
371.5519115281939
 20
374.1942393540613
 30
0.0
 10
371.5519115281939
 20
373.9180969727682
 30
0.0
 10
371.5519115281939
 20
373.9180969727682
 30
0.0
 10
371.5519115281939
 20
360.9180966144167
 30
0.0
 10
371.5519115281939
 20
360.9180966144167
 30
0.0
  0
SPLINE
  5
9E
330
70
100
AcDbEntity
  8
0
 62
    18
420
        0
370
    25
100
AcDbSpline
210
0.0
220
0.0
230
1.0
 70
     9
 71
     3
 72
    29
 73
    25
 74
     0
 42
0.0000000001
 43
0.0000000001
 40
0.0
 40
0.0
 40
0.0
 40
0.0
 40
1.0
 40
1.0
 40
1.0
 40
2.0
 40
2.0
 40
2.0
 40
3.0
 40
3.0
 40
3.0
 40
4.0
 40
4.0
 40
4.0
 40
5.0
 40
5.0
 40
5.0
 40
6.0
 40
6.0
 40
6.0
 40
7.0
 40
7.0
 40
7.0
 40
8.0
 40
8.0
 40
8.0
 40
8.0
 10
352.5019232101027
 20
360.9180966144167
 30
0.0
 10
352.5019232101027
 20
360.6419544864434
 30
0.0
 10
352.7257849106095
 20
360.418096600634
 30
0.0
 10
353.0019232238855
 20
360.418096600634
 30
0.0
 10
353.0019232238855
 20
360.418096600634
 30
0.0
 10
366.001923582237
 20
360.418096600634
 30
0.0
 10
366.001923582237
 20
360.418096600634
 30
0.0
 10
366.2780618955129
 20
360.418096600634
 30
0.0
 10
366.5019235960197
 20
360.6419544864434
 30
0.0
 10
366.5019235960197
 20
360.9180966144167
 30
0.0
 10
366.5019235960197
 20
360.9180966144167
 30
0.0
 10
366.5019235960197
 20
373.9180969727682
 30
0.0
 10
366.5019235960197
 20
373.9180969727682
 30
0.0
 10
366.5019235960197
 20
374.1942393540613
 30
0.0
 10
366.2780618955129
 20
374.418096986551
 30
0.0
 10
366.001923582237
 20
374.418096986551
 30
0.0
 10
366.001923582237
 20
374.418096986551
 30
0.0
 10
353.0019232238855
 20
374.418096986551
 30
0.0
 10
353.0019232238855
 20
374.418096986551
 30
0.0
 10
352.7257849106095
 20
374.418096986551
 30
0.0
 10
352.5019232101027
 20
374.1942393540613
 30
0.0
 10
352.5019232101027
 20
373.9180969727682
 30
0.0
 10
352.5019232101027
 20
373.9180969727682
 30
0.0
 10
352.5019232101027
 20
360.9180966144167
 30
0.0
 10
352.5019232101027
 20
360.9180966144167
 30
0.0
  0
SPLINE
  5
9F
330
70
100
AcDbEntity
  8
0
 62
    18
420
        0
370
    25
100
AcDbSpline
210
0.0
220
0.0
230
1.0
 70
     9
 71
     3
 72
    29
 73
    25
 74
     0
 42
0.0000000001
 43
0.0000000001
 40
0.0
 40
0.0
 40
0.0
 40
0.0
 40
1.0
 40
1.0
 40
1.0
 40
2.0
 40
2.0
 40
2.0
 40
3.0
 40
3.0
 40
3.0
 40
4.0
 40
4.0
 40
4.0
 40
5.0
 40
5.0
 40
5.0
 40
6.0
 40
6.0
 40
6.0
 40
7.0
 40
7.0
 40
7.0
 40
8.0
 40
8.0
 40
8.0
 40
8.0
 10
314.4019160563413
 20
360.9180966144167
 30
0.0
 10
314.4019160563413
 20
360.6419544864434
 30
0.0
 10
314.6257701274534
 20
360.418096600634
 30
0.0
 10
314.9019160701241
 20
360.418096600634
 30
0.0
 10
314.9019160701241
 20
360.418096600634
 30
0.0
 10
327.9019164284756
 20
360.418096600634
 30
0.0
 10
327.9019164284756
 20
360.418096600634
 30
0.0
 10
328.1780623711463
 20
360.418096600634
 30
0.0
 10
328.4019164422584
 20
360.6419544864434
 30
0.0
 10
328.4019164422584
 20
360.9180966144167
 30
0.0
 10
328.4019164422584
 20
360.9180966144167
 30
0.0
 10
328.4019164422584
 20
373.9180969727682
 30
0.0
 10
328.4019164422584
 20
373.9180969727682
 30
0.0
 10
328.4019164422584
 20
374.1942393540613
 30
0.0
 10
328.1780623711463
 20
374.418096986551
 30
0.0
 10
327.9019164284756
 20
374.418096986551
 30
0.0
 10
327.9019164284756
 20
374.418096986551
 30
0.0
 10
314.9019160701241
 20
374.418096986551
 30
0.0
 10
314.9019160701241
 20
374.418096986551
 30
0.0
 10
314.6257701274534
 20
374.418096986551
 30
0.0
 10
314.4019160563413
 20
374.1942393540613
 30
0.0
 10
314.4019160563413
 20
373.9180969727682
 30
0.0
 10
314.4019160563413
 20
373.9180969727682
 30
0.0
 10
314.4019160563413
 20
360.9180966144167
 30
0.0
 10
314.4019160563413
 20
360.9180966144167
 30
0.0
  0
SPLINE
  5
A0
330
70
100
AcDbEntity
  8
0
 62
    18
420
        0
370
    25
100
AcDbSpline
210
0.0
220
0.0
230
1.0
 70
     9
 71
     3
 72
    29
 73
    25
 74
     0
 42
0.0000000001
 43
0.0000000001
 40
0.0
 40
0.0
 40
0.0
 40
0.0
 40
1.0
 40
1.0
 40
1.0
 40
2.0
 40
2.0
 40
2.0
 40
3.0
 40
3.0
 40
3.0
 40
4.0
 40
4.0
 40
4.0
 40
5.0
 40
5.0
 40
5.0
 40
6.0
 40
6.0
 40
6.0
 40
7.0
 40
7.0
 40
7.0
 40
8.0
 40
8.0
 40
8.0
 40
8.0
 10
295.3519124794606
 20
360.9180966144167
 30
0.0
 10
295.3519124794606
 20
360.6419544864434
 30
0.0
 10
295.5757665505727
 20
360.418096600634
 30
0.0
 10
295.8519124932434
 20
360.418096600634
 30
0.0
 10
295.8519124932434
 20
360.418096600634
 30
0.0
 10
308.8519128515949
 20
360.418096600634
 30
0.0
 10
308.8519128515949
 20
360.418096600634
 30
0.0
 10
309.1280587942656
 20
360.418096600634
 30
0.0
 10
309.3519128653777
 20
360.6419544864434
 30
0.0
 10
309.3519128653777
 20
360.9180966144167
 30
0.0
 10
309.3519128653777
 20
360.9180966144167
 30
0.0
 10
309.3519128653777
 20
373.9180969727682
 30
0.0
 10
309.3519128653777
 20
373.9180969727682
 30
0.0
 10
309.3519128653777
 20
374.1942393540613
 30
0.0
 10
309.1280587942656
 20
374.418096986551
 30
0.0
 10
308.8519128515949
 20
374.418096986551
 30
0.0
 10
308.8519128515949
 20
374.418096986551
 30
0.0
 10
295.8519124932434
 20
374.418096986551
 30
0.0
 10
295.8519124932434
 20
374.418096986551
 30
0.0
 10
295.5757665505727
 20
374.418096986551
 30
0.0
 10
295.3519124794606
 20
374.1942393540613
 30
0.0
 10
295.3519124794606
 20
373.9180969727682
 30
0.0
 10
295.3519124794606
 20
373.9180969727682
 30
0.0
 10
295.3519124794606
 20
360.9180966144167
 30
0.0
 10
295.3519124794606
 20
360.9180966144167
 30
0.0
  0
SPLINE
  5
A1
330
70
100
AcDbEntity
  8
0
 62
    18
420
        0
370
    25
100
AcDbSpline
210
0.0
220
0.0
230
1.0
 70
     9
 71
     3
 72
    29
 73
    25
 74
     0
 42
0.0000000001
 43
0.0000000001
 40
0.0
 40
0.0
 40
0.0
 40
0.0
 40
1.0
 40
1.0
 40
1.0
 40
2.0
 40
2.0
 40
2.0
 40
3.0
 40
3.0
 40
3.0
 40
4.0
 40
4.0
 40
4.0
 40
5.0
 40
5.0
 40
5.0
 40
6.0
 40
6.0
 40
6.0
 40
7.0
 40
7.0
 40
7.0
 40
8.0
 40
8.0
 40
8.0
 40
8.0
 10
276.3019165319747
 20
360.9180966144167
 30
0.0
 10
276.3019165319747
 20
360.6419544864434
 30
0.0
 10
276.5257744177841
 20
360.418096600634
 30
0.0
 10
276.8019165457574
 20
360.418096600634
 30
0.0
 10
276.8019165457574
 20
360.418096600634
 30
0.0
 10
289.801916904109
 20
360.418096600634
 30
0.0
 10
289.801916904109
 20
360.418096600634
 30
0.0
 10
290.0780628467796
 20
360.418096600634
 30
0.0
 10
290.3019169178918
 20
360.6419544864434
 30
0.0
 10
290.3019169178918
 20
360.9180966144167
 30
0.0
 10
290.3019169178918
 20
360.9180966144167
 30
0.0
 10
290.3019169178918
 20
373.9180969727682
 30
0.0
 10
290.3019169178918
 20
373.9180969727682
 30
0.0
 10
290.3019169178918
 20
374.1942393540613
 30
0.0
 10
290.0780628467796
 20
374.418096986551
 30
0.0
 10
289.801916904109
 20
374.418096986551
 30
0.0
 10
289.801916904109
 20
374.418096986551
 30
0.0
 10
276.8019165457574
 20
374.418096986551
 30
0.0
 10
276.8019165457574
 20
374.418096986551
 30
0.0
 10
276.5257744177841
 20
374.418096986551
 30
0.0
 10
276.3019165319747
 20
374.1942393540613
 30
0.0
 10
276.3019165319747
 20
373.9180969727682
 30
0.0
 10
276.3019165319747
 20
373.9180969727682
 30
0.0
 10
276.3019165319747
 20
360.9180966144167
 30
0.0
 10
276.3019165319747
 20
360.9180966144167
 30
0.0
  0
SPLINE
  5
A2
330
70
100
AcDbEntity
  8
0
 62
    18
420
        0
370
    25
100
AcDbSpline
210
0.0
220
0.0
230
1.0
 70
     9
 71
     3
 72
    29
 73
    25
 74
     0
 42
0.0000000001
 43
0.0000000001
 40
0.0
 40
0.0
 40
0.0
 40
0.0
 40
1.0
 40
1.0
 40
1.0
 40
2.0
 40
2.0
 40
2.0
 40
3.0
 40
3.0
 40
3.0
 40
4.0
 40
4.0
 40
4.0
 40
5.0
 40
5.0
 40
5.0
 40
6.0
 40
6.0
 40
6.0
 40
7.0
 40
7.0
 40
7.0
 40
8.0
 40
8.0
 40
8.0
 40
8.0
 10
257.251912955094
 20
360.9180966144167
 30
0.0
 10
257.251912955094
 20
360.6419544864434
 30
0.0
 10
257.4757708409034
 20
360.418096600634
 30
0.0
 10
257.7519129688767
 20
360.418096600634
 30
0.0
 10
257.7519129688767
 20
360.418096600634
 30
0.0
 10
270.7519133272283
 20
360.418096600634
 30
0.0
 10
270.7519133272283
 20
360.418096600634
 30
0.0
 10
271.0280554552016
 20
360.418096600634
 30
0.0
 10
271.251913341011
 20
360.6419544864434
 30
0.0
 10
271.251913341011
 20
360.9180966144167
 30
0.0
 10
271.251913341011
 20
360.9180966144167
 30
0.0
 10
271.251913341011
 20
373.9180969727682
 30
0.0
 10
271.251913341011
 20
373.9180969727682
 30
0.0
 10
271.251913341011
 20
374.1942393540613
 30
0.0
 10
271.0280554552016
 20
374.418096986551
 30
0.0
 10
270.7519133272283
 20
374.418096986551
 30
0.0
 10
270.7519133272283
 20
374.418096986551
 30
0.0
 10
257.7519129688767
 20
374.418096986551
 30
0.0
 10
257.7519129688767
 20
374.418096986551
 30
0.0
 10
257.4757708409034
 20
374.418096986551
 30
0.0
 10
257.251912955094
 20
374.1942393540613
 30
0.0
 10
257.251912955094
 20
373.9180969727682
 30
0.0
 10
257.251912955094
 20
373.9180969727682
 30
0.0
 10
257.251912955094
 20
360.9180966144167
 30
0.0
 10
257.251912955094
 20
360.9180966144167
 30
0.0
  0
SPLINE
  5
A3
330
70
100
AcDbEntity
  8
0
 62
    18
420
        0
370
    25
100
AcDbSpline
210
0.0
220
0.0
230
1.0
 70
     9
 71
     3
 72
    29
 73
    25
 74
     0
 42
0.0000000001
 43
0.0000000001
 40
0.0
 40
0.0
 40
0.0
 40
0.0
 40
1.0
 40
1.0
 40
1.0
 40
2.0
 40
2.0
 40
2.0
 40
3.0
 40
3.0
 40
3.0
 40
4.0
 40
4.0
 40
4.0
 40
5.0
 40
5.0
 40
5.0
 40
6.0
 40
6.0
 40
6.0
 40
7.0
 40
7.0
 40
7.0
 40
8.0
 40
8.0
 40
8.0
 40
8.0
 10
238.2019131929107
 20
360.9180966144167
 30
0.0
 10
238.2019131929107
 20
360.6419544864434
 30
0.0
 10
238.4257710787201
 20
360.418096600634
 30
0.0
 10
238.7019132066934
 20
360.418096600634
 30
0.0
 10
238.7019132066934
 20
360.418096600634
 30
0.0
 10
251.7019135650449
 20
360.418096600634
 30
0.0
 10
251.7019135650449
 20
360.418096600634
 30
0.0
 10
251.9780556930183
 20
360.418096600634
 30
0.0
 10
252.2019135788277
 20
360.6419544864434
 30
0.0
 10
252.2019135788277
 20
360.9180966144167
 30
0.0
 10
252.2019135788277
 20
360.9180966144167
 30
0.0
 10
252.2019135788277
 20
373.9180969727682
 30
0.0
 10
252.2019135788277
 20
373.9180969727682
 30
0.0
 10
252.2019135788277
 20
374.1942393540613
 30
0.0
 10
251.9780556930183
 20
374.418096986551
 30
0.0
 10
251.7019135650449
 20
374.418096986551
 30
0.0
 10
251.7019135650449
 20
374.418096986551
 30
0.0
 10
238.7019132066934
 20
374.418096986551
 30
0.0
 10
238.7019132066934
 20
374.418096986551
 30
0.0
 10
238.4257710787201
 20
374.418096986551
 30
0.0
 10
238.2019131929107
 20
374.1942393540613
 30
0.0
 10
238.2019131929107
 20
373.9180969727682
 30
0.0
 10
238.2019131929107
 20
373.9180969727682
 30
0.0
 10
238.2019131929107
 20
360.9180966144167
 30
0.0
 10
238.2019131929107
 20
360.9180966144167
 30
0.0
  0
SPLINE
  5
A4
330
70
100
AcDbEntity
  8
0
 62
    18
420
        0
370
    25
100
AcDbSpline
210
0.0
220
0.0
230
1.0
 70
     9
 71
     3
 72
    41
 73
    37
 74
     0
 42
0.0000000001
 43
0.0000000001
 40
0.0
 40
0.0
 40
0.0
 40
0.0
 40
1.0
 40
1.0
 40
1.0
 40
2.0
 40
2.0
 40
2.0
 40
3.0
 40
3.0
 40
3.0
 40
4.0
 40
4.0
 40
4.0
 40
5.0
 40
5.0
 40
5.0
 40
6.0
 40
6.0
 40
6.0
 40
7.0
 40
7.0
 40
7.0
 40
8.0
 40
8.0
 40
8.0
 40
9.0
 40
9.0
 40
9.0
 40
10.0
 40
10.0
 40
10.0
 40
11.0
 40
11.0
 40
11.0
 40
12.0
 40
12.0
 40
12.0
 40
12.0
 10
442.9894134974043
 20
303.7680935131694
 30
0.0
 10
442.9894134974043
 20
303.4919475704987
 30
0.0
 10
443.2132751979112
 20
303.2680934993866
 30
0.0
 10
443.4894135111871
 20
303.2680934993866
 30
0.0
 10
443.4894135111871
 20
303.2680934993866
 30
0.0
 10
445.8706696803433
 20
303.2680934993866
 30
0.0
 10
445.8706696803433
 20
303.2680934993866
 30
0.0
 10
445.8706696803433
 20
303.2680934993866
 30
0.0
 10
456.4894138695386
 20
303.2680934993866
 30
0.0
 10
456.4894138695386
 20
303.2680934993866
 30
0.0
 10
456.4894138695386
 20
303.2680934993866
 30
0.0
 10
458.8706700386948
 20
303.2680934993866
 30
0.0
 10
458.8706700386948
 20
303.2680934993866
 30
0.0
 10
459.1468083519707
 20
303.2680934993866
 30
0.0
 10
459.3706700524775
 20
303.4919475704987
 30
0.0
 10
459.3706700524775
 20
303.7680935131694
 30
0.0
 10
459.3706700524775
 20
303.7680935131694
 30
0.0
 10
459.3706700524775
 20
316.7680938715209
 30
0.0
 10
459.3706700524775
 20
316.7680938715209
 30
0.0
 10
459.3706700524775
 20
317.0442359994942
 30
0.0
 10
459.1468083519707
 20
317.2680938853036
 30
0.0
 10
458.8706700386948
 20
317.2680938853036
 30
0.0
 10
458.8706700386948
 20
317.2680938853036
 30
0.0
 10
456.4894138695386
 20
317.2680938853036
 30
0.0
 10
456.4894138695386
 20
317.2680938853036
 30
0.0
 10
456.4894138695386
 20
317.2680938853036
 30
0.0
 10
445.8706696803433
 20
317.2680938853036
 30
0.0
 10
445.8706696803433
 20
317.2680938853036
 30
0.0
 10
445.8706696803433
 20
317.2680938853036
 30
0.0
 10
443.4894135111871
 20
317.2680938853036
 30
0.0
 10
443.4894135111871
 20
317.2680938853036
 30
0.0
 10
443.2132751979112
 20
317.2680938853036
 30
0.0
 10
442.9894134974043
 20
317.0442359994942
 30
0.0
 10
442.9894134974043
 20
316.7680938715209
 30
0.0
 10
442.9894134974043
 20
316.7680938715209
 30
0.0
 10
442.9894134974043
 20
303.7680935131694
 30
0.0
 10
442.9894134974043
 20
303.7680935131694
 30
0.0
  0
SPLINE
  5
A5
330
70
100
AcDbEntity
  8
0
 62
    18
420
        0
370
    25
100
AcDbSpline
210
0.0
220
0.0
230
1.0
 70
     9
 71
     3
 72
    41
 73
    37
 74
     0
 42
0.0000000001
 43
0.0000000001
 40
0.0
 40
0.0
 40
0.0
 40
0.0
 40
1.0
 40
1.0
 40
1.0
 40
2.0
 40
2.0
 40
2.0
 40
3.0
 40
3.0
 40
3.0
 40
4.0
 40
4.0
 40
4.0
 40
5.0
 40
5.0
 40
5.0
 40
6.0
 40
6.0
 40
6.0
 40
7.0
 40
7.0
 40
7.0
 40
8.0
 40
8.0
 40
8.0
 40
9.0
 40
9.0
 40
9.0
 40
10.0
 40
10.0
 40
10.0
 40
11.0
 40
11.0
 40
11.0
 40
12.0
 40
12.0
 40
12.0
 40
12.0
 10
445.3706696665605
 20
322.81809709005
 30
0.0
 10
445.3706696665605
 20
322.5419549620768
 30
0.0
 10
445.5945313670673
 20
322.3180970762673
 30
0.0
 10
445.8706696803433
 20
322.3180970762673
 30
0.0
 10
445.8706696803433
 20
322.3180970762673
 30
0.0
 10
448.2519258494994
 20
322.3180970762673
 30
0.0
 10
448.2519258494994
 20
322.3180970762673
 30
0.0
 10
448.2519258494994
 20
322.3180970762673
 30
0.0
 10
458.8706700386948
 20
322.3180970762673
 30
0.0
 10
458.8706700386948
 20
322.3180970762673
 30
0.0
 10
458.8706700386948
 20
322.3180970762673
 30
0.0
 10
461.2519262078509
 20
322.3180970762673
 30
0.0
 10
461.2519262078509
 20
322.3180970762673
 30
0.0
 10
461.5280645211269
 20
322.3180970762673
 30
0.0
 10
461.7519262216337
 20
322.5419549620768
 30
0.0
 10
461.7519262216337
 20
322.81809709005
 30
0.0
 10
461.7519262216337
 20
322.81809709005
 30
0.0
 10
461.7519262216337
 20
335.8180974484016
 30
0.0
 10
461.7519262216337
 20
335.8180974484016
 30
0.0
 10
461.7519262216337
 20
336.0942395763749
 30
0.0
 10
461.5280645211269
 20
336.3180974621844
 30
0.0
 10
461.2519262078509
 20
336.3180974621844
 30
0.0
 10
461.2519262078509
 20
336.3180974621844
 30
0.0
 10
458.8706700386948
 20
336.3180974621844
 30
0.0
 10
458.8706700386948
 20
336.3180974621844
 30
0.0
 10
458.8706700386948
 20
336.3180974621844
 30
0.0
 10
448.2519258494994
 20
336.3180974621844
 30
0.0
 10
448.2519258494994
 20
336.3180974621844
 30
0.0
 10
448.2519258494994
 20
336.3180974621844
 30
0.0
 10
445.8706696803433
 20
336.3180974621844
 30
0.0
 10
445.8706696803433
 20
336.3180974621844
 30
0.0
 10
445.5945313670673
 20
336.3180974621844
 30
0.0
 10
445.3706696665605
 20
336.0942395763749
 30
0.0
 10
445.3706696665605
 20
335.8180974484016
 30
0.0
 10
445.3706696665605
 20
335.8180974484016
 30
0.0
 10
445.3706696665605
 20
322.81809709005
 30
0.0
 10
445.3706696665605
 20
322.81809709005
 30
0.0
  0
SPLINE
  5
A6
330
70
100
AcDbEntity
  8
0
 62
    18
420
        0
370
    25
100
AcDbSpline
210
0.0
220
0.0
230
1.0
 70
     9
 71
     3
 72
    41
 73
    37
 74
     0
 42
0.0000000001
 43
0.0000000001
 40
0.0
 40
0.0
 40
0.0
 40
0.0
 40
1.0
 40
1.0
 40
1.0
 40
2.0
 40
2.0
 40
2.0
 40
3.0
 40
3.0
 40
3.0
 40
4.0
 40
4.0
 40
4.0
 40
5.0
 40
5.0
 40
5.0
 40
6.0
 40
6.0
 40
6.0
 40
7.0
 40
7.0
 40
7.0
 40
8.0
 40
8.0
 40
8.0
 40
9.0
 40
9.0
 40
9.0
 40
10.0
 40
10.0
 40
10.0
 40
11.0
 40
11.0
 40
11.0
 40
12.0
 40
12.0
 40
12.0
 40
12.0
 10
423.9394251793132
 20
322.81809709005
 30
0.0
 10
423.9394251793132
 20
322.5419549620768
 30
0.0
 10
424.1632868798193
 20
322.3180970762673
 30
0.0
 10
424.4394251930959
 20
322.3180970762673
 30
0.0
 10
424.4394251930959
 20
322.3180970762673
 30
0.0
 10
426.8206661034626
 20
322.3180970762673
 30
0.0
 10
426.8206661034626
 20
322.3180970762673
 30
0.0
 10
426.8206661034626
 20
322.3180970762673
 30
0.0
 10
437.4394255514475
 20
322.3180970762673
 30
0.0
 10
437.4394255514475
 20
322.3180970762673
 30
0.0
 10
437.4394255514475
 20
322.3180970762673
 30
0.0
 10
439.8206664618141
 20
322.3180970762673
 30
0.0
 10
439.8206664618141
 20
322.3180970762673
 30
0.0
 10
440.09680477509
 20
322.3180970762673
 30
0.0
 10
440.3206664755968
 20
322.5419549620768
 30
0.0
 10
440.3206664755968
 20
322.81809709005
 30
0.0
 10
440.3206664755968
 20
322.81809709005
 30
0.0
 10
440.3206664755968
 20
335.8180974484016
 30
0.0
 10
440.3206664755968
 20
335.8180974484016
 30
0.0
 10
440.3206664755968
 20
336.0942395763749
 30
0.0
 10
440.09680477509
 20
336.3180974621844
 30
0.0
 10
439.8206664618141
 20
336.3180974621844
 30
0.0
 10
439.8206664618141
 20
336.3180974621844
 30
0.0
 10
437.4394255514475
 20
336.3180974621844
 30
0.0
 10
437.4394255514475
 20
336.3180974621844
 30
0.0
 10
437.4394255514475
 20
336.3180974621844
 30
0.0
 10
426.8206661034626
 20
336.3180974621844
 30
0.0
 10
426.8206661034626
 20
336.3180974621844
 30
0.0
 10
426.8206661034626
 20
336.3180974621844
 30
0.0
 10
424.4394251930959
 20
336.3180974621844
 30
0.0
 10
424.4394251930959
 20
336.3180974621844
 30
0.0
 10
424.1632868798193
 20
336.3180974621844
 30
0.0
 10
423.9394251793132
 20
336.0942395763749
 30
0.0
 10
423.9394251793132
 20
335.8180974484016
 30
0.0
 10
423.9394251793132
 20
335.8180974484016
 30
0.0
 10
423.9394251793132
 20
322.81809709005
 30
0.0
 10
423.9394251793132
 20
322.81809709005
 30
0.0
  0
SPLINE
  5
A7
330
70
100
AcDbEntity
  8
0
 62
    18
420
        0
370
    25
100
AcDbSpline
210
0.0
220
0.0
230
1.0
 70
     9
 71
     3
 72
    41
 73
    37
 74
     0
 42
0.0000000001
 43
0.0000000001
 40
0.0
 40
0.0
 40
0.0
 40
0.0
 40
1.0
 40
1.0
 40
1.0
 40
2.0
 40
2.0
 40
2.0
 40
3.0
 40
3.0
 40
3.0
 40
4.0
 40
4.0
 40
4.0
 40
5.0
 40
5.0
 40
5.0
 40
6.0
 40
6.0
 40
6.0
 40
7.0
 40
7.0
 40
7.0
 40
8.0
 40
8.0
 40
8.0
 40
9.0
 40
9.0
 40
9.0
 40
10.0
 40
10.0
 40
10.0
 40
11.0
 40
11.0
 40
11.0
 40
12.0
 40
12.0
 40
12.0
 40
12.0
 10
237.4144146970818
 20
303.2680934993866
 30
0.0
 10
237.6905568250548
 20
303.2680934993866
 30
0.0
 10
237.9144147108645
 20
303.4919475704987
 30
0.0
 10
237.9144147108645
 20
303.7680935131694
 30
0.0
 10
237.9144147108645
 20
303.7680935131694
 30
0.0
 10
237.9144147108645
 20
316.7680938715209
 30
0.0
 10
237.9144147108645
 20
316.7680938715209
 30
0.0
 10
237.9144147108645
 20
317.0442359994942
 30
0.0
 10
237.6905568250548
 20
317.2680938853036
 30
0.0
 10
237.4144146970818
 20
317.2680938853036
 30
0.0
 10
237.4144146970818
 20
317.2680938853036
 30
0.0
 10
235.0331642499714
 20
317.2680938853036
 30
0.0
 10
235.0331642499714
 20
317.2680938853036
 30
0.0
 10
235.0331642499714
 20
317.2680938853036
 30
0.0
 10
224.4144133850558
 20
317.2680938853036
 30
0.0
 10
224.4144133850558
 20
317.2680938853036
 30
0.0
 10
224.4144133850558
 20
317.2680938853036
 30
0.0
 10
222.033163414783
 20
317.2680938853036
 30
0.0
 10
222.033163414783
 20
317.2680938853036
 30
0.0
 10
221.7570210483911
 20
317.2680938853036
 30
0.0
 10
221.5331634010002
 20
317.0442359994942
 30
0.0
 10
221.5331634010002
 20
316.7680938715209
 30
0.0
 10
221.5331634010002
 20
316.7680938715209
 30
0.0
 10
221.5331634010002
 20
303.7680935131694
 30
0.0
 10
221.5331634010002
 20
303.7680935131694
 30
0.0
 10
221.5331634010002
 20
303.4919475704987
 30
0.0
 10
221.7570210483911
 20
303.2680934993866
 30
0.0
 10
222.033163414783
 20
303.2680934993866
 30
0.0
 10
222.033163414783
 20
303.2680934993866
 30
0.0
 10
224.4144133850558
 20
303.2680934993866
 30
0.0
 10
224.4144133850558
 20
303.2680934993866
 30
0.0
 10
224.4144133850558
 20
303.2680934993866
 30
0.0
 10
235.0331642499714
 20
303.2680934993866
 30
0.0
 10
235.0331642499714
 20
303.2680934993866
 30
0.0
 10
235.0331642499714
 20
303.2680934993866
 30
0.0
 10
237.4144146970818
 20
303.2680934993866
 30
0.0
 10
237.4144146970818
 20
303.2680934993866
 30
0.0
  0
SPLINE
  5
A8
330
70
100
AcDbEntity
  8
0
 62
    18
420
        0
370
    25
100
AcDbSpline
210
0.0
220
0.0
230
1.0
 70
     9
 71
     3
 72
    47
 73
    43
 74
     0
 42
0.0000000001
 43
0.0000000001
 40
0.0
 40
0.0
 40
0.0
 40
0.0
 40
1.0
 40
1.0
 40
1.0
 40
2.0
 40
2.0
 40
2.0
 40
3.0
 40
3.0
 40
3.0
 40
4.0
 40
4.0
 40
4.0
 40
5.0
 40
5.0
 40
5.0
 40
6.0
 40
6.0
 40
6.0
 40
7.0
 40
7.0
 40
7.0
 40
8.0
 40
8.0
 40
8.0
 40
9.0
 40
9.0
 40
9.0
 40
10.0
 40
10.0
 40
10.0
 40
11.0
 40
11.0
 40
11.0
 40
12.0
 40
12.0
 40
12.0
 40
13.0
 40
13.0
 40
13.0
 40
14.0
 40
14.0
 40
14.0
 40
14.0
 10
305.8519127688984
 20
317.7680938990864
 30
0.0
 10
305.8519127688984
 20
318.0442360270598
 30
0.0
 10
305.6280586977863
 20
318.2680939128692
 30
0.0
 10
305.3519127551157
 20
318.2680939128692
 30
0.0
 10
305.3519127551157
 20
318.2680939128692
 30
0.0
 10
299.3519125897226
 20
318.2680939128692
 30
0.0
 10
299.3519125897226
 20
318.2680939128692
 30
0.0
 10
299.075766647052
 20
318.2680939128692
 30
0.0
 10
298.8519125759399
 20
318.0442360270598
 30
0.0
 10
298.8519125759399
 20
317.7680938990864
 30
0.0
 10
298.8519125759399
 20
317.7680938990864
 30
0.0
 10
298.8519125759399
 20
303.7680935131694
 30
0.0
 10
298.8519125759399
 20
303.7680935131694
 30
0.0
 10
298.8519125759399
 20
303.4919475704987
 30
0.0
 10
299.075766647052
 20
303.2680934993866
 30
0.0
 10
299.3519125897226
 20
303.2680934993866
 30
0.0
 10
299.3519125897226
 20
303.2680934993866
 30
0.0
 10
305.3519127551157
 20
303.2680934993866
 30
0.0
 10
305.3519127551157
 20
303.2680934993866
 30
0.0
 10
305.3560784046446
 20
303.2680934993866
 30
0.0
 10
305.3602516835681
 20
303.2681469051498
 30
0.0
 10
305.3644173330971
 20
303.2682537166762
 30
0.0
 10
305.368582982626
 20
303.2681469051498
 30
0.0
 10
305.3727486321549
 20
303.2680934993866
 30
0.0
 10
305.3769142816837
 20
303.2680934993866
 30
0.0
 10
305.3769142816837
 20
303.2680934993866
 30
0.0
 10
318.3769146400353
 20
303.2680934993866
 30
0.0
 10
318.3769146400353
 20
303.2680934993866
 30
0.0
 10
318.6530605827059
 20
303.2680934993866
 30
0.0
 10
318.876914653818
 20
303.4919475704987
 30
0.0
 10
318.876914653818
 20
303.7680935131694
 30
0.0
 10
318.876914653818
 20
303.7680935131694
 30
0.0
 10
318.876914653818
 20
316.7680938715209
 30
0.0
 10
318.876914653818
 20
316.7680938715209
 30
0.0
 10
318.876914653818
 20
317.0442359994942
 30
0.0
 10
318.6530605827059
 20
317.2680938853036
 30
0.0
 10
318.3769146400353
 20
317.2680938853036
 30
0.0
 10
318.3769146400353
 20
317.2680938853036
 30
0.0
 10
305.8519127688984
 20
317.2680938853036
 30
0.0
 10
305.8519127688984
 20
317.2680938853036
 30
0.0
 10
305.8519127688984
 20
317.2680938853036
 30
0.0
 10
305.8519127688984
 20
317.7680938990864
 30
0.0
 10
305.8519127688984
 20
317.7680938990864
 30
0.0
  0
SPLINE
  5
A9
330
70
100
AcDbEntity
  8
0
 62
    18
420
        0
370
    25
100
AcDbSpline
210
0.0
220
0.0
230
1.0
 70
     9
 71
     3
 72
    65
 73
    61
 74
     0
 42
0.0000000001
 43
0.0000000001
 40
0.0
 40
0.0
 40
0.0
 40
0.0
 40
1.0
 40
1.0
 40
1.0
 40
2.0
 40
2.0
 40
2.0
 40
3.0
 40
3.0
 40
3.0
 40
4.0
 40
4.0
 40
4.0
 40
5.0
 40
5.0
 40
5.0
 40
6.0
 40
6.0
 40
6.0
 40
7.0
 40
7.0
 40
7.0
 40
8.0
 40
8.0
 40
8.0
 40
9.0
 40
9.0
 40
9.0
 40
10.0
 40
10.0
 40
10.0
 40
11.0
 40
11.0
 40
11.0
 40
12.0
 40
12.0
 40
12.0
 40
13.0
 40
13.0
 40
13.0
 40
14.0
 40
14.0
 40
14.0
 40
15.0
 40
15.0
 40
15.0
 40
16.0
 40
16.0
 40
16.0
 40
17.0
 40
17.0
 40
17.0
 40
18.0
 40
18.0
 40
18.0
 40
19.0
 40
19.0
 40
19.0
 40
20.0
 40
20.0
 40
20.0
 40
20.0
 10
333.9394150690234
 20
303.2682537166762
 30
0.0
 10
333.9435807185523
 20
303.2681469051498
 30
0.0
 10
333.9477539974759
 20
303.2680934993866
 30
0.0
 10
333.9519196470048
 20
303.2680934993866
 30
0.0
 10
333.9519196470048
 20
303.2680934993866
 30
0.0
 10
346.9519200053563
 20
303.2680934993866
 30
0.0
 10
346.9519200053563
 20
303.2680934993866
 30
0.0
 10
346.9560856548852
 20
303.2680934993866
 30
0.0
 10
346.9602513044141
 20
303.2681469051498
 30
0.0
 10
346.9644169539429
 20
303.2682537166762
 30
0.0
 10
346.9685826034719
 20
303.2681469051498
 30
0.0
 10
346.9727482530008
 20
303.2680934993866
 30
0.0
 10
346.9769139025296
 20
303.2680934993866
 30
0.0
 10
346.9769139025296
 20
303.2680934993866
 30
0.0
 10
352.9769140679226
 20
303.2680934993866
 30
0.0
 10
352.9769140679226
 20
303.2680934993866
 30
0.0
 10
353.2530523811986
 20
303.2680934993866
 30
0.0
 10
353.4769140817054
 20
303.4919475704987
 30
0.0
 10
353.4769140817054
 20
303.7680935131694
 30
0.0
 10
353.4769140817054
 20
303.7680935131694
 30
0.0
 10
353.4769140817054
 20
317.7680938990864
 30
0.0
 10
353.4769140817054
 20
317.7680938990864
 30
0.0
 10
353.4769140817054
 20
318.0442360270598
 30
0.0
 10
353.2530523811986
 20
318.2680939128692
 30
0.0
 10
352.9769140679226
 20
318.2680939128692
 30
0.0
 10
352.9769140679226
 20
318.2680939128692
 30
0.0
 10
346.9769139025296
 20
318.2680939128692
 30
0.0
 10
346.9769139025296
 20
318.2680939128692
 30
0.0
 10
346.7007679598589
 20
318.2680939128692
 30
0.0
 10
346.4769138887469
 20
318.0442360270598
 30
0.0
 10
346.4769138887469
 20
317.7680938990864
 30
0.0
 10
346.4769138887469
 20
317.7680938990864
 30
0.0
 10
346.4769138887469
 20
317.2680938853036
 30
0.0
 10
346.4769138887469
 20
317.2680938853036
 30
0.0
 10
346.4769138887469
 20
317.2680938853036
 30
0.0
 10
334.4269181342194
 20
317.2680938853036
 30
0.0
 10
334.4269181342194
 20
317.2680938853036
 30
0.0
 10
334.4269181342194
 20
317.2680938853036
 30
0.0
 10
334.4269181342194
 20
317.7680938990864
 30
0.0
 10
334.4269181342194
 20
317.7680938990864
 30
0.0
 10
334.4269181342194
 20
318.0442360270598
 30
0.0
 10
334.2030640631074
 20
318.2680939128692
 30
0.0
 10
333.9269181204367
 20
318.2680939128692
 30
0.0
 10
333.9269181204367
 20
318.2680939128692
 30
0.0
 10
327.9269179550437
 20
318.2680939128692
 30
0.0
 10
327.9269179550437
 20
318.2680939128692
 30
0.0
 10
327.650772012373
 20
318.2680939128692
 30
0.0
 10
327.4269179412609
 20
318.0442360270598
 30
0.0
 10
327.4269179412609
 20
317.7680938990864
 30
0.0
 10
327.4269179412609
 20
317.7680938990864
 30
0.0
 10
327.4269179412609
 20
303.7680935131694
 30
0.0
 10
327.4269179412609
 20
303.7680935131694
 30
0.0
 10
327.4269179412609
 20
303.4919475704987
 30
0.0
 10
327.650772012373
 20
303.2680934993866
 30
0.0
 10
327.9269179550437
 20
303.2680934993866
 30
0.0
 10
327.9269179550437
 20
303.2680934993866
 30
0.0
 10
333.9269181204367
 20
303.2680934993866
 30
0.0
 10
333.9269181204367
 20
303.2680934993866
 30
0.0
 10
333.9310837699656
 20
303.2680934993866
 30
0.0
 10
333.9352494194945
 20
303.2681469051498
 30
0.0
 10
333.9394150690234
 20
303.2682537166762
 30
0.0
  0
SPLINE
  5
AA
330
70
100
AcDbEntity
  8
0
 62
    18
420
        0
370
    25
100
AcDbSpline
210
0.0
220
0.0
230
1.0
 70
    11
 71
     3
 72
   101
 73
    97
 74
     0
 42
0.0000000001
 43
0.0000000001
 40
0.0
 40
0.0
 40
0.0
 40
0.0
 40
1.0
 40
1.0
 40
1.0
 40
2.0
 40
2.0
 40
2.0
 40
3.0
 40
3.0
 40
3.0
 40
4.0
 40
4.0
 40
4.0
 40
5.0
 40
5.0
 40
5.0
 40
6.0
 40
6.0
 40
6.0
 40
7.0
 40
7.0
 40
7.0
 40
8.0
 40
8.0
 40
8.0
 40
9.0
 40
9.0
 40
9.0
 40
10.0
 40
10.0
 40
10.0
 40
11.0
 40
11.0
 40
11.0
 40
12.0
 40
12.0
 40
12.0
 40
13.0
 40
13.0
 40
13.0
 40
14.0
 40
14.0
 40
14.0
 40
15.0
 40
15.0
 40
15.0
 40
16.0
 40
16.0
 40
16.0
 40
17.0
 40
17.0
 40
17.0
 40
18.0
 40
18.0
 40
18.0
 40
19.0
 40
19.0
 40
19.0
 40
20.0
 40
20.0
 40
20.0
 40
21.0
 40
21.0
 40
21.0
 40
22.0
 40
22.0
 40
22.0
 40
23.0
 40
23.0
 40
23.0
 40
24.0
 40
24.0
 40
24.0
 40
25.0
 40
25.0
 40
25.0
 40
26.0
 40
26.0
 40
26.0
 40
27.0
 40
27.0
 40
27.0
 40
28.0
 40
28.0
 40
28.0
 40
29.0
 40
29.0
 40
29.0
 40
30.0
 40
30.0
 40
30.0
 40
31.0
 40
31.0
 40
31.0
 40
32.0
 40
32.0
 40
32.0
 40
32.0
 10
438.7269164316643
 20
360.418096600634
 30
0.0
 10
438.7269164316643
 20
360.418096600634
 30
0.0
 10
442.2019226309703
 20
360.418096600634
 30
0.0
 10
442.2019226309703
 20
360.418096600634
 30
0.0
 10
442.2019226309703
 20
360.418096600634
 30
0.0
 10
448.2519258494994
 20
360.418096600634
 30
0.0
 10
448.2519258494994
 20
360.418096600634
 30
0.0
 10
448.2519258494994
 20
360.418096600634
 30
0.0
 10
451.7269167900159
 20
360.418096600634
 30
0.0
 10
451.7269167900159
 20
360.418096600634
 30
0.0
 10
451.7269167900159
 20
360.418096600634
 30
0.0
 10
453.6649203834769
 20
360.418096600634
 30
0.0
 10
453.6649203834769
 20
360.418096600634
 30
0.0
 10
453.6649203834769
 20
360.418096600634
 30
0.0
 10
453.6649203834769
 20
359.9180965868512
 30
0.0
 10
453.6649203834769
 20
359.9180965868512
 30
0.0
 10
453.6649203834769
 20
359.6419544588779
 30
0.0
 10
453.8887820839837
 20
359.4180965730684
 30
0.0
 10
454.1649203972597
 20
359.4180965730684
 30
0.0
 10
454.1649203972597
 20
359.4180965730684
 30
0.0
 10
460.1649205626527
 20
359.4180965730684
 30
0.0
 10
460.1649205626527
 20
359.4180965730684
 30
0.0
 10
460.4410588759286
 20
359.4180965730684
 30
0.0
 10
460.6649205764354
 20
359.6419544588779
 30
0.0
 10
460.6649205764354
 20
359.9180965868512
 30
0.0
 10
460.6649205764354
 20
359.9180965868512
 30
0.0
 10
460.6649205764354
 20
360.418096600634
 30
0.0
 10
460.6649205764354
 20
360.418096600634
 30
0.0
 10
460.6649205764354
 20
360.418096600634
 30
0.0
 10
461.2519262078509
 20
360.418096600634
 30
0.0
 10
461.2519262078509
 20
360.418096600634
 30
0.0
 10
461.5280645211269
 20
360.418096600634
 30
0.0
 10
461.7519262216337
 20
360.6419544864434
 30
0.0
 10
461.7519262216337
 20
360.9180966144167
 30
0.0
 10
461.7519262216337
 20
360.9180966144167
 30
0.0
 10
461.7519262216337
 20
373.9180969727682
 30
0.0
 10
461.7519262216337
 20
373.9180969727682
 30
0.0
 10
461.7519262216337
 20
374.1942393540613
 30
0.0
 10
461.5280645211269
 20
374.418096986551
 30
0.0
 10
461.2519262078509
 20
374.418096986551
 30
0.0
 10
461.2519262078509
 20
374.418096986551
 30
0.0
 10
460.1649205626527
 20
374.418096986551
 30
0.0
 10
460.1649205626527
 20
374.418096986551
 30
0.0
 10
460.1649205626527
 20
374.418096986551
 30
0.0
 10
454.1649203972597
 20
374.418096986551
 30
0.0
 10
454.1649203972597
 20
374.418096986551
 30
0.0
 10
454.1649203972597
 20
374.418096986551
 30
0.0
 10
451.7269167900159
 20
374.418096986551
 30
0.0
 10
451.7269167900159
 20
374.418096986551
 30
0.0
 10
451.7269167900159
 20
374.418096986551
 30
0.0
 10
448.2519258494994
 20
374.418096986551
 30
0.0
 10
448.2519258494994
 20
374.418096986551
 30
0.0
 10
448.2519258494994
 20
374.418096986551
 30
0.0
 10
442.2019226309703
 20
374.418096986551
 30
0.0
 10
442.2019226309703
 20
374.418096986551
 30
0.0
 10
442.2019226309703
 20
374.418096986551
 30
0.0
 10
438.7269164316643
 20
374.418096986551
 30
0.0
 10
438.7269164316643
 20
374.418096986551
 30
0.0
 10
438.7269164316643
 20
374.418096986551
 30
0.0
 10
436.2889128244204
 20
374.418096986551
 30
0.0
 10
436.2889128244204
 20
374.418096986551
 30
0.0
 10
436.2889128244204
 20
374.418096986551
 30
0.0
 10
430.2889126590274
 20
374.418096986551
 30
0.0
 10
430.2889126590274
 20
374.418096986551
 30
0.0
 10
430.2889126590274
 20
374.418096986551
 30
0.0
 10
429.2019222726187
 20
374.418096986551
 30
0.0
 10
429.2019222726187
 20
374.418096986551
 30
0.0
 10
428.9257839593427
 20
374.418096986551
 30
0.0
 10
428.701922258836
 20
374.1942393540613
 30
0.0
 10
428.701922258836
 20
373.9180969727682
 30
0.0
 10
428.701922258836
 20
373.9180969727682
 30
0.0
 10
428.701922258836
 20
360.9180966144167
 30
0.0
 10
428.701922258836
 20
360.9180966144167
 30
0.0
 10
428.701922258836
 20
360.6419544864434
 30
0.0
 10
428.9257839593427
 20
360.418096600634
 30
0.0
 10
429.2019222726187
 20
360.418096600634
 30
0.0
 10
429.2019222726187
 20
360.418096600634
 30
0.0
 10
429.7889126452447
 20
360.418096600634
 30
0.0
 10
429.7889126452447
 20
360.418096600634
 30
0.0
 10
429.7889126452447
 20
360.418096600634
 30
0.0
 10
429.7889126452447
 20
359.9180965868512
 30
0.0
 10
429.7889126452447
 20
359.9180965868512
 30
0.0
 10
429.7889126452447
 20
359.6419544588779
 30
0.0
 10
430.0127743457515
 20
359.4180965730684
 30
0.0
 10
430.2889126590274
 20
359.4180965730684
 30
0.0
 10
430.2889126590274
 20
359.4180965730684
 30
0.0
 10
436.2889128244204
 20
359.4180965730684
 30
0.0
 10
436.2889128244204
 20
359.4180965730684
 30
0.0
 10
436.5650511376964
 20
359.4180965730684
 30
0.0
 10
436.7889128382032
 20
359.6419544588779
 30
0.0
 10
436.7889128382032
 20
359.9180965868512
 30
0.0
 10
436.7889128382032
 20
359.9180965868512
 30
0.0
 10
436.7889128382032
 20
360.418096600634
 30
0.0
 10
436.7889128382032
 20
360.418096600634
 30
0.0
 10
436.7889128382032
 20
360.418096600634
 30
0.0
 10
438.7269164316643
 20
360.418096600634
 30
0.0
 10
438.7269164316643
 20
360.418096600634
 30
0.0
  0
SPLINE
  5
AB
330
70
100
AcDbEntity
  8
0
 62
    18
420
        0
370
    25
100
AcDbSpline
210
0.0
220
0.0
230
1.0
 70
     9
 71
     3
 72
    53
 73
    49
 74
     0
 42
0.0000000001
 43
0.0000000001
 40
0.0
 40
0.0
 40
0.0
 40
0.0
 40
1.0
 40
1.0
 40
1.0
 40
2.0
 40
2.0
 40
2.0
 40
3.0
 40
3.0
 40
3.0
 40
4.0
 40
4.0
 40
4.0
 40
5.0
 40
5.0
 40
5.0
 40
6.0
 40
6.0
 40
6.0
 40
7.0
 40
7.0
 40
7.0
 40
8.0
 40
8.0
 40
8.0
 40
9.0
 40
9.0
 40
9.0
 40
10.0
 40
10.0
 40
10.0
 40
11.0
 40
11.0
 40
11.0
 40
12.0
 40
12.0
 40
12.0
 40
13.0
 40
13.0
 40
13.0
 40
14.0
 40
14.0
 40
14.0
 40
15.0
 40
15.0
 40
15.0
 40
16.0
 40
16.0
 40
16.0
 40
16.0
 10
402.5081654332764
 20
303.7680935131694
 30
0.0
 10
402.5081654332764
 20
303.4919475704987
 30
0.0
 10
402.7320271337831
 20
303.2680934993866
 30
0.0
 10
403.0081654470591
 20
303.2680934993866
 30
0.0
 10
403.0081654470591
 20
303.2680934993866
 30
0.0
 10
414.9144157752608
 20
303.2680934993866
 30
0.0
 10
414.9144157752608
 20
303.2680934993866
 30
0.0
 10
414.9144157752608
 20
303.2680934993866
 30
0.0
 10
416.0081658054106
 20
303.2680934993866
 30
0.0
 10
416.0081658054106
 20
303.2680934993866
 30
0.0
 10
416.0081658054106
 20
303.2680934993866
 30
0.0
 10
424.4394251930959
 20
303.2680934993866
 30
0.0
 10
424.4394251930959
 20
303.2680934993866
 30
0.0
 10
424.4394251930959
 20
303.2680934993866
 30
0.0
 10
427.9144161336123
 20
303.2680934993866
 30
0.0
 10
427.9144161336123
 20
303.2680934993866
 30
0.0
 10
427.9144161336123
 20
303.2680934993866
 30
0.0
 10
437.4394255514475
 20
303.2680934993866
 30
0.0
 10
437.4394255514475
 20
303.2680934993866
 30
0.0
 10
437.7155638647233
 20
303.2680934993866
 30
0.0
 10
437.9394255652301
 20
303.4919475704987
 30
0.0
 10
437.9394255652301
 20
303.7680935131694
 30
0.0
 10
437.9394255652301
 20
303.7680935131694
 30
0.0
 10
437.9394255652301
 20
316.7680938715209
 30
0.0
 10
437.9394255652301
 20
316.7680938715209
 30
0.0
 10
437.9394255652301
 20
317.0442359994942
 30
0.0
 10
437.7155638647233
 20
317.2680938853036
 30
0.0
 10
437.4394255514475
 20
317.2680938853036
 30
0.0
 10
437.4394255514475
 20
317.2680938853036
 30
0.0
 10
427.9144161336123
 20
317.2680938853036
 30
0.0
 10
427.9144161336123
 20
317.2680938853036
 30
0.0
 10
427.9144161336123
 20
317.2680938853036
 30
0.0
 10
424.4394251930959
 20
317.2680938853036
 30
0.0
 10
424.4394251930959
 20
317.2680938853036
 30
0.0
 10
424.4394251930959
 20
317.2680938853036
 30
0.0
 10
416.0081658054106
 20
317.2680938853036
 30
0.0
 10
416.0081658054106
 20
317.2680938853036
 30
0.0
 10
416.0081658054106
 20
317.2680938853036
 30
0.0
 10
414.9144157752608
 20
317.2680938853036
 30
0.0
 10
414.9144157752608
 20
317.2680938853036
 30
0.0
 10
414.9144157752608
 20
317.2680938853036
 30
0.0
 10
403.0081654470591
 20
317.2680938853036
 30
0.0
 10
403.0081654470591
 20
317.2680938853036
 30
0.0
 10
402.7320271337831
 20
317.2680938853036
 30
0.0
 10
402.5081654332764
 20
317.0442359994942
 30
0.0
 10
402.5081654332764
 20
316.7680938715209
 30
0.0
 10
402.5081654332764
 20
316.7680938715209
 30
0.0
 10
402.5081654332764
 20
303.7680935131694
 30
0.0
 10
402.5081654332764
 20
303.7680935131694
 30
0.0
  0
SPLINE
  5
AC
330
70
100
AcDbEntity
  8
0
 62
    18
420
        0
370
    25
100
AcDbSpline
210
0.0
220
0.0
230
1.0
 70
     9
 71
     3
 72
    53
 73
    49
 74
     0
 42
0.0000000001
 43
0.0000000001
 40
0.0
 40
0.0
 40
0.0
 40
0.0
 40
1.0
 40
1.0
 40
1.0
 40
2.0
 40
2.0
 40
2.0
 40
3.0
 40
3.0
 40
3.0
 40
4.0
 40
4.0
 40
4.0
 40
5.0
 40
5.0
 40
5.0
 40
6.0
 40
6.0
 40
6.0
 40
7.0
 40
7.0
 40
7.0
 40
8.0
 40
8.0
 40
8.0
 40
9.0
 40
9.0
 40
9.0
 40
10.0
 40
10.0
 40
10.0
 40
11.0
 40
11.0
 40
11.0
 40
12.0
 40
12.0
 40
12.0
 40
13.0
 40
13.0
 40
13.0
 40
14.0
 40
14.0
 40
14.0
 40
15.0
 40
15.0
 40
15.0
 40
16.0
 40
16.0
 40
16.0
 40
16.0
 10
242.9644140871308
 20
303.7680935131694
 30
0.0
 10
242.9644140871308
 20
303.4919475704987
 30
0.0
 10
243.1882719729403
 20
303.2680934993866
 30
0.0
 10
243.4644141009136
 20
303.2680934993866
 30
0.0
 10
243.4644141009136
 20
303.2680934993866
 30
0.0
 10
252.989415889354
 20
303.2680934993866
 30
0.0
 10
252.989415889354
 20
303.2680934993866
 30
0.0
 10
252.989415889354
 20
303.2680934993866
 30
0.0
 10
256.4644144592651
 20
303.2680934993866
 30
0.0
 10
256.4644144592651
 20
303.2680934993866
 30
0.0
 10
256.4644144592651
 20
303.2680934993866
 30
0.0
 10
264.8956662175557
 20
303.2680934993866
 30
0.0
 10
264.8956662175557
 20
303.2680934993866
 30
0.0
 10
264.8956662175557
 20
303.2680934993866
 30
0.0
 10
265.9894162477055
 20
303.2680934993866
 30
0.0
 10
265.9894162477055
 20
303.2680934993866
 30
0.0
 10
265.9894162477055
 20
303.2680934993866
 30
0.0
 10
277.8956665759072
 20
303.2680934993866
 30
0.0
 10
277.8956665759072
 20
303.2680934993866
 30
0.0
 10
278.1718087038805
 20
303.2680934993866
 30
0.0
 10
278.3956665896899
 20
303.4919475704987
 30
0.0
 10
278.3956665896899
 20
303.7680935131694
 30
0.0
 10
278.3956665896899
 20
303.7680935131694
 30
0.0
 10
278.3956665896899
 20
316.7680938715209
 30
0.0
 10
278.3956665896899
 20
316.7680938715209
 30
0.0
 10
278.3956665896899
 20
317.0442359994942
 30
0.0
 10
278.1718087038805
 20
317.2680938853036
 30
0.0
 10
277.8956665759072
 20
317.2680938853036
 30
0.0
 10
277.8956665759072
 20
317.2680938853036
 30
0.0
 10
265.9894162477055
 20
317.2680938853036
 30
0.0
 10
265.9894162477055
 20
317.2680938853036
 30
0.0
 10
265.9894162477055
 20
317.2680938853036
 30
0.0
 10
264.8956662175557
 20
317.2680938853036
 30
0.0
 10
264.8956662175557
 20
317.2680938853036
 30
0.0
 10
264.8956662175557
 20
317.2680938853036
 30
0.0
 10
256.4644144592651
 20
317.2680938853036
 30
0.0
 10
256.4644144592651
 20
317.2680938853036
 30
0.0
 10
256.4644144592651
 20
317.2680938853036
 30
0.0
 10
252.989415889354
 20
317.2680938853036
 30
0.0
 10
252.989415889354
 20
317.2680938853036
 30
0.0
 10
252.989415889354
 20
317.2680938853036
 30
0.0
 10
243.4644141009136
 20
317.2680938853036
 30
0.0
 10
243.4644141009136
 20
317.2680938853036
 30
0.0
 10
243.1882719729403
 20
317.2680938853036
 30
0.0
 10
242.9644140871308
 20
317.0442359994942
 30
0.0
 10
242.9644140871308
 20
316.7680938715209
 30
0.0
 10
242.9644140871308
 20
316.7680938715209
 30
0.0
 10
242.9644140871308
 20
303.7680935131694
 30
0.0
 10
242.9644140871308
 20
303.7680935131694
 30
0.0
  0
ENDSEC
  0
SECTION
  2
OBJECTS
  0
DICTIONARY
  5
C
330
0
100
AcDbDictionary
281
     1
  3
ACAD_COLOR
350
63
  3
ACAD_DETAILVIEWSTYLE
350
6A
  3
ACAD_GROUP
350
D
  3
ACAD_LAYOUT
350
62
  3
ACAD_MATERIAL
350
10
  3
ACAD_MLEADERSTYLE
350
66
  3
ACAD_MLINESTYLE
350
5F
  3
ACAD_PLOTSETTINGS
350
61
  3
ACAD_PLOTSTYLENAME
350
E
  3
ACAD_SCALELIST
350
42
  3
ACAD_SECTIONVIEWSTYLE
350
68
  3
ACAD_TABLESTYLE
350
64
  3
ACAD_VISUALSTYLE
350
29
  3
ACDB_RECOMPOSE_DATA
350
B5
  3
AcDbVariableDictionary
350
AD
  0
DICTIONARY
  5
63
102
{ACAD_REACTORS
330
C
102
}
330
C
100
AcDbDictionary
281
     1
  0
DICTIONARY
  5
6A
102
{ACAD_REACTORS
330
C
102
}
330
C
100
AcDbDictionary
281
     1
  3
Imperial24
350
6B
  0
DICTIONARY
  5
D
102
{ACAD_REACTORS
330
C
102
}
330
C
100
AcDbDictionary
281
     1
  0
DICTIONARY
  5
62
102
{ACAD_REACTORS
330
C
102
}
330
C
100
AcDbDictionary
281
     1
  3
Layout1
350
6F
  3
Layout2
350
77
  3
Model
350
73
  0
DICTIONARY
  5
10
102
{ACAD_REACTORS
330
C
102
}
330
C
100
AcDbDictionary
281
     1
  3
ByBlock
350
19
  3
ByLayer
350
11
  3
Global
350
21
  0
DICTIONARY
  5
66
102
{ACAD_REACTORS
330
C
102
}
330
C
100
AcDbDictionary
281
     1
  3
Standard
350
67
  0
DICTIONARY
  5
5F
102
{ACAD_REACTORS
330
C
102
}
330
C
100
AcDbDictionary
281
     1
  3
Standard
350
60
  0
DICTIONARY
  5
61
102
{ACAD_REACTORS
330
C
102
}
330
C
100
AcDbDictionary
281
     1
  0
ACDBDICTIONARYWDFLT
  5
E
102
{ACAD_REACTORS
330
C
102
}
330
C
100
AcDbDictionary
281
     1
  3
Normal
350
F
100
AcDbDictionaryWithDefault
340
F
  0
DICTIONARY
  5
42
102
{ACAD_REACTORS
330
C
102
}
330
C
100
AcDbDictionary
281
     1
  3
A0
350
43
  3
A1
350
44
  3
A2
350
45
  3
A3
350
46
  3
A4
350
47
  3
A5
350
48
  3
A6
350
49
  3
A7
350
4A
  3
A8
350
4B
  3
A9
350
4C
  3
B0
350
4D
  3
B1
350
4E
  3
B2
350
4F
  3
B3
350
50
  3
B4
350
51
  3
B5
350
52
  3
B6
350
53
  0
DICTIONARY
  5
68
102
{ACAD_REACTORS
330
C
102
}
330
C
100
AcDbDictionary
281
     1
  3
Imperial24
350
69
  0
DICTIONARY
  5
64
102
{ACAD_REACTORS
330
C
102
}
330
C
100
AcDbDictionary
281
     1
  3
Standard
350
65
  0
DICTIONARY
  5
29
102
{ACAD_REACTORS
330
C
102
}
330
C
100
AcDbDictionary
281
     1
  3
2dWireframe
350
2F
  3
Basic
350
2E
  3
Brighten
350
35
  3
ColorChange
350
39
  3
Conceptual
350
32
  3
Dim
350
34
  3
EdgeColorOff
350
41
  3
Facepattern
350
38
  3
Flat
350
2A
  3
FlatWithEdges
350
2B
  3
Gouraud
350
2C
  3
GouraudWithEdges
350
2D
  3
Hidden
350
31
  3
JitterOff
350
3F
  3
Linepattern
350
37
  3
OverhangOff
350
40
  3
Realistic
350
33
  3
Shaded
350
3E
  3
Shaded with edges
350
3D
  3
Shades of Gray
350
3A
  3
Sketchy
350
3B
  3
Thicken
350
36
  3
Wireframe
350
30
  3
X-Ray
350
3C
  0
XRECORD
  5
B5
102
{ACAD_REACTORS
330
C
102
}
330
C
100
AcDbXrecord
280
     1
 90
        1
330
65
  0
DICTIONARY
  5
AD
102
{ACAD_REACTORS
330
C
102
}
330
C
100
AcDbDictionary
281
     1
  3
CANNOSCALE
350
B2
  3
CMLEADERSTYLE
350
AF
  3
CTABLESTYLE
350
AE
  3
CVIEWDETAILSTYLE
350
B0
  3
CVIEWSECTIONSTYLE
350
B1
  0
ACDBDETAILVIEWSTYLE
  5
6B
102
{ACAD_REACTORS
330
6A
102
}
330
6A
100
AcDbModelDocViewStyle
 70
     0
  3
Imperial24
290
     1
300
Imperial24
 90
        0
100
AcDbDetailViewStyle
 70
     0
 71
     0
 90
        3
 71
     1
340
55
 62
   256
 40
0.24
340
0
 62
   256
 40
0.24
300

 40
0.36
280
     3
 71
     2
340
5D
 90
       25
 62
   256
 71
     3
340
55
 62
   256
 40
0.24
 90
        1
 40
0.75
 90
        1
300
%<\AcVar ViewType \f "%tc1">% %<\AcVar ViewDetailId>%\PSCALE %<\AcVar ViewScale \f "%sn">%
 71
     4
340
5D
 90
       25
 62
   256
340
5D
 90
       25
 62
   256
280
     0
  0
LAYOUT
  5
6F
102
{ACAD_REACTORS
330
62
102
}
330
62
100
AcDbPlotSettings
  1

  2

  4

  6

 40
0.0
 41
0.0
 42
0.0
 43
0.0
 44
0.0
 45
0.0
 46
0.0
 47
0.0
 48
0.0
 49
0.0
140
0.0
141
0.0
142
1.0
143
1.0
 70
   688
 72
     0
 73
     0
 74
     5
  7

 75
    16
147
1.0
 76
     0
 77
     2
 78
   300
148
0.0
149
0.0
100
AcDbLayout
  1
Layout1
 70
     1
 71
     1
 10
0.0
 20
0.0
 11
12.0
 21
9.0
 12
0.0
 22
0.0
 32
0.0
 14
0.0
 24
0.0
 34
0.0
 15
0.0
 25
0.0
 35
0.0
146
0.0
 13
0.0
 23
0.0
 33
0.0
 16
1.0
 26
0.0
 36
0.0
 17
0.0
 27
1.0
 37
0.0
 76
     0
330
6C
  0
LAYOUT
  5
77
102
{ACAD_REACTORS
330
62
102
}
330
62
100
AcDbPlotSettings
  1

  2

  4

  6

 40
0.0
 41
0.0
 42
0.0
 43
0.0
 44
0.0
 45
0.0
 46
0.0
 47
0.0
 48
0.0
 49
0.0
140
0.0
141
0.0
142
1.0
143
1.0
 70
   688
 72
     0
 73
     0
 74
     5
  7

 75
    16
147
1.0
 76
     0
 77
     2
 78
   300
148
0.0
149
0.0
100
AcDbLayout
  1
Layout2
 70
     1
 71
     2
 10
0.0
 20
0.0
 11
12.0
 21
9.0
 12
0.0
 22
0.0
 32
0.0
 14
0.0
 24
0.0
 34
0.0
 15
0.0
 25
0.0
 35
0.0
146
0.0
 13
0.0
 23
0.0
 33
0.0
 16
1.0
 26
0.0
 36
0.0
 17
0.0
 27
1.0
 37
0.0
 76
     0
330
74
  0
LAYOUT
  5
73
102
{ACAD_REACTORS
330
62
102
}
330
62
100
AcDbPlotSettings
  1

  2

  4

  6

 40
0.0
 41
0.0
 42
0.0
 43
0.0
 44
0.0
 45
0.0
 46
0.0
 47
0.0
 48
0.0
 49
0.0
140
0.0
141
0.0
142
1.0
143
1.0
 70
  1712
 72
     0
 73
     0
 74
     0
  7

 75
     0
147
1.0
 76
     0
 77
     2
 78
   300
148
0.0
149
0.0
100
AcDbLayout
  1
Model
 70
     1
 71
     0
 10
0.0
 20
0.0
 11
12.0
 21
9.0
 12
0.0
 22
0.0
 32
0.0
 14
0.0
 24
0.0
 34
0.0
 15
0.0
 25
0.0
 35
0.0
146
0.0
 13
0.0
 23
0.0
 33
0.0
 16
1.0
 26
0.0
 36
0.0
 17
0.0
 27
1.0
 37
0.0
 76
     0
330
70
  0
MATERIAL
  5
19
102
{ACAD_XDICTIONARY
360
1A
102
}
102
{ACAD_REACTORS
330
10
102
}
330
10
100
AcDbMaterial
  1
ByBlock
 72
     0
 43
0.0208333333333333
 43
0.0
 43
0.0
 43
0.0
 43
0.0
 43
0.0208333333333333
 43
0.0
 43
0.0
 43
0.0
 43
0.0
 43
1.0
 43
0.0
 43
0.0
 43
0.0
 43
0.0
 43
1.0
 77
     0
 47
0.0208333333333333
 47
0.0
 47
0.0
 47
0.0
 47
0.0
 47
0.0208333333333333
 47
0.0
 47
0.0
 47
0.0
 47
0.0
 47
1.0
 47
0.0
 47
0.0
 47
0.0
 47
0.0
 47
1.0
171
     0
 49
0.0208333333333333
 49
0.0
 49
0.0
 49
0.0
 49
0.0
 49
0.0208333333333333
 49
0.0
 49
0.0
 49
0.0
 49
0.0
 49
1.0
 49
0.0
 49
0.0
 49
0.0
 49
0.0
 49
1.0
175
     0
142
0.0208333333333333
142
0.0
142
0.0
142
0.0
142
0.0
142
0.0208333333333333
142
0.0
142
0.0
142
0.0
142
0.0
142
1.0
142
0.0
142
0.0
142
0.0
142
0.0
142
1.0
179
     0
144
0.0208333333333333
144
0.0
144
0.0
144
0.0
144
0.0
144
0.0208333333333333
144
0.0
144
0.0
144
0.0
144
0.0
144
1.0
144
0.0
144
0.0
144
0.0
144
0.0
144
1.0
147
0.0208333333333333
147
0.0
147
0.0
147
0.0
147
0.0
147
0.0208333333333333
147
0.0
147
0.0
147
0.0
147
0.0
147
1.0
147
0.0
147
0.0
147
0.0
147
0.0
147
1.0
  0
MATERIAL
  5
11
102
{ACAD_XDICTIONARY
360
12
102
}
102
{ACAD_REACTORS
330
10
102
}
330
10
100
AcDbMaterial
  1
ByLayer
 72
     0
 43
0.0208333333333333
 43
0.0
 43
0.0
 43
0.0
 43
0.0
 43
0.0208333333333333
 43
0.0
 43
0.0
 43
0.0
 43
0.0
 43
1.0
 43
0.0
 43
0.0
 43
0.0
 43
0.0
 43
1.0
 77
     0
 47
0.0208333333333333
 47
0.0
 47
0.0
 47
0.0
 47
0.0
 47
0.0208333333333333
 47
0.0
 47
0.0
 47
0.0
 47
0.0
 47
1.0
 47
0.0
 47
0.0
 47
0.0
 47
0.0
 47
1.0
171
     0
 49
0.0208333333333333
 49
0.0
 49
0.0
 49
0.0
 49
0.0
 49
0.0208333333333333
 49
0.0
 49
0.0
 49
0.0
 49
0.0
 49
1.0
 49
0.0
 49
0.0
 49
0.0
 49
0.0
 49
1.0
175
     0
142
0.0208333333333333
142
0.0
142
0.0
142
0.0
142
0.0
142
0.0208333333333333
142
0.0
142
0.0
142
0.0
142
0.0
142
1.0
142
0.0
142
0.0
142
0.0
142
0.0
142
1.0
179
     0
144
0.0208333333333333
144
0.0
144
0.0
144
0.0
144
0.0
144
0.0208333333333333
144
0.0
144
0.0
144
0.0
144
0.0
144
1.0
144
0.0
144
0.0
144
0.0
144
0.0
144
1.0
147
0.0208333333333333
147
0.0
147
0.0
147
0.0
147
0.0
147
0.0208333333333333
147
0.0
147
0.0
147
0.0
147
0.0
147
1.0
147
0.0
147
0.0
147
0.0
147
0.0
147
1.0
  0
MATERIAL
  5
21
102
{ACAD_XDICTIONARY
360
22
102
}
102
{ACAD_REACTORS
330
10
102
}
330
10
100
AcDbMaterial
  1
Global
 72
     0
 43
0.0208333333333333
 43
0.0
 43
0.0
 43
0.0
 43
0.0
 43
0.0208333333333333
 43
0.0
 43
0.0
 43
0.0
 43
0.0
 43
1.0
 43
0.0
 43
0.0
 43
0.0
 43
0.0
 43
1.0
 77
     0
 47
0.0208333333333333
 47
0.0
 47
0.0
 47
0.0
 47
0.0
 47
0.0208333333333333
 47
0.0
 47
0.0
 47
0.0
 47
0.0
 47
1.0
 47
0.0
 47
0.0
 47
0.0
 47
0.0
 47
1.0
171
     0
 49
0.0208333333333333
 49
0.0
 49
0.0
 49
0.0
 49
0.0
 49
0.0208333333333333
 49
0.0
 49
0.0
 49
0.0
 49
0.0
 49
1.0
 49
0.0
 49
0.0
 49
0.0
 49
0.0
 49
1.0
175
     0
142
0.0208333333333333
142
0.0
142
0.0
142
0.0
142
0.0
142
0.0208333333333333
142
0.0
142
0.0
142
0.0
142
0.0
142
1.0
142
0.0
142
0.0
142
0.0
142
0.0
142
1.0
179
     0
144
0.0208333333333333
144
0.0
144
0.0
144
0.0
144
0.0
144
0.0208333333333333
144
0.0
144
0.0
144
0.0
144
0.0
144
1.0
144
0.0
144
0.0
144
0.0
144
0.0
144
1.0
147
0.0208333333333333
147
0.0
147
0.0
147
0.0
147
0.0
147
0.0208333333333333
147
0.0
147
0.0
147
0.0
147
0.0
147
1.0
147
0.0
147
0.0
147
0.0
147
0.0
147
1.0
  0
MLEADERSTYLE
  5
67
102
{ACAD_REACTORS
330
66
102
}
330
66
100
AcDbMLeaderStyle
179
     2
170
     2
171
     1
172
     0
 90
        2
 40
0.0
 41
0.0
173
     1
 91
-1056964608
340
5B
 92
       -2
290
     1
 42
0.09
291
     1
 43
0.36
  3
Standard
 44
0.18
300

342
55
174
     1
178
     6
175
     1
176
     0
 93
-1056964608
 45
0.18
292
     0
297
     0
 46
0.18
 94
-1056964608
 47
1.0
 49
1.0
140
1.0
293
     1
141
0.0
294
     1
177
     0
142
1.0
295
     1
296
     0
143
0.125
271
     0
272
     9
273
     9
298
     1
  0
MLINESTYLE
  5
60
102
{ACAD_REACTORS
330
5F
102
}
330
5F
100
AcDbMlineStyle
  2
STANDARD
 70
     0
  3

 62
   256
 51
90.0
 52
90.0
 71
     2
 49
0.5
 62
   256
  6
BYLAYER
 49
-0.5
 62
   256
  6
BYLAYER
  0
ACDBPLACEHOLDER
  5
F
102
{ACAD_REACTORS
330
E
102
}
330
E
  0
SCALE
  5
43
102
{ACAD_REACTORS
330
42
102
}
330
42
100
AcDbScale
 70
     0
300
1:1
140
1.0
141
1.0
290
     1
  0
SCALE
  5
44
102
{ACAD_REACTORS
330
42
102
}
330
42
100
AcDbScale
 70
     0
300
1/128" = 1'-0"
140
0.0078125
141
12.0
290
     0
  0
SCALE
  5
45
102
{ACAD_REACTORS
330
42
102
}
330
42
100
AcDbScale
 70
     0
300
1/64" = 1'-0"
140
0.015625
141
12.0
290
     0
  0
SCALE
  5
46
102
{ACAD_REACTORS
330
42
102
}
330
42
100
AcDbScale
 70
     0
300
1/32" = 1'-0"
140
0.03125
141
12.0
290
     0
  0
SCALE
  5
47
102
{ACAD_REACTORS
330
42
102
}
330
42
100
AcDbScale
 70
     0
300
1/16" = 1'-0"
140
0.0625
141
12.0
290
     0
  0
SCALE
  5
48
102
{ACAD_REACTORS
330
42
102
}
330
42
100
AcDbScale
 70
     0
300
3/32" = 1'-0"
140
0.09375
141
12.0
290
     0
  0
SCALE
  5
49
102
{ACAD_REACTORS
330
42
102
}
330
42
100
AcDbScale
 70
     0
300
1/8" = 1'-0"
140
0.125
141
12.0
290
     0
  0
SCALE
  5
4A
102
{ACAD_REACTORS
330
42
102
}
330
42
100
AcDbScale
 70
     0
300
3/16" = 1'-0"
140
0.1875
141
12.0
290
     0
  0
SCALE
  5
4B
102
{ACAD_REACTORS
330
42
102
}
330
42
100
AcDbScale
 70
     0
300
1/4" = 1'-0"
140
0.25
141
12.0
290
     0
  0
SCALE
  5
4C
102
{ACAD_REACTORS
330
42
102
}
330
42
100
AcDbScale
 70
     0
300
3/8" = 1'-0"
140
0.375
141
12.0
290
     0
  0
SCALE
  5
4D
102
{ACAD_REACTORS
330
42
102
}
330
42
100
AcDbScale
 70
     0
300
1/2" = 1'-0"
140
0.5
141
12.0
290
     0
  0
SCALE
  5
4E
102
{ACAD_REACTORS
330
42
102
}
330
42
100
AcDbScale
 70
     0
300
3/4" = 1'-0"
140
0.75
141
12.0
290
     0
  0
SCALE
  5
4F
102
{ACAD_REACTORS
330
42
102
}
330
42
100
AcDbScale
 70
     0
300
1" = 1'-0"
140
1.0
141
12.0
290
     0
  0
SCALE
  5
50
102
{ACAD_REACTORS
330
42
102
}
330
42
100
AcDbScale
 70
     0
300
1-1/2" = 1'-0"
140
1.5
141
12.0
290
     0
  0
SCALE
  5
51
102
{ACAD_REACTORS
330
42
102
}
330
42
100
AcDbScale
 70
     0
300
3" = 1'-0"
140
3.0
141
12.0
290
     0
  0
SCALE
  5
52
102
{ACAD_REACTORS
330
42
102
}
330
42
100
AcDbScale
 70
     0
300
6" = 1'-0"
140
6.0
141
12.0
290
     0
  0
SCALE
  5
53
102
{ACAD_REACTORS
330
42
102
}
330
42
100
AcDbScale
 70
     0
300
1'-0" = 1'-0"
140
12.0
141
12.0
290
     0
  0
ACDBSECTIONVIEWSTYLE
  5
69
102
{ACAD_REACTORS
330
68
102
}
330
68
100
AcDbModelDocViewStyle
 70
     0
  3
Imperial24
290
     1
300
Imperial24
 90
        0
100
AcDbSectionViewStyle
 70
     0
 71
     0
 90
       78
 71
     1
340
55
 62
   256
 40
0.24
340
0
340
0
 62
   256
 40
0.24
300
I, O, Q, S, X, Z
 40
0.48
 90
        3
 40
0.18
 90
        1
 71
     2
340
5D
 90
       25
 62
   256
340
5D
 90
       50
 62
   256
 40
0.24
 40
0.0
 40
0.24
 71
     3
340
55
 62
   256
 40
0.24
 90
        1
 40
0.75
 90
        1
300
%<\AcVar ViewType \f "%tc1">% %<\AcVar ViewSectionStartId>%-%<\AcVar ViewSectionEndId>%\PSCALE %<\AcVar ViewScale \f "%sn">%
 71
     4
 62
   256
 62
   257
300
ANSI31
 40
1.0
 90
        0
290
     0
290
     0
 90
        6
 40
0.0
 40
1.570796326794896
 40
0.2617993877991494
 40
1.308996938995747
 40
-0.2617993877991494
 40
1.832595714594046
  0
TABLESTYLE
  5
65
102
{ACAD_XDICTIONARY
360
B3
102
}
102
{ACAD_REACTORS
330
64
102
}
330
64
100
AcDbTableStyle
280
     0
  3
Standard
 70
     0
 71
     0
 40
0.06
 41
0.06
280
     0
281
     0
  7
Standard
140
0.18
170
     2
 62
     0
 63
     7
283
     0
 90
      512
 91
        0
  1

274
    -2
284
     1
 64
     0
275
    -2
285
     1
 65
     0
276
    -2
286
     1
 66
     0
277
    -2
287
     1
 67
     0
278
    -2
288
     1
 68
     0
279
    -2
289
     1
 69
     0
  7
Standard
140
0.25
170
     5
 62
     0
 63
     7
283
     0
 90
      512
 91
        0
  1

274
    -2
284
     1
 64
     0
275
    -2
285
     1
 65
     0
276
    -2
286
     1
 66
     0
277
    -2
287
     1
 67
     0
278
    -2
288
     1
 68
     0
279
    -2
289
     1
 69
     0
  7
Standard
140
0.18
170
     5
 62
     0
 63
     7
283
     0
 90
      512
 91
        0
  1

274
    -2
284
     1
 64
     0
275
    -2
285
     1
 65
     0
276
    -2
286
     1
 66
     0
277
    -2
287
     1
 67
     0
278
    -2
288
     1
 68
     0
279
    -2
289
     1
 69
     0
  0
VISUALSTYLE
  5
2F
102
{ACAD_REACTORS
330
29
102
}
330
29
100
AcDbVisualStyle
  2
2dWireframe
 70
     4
177
     3
291
     0
 70
    58
 90
        0
176
     1
 90
        2
176
     1
 90
        0
176
     1
 90
        0
176
     1
 40
0.6
176
     1
 40
30.0
176
     1
 62
     7
420
 16777215
176
     1
 90
        1
176
     1
 90
        4
176
     1
 62
     7
176
     1
 62
   257
176
     1
 90
        1
176
     1
 90
        1
176
     1
 40
1.0
176
     1
 90
        0
176
     1
 62
   257
176
     1
 40
1.0
176
     1
 90
        1
176
     1
 90
        6
176
     1
 90
        2
176
     1
 62
     7
176
     1
 90
        5
176
     1
 90
        0
176
     1
 90
        0
176
     1
290
     0
176
     1
 90
        1
176
     1
 40
0.0
176
     1
 90
        0
176
     1
290
     1
176
     1
290
     1
176
     1
290
     0
176
     1
290
     0
176
     1
290
     0
176
     1
290
     0
176
     1
290
     0
176
     1
290
     0
176
     1
290
     0
176
     1
 90
       50
176
     1
 40
0.0
176
     1
 40
1.0
176
     1
 90
        0
176
     1
 62
    18
420
        0
176
     1
 90
       50
176
     1
 90
        3
176
     1
 62
     5
420
      255
176
     1
290
     0
176
     1
 90
       50
176
     1
 90
       50
176
     1
 90
       50
176
     1
290
     0
176
     1
 90
       50
176
     1
 62
   256
176
     0
 40
1.0
176
     0
 90
        2
176
     1
  1
strokes_ogs.tif
176
     1
290
     0
176
     1
 40
1.0
176
     1
 40
1.0
176
     1
  0
VISUALSTYLE
  5
2E
102
{ACAD_REACTORS
330
29
102
}
330
29
100
AcDbVisualStyle
  2
Basic
 70
     7
177
     3
291
     1
 70
    58
 90
        1
176
     1
 90
        0
176
     1
 90
        1
176
     1
 90
        0
176
     1
 40
0.6
176
     1
 40
30.0
176
     1
 62
     7
420
 16777215
176
     1
 90
        0
176
     1
 90
        4
176
     1
 62
     7
176
     1
 62
   257
176
     1
 90
        1
176
     1
 90
        1
176
     1
 40
1.0
176
     1
 90
        8
176
     1
 62
     7
176
     1
 40
1.0
176
     1
 90
        1
176
     1
 90
        6
176
     1
 90
        2
176
     1
 62
     7
176
     1
 90
        5
176
     1
 90
        0
176
     1
 90
        0
176
     1
290
     0
176
     1
 90
        1
176
     1
 40
0.0
176
     1
 90
        0
176
     1
290
     0
176
     1
290
     1
176
     1
290
     1
176
     1
290
     0
176
     1
290
     0
176
     1
290
     0
176
     1
290
     0
176
     1
290
     0
176
     1
290
     0
176
     1
 90
       50
176
     1
 40
0.0
176
     1
 40
1.0
176
     1
 90
        0
176
     1
 62
    18
420
        0
176
     1
 90
       50
176
     1
 90
        3
176
     1
 62
     5
420
      255
176
     1
290
     0
176
     1
 90
       50
176
     1
 90
       50
176
     1
 90
       50
176
     1
290
     0
176
     1
 90
       50
176
     1
 62
   256
176
     0
 40
1.0
176
     0
 90
        2
176
     1
  1
strokes_ogs.tif
176
     1
290
     0
176
     1
 40
1.0
176
     1
 40
1.0
176
     1
  0
VISUALSTYLE
  5
35
102
{ACAD_REACTORS
330
29
102
}
330
29
100
AcDbVisualStyle
  2
Brighten
 70
    12
177
     3
291
     1
 70
    58
 90
        2
176
     1
 90
        2
176
     1
 90
        0
176
     1
 90
        0
176
     1
 40
0.6
176
     1
 40
30.0
176
     1
 62
     7
420
 16777215
176
     1
 90
        1
176
     1
 90
        4
176
     1
 62
     7
176
     1
 62
   257
176
     1
 90
        1
176
     1
 90
        1
176
     1
 40
1.0
176
     1
 90
        8
176
     1
 62
     7
176
     1
 40
1.0
176
     1
 90
        1
176
     1
 90
        6
176
     1
 90
        2
176
     1
 62
     7
176
     1
 90
        5
176
     1
 90
        0
176
     1
 90
        0
176
     1
290
     0
176
     1
 90
        1
176
     1
 40
50.0
176
     1
 90
        0
176
     1
290
     0
176
     1
290
     1
176
     1
290
     1
176
     1
290
     0
176
     1
290
     0
176
     1
290
     0
176
     1
290
     0
176
     1
290
     0
176
     1
290
     0
176
     1
 90
       50
176
     1
 40
0.0
176
     1
 40
1.0
176
     1
 90
        0
176
     1
 62
    18
420
        0
176
     1
 90
       50
176
     1
 90
        3
176
     1
 62
     5
420
      255
176
     1
290
     0
176
     1
 90
       50
176
     1
 90
       50
176
     1
 90
       50
176
     1
290
     0
176
     1
 90
       50
176
     1
 62
   256
176
     0
 40
1.0
176
     0
 90
        2
176
     1
  1
strokes_ogs.tif
176
     1
290
     0
176
     1
 40
1.0
176
     1
 40
1.0
176
     1
  0
VISUALSTYLE
  5
39
102
{ACAD_REACTORS
330
29
102
}
330
29
100
AcDbVisualStyle
  2
ColorChange
 70
    16
177
     3
291
     1
 70
    58
 90
        2
176
     1
 90
        2
176
     1
 90
        3
176
     1
 90
        0
176
     1
 40
0.6
176
     1
 40
30.0
176
     1
 62
     8
420
  8421504
176
     1
 90
        1
176
     1
 90
        4
176
     1
 62
     7
176
     1
 62
   257
176
     1
 90
        1
176
     1
 90
        1
176
     1
 40
1.0
176
     1
 90
        8
176
     1
 62
     8
420
  8421504
176
     1
 40
1.0
176
     1
 90
        1
176
     1
 90
        6
176
     1
 90
        2
176
     1
 62
     7
176
     1
 90
        5
176
     1
 90
        0
176
     1
 90
        0
176
     1
290
     0
176
     1
 90
        1
176
     1
 40
0.0
176
     1
 90
        0
176
     1
290
     0
176
     1
290
     1
176
     1
290
     1
176
     1
290
     0
176
     1
290
     0
176
     1
290
     0
176
     1
290
     0
176
     1
290
     0
176
     1
290
     0
176
     1
 90
       50
176
     1
 40
0.0
176
     1
 40
1.0
176
     1
 90
        0
176
     1
 62
    18
420
        0
176
     1
 90
       50
176
     1
 90
        3
176
     1
 62
     5
420
      255
176
     1
290
     0
176
     1
 90
       50
176
     1
 90
       50
176
     1
 90
       50
176
     1
290
     0
176
     1
 90
       50
176
     1
 62
   256
176
     0
 40
1.0
176
     0
 90
        2
176
     1
  1
strokes_ogs.tif
176
     1
290
     0
176
     1
 40
1.0
176
     1
 40
1.0
176
     1
  0
VISUALSTYLE
  5
32
102
{ACAD_REACTORS
330
29
102
}
330
29
100
AcDbVisualStyle
  2
Conceptual
 70
     9
177
     3
291
     0
 70
    58
 90
        3
176
     1
 90
        2
176
     1
 90
        0
176
     1
 90
        0
176
     1
 40
0.6
176
     1
 40
30.0
176
     1
 62
     7
420
 16777215
176
     1
 90
        2
176
     1
 90
        2
176
     1
 62
     7
176
     1
 62
   257
176
     1
 90
        1
176
     1
 90
        1
176
     1
 40
179.0
176
     1
 90
        8
176
     1
 62
     7
176
     1
 40
1.0
176
     1
 90
        1
176
     1
 90
        6
176
     1
 90
        2
176
     1
 62
     7
176
     1
 90
        3
176
     1
 90
        0
176
     1
 90
        0
176
     1
290
     0
176
     1
 90
        1
176
     1
 40
0.0
176
     1
 90
        0
176
     1
290
     0
176
     1
290
     1
176
     1
290
     1
176
     1
290
     0
176
     1
290
     0
176
     1
290
     0
176
     1
290
     0
176
     1
290
     0
176
     1
290
     0
176
     1
 90
       50
176
     1
 40
0.0
176
     1
 40
1.0
176
     1
 90
        0
176
     1
 62
    18
420
        0
176
     1
 90
       50
176
     1
 90
        3
176
     1
 62
     5
420
      255
176
     1
290
     0
176
     1
 90
       50
176
     1
 90
       50
176
     1
 90
       50
176
     1
290
     0
176
     1
 90
       50
176
     1
 62
   256
176
     0
 40
1.0
176
     0
 90
        2
176
     1
  1
strokes_ogs.tif
176
     1
290
     0
176
     1
 40
1.0
176
     1
 40
1.0
176
     1
  0
VISUALSTYLE
  5
34
102
{ACAD_REACTORS
330
29
102
}
330
29
100
AcDbVisualStyle
  2
Dim
 70
    11
177
     3
291
     1
 70
    58
 90
        2
176
     1
 90
        2
176
     1
 90
        0
176
     1
 90
        0
176
     1
 40
0.6
176
     1
 40
30.0
176
     1
 62
     7
420
 16777215
176
     1
 90
        1
176
     1
 90
        4
176
     1
 62
     7
176
     1
 62
   257
176
     1
 90
        1
176
     1
 90
        1
176
     1
 40
1.0
176
     1
 90
        8
176
     1
 62
     7
176
     1
 40
1.0
176
     1
 90
        1
176
     1
 90
        6
176
     1
 90
        2
176
     1
 62
     7
176
     1
 90
        5
176
     1
 90
        0
176
     1
 90
        0
176
     1
290
     0
176
     1
 90
        1
176
     1
 40
-50.0
176
     1
 90
        0
176
     1
290
     0
176
     1
290
     1
176
     1
290
     1
176
     1
290
     0
176
     1
290
     0
176
     1
290
     0
176
     1
290
     0
176
     1
290
     0
176
     1
290
     0
176
     1
 90
       50
176
     1
 40
0.0
176
     1
 40
1.0
176
     1
 90
        0
176
     1
 62
    18
420
        0
176
     1
 90
       50
176
     1
 90
        3
176
     1
 62
     5
420
      255
176
     1
290
     0
176
     1
 90
       50
176
     1
 90
       50
176
     1
 90
       50
176
     1
290
     0
176
     1
 90
       50
176
     1
 62
   256
176
     0
 40
1.0
176
     0
 90
        2
176
     1
  1
strokes_ogs.tif
176
     1
290
     0
176
     1
 40
1.0
176
     1
 40
1.0
176
     1
  0
VISUALSTYLE
  5
41
102
{ACAD_REACTORS
330
29
102
}
330
29
100
AcDbVisualStyle
  2
EdgeColorOff
 70
    22
177
     3
291
     1
 70
    58
 90
        2
176
     0
 90
        2
176
     0
 90
        0
176
     0
 90
        0
176
     0
 40
0.6
176
     0
 40
30.0
176
     0
 62
     7
420
 16777215
176
     0
 90
        1
176
     0
 90
        4
176
     0
 62
     7
176
     0
 62
   257
176
     0
 90
        1
176
     0
 90
        1
176
     0
 40
1.0
176
     0
 90
        8
176
     2
 62
     7
176
     0
 40
1.0
176
     0
 90
        1
176
     0
 90
        6
176
     0
 90
        2
176
     0
 62
     7
176
     0
 90
        5
176
     0
 90
        0
176
     0
 90
        0
176
     0
290
     0
176
     0
 90
        1
176
     0
 40
0.0
176
     0
 90
        0
176
     0
290
     0
176
     0
290
     1
176
     0
290
     1
176
     0
290
     0
176
     0
290
     0
176
     0
290
     0
176
     0
290
     0
176
     0
290
     0
176
     0
290
     0
176
     0
 90
       50
176
     0
 40
0.0
176
     0
 40
1.0
176
     0
 90
        0
176
     0
 62
    18
420
        0
176
     0
 90
       50
176
     0
 90
        3
176
     0
 62
     5
420
      255
176
     0
290
     0
176
     0
 90
       50
176
     0
 90
       50
176
     0
 90
       50
176
     0
290
     0
176
     0
 90
       50
176
     0
 62
   256
176
     0
 40
1.0
176
     0
 90
        2
176
     0
  1
strokes_ogs.tif
176
     0
290
     0
176
     0
 40
1.0
176
     0
 40
1.0
176
     0
  0
VISUALSTYLE
  5
38
102
{ACAD_REACTORS
330
29
102
}
330
29
100
AcDbVisualStyle
  2
Facepattern
 70
    15
177
     3
291
     1
 70
    58
 90
        2
176
     1
 90
        2
176
     1
 90
        0
176
     1
 90
        0
176
     1
 40
0.6
176
     1
 40
30.0
176
     1
 62
     7
420
 16777215
176
     1
 90
        1
176
     1
 90
        4
176
     1
 62
     7
176
     1
 62
   257
176
     1
 90
        1
176
     1
 90
        1
176
     1
 40
1.0
176
     1
 90
        8
176
     1
 62
     7
176
     1
 40
1.0
176
     1
 90
        1
176
     1
 90
        6
176
     1
 90
        2
176
     1
 62
     7
176
     1
 90
        5
176
     1
 90
        0
176
     1
 90
        0
176
     1
290
     0
176
     1
 90
        1
176
     1
 40
0.0
176
     1
 90
        0
176
     1
290
     0
176
     1
290
     1
176
     1
290
     1
176
     1
290
     0
176
     1
290
     0
176
     1
290
     0
176
     1
290
     0
176
     1
290
     0
176
     1
290
     0
176
     1
 90
       50
176
     1
 40
0.0
176
     1
 40
1.0
176
     1
 90
        0
176
     1
 62
    18
420
        0
176
     1
 90
       50
176
     1
 90
        3
176
     1
 62
     5
420
      255
176
     1
290
     0
176
     1
 90
       50
176
     1
 90
       50
176
     1
 90
       50
176
     1
290
     0
176
     1
 90
       50
176
     1
 62
   256
176
     0
 40
1.0
176
     0
 90
        2
176
     1
  1
strokes_ogs.tif
176
     1
290
     0
176
     1
 40
1.0
176
     1
 40
1.0
176
     1
  0
VISUALSTYLE
  5
2A
102
{ACAD_REACTORS
330
29
102
}
330
29
100
AcDbVisualStyle
  2
Flat
 70
     0
177
     3
291
     1
 70
    58
 90
        2
176
     1
 90
        1
176
     1
 90
        1
176
     1
 90
        2
176
     1
 40
0.6
176
     1
 40
30.0
176
     1
 62
     7
420
 16777215
176
     1
 90
        0
176
     1
 90
        0
176
     1
 62
     7
176
     1
 62
   257
176
     1
 90
        1
176
     1
 90
        1
176
     1
 40
1.0
176
     1
 90
        8
176
     1
 62
     7
176
     1
 40
1.0
176
     1
 90
        1
176
     1
 90
        6
176
     1
 90
        2
176
     1
 62
     7
176
     1
 90
        5
176
     1
 90
        0
176
     1
 90
        0
176
     1
290
     0
176
     1
 90
       13
176
     1
 40
0.0
176
     1
 90
        0
176
     1
290
     0
176
     1
290
     1
176
     1
290
     1
176
     1
290
     0
176
     1
290
     0
176
     1
290
     0
176
     1
290
     0
176
     1
290
     0
176
     1
290
     0
176
     1
 90
       50
176
     1
 40
0.0
176
     1
 40
1.0
176
     1
 90
        0
176
     1
 62
    18
420
        0
176
     1
 90
       50
176
     1
 90
        3
176
     1
 62
     5
420
      255
176
     1
290
     0
176
     1
 90
       50
176
     1
 90
       50
176
     1
 90
       50
176
     1
290
     0
176
     1
 90
       50
176
     1
 62
   256
176
     0
 40
1.0
176
     0
 90
        2
176
     1
  1
strokes_ogs.tif
176
     1
290
     0
176
     1
 40
1.0
176
     1
 40
1.0
176
     1
  0
VISUALSTYLE
  5
2B
102
{ACAD_REACTORS
330
29
102
}
330
29
100
AcDbVisualStyle
  2
FlatWithEdges
 70
     1
177
     3
291
     1
 70
    58
 90
        2
176
     1
 90
        1
176
     1
 90
        1
176
     1
 90
        2
176
     1
 40
0.6
176
     1
 40
30.0
176
     1
 62
     7
420
 16777215
176
     1
 90
        1
176
     1
 90
        0
176
     1
 62
     7
176
     1
 62
   257
176
     1
 90
        1
176
     1
 90
        1
176
     1
 40
1.0
176
     1
 90
        0
176
     1
 62
   257
176
     1
 40
1.0
176
     1
 90
        1
176
     1
 90
        6
176
     1
 90
        2
176
     1
 62
     7
176
     1
 90
        5
176
     1
 90
        0
176
     1
 90
        0
176
     1
290
     0
176
     1
 90
       13
176
     1
 40
0.0
176
     1
 90
        0
176
     1
290
     0
176
     1
290
     1
176
     1
290
     1
176
     1
290
     0
176
     1
290
     0
176
     1
290
     0
176
     1
290
     0
176
     1
290
     0
176
     1
290
     0
176
     1
 90
       50
176
     1
 40
0.0
176
     1
 40
1.0
176
     1
 90
        0
176
     1
 62
    18
420
        0
176
     1
 90
       50
176
     1
 90
        3
176
     1
 62
     5
420
      255
176
     1
290
     0
176
     1
 90
       50
176
     1
 90
       50
176
     1
 90
       50
176
     1
290
     0
176
     1
 90
       50
176
     1
 62
   256
176
     0
 40
1.0
176
     0
 90
        2
176
     1
  1
strokes_ogs.tif
176
     1
290
     0
176
     1
 40
1.0
176
     1
 40
1.0
176
     1
  0
VISUALSTYLE
  5
2C
102
{ACAD_REACTORS
330
29
102
}
330
29
100
AcDbVisualStyle
  2
Gouraud
 70
     2
177
     3
291
     1
 70
    58
 90
        2
176
     1
 90
        2
176
     1
 90
        1
176
     1
 90
        2
176
     1
 40
0.6
176
     1
 40
30.0
176
     1
 62
     7
420
 16777215
176
     1
 90
        0
176
     1
 90
        0
176
     1
 62
     7
176
     1
 62
   257
176
     1
 90
        1
176
     1
 90
        1
176
     1
 40
1.0
176
     1
 90
        0
176
     1
 62
     7
176
     1
 40
1.0
176
     1
 90
        1
176
     1
 90
        6
176
     1
 90
        2
176
     1
 62
     7
176
     1
 90
        5
176
     1
 90
        0
176
     1
 90
        0
176
     1
290
     0
176
     1
 90
       13
176
     1
 40
0.0
176
     1
 90
        0
176
     1
290
     0
176
     1
290
     1
176
     1
290
     1
176
     1
290
     0
176
     1
290
     0
176
     1
290
     0
176
     1
290
     0
176
     1
290
     0
176
     1
290
     0
176
     1
 90
       50
176
     1
 40
0.0
176
     1
 40
1.0
176
     1
 90
        0
176
     1
 62
    18
420
        0
176
     1
 90
       50
176
     1
 90
        3
176
     1
 62
     5
420
      255
176
     1
290
     0
176
     1
 90
       50
176
     1
 90
       50
176
     1
 90
       50
176
     1
290
     0
176
     1
 90
       50
176
     1
 62
   256
176
     0
 40
1.0
176
     0
 90
        2
176
     1
  1
strokes_ogs.tif
176
     1
290
     0
176
     1
 40
1.0
176
     1
 40
1.0
176
     1
  0
VISUALSTYLE
  5
2D
102
{ACAD_REACTORS
330
29
102
}
330
29
100
AcDbVisualStyle
  2
GouraudWithEdges
 70
     3
177
     3
291
     1
 70
    58
 90
        2
176
     1
 90
        2
176
     1
 90
        1
176
     1
 90
        2
176
     1
 40
0.6
176
     1
 40
30.0
176
     1
 62
     7
420
 16777215
176
     1
 90
        1
176
     1
 90
        0
176
     1
 62
     7
176
     1
 62
   257
176
     1
 90
        1
176
     1
 90
        1
176
     1
 40
1.0
176
     1
 90
        0
176
     1
 62
   257
176
     1
 40
1.0
176
     1
 90
        1
176
     1
 90
        6
176
     1
 90
        2
176
     1
 62
     7
176
     1
 90
        5
176
     1
 90
        0
176
     1
 90
        0
176
     1
290
     0
176
     1
 90
       13
176
     1
 40
0.0
176
     1
 90
        0
176
     1
290
     0
176
     1
290
     1
176
     1
290
     1
176
     1
290
     0
176
     1
290
     0
176
     1
290
     0
176
     1
290
     0
176
     1
290
     0
176
     1
290
     0
176
     1
 90
       50
176
     1
 40
0.0
176
     1
 40
1.0
176
     1
 90
        0
176
     1
 62
    18
420
        0
176
     1
 90
       50
176
     1
 90
        3
176
     1
 62
     5
420
      255
176
     1
290
     0
176
     1
 90
       50
176
     1
 90
       50
176
     1
 90
       50
176
     1
290
     0
176
     1
 90
       50
176
     1
 62
   256
176
     0
 40
1.0
176
     0
 90
        2
176
     1
  1
strokes_ogs.tif
176
     1
290
     0
176
     1
 40
1.0
176
     1
 40
1.0
176
     1
  0
VISUALSTYLE
  5
31
102
{ACAD_REACTORS
330
29
102
}
330
29
100
AcDbVisualStyle
  2
Hidden
 70
     6
177
     3
291
     0
 70
    58
 90
        1
176
     1
 90
        2
176
     1
 90
        2
176
     1
 90
        0
176
     1
 40
0.6
176
     1
 40
30.0
176
     1
 62
     7
420
 16777215
176
     1
 90
        2
176
     1
 90
        2
176
     1
 62
     7
176
     1
 62
   257
176
     1
 90
        2
176
     1
 90
        1
176
     1
 40
40.0
176
     1
 90
        0
176
     1
 62
   257
176
     1
 40
1.0
176
     1
 90
        1
176
     1
 90
        6
176
     1
 90
        2
176
     1
 62
     7
176
     1
 90
        3
176
     1
 90
        0
176
     1
 90
        0
176
     1
290
     0
176
     1
 90
        1
176
     1
 40
0.0
176
     1
 90
        0
176
     1
290
     0
176
     1
290
     1
176
     1
290
     1
176
     1
290
     0
176
     1
290
     0
176
     1
290
     0
176
     1
290
     0
176
     1
290
     0
176
     1
290
     0
176
     1
 90
       50
176
     1
 40
0.0
176
     1
 40
1.0
176
     1
 90
        0
176
     1
 62
    18
420
        0
176
     1
 90
       50
176
     1
 90
        3
176
     1
 62
     5
420
      255
176
     1
290
     0
176
     1
 90
       50
176
     1
 90
       50
176
     1
 90
       50
176
     1
290
     0
176
     1
 90
       50
176
     1
 62
   256
176
     0
 40
1.0
176
     0
 90
        2
176
     1
  1
strokes_ogs.tif
176
     1
290
     0
176
     1
 40
1.0
176
     1
 40
1.0
176
     1
  0
VISUALSTYLE
  5
3F
102
{ACAD_REACTORS
330
29
102
}
330
29
100
AcDbVisualStyle
  2
JitterOff
 70
    20
177
     3
291
     1
 70
    58
 90
        2
176
     0
 90
        2
176
     0
 90
        0
176
     0
 90
        0
176
     0
 40
0.6
176
     0
 40
30.0
176
     0
 62
     7
420
 16777215
176
     0
 90
        1
176
     0
 90
        4
176
     0
 62
     7
176
     0
 62
   257
176
     0
 90
        1
176
     0
 90
        1
176
     0
 40
1.0
176
     0
 90
       10
176
     2
 62
     7
176
     0
 40
1.0
176
     0
 90
        1
176
     0
 90
        6
176
     0
 90
        2
176
     0
 62
     7
176
     0
 90
        5
176
     0
 90
        0
176
     0
 90
        0
176
     0
290
     0
176
     0
 90
        1
176
     0
 40
0.0
176
     0
 90
        0
176
     0
290
     0
176
     0
290
     1
176
     0
290
     1
176
     0
290
     0
176
     0
290
     0
176
     0
290
     0
176
     0
290
     0
176
     0
290
     0
176
     0
290
     0
176
     0
 90
       50
176
     0
 40
0.0
176
     0
 40
1.0
176
     0
 90
        0
176
     0
 62
    18
420
        0
176
     0
 90
       50
176
     0
 90
        3
176
     0
 62
     5
420
      255
176
     0
290
     0
176
     0
 90
       50
176
     0
 90
       50
176
     0
 90
       50
176
     0
290
     0
176
     0
 90
       50
176
     0
 62
   256
176
     0
 40
1.0
176
     0
 90
        2
176
     0
  1
strokes_ogs.tif
176
     0
290
     0
176
     0
 40
1.0
176
     0
 40
1.0
176
     0
  0
VISUALSTYLE
  5
37
102
{ACAD_REACTORS
330
29
102
}
330
29
100
AcDbVisualStyle
  2
Linepattern
 70
    14
177
     3
291
     1
 70
    58
 90
        2
176
     1
 90
        2
176
     1
 90
        0
176
     1
 90
        0
176
     1
 40
0.6
176
     1
 40
30.0
176
     1
 62
     7
420
 16777215
176
     1
 90
        1
176
     1
 90
        4
176
     1
 62
     7
176
     1
 62
   257
176
     1
 90
        7
176
     1
 90
        7
176
     1
 40
1.0
176
     1
 90
        8
176
     1
 62
     7
176
     1
 40
1.0
176
     1
 90
        1
176
     1
 90
        6
176
     1
 90
        2
176
     1
 62
     7
176
     1
 90
        5
176
     1
 90
        0
176
     1
 90
        0
176
     1
290
     0
176
     1
 90
        1
176
     1
 40
0.0
176
     1
 90
        0
176
     1
290
     0
176
     1
290
     1
176
     1
290
     1
176
     1
290
     0
176
     1
290
     0
176
     1
290
     0
176
     1
290
     0
176
     1
290
     0
176
     1
290
     0
176
     1
 90
       50
176
     1
 40
0.0
176
     1
 40
1.0
176
     1
 90
        0
176
     1
 62
    18
420
        0
176
     1
 90
       50
176
     1
 90
        3
176
     1
 62
     5
420
      255
176
     1
290
     0
176
     1
 90
       50
176
     1
 90
       50
176
     1
 90
       50
176
     1
290
     0
176
     1
 90
       50
176
     1
 62
   256
176
     0
 40
1.0
176
     0
 90
        2
176
     1
  1
strokes_ogs.tif
176
     1
290
     0
176
     1
 40
1.0
176
     1
 40
1.0
176
     1
  0
VISUALSTYLE
  5
40
102
{ACAD_REACTORS
330
29
102
}
330
29
100
AcDbVisualStyle
  2
OverhangOff
 70
    21
177
     3
291
     1
 70
    58
 90
        2
176
     0
 90
        2
176
     0
 90
        0
176
     0
 90
        0
176
     0
 40
0.6
176
     0
 40
30.0
176
     0
 62
     7
420
 16777215
176
     0
 90
        1
176
     0
 90
        4
176
     0
 62
     7
176
     0
 62
   257
176
     0
 90
        1
176
     0
 90
        1
176
     0
 40
1.0
176
     0
 90
        9
176
     2
 62
     7
176
     0
 40
1.0
176
     0
 90
        1
176
     0
 90
        6
176
     0
 90
        2
176
     0
 62
     7
176
     0
 90
        5
176
     0
 90
        0
176
     0
 90
        0
176
     0
290
     0
176
     0
 90
        1
176
     0
 40
0.0
176
     0
 90
        0
176
     0
290
     0
176
     0
290
     1
176
     0
290
     1
176
     0
290
     0
176
     0
290
     0
176
     0
290
     0
176
     0
290
     0
176
     0
290
     0
176
     0
290
     0
176
     0
 90
       50
176
     0
 40
0.0
176
     0
 40
1.0
176
     0
 90
        0
176
     0
 62
    18
420
        0
176
     0
 90
       50
176
     0
 90
        3
176
     0
 62
     5
420
      255
176
     0
290
     0
176
     0
 90
       50
176
     0
 90
       50
176
     0
 90
       50
176
     0
290
     0
176
     0
 90
       50
176
     0
 62
   256
176
     0
 40
1.0
176
     0
 90
        2
176
     0
  1
strokes_ogs.tif
176
     0
290
     0
176
     0
 40
1.0
176
     0
 40
1.0
176
     0
  0
VISUALSTYLE
  5
33
102
{ACAD_REACTORS
330
29
102
}
330
29
100
AcDbVisualStyle
  2
Realistic
 70
     8
177
     3
291
     0
 70
    58
 90
        2
176
     1
 90
        3
176
     1
 90
        0
176
     1
 90
        2
176
     1
 40
0.6
176
     1
 40
30.0
176
     1
 62
     7
420
 16777215
176
     1
 90
        0
176
     1
 90
        0
176
     1
 62
     7
176
     1
 62
   257
176
     1
 90
        1
176
     1
 90
        1
176
     1
 40
1.0
176
     1
 90
        8
176
     1
 62
   257
176
     1
 40
1.0
176
     1
 90
        1
176
     1
 90
        6
176
     1
 90
        2
176
     1
 62
     7
176
     1
 90
        3
176
     1
 90
        0
176
     1
 90
        0
176
     1
290
     0
176
     1
 90
       13
176
     1
 40
0.0
176
     1
 90
        0
176
     1
290
     0
176
     1
290
     1
176
     1
290
     1
176
     1
290
     0
176
     1
290
     0
176
     1
290
     0
176
     1
290
     0
176
     1
290
     0
176
     1
290
     0
176
     1
 90
       50
176
     1
 40
0.0
176
     1
 40
1.0
176
     1
 90
        0
176
     1
 62
    18
420
        0
176
     1
 90
       50
176
     1
 90
        3
176
     1
 62
     5
420
      255
176
     1
290
     0
176
     1
 90
       50
176
     1
 90
       50
176
     1
 90
       50
176
     1
290
     0
176
     1
 90
       50
176
     1
 62
   256
176
     0
 40
1.0
176
     0
 90
        2
176
     1
  1
strokes_ogs.tif
176
     1
290
     0
176
     1
 40
1.0
176
     1
 40
1.0
176
     1
  0
VISUALSTYLE
  5
3E
102
{ACAD_REACTORS
330
29
102
}
330
29
100
AcDbVisualStyle
  2
Shaded
 70
    27
177
     3
291
     0
 70
    58
 90
        2
176
     1
 90
        2
176
     1
 90
        1
176
     1
 90
        2
176
     1
 40
0.6
176
     1
 40
30.0
176
     1
 62
     7
420
 16777215
176
     1
 90
        0
176
     1
 90
        4
176
     1
 62
     7
176
     1
 62
   257
176
     1
 90
        1
176
     1
 90
        1
176
     1
 40
1.0
176
     1
 90
        8
176
     1
 62
   257
176
     1
 40
1.0
176
     1
 90
        1
176
     1
 90
        6
176
     1
 90
        2
176
     1
 62
     8
420
  7895160
176
     1
 90
        3
176
     1
 90
        0
176
     1
 90
        0
176
     1
290
     0
176
     1
 90
        5
176
     1
 40
0.0
176
     1
 90
        0
176
     1
290
     0
176
     1
290
     1
176
     1
290
     1
176
     1
290
     0
176
     1
290
     0
176
     1
290
     0
176
     1
290
     0
176
     1
290
     0
176
     1
290
     0
176
     1
 90
       50
176
     1
 40
0.0
176
     1
 40
1.0
176
     1
 90
        0
176
     1
 62
    18
420
        0
176
     1
 90
       50
176
     1
 90
        3
176
     1
 62
     5
420
      255
176
     1
290
     0
176
     1
 90
       50
176
     1
 90
       50
176
     1
 90
       50
176
     1
290
     0
176
     1
 90
       50
176
     1
 62
   256
176
     0
 40
1.0
176
     0
 90
        2
176
     1
  1
strokes_ogs.tif
176
     1
290
     0
176
     1
 40
1.0
176
     1
 40
1.0
176
     1
  0
VISUALSTYLE
  5
3D
102
{ACAD_REACTORS
330
29
102
}
330
29
100
AcDbVisualStyle
  2
Shaded with edges
 70
    26
177
     3
291
     0
 70
    58
 90
        2
176
     1
 90
        2
176
     1
 90
        1
176
     1
 90
        2
176
     1
 40
0.6
176
     1
 40
30.0
176
     1
 62
     7
420
 16777215
176
     1
 90
        1
176
     1
 90
        2
176
     1
 62
     7
176
     1
 62
   257
176
     1
 90
        2
176
     1
 90
        1
176
     1
 40
1.0
176
     1
 90
        8
176
     1
 62
   257
176
     1
 40
1.0
176
     1
 90
        1
176
     1
 90
        6
176
     1
 90
        2
176
     1
 62
     7
176
     1
 90
        3
176
     1
 90
        0
176
     1
 90
        0
176
     1
290
     0
176
     1
 90
        5
176
     1
 40
0.0
176
     1
 90
        0
176
     1
290
     0
176
     1
290
     1
176
     1
290
     1
176
     1
290
     0
176
     1
290
     0
176
     1
290
     0
176
     1
290
     0
176
     1
290
     0
176
     1
290
     0
176
     1
 90
       50
176
     1
 40
0.0
176
     1
 40
1.0
176
     1
 90
        0
176
     1
 62
    18
420
        0
176
     1
 90
       50
176
     1
 90
        3
176
     1
 62
     5
420
      255
176
     1
290
     0
176
     1
 90
       50
176
     1
 90
       50
176
     1
 90
       50
176
     1
290
     0
176
     1
 90
       50
176
     1
 62
   256
176
     0
 40
1.0
176
     0
 90
        2
176
     1
  1
strokes_ogs.tif
176
     1
290
     0
176
     1
 40
1.0
176
     1
 40
1.0
176
     1
  0
VISUALSTYLE
  5
3A
102
{ACAD_REACTORS
330
29
102
}
330
29
100
AcDbVisualStyle
  2
Shades of Gray
 70
    23
177
     3
291
     0
 70
    58
 90
        2
176
     1
 90
        2
176
     1
 90
        3
176
     1
 90
        0
176
     1
 40
0.6
176
     1
 40
30.0
176
     1
 62
     7
420
 16777215
176
     1
 90
        2
176
     1
 90
        2
176
     1
 62
     7
176
     1
 62
     7
176
     1
 90
        1
176
     1
 90
        1
176
     1
 40
40.0
176
     1
 90
        8
176
     1
 62
     7
176
     1
 40
1.0
176
     1
 90
        1
176
     1
 90
        6
176
     1
 90
        2
176
     1
 62
     7
176
     1
 90
        3
176
     1
 90
        0
176
     1
 90
        0
176
     1
290
     0
176
     1
 90
        1
176
     1
 40
0.0
176
     1
 90
        0
176
     1
290
     0
176
     1
290
     1
176
     1
290
     1
176
     1
290
     0
176
     1
290
     0
176
     1
290
     0
176
     1
290
     0
176
     1
290
     0
176
     1
290
     0
176
     1
 90
       50
176
     1
 40
0.0
176
     1
 40
1.0
176
     1
 90
        0
176
     1
 62
    18
420
        0
176
     1
 90
       50
176
     1
 90
        3
176
     1
 62
     5
420
      255
176
     1
290
     0
176
     1
 90
       50
176
     1
 90
       50
176
     1
 90
       50
176
     1
290
     0
176
     1
 90
       50
176
     1
 62
   256
176
     0
 40
1.0
176
     0
 90
        2
176
     1
  1
strokes_ogs.tif
176
     1
290
     0
176
     1
 40
1.0
176
     1
 40
1.0
176
     1
  0
VISUALSTYLE
  5
3B
102
{ACAD_REACTORS
330
29
102
}
330
29
100
AcDbVisualStyle
  2
Sketchy
 70
    24
177
     3
291
     0
 70
    58
 90
        1
176
     1
 90
        2
176
     1
 90
        2
176
     1
 90
        0
176
     1
 40
0.6
176
     1
 40
30.0
176
     1
 62
     7
420
 16777215
176
     1
 90
        2
176
     1
 90
        2
176
     1
 62
     7
176
     1
 62
     7
176
     1
 90
        1
176
     1
 90
        1
176
     1
 40
40.0
176
     1
 90
       11
176
     1
 62
     7
176
     1
 40
1.0
176
     1
 90
        1
176
     1
 90
        6
176
     1
 90
        2
176
     1
 62
     7
176
     1
 90
        6
176
     1
 90
        0
176
     1
 90
        0
176
     1
290
     0
176
     1
 90
        1
176
     1
 40
0.0
176
     1
 90
        0
176
     1
290
     0
176
     1
290
     1
176
     1
290
     1
176
     1
290
     0
176
     1
290
     0
176
     1
290
     0
176
     1
290
     0
176
     1
290
     0
176
     1
290
     0
176
     1
 90
       50
176
     1
 40
0.0
176
     1
 40
1.0
176
     1
 90
        0
176
     1
 62
    18
420
        0
176
     1
 90
       50
176
     1
 90
        3
176
     1
 62
     5
420
      255
176
     1
290
     0
176
     1
 90
       50
176
     1
 90
       50
176
     1
 90
       50
176
     1
290
     0
176
     1
 90
       50
176
     1
 62
   256
176
     0
 40
1.0
176
     0
 90
        2
176
     1
  1
strokes_ogs.tif
176
     1
290
     0
176
     1
 40
1.0
176
     1
 40
1.0
176
     1
  0
VISUALSTYLE
  5
36
102
{ACAD_REACTORS
330
29
102
}
330
29
100
AcDbVisualStyle
  2
Thicken
 70
    13
177
     3
291
     1
 70
    58
 90
        2
176
     1
 90
        2
176
     1
 90
        0
176
     1
 90
        0
176
     1
 40
0.6
176
     1
 40
30.0
176
     1
 62
     7
420
 16777215
176
     1
 90
        1
176
     1
 90
        4
176
     1
 62
     7
176
     1
 62
   257
176
     1
 90
        1
176
     1
 90
        1
176
     1
 40
1.0
176
     1
 90
       12
176
     1
 62
     7
176
     1
 40
1.0
176
     1
 90
        1
176
     1
 90
        6
176
     1
 90
        2
176
     1
 62
     7
176
     1
 90
        5
176
     1
 90
        0
176
     1
 90
        0
176
     1
290
     0
176
     1
 90
        1
176
     1
 40
0.0
176
     1
 90
        0
176
     1
290
     0
176
     1
290
     1
176
     1
290
     1
176
     1
290
     0
176
     1
290
     0
176
     1
290
     0
176
     1
290
     0
176
     1
290
     0
176
     1
290
     0
176
     1
 90
       50
176
     1
 40
0.0
176
     1
 40
1.0
176
     1
 90
        0
176
     1
 62
    18
420
        0
176
     1
 90
       50
176
     1
 90
        3
176
     1
 62
     5
420
      255
176
     1
290
     0
176
     1
 90
       50
176
     1
 90
       50
176
     1
 90
       50
176
     1
290
     0
176
     1
 90
       50
176
     1
 62
   256
176
     0
 40
1.0
176
     0
 90
        2
176
     1
  1
strokes_ogs.tif
176
     1
290
     0
176
     1
 40
1.0
176
     1
 40
1.0
176
     1
  0
VISUALSTYLE
  5
30
102
{ACAD_REACTORS
330
29
102
}
330
29
100
AcDbVisualStyle
  2
Wireframe
 70
     5
177
     3
291
     0
 70
    58
 90
        0
176
     1
 90
        2
176
     1
 90
        0
176
     1
 90
        0
176
     1
 40
0.6
176
     1
 40
30.0
176
     1
 62
     7
420
 16777215
176
     1
 90
        1
176
     1
 90
        4
176
     1
 62
     7
176
     1
 62
   257
176
     1
 90
        1
176
     1
 90
        1
176
     1
 40
1.0
176
     1
 90
        0
176
     1
 62
   257
176
     1
 40
1.0
176
     1
 90
        1
176
     1
 90
        6
176
     1
 90
        2
176
     1
 62
     7
176
     1
 90
        3
176
     1
 90
        0
176
     1
 90
        0
176
     1
290
     0
176
     1
 90
        1
176
     1
 40
0.0
176
     1
 90
        0
176
     1
290
     0
176
     1
290
     1
176
     1
290
     1
176
     1
290
     0
176
     1
290
     0
176
     1
290
     0
176
     1
290
     0
176
     1
290
     0
176
     1
290
     0
176
     1
 90
       50
176
     1
 40
0.0
176
     1
 40
1.0
176
     1
 90
        0
176
     1
 62
    18
420
        0
176
     1
 90
       50
176
     1
 90
        3
176
     1
 62
     5
420
      255
176
     1
290
     0
176
     1
 90
       50
176
     1
 90
       50
176
     1
 90
       50
176
     1
290
     0
176
     1
 90
       50
176
     1
 62
   256
176
     0
 40
1.0
176
     0
 90
        2
176
     1
  1
strokes_ogs.tif
176
     1
290
     0
176
     1
 40
1.0
176
     1
 40
1.0
176
     1
  0
VISUALSTYLE
  5
3C
102
{ACAD_REACTORS
330
29
102
}
330
29
100
AcDbVisualStyle
  2
X-Ray
 70
    25
177
     3
291
     0
 70
    58
 90
        2
176
     1
 90
        2
176
     1
 90
        1
176
     1
 90
        1
176
     1
 40
0.5
176
     1
 40
30.0
176
     1
 62
     7
420
 16777215
176
     1
 90
        1
176
     1
 90
        0
176
     1
 62
     7
176
     1
 62
   257
176
     1
 90
        1
176
     1
 90
        1
176
     1
 40
1.0
176
     1
 90
        8
176
     1
 62
     7
176
     1
 40
1.0
176
     1
 90
        1
176
     1
 90
        6
176
     1
 90
        2
176
     1
 62
     7
176
     1
 90
        3
176
     1
 90
        0
176
     1
 90
        0
176
     1
290
     0
176
     1
 90
       13
176
     1
 40
0.0
176
     1
 90
        0
176
     1
290
     0
176
     1
290
     1
176
     1
290
     1
176
     1
290
     0
176
     1
290
     0
176
     1
290
     0
176
     1
290
     0
176
     1
290
     0
176
     1
290
     0
176
     1
 90
       50
176
     1
 40
0.0
176
     1
 40
1.0
176
     1
 90
        0
176
     1
 62
    18
420
        0
176
     1
 90
       50
176
     1
 90
        3
176
     1
 62
     5
420
      255
176
     1
290
     0
176
     1
 90
       50
176
     1
 90
       50
176
     1
 90
       50
176
     1
290
     0
176
     1
 90
       50
176
     1
 62
   256
176
     0
 40
1.0
176
     0
 90
        2
176
     1
  1
strokes_ogs.tif
176
     1
290
     0
176
     1
 40
1.0
176
     1
 40
1.0
176
     1
  0
DICTIONARYVAR
  5
B2
102
{ACAD_REACTORS
330
AD
102
}
330
AD
100
DictionaryVariables
280
     0
  1
1:1
  0
DICTIONARYVAR
  5
AF
102
{ACAD_REACTORS
330
AD
102
}
330
AD
100
DictionaryVariables
280
     0
  1
STANDARD
  0
DICTIONARYVAR
  5
AE
102
{ACAD_REACTORS
330
AD
102
}
330
AD
100
DictionaryVariables
280
     0
  1
STANDARD
  0
DICTIONARYVAR
  5
B0
102
{ACAD_REACTORS
330
AD
102
}
330
AD
100
DictionaryVariables
280
     0
  1
Imperial24
  0
DICTIONARYVAR
  5
B1
102
{ACAD_REACTORS
330
AD
102
}
330
AD
100
DictionaryVariables
280
     0
  1
Imperial24
  0
DICTIONARY
  5
1A
330
19
100
AcDbDictionary
280
     1
281
     1
  3
BUMPTILE
360
1C
  3
DIFFUSETILE
360
1B
  3
OPACITYTILE
360
1F
  3
REFLECTIONTILE
360
1E
  3
REFRACTIONTILE
360
20
  3
SPECULARTILE
360
1D
  0
DICTIONARY
  5
12
330
11
100
AcDbDictionary
280
     1
281
     1
  3
BUMPTILE
360
14
  3
DIFFUSETILE
360
13
  3
OPACITYTILE
360
17
  3
REFLECTIONTILE
360
16
  3
REFRACTIONTILE
360
18
  3
SPECULARTILE
360
15
  0
DICTIONARY
  5
22
330
21
100
AcDbDictionary
280
     1
281
     1
  3
BUMPTILE
360
24
  3
DIFFUSETILE
360
23
  3
OPACITYTILE
360
27
  3
REFLECTIONTILE
360
26
  3
REFRACTIONTILE
360
28
  3
SPECULARTILE
360
25
  0
DICTIONARY
  5
B3
330
65
100
AcDbDictionary
280
     1
281
     1
  3
ACAD_ROUNDTRIP_2008_TABLESTYLE_CELLSTYLEMAP
360
B4
  0
XRECORD
  5
1C
102
{ACAD_REACTORS
330
1A
102
}
330
1A
100
AcDbXrecord
280
     1
270
     1
271
     1
  0
XRECORD
  5
1B
102
{ACAD_REACTORS
330
1A
102
}
330
1A
100
AcDbXrecord
280
     1
270
     1
271
     1
  0
XRECORD
  5
1F
102
{ACAD_REACTORS
330
1A
102
}
330
1A
100
AcDbXrecord
280
     1
270
     1
271
     1
  0
XRECORD
  5
1E
102
{ACAD_REACTORS
330
1A
102
}
330
1A
100
AcDbXrecord
280
     1
270
     1
271
     1
  0
XRECORD
  5
20
102
{ACAD_REACTORS
330
1A
102
}
330
1A
100
AcDbXrecord
280
     1
270
     1
271
     1
  0
XRECORD
  5
1D
102
{ACAD_REACTORS
330
1A
102
}
330
1A
100
AcDbXrecord
280
     1
270
     1
271
     1
  0
XRECORD
  5
14
102
{ACAD_REACTORS
330
12
102
}
330
12
100
AcDbXrecord
280
     1
270
     1
271
     1
  0
XRECORD
  5
13
102
{ACAD_REACTORS
330
12
102
}
330
12
100
AcDbXrecord
280
     1
270
     1
271
     1
  0
XRECORD
  5
17
102
{ACAD_REACTORS
330
12
102
}
330
12
100
AcDbXrecord
280
     1
270
     1
271
     1
  0
XRECORD
  5
16
102
{ACAD_REACTORS
330
12
102
}
330
12
100
AcDbXrecord
280
     1
270
     1
271
     1
  0
XRECORD
  5
18
102
{ACAD_REACTORS
330
12
102
}
330
12
100
AcDbXrecord
280
     1
270
     1
271
     1
  0
XRECORD
  5
15
102
{ACAD_REACTORS
330
12
102
}
330
12
100
AcDbXrecord
280
     1
270
     1
271
     1
  0
XRECORD
  5
24
102
{ACAD_REACTORS
330
22
102
}
330
22
100
AcDbXrecord
280
     1
270
     1
271
     1
  0
XRECORD
  5
23
102
{ACAD_REACTORS
330
22
102
}
330
22
100
AcDbXrecord
280
     1
270
     1
271
     1
  0
XRECORD
  5
27
102
{ACAD_REACTORS
330
22
102
}
330
22
100
AcDbXrecord
280
     1
270
     1
271
     1
  0
XRECORD
  5
26
102
{ACAD_REACTORS
330
22
102
}
330
22
100
AcDbXrecord
280
     1
270
     1
271
     1
  0
XRECORD
  5
28
102
{ACAD_REACTORS
330
22
102
}
330
22
100
AcDbXrecord
280
     1
270
     1
271
     1
  0
XRECORD
  5
25
102
{ACAD_REACTORS
330
22
102
}
330
22
100
AcDbXrecord
280
     1
270
     1
271
     1
  0
CELLSTYLEMAP
  5
B4
102
{ACAD_REACTORS
330
B3
102
}
330
B3
100
AcDbCellStyleMap
 90
        3
300
CELLSTYLE
  1
TABLEFORMAT_BEGIN
 90
        5
170
     1
 91
        0
 92
    32768
 62
   257
 93
        1
300
CONTENTFORMAT
  1
CONTENTFORMAT_BEGIN
 90
        0
 91
        0
 92
      512
 93
        0
300

 40
0.0
140
1.0
 94
        5
 62
     0
340
55
144
0.25
309
CONTENTFORMAT_END
171
     0
 94
        0
309
TABLEFORMAT_END
  1
CELLSTYLE_BEGIN
 90
        1
 91
        1
300
_TITLE
309
CELLSTYLE_END
300
CELLSTYLE
  1
TABLEFORMAT_BEGIN
 90
        5
170
     1
 91
        0
 92
        0
 62
   257
 93
        1
300
CONTENTFORMAT
  1
CONTENTFORMAT_BEGIN
 90
        0
 91
        0
 92
      512
 93
        0
300

 40
0.0
140
1.0
 94
        5
 62
     0
340
55
144
0.18
309
CONTENTFORMAT_END
171
     0
 94
        0
309
TABLEFORMAT_END
  1
CELLSTYLE_BEGIN
 90
        2
 91
        1
300
_HEADER
309
CELLSTYLE_END
300
CELLSTYLE
  1
TABLEFORMAT_BEGIN
 90
        5
170
     1
 91
        0
 92
        0
 62
   257
 93
        1
300
CONTENTFORMAT
  1
CONTENTFORMAT_BEGIN
 90
        0
 91
        0
 92
      512
 93
        0
300

 40
0.0
140
1.0
 94
        2
 62
     0
340
55
144
0.18
309
CONTENTFORMAT_END
171
     0
 94
        0
309
TABLEFORMAT_END
  1
CELLSTYLE_BEGIN
 90
        3
 91
        2
300
_DATA
309
CELLSTYLE_END
  0
ENDSEC
  0
EOF
