0
SECTION
2
HEADER
9
$INSUNITS
70
4
0
ENDSEC
0
SECTION
2
TABLES
0
TABLE
2
LTYPE
0
LTYPE
72
65
70
64
2
CONTINUOUS
3
______
73
0
40
0
0
ENDTAB
0
TABLE
2
LAYER
0
ENDTAB
0
ENDSEC
0
SECTION
2
ENTITIES
0
LINE
8
0
10
2.525
20
-2.525
11
16.525
21
-2.525
0
LINE
8
0
10
2.525
20
-16.525
11
16.525
21
-16.525
0
LINE
8
0
10
2.525
20
-2.525
11
2.525
21
-16.525
0
LINE
8
0
10
16.525
20
-2.525
11
16.525
21
-16.525
0
LINE
8
0
10
21.575
20
-2.525
11
35.575
21
-2.525
0
LINE
8
0
10
21.575
20
-16.525
11
35.575
21
-16.525
0
LINE
8
0
10
21.575
20
-2.525
11
21.575
21
-16.525
0
LINE
8
0
10
35.575
20
-2.525
11
35.575
21
-16.525
0
LINE
8
0
10
40.625
20
-2.525
11
54.625
21
-2.525
0
LINE
8
0
10
40.625
20
-16.525
11
54.625
21
-16.525
0
LINE
8
0
10
40.625
20
-2.525
11
40.625
21
-16.525
0
LINE
8
0
10
54.625
20
-2.525
11
54.625
21
-16.525
0
LINE
8
0
10
59.675
20
-2.525
11
73.675
21
-2.525
0
LINE
8
0
10
59.675
20
-16.525
11
73.675
21
-16.525
0
LINE
8
0
10
59.675
20
-2.525
11
59.675
21
-16.525
0
LINE
8
0
10
73.675
20
-2.525
11
73.675
21
-16.525
0
LINE
8
0
10
78.725
20
-2.525
11
92.725
21
-2.525
0
LINE
8
0
10
78.725
20
-16.525
11
92.725
21
-16.525
0
LINE
8
0
10
78.725
20
-2.525
11
78.725
21
-16.525
0
LINE
8
0
10
92.725
20
-2.525
11
92.725
21
-16.525
0
LINE
8
0
10
97.775
20
-2.525
11
111.775
21
-2.525
0
LINE
8
0
10
97.775
20
-16.525
11
111.775
21
-16.525
0
LINE
8
0
10
97.775
20
-2.525
11
97.775
21
-16.525
0
LINE
8
0
10
111.775
20
-2.525
11
111.775
21
-16.525
0
LINE
8
0
10
116.825
20
-2.525
11
130.825
21
-2.525
0
LINE
8
0
10
116.825
20
-16.525
11
130.825
21
-16.525
0
LINE
8
0
10
116.825
20
-2.525
11
116.825
21
-16.525
0
LINE
8
0
10
130.825
20
-2.525
11
130.825
21
-16.525
0
LINE
8
0
10
135.875
20
-2.525
11
149.875
21
-2.525
0
LINE
8
0
10
135.875
20
-16.525
11
149.875
21
-16.525
0
LINE
8
0
10
135.875
20
-2.525
11
135.875
21
-16.525
0
LINE
8
0
10
149.875
20
-2.525
11
149.875
21
-16.525
0
LINE
8
0
10
154.925
20
-2.525
11
168.925
21
-2.525
0
LINE
8
0
10
154.925
20
-16.525
11
168.925
21
-16.525
0
LINE
8
0
10
154.925
20
-2.525
11
154.925
21
-16.525
0
LINE
8
0
10
168.925
20
-2.525
11
168.925
21
-16.525
0
LINE
8
0
10
173.975
20
-2.525
11
187.975
21
-2.525
0
LINE
8
0
10
173.975
20
-16.525
11
187.975
21
-16.525
0
LINE
8
0
10
173.975
20
-2.525
11
173.975
21
-16.525
0
LINE
8
0
10
187.975
20
-2.525
11
187.975
21
-16.525
0
LINE
8
0
10
193.025
20
-2.525
11
207.025
21
-2.525
0
LINE
8
0
10
193.025
20
-16.525
11
207.025
21
-16.525
0
LINE
8
0
10
193.025
20
-2.525
11
193.025
21
-16.525
0
LINE
8
0
10
207.025
20
-2.525
11
207.025
21
-16.525
0
LINE
8
0
10
221.6
20
-2.525
11
235.6
21
-2.525
0
LINE
8
0
10
221.6
20
-16.525
11
235.6
21
-16.525
0
LINE
8
0
10
221.6
20
-2.525
11
221.6
21
-16.525
0
LINE
8
0
10
235.6
20
-2.525
11
235.6
21
-16.525
0
LINE
8
0
10
213.162
20
-3.525
11
220.162
21
-3.525
0
LINE
8
0
10
213.162
20
-18.525
11
220.162
21
-18.525
0
LINE
8
0
10
213.162
20
-3.525
11
213.162
21
-18.525
0
LINE
8
0
10
220.162
20
-3.525
11
220.162
21
-18.525
0
LINE
8
0
10
237.038
20
-3.525
11
244.038
21
-3.525
0
LINE
8
0
10
237.038
20
-18.525
11
244.038
21
-18.525
0
LINE
8
0
10
237.038
20
-3.525
11
237.038
21
-18.525
0
LINE
8
0
10
244.038
20
-3.525
11
244.038
21
-18.525
0
LINE
8
0
10
212.075
20
-2.525
11
226.075
21
-2.525
0
LINE
8
0
10
212.075
20
-16.525
11
226.075
21
-16.525
0
LINE
8
0
10
212.075
20
-2.525
11
212.075
21
-16.525
0
LINE
8
0
10
226.075
20
-2.525
11
226.075
21
-16.525
0
LINE
8
0
10
231.125
20
-2.525
11
245.125
21
-2.525
0
LINE
8
0
10
231.125
20
-16.525
11
245.125
21
-16.525
0
LINE
8
0
10
231.125
20
-2.525
11
231.125
21
-16.525
0
LINE
8
0
10
245.125
20
-2.525
11
245.125
21
-16.525
0
LINE
8
0
10
4.90625
20
-21.575
11
18.90625
21
-21.575
0
LINE
8
0
10
4.90625
20
-35.575
11
18.90625
21
-35.575
0
LINE
8
0
10
4.90625
20
-21.575
11
4.90625
21
-35.575
0
LINE
8
0
10
18.90625
20
-21.575
11
18.90625
21
-35.575
0
LINE
8
0
10
26.3375
20
-21.575
11
40.3375
21
-21.575
0
LINE
8
0
10
26.3375
20
-35.575
11
40.3375
21
-35.575
0
LINE
8
0
10
26.3375
20
-21.575
11
26.3375
21
-35.575
0
LINE
8
0
10
40.3375
20
-21.575
11
40.3375
21
-35.575
0
LINE
8
0
10
45.3875
20
-21.575
11
59.3875
21
-21.575
0
LINE
8
0
10
45.3875
20
-35.575
11
59.3875
21
-35.575
0
LINE
8
0
10
45.3875
20
-21.575
11
45.3875
21
-35.575
0
LINE
8
0
10
59.3875
20
-21.575
11
59.3875
21
-35.575
0
LINE
8
0
10
64.4375
20
-21.575
11
78.4375
21
-21.575
0
LINE
8
0
10
64.4375
20
-35.575
11
78.4375
21
-35.575
0
LINE
8
0
10
64.4375
20
-21.575
11
64.4375
21
-35.575
0
LINE
8
0
10
78.4375
20
-21.575
11
78.4375
21
-35.575
0
LINE
8
0
10
83.4875
20
-21.575
11
97.4875
21
-21.575
0
LINE
8
0
10
83.4875
20
-35.575
11
97.4875
21
-35.575
0
LINE
8
0
10
83.4875
20
-21.575
11
83.4875
21
-35.575
0
LINE
8
0
10
97.4875
20
-21.575
11
97.4875
21
-35.575
0
LINE
8
0
10
102.5375
20
-21.575
11
116.5375
21
-21.575
0
LINE
8
0
10
102.5375
20
-35.575
11
116.5375
21
-35.575
0
LINE
8
0
10
102.5375
20
-21.575
11
102.5375
21
-35.575
0
LINE
8
0
10
116.5375
20
-21.575
11
116.5375
21
-35.575
0
LINE
8
0
10
121.5875
20
-21.575
11
135.5875
21
-21.575
0
LINE
8
0
10
121.5875
20
-35.575
11
135.5875
21
-35.575
0
LINE
8
0
10
121.5875
20
-21.575
11
121.5875
21
-35.575
0
LINE
8
0
10
135.5875
20
-21.575
11
135.5875
21
-35.575
0
LINE
8
0
10
140.6375
20
-21.575
11
154.6375
21
-21.575
0
LINE
8
0
10
140.6375
20
-35.575
11
154.6375
21
-35.575
0
LINE
8
0
10
140.6375
20
-21.575
11
140.6375
21
-35.575
0
LINE
8
0
10
154.6375
20
-21.575
11
154.6375
21
-35.575
0
LINE
8
0
10
159.6875
20
-21.575
11
173.6875
21
-21.575
0
LINE
8
0
10
159.6875
20
-35.575
11
173.6875
21
-35.575
0
LINE
8
0
10
159.6875
20
-21.575
11
159.6875
21
-35.575
0
LINE
8
0
10
173.6875
20
-21.575
11
173.6875
21
-35.575
0
LINE
8
0
10
178.7375
20
-21.575
11
192.7375
21
-21.575
0
LINE
8
0
10
178.7375
20
-35.575
11
192.7375
21
-35.575
0
LINE
8
0
10
178.7375
20
-21.575
11
178.7375
21
-35.575
0
LINE
8
0
10
192.7375
20
-21.575
11
192.7375
21
-35.575
0
LINE
8
0
10
197.7875
20
-21.575
11
211.7875
21
-21.575
0
LINE
8
0
10
197.7875
20
-35.575
11
211.7875
21
-35.575
0
LINE
8
0
10
197.7875
20
-21.575
11
197.7875
21
-35.575
0
LINE
8
0
10
211.7875
20
-21.575
11
211.7875
21
-35.575
0
LINE
8
0
10
223.98125
20
-21.575
11
237.98125
21
-21.575
0
LINE
8
0
10
223.98125
20
-35.575
11
237.98125
21
-35.575
0
LINE
8
0
10
223.98125
20
-21.575
11
223.98125
21
-35.575
0
LINE
8
0
10
237.98125
20
-21.575
11
237.98125
21
-35.575
0
LINE
8
0
10
9.66875
20
-40.625
11
23.66875
21
-40.625
0
LINE
8
0
10
9.66875
20
-54.625
11
23.66875
21
-54.625
0
LINE
8
0
10
9.66875
20
-40.625
11
9.66875
21
-54.625
0
LINE
8
0
10
23.66875
20
-40.625
11
23.66875
21
-54.625
0
LINE
8
0
10
35.8625
20
-40.625
11
49.8625
21
-40.625
0
LINE
8
0
10
35.8625
20
-54.625
11
49.8625
21
-54.625
0
LINE
8
0
10
35.8625
20
-40.625
11
35.8625
21
-54.625
0
LINE
8
0
10
49.8625
20
-40.625
11
49.8625
21
-54.625
0
LINE
8
0
10
54.9125
20
-40.625
11
68.9125
21
-40.625
0
LINE
8
0
10
54.9125
20
-54.625
11
68.9125
21
-54.625
0
LINE
8
0
10
54.9125
20
-40.625
11
54.9125
21
-54.625
0
LINE
8
0
10
68.9125
20
-40.625
11
68.9125
21
-54.625
0
LINE
8
0
10
73.9625
20
-40.625
11
87.9625
21
-40.625
0
LINE
8
0
10
73.9625
20
-54.625
11
87.9625
21
-54.625
0
LINE
8
0
10
73.9625
20
-40.625
11
73.9625
21
-54.625
0
LINE
8
0
10
87.9625
20
-40.625
11
87.9625
21
-54.625
0
LINE
8
0
10
93.0125
20
-40.625
11
107.0125
21
-40.625
0
LINE
8
0
10
93.0125
20
-54.625
11
107.0125
21
-54.625
0
LINE
8
0
10
93.0125
20
-40.625
11
93.0125
21
-54.625
0
LINE
8
0
10
107.0125
20
-40.625
11
107.0125
21
-54.625
0
LINE
8
0
10
112.0625
20
-40.625
11
126.0625
21
-40.625
0
LINE
8
0
10
112.0625
20
-54.625
11
126.0625
21
-54.625
0
LINE
8
0
10
112.0625
20
-40.625
11
112.0625
21
-54.625
0
LINE
8
0
10
126.0625
20
-40.625
11
126.0625
21
-54.625
0
LINE
8
0
10
131.1125
20
-40.625
11
145.1125
21
-40.625
0
LINE
8
0
10
131.1125
20
-54.625
11
145.1125
21
-54.625
0
LINE
8
0
10
131.1125
20
-40.625
11
131.1125
21
-54.625
0
LINE
8
0
10
145.1125
20
-40.625
11
145.1125
21
-54.625
0
LINE
8
0
10
150.1625
20
-40.625
11
164.1625
21
-40.625
0
LINE
8
0
10
150.1625
20
-54.625
11
164.1625
21
-54.625
0
LINE
8
0
10
150.1625
20
-40.625
11
150.1625
21
-54.625
0
LINE
8
0
10
164.1625
20
-40.625
11
164.1625
21
-54.625
0
LINE
8
0
10
169.2125
20
-40.625
11
183.2125
21
-40.625
0
LINE
8
0
10
169.2125
20
-54.625
11
183.2125
21
-54.625
0
LINE
8
0
10
169.2125
20
-40.625
11
169.2125
21
-54.625
0
LINE
8
0
10
183.2125
20
-40.625
11
183.2125
21
-54.625
0
LINE
8
0
10
188.2625
20
-40.625
11
202.2625
21
-40.625
0
LINE
8
0
10
188.2625
20
-54.625
11
202.2625
21
-54.625
0
LINE
8
0
10
188.2625
20
-40.625
11
188.2625
21
-54.625
0
LINE
8
0
10
202.2625
20
-40.625
11
202.2625
21
-54.625
0
LINE
8
0
10
207.3125
20
-40.625
11
221.3125
21
-40.625
0
LINE
8
0
10
207.3125
20
-54.625
11
221.3125
21
-54.625
0
LINE
8
0
10
207.3125
20
-40.625
11
207.3125
21
-54.625
0
LINE
8
0
10
221.3125
20
-40.625
11
221.3125
21
-54.625
0
LINE
8
0
10
209.69375
20
-40.625
11
223.69375
21
-40.625
0
LINE
8
0
10
209.69375
20
-54.625
11
223.69375
21
-54.625
0
LINE
8
0
10
209.69375
20
-40.625
11
209.69375
21
-54.625
0
LINE
8
0
10
223.69375
20
-40.625
11
223.69375
21
-54.625
0
LINE
8
0
10
228.74375
20
-40.625
11
242.74375
21
-40.625
0
LINE
8
0
10
228.74375
20
-54.625
11
242.74375
21
-54.625
0
LINE
8
0
10
228.74375
20
-40.625
11
228.74375
21
-54.625
0
LINE
8
0
10
242.74375
20
-40.625
11
242.74375
21
-54.625
0
LINE
8
0
10
231.125
20
-40.625
11
245.125
21
-40.625
0
LINE
8
0
10
231.125
20
-54.625
11
245.125
21
-54.625
0
LINE
8
0
10
231.125
20
-40.625
11
231.125
21
-54.625
0
LINE
8
0
10
245.125
20
-40.625
11
245.125
21
-54.625
0
LINE
8
0
10
4.90625
20
-59.675
11
18.90625
21
-59.675
0
LINE
8
0
10
4.90625
20
-73.675
11
18.90625
21
-73.675
0
LINE
8
0
10
4.90625
20
-59.675
11
4.90625
21
-73.675
0
LINE
8
0
10
18.90625
20
-59.675
11
18.90625
21
-73.675
0
LINE
8
0
10
7.2875
20
-59.675
11
21.2875
21
-59.675
0
LINE
8
0
10
7.2875
20
-73.675
11
21.2875
21
-73.675
0
LINE
8
0
10
7.2875
20
-59.675
11
7.2875
21
-73.675
0
LINE
8
0
10
21.2875
20
-59.675
11
21.2875
21
-73.675
0
LINE
8
0
10
26.3375
20
-59.675
11
40.3375
21
-59.675
0
LINE
8
0
10
26.3375
20
-73.675
11
40.3375
21
-73.675
0
LINE
8
0
10
26.3375
20
-59.675
11
26.3375
21
-73.675
0
LINE
8
0
10
40.3375
20
-59.675
11
40.3375
21
-73.675
0
LINE
8
0
10
35.8625
20
-59.675
11
49.8625
21
-59.675
0
LINE
8
0
10
35.8625
20
-73.675
11
49.8625
21
-73.675
0
LINE
8
0
10
35.8625
20
-59.675
11
35.8625
21
-73.675
0
LINE
8
0
10
49.8625
20
-59.675
11
49.8625
21
-73.675
0
LINE
8
0
10
47.76875
20
-59.675
11
61.76875
21
-59.675
0
LINE
8
0
10
47.76875
20
-73.675
11
61.76875
21
-73.675
0
LINE
8
0
10
47.76875
20
-59.675
11
47.76875
21
-73.675
0
LINE
8
0
10
61.76875
20
-59.675
11
61.76875
21
-73.675
0
LINE
8
0
10
116.825
20
-59.675
11
130.825
21
-59.675
0
LINE
8
0
10
116.825
20
-73.675
11
130.825
21
-73.675
0
LINE
8
0
10
116.825
20
-59.675
11
116.825
21
-73.675
0
LINE
8
0
10
130.825
20
-59.675
11
130.825
21
-73.675
0
LINE
8
0
10
184.475
20
-72.675
11
177.475
21
-72.675
0
LINE
8
0
10
184.475
20
-57.675
11
177.475
21
-57.675
0
LINE
8
0
10
184.475
20
-72.675
11
184.475
21
-57.675
0
LINE
8
0
10
177.475
20
-72.675
11
177.475
21
-57.675
0
LINE
8
0
10
70.175
20
-72.675
11
63.175
21
-72.675
0
LINE
8
0
10
70.175
20
-57.675
11
63.175
21
-57.675
0
LINE
8
0
10
70.175
20
-72.675
11
70.175
21
-57.675
0
LINE
8
0
10
63.175
20
-72.675
11
63.175
21
-57.675
0
LINE
8
0
10
116.825
20
-59.675
11
130.825
21
-59.675
0
LINE
8
0
10
116.825
20
-73.675
11
130.825
21
-73.675
0
LINE
8
0
10
116.825
20
-59.675
11
116.825
21
-73.675
0
LINE
8
0
10
130.825
20
-59.675
11
130.825
21
-73.675
0
LINE
8
0
10
174.95
20
-72.675
11
167.95
21
-72.675
0
LINE
8
0
10
174.95
20
-57.675
11
167.95
21
-57.675
0
LINE
8
0
10
174.95
20
-72.675
11
174.95
21
-57.675
0
LINE
8
0
10
167.95
20
-72.675
11
167.95
21
-57.675
0
LINE
8
0
10
79.7
20
-72.675
11
72.7
21
-72.675
0
LINE
8
0
10
79.7
20
-57.675
11
72.7
21
-57.675
0
LINE
8
0
10
79.7
20
-72.675
11
79.7
21
-57.675
0
LINE
8
0
10
72.7
20
-72.675
11
72.7
21
-57.675
0
LINE
8
0
10
88.25
20
-59.675
11
102.25
21
-59.675
0
LINE
8
0
10
88.25
20
-73.675
11
102.25
21
-73.675
0
LINE
8
0
10
88.25
20
-59.675
11
88.25
21
-73.675
0
LINE
8
0
10
102.25
20
-59.675
11
102.25
21
-73.675
0
LINE
8
0
10
117.8
20
-72.675
11
110.8
21
-72.675
0
LINE
8
0
10
117.8
20
-57.675
11
110.8
21
-57.675
0
LINE
8
0
10
117.8
20
-72.675
11
117.8
21
-57.675
0
LINE
8
0
10
110.8
20
-72.675
11
110.8
21
-57.675
0
LINE
8
0
10
79.7
20
-72.675
11
72.7
21
-72.675
0
LINE
8
0
10
79.7
20
-57.675
11
72.7
21
-57.675
0
LINE
8
0
10
79.7
20
-72.675
11
79.7
21
-57.675
0
LINE
8
0
10
72.7
20
-72.675
11
72.7
21
-57.675
0
LINE
8
0
10
145.4
20
-59.675
11
159.4
21
-59.675
0
LINE
8
0
10
145.4
20
-73.675
11
159.4
21
-73.675
0
LINE
8
0
10
145.4
20
-59.675
11
145.4
21
-73.675
0
LINE
8
0
10
159.4
20
-59.675
11
159.4
21
-73.675
0
LINE
8
0
10
174.95
20
-72.675
11
167.95
21
-72.675
0
LINE
8
0
10
174.95
20
-57.675
11
167.95
21
-57.675
0
LINE
8
0
10
174.95
20
-72.675
11
174.95
21
-57.675
0
LINE
8
0
10
167.95
20
-72.675
11
167.95
21
-57.675
0
LINE
8
0
10
136.85
20
-72.675
11
129.85
21
-72.675
0
LINE
8
0
10
136.85
20
-57.675
11
129.85
21
-57.675
0
LINE
8
0
10
136.85
20
-72.675
11
136.85
21
-57.675
0
LINE
8
0
10
129.85
20
-72.675
11
129.85
21
-57.675
0
LINE
8
0
10
185.88125
20
-59.675
11
199.88125
21
-59.675
0
LINE
8
0
10
185.88125
20
-73.675
11
199.88125
21
-73.675
0
LINE
8
0
10
185.88125
20
-59.675
11
185.88125
21
-73.675
0
LINE
8
0
10
199.88125
20
-59.675
11
199.88125
21
-73.675
0
LINE
8
0
10
197.7875
20
-59.675
11
211.7875
21
-59.675
0
LINE
8
0
10
197.7875
20
-73.675
11
211.7875
21
-73.675
0
LINE
8
0
10
197.7875
20
-59.675
11
197.7875
21
-73.675
0
LINE
8
0
10
211.7875
20
-59.675
11
211.7875
21
-73.675
0
LINE
8
0
10
207.3125
20
-59.675
11
221.3125
21
-59.675
0
LINE
8
0
10
207.3125
20
-73.675
11
221.3125
21
-73.675
0
LINE
8
0
10
207.3125
20
-59.675
11
207.3125
21
-73.675
0
LINE
8
0
10
221.3125
20
-59.675
11
221.3125
21
-73.675
0
LINE
8
0
10
226.3625
20
-59.675
11
240.3625
21
-59.675
0
LINE
8
0
10
226.3625
20
-73.675
11
240.3625
21
-73.675
0
LINE
8
0
10
226.3625
20
-59.675
11
226.3625
21
-73.675
0
LINE
8
0
10
240.3625
20
-59.675
11
240.3625
21
-73.675
0
LINE
8
0
10
228.74375
20
-59.675
11
242.74375
21
-59.675
0
LINE
8
0
10
228.74375
20
-73.675
11
242.74375
21
-73.675
0
LINE
8
0
10
228.74375
20
-59.675
11
228.74375
21
-73.675
0
LINE
8
0
10
242.74375
20
-59.675
11
242.74375
21
-73.675
0
LINE
8
0
10
0
20
-76.2
11
247.65
21
-76.2
0
LINE
8
0
10
0
20
0
11
247.65
21
0
0
LINE
8
0
10
0
20
-76.2
11
0
21
0
0
LINE
8
0
10
247.65
20
-76.2
11
247.65
21
0
0
ENDSEC
0
EOF