0
SECTION
2
HEADER
9
$INSUNITS
70
4
9
$ACADVER
1
AC1014
9
$HANDSEED
5
FFFF
0
ENDSEC
0
SECTION
2
TABLES
0
TABLE
2
VPORT
5
8
100
AcDbSymbolTable
0
ENDTAB
0
TABLE
2
LTYPE
5
5
100
AcDbSymbolTable
0
LTYPE
5
14
100
AcDbSymbolTableRecord
100
AcDbLinetypeTableRecord
2
BYBLOCK
70
0
0
LTYPE
5
15
100
AcDbSymbolTableRecord
100
AcDbLinetypeTableRecord
2
BYLAYER
70
0
0
ENDTAB
0
TABLE
2
LAYER
5
2
100
AcDbSymbolTable
70
2
0
LAYER
5
50
100
AcDbSymbolTableRecord
100
AcDbLayerTableRecord
2
0
70
0
6
CONTINUOUS
0
ENDTAB
0
TABLE
2
STYLE
5
3
100
AcDbSymbolTable
70
1
0
STYLE
5
11
100
AcDbSymbolTableRecord
100
AcDbTextStyleTableRecord
2
STANDARD
70
0
0
ENDTAB
0
TABLE
2
VIEW
5
6
100
AcDbSymbolTable
70
0
0
ENDTAB
0
TABLE
2
UCS
5
7
100
AcDbSymbolTable
70
0
0
ENDTAB
0
TABLE
2
APPID
5
9
100
AcDbSymbolTable
70
2
0
APPID
5
12
100
AcDbSymbolTableRecord
100
AcDbRegAppTableRecord
2
ACAD
70
0
0
ENDTAB
0
TABLE
2
DIMSTYLE
5
A
100
AcDbSymbolTable
70
1
0
ENDTAB
0
TABLE
2
BLOCK_RECORD
5
1
100
AcDbSymbolTable
70
1
0
BLOCK_RECORD
5
1F
100
AcDbSymbolTableRecord
100
AcDbBlockTableRecord
2
*MODEL_SPACE
0
BLOCK_RECORD
5
1B
100
AcDbSymbolTableRecord
100
AcDbBlockTableRecord
2
*PAPER_SPACE
0
ENDTAB
0
ENDSEC
0
SECTION
2
BLOCKS
0
BLOCK
5
20
100
AcDbEntity
100
AcDbBlockBegin
2
*MODEL_SPACE
0
ENDBLK
5
21
100
AcDbEntity
100
AcDbBlockEnd
0
BLOCK
5
1C
100
AcDbEntity
100
AcDbBlockBegin
2
*PAPER_SPACE
0
ENDBLK
5
1D
100
AcDbEntity
100
AcDbBlockEnd
0
ENDSEC
0
SECTION
2
ENTITIES
0
SPLINE
5
100
100
AcDbEntity
8
0
100
AcDbSpline
70
0
71
3
72
8
73
4
74
0
42
0.000000001
43
0.0000000001
44
0.0000000001
40
0
40
0
40
0
40
0
40
1
40
1
40
1
40
1
10
391.5769212354669
20
317.76809389908635
30
0
10
391.5769212354669
20
318.04423602705981
30
0
10
391.3530595349601
20
318.26809391286918
30
0
10
391.07692122168402
20
318.26809391286918
30
0
0
LINE
5
101
100
AcDbEntity
8
0
100
AcDbLine
10
391.07692122168402
20
318.26809391286918
30
0
11
385.07692105629104
21
318.26809391286918
31
0
0
SPLINE
5
102
100
AcDbEntity
8
0
100
AcDbSpline
70
0
71
3
72
8
73
4
74
0
42
0.000000001
43
0.0000000001
44
0.0000000001
40
2
40
2
40
2
40
2
40
3
40
3
40
3
40
3
10
385.07692105629104
20
318.26809391286918
30
0
10
384.80078274301519
20
318.26809391286918
30
0
10
384.57692104250839
20
318.04423602705981
30
0
10
384.57692104250839
20
317.76809389908635
30
0
0
LINE
5
103
100
AcDbEntity
8
0
100
AcDbLine
10
384.57692104250839
20
317.76809389908635
30
0
11
384.57692104250839
21
303.76809351316939
31
0
0
SPLINE
5
104
100
AcDbEntity
8
0
100
AcDbSpline
70
0
71
3
72
8
73
4
74
0
42
0.000000001
43
0.0000000001
44
0.0000000001
40
4
40
4
40
4
40
4
40
5
40
5
40
5
40
5
10
384.57692104250839
20
303.76809351316939
30
0
10
384.57692104250839
20
303.49194757049872
30
0
10
384.80078274301519
20
303.26809349938662
30
0
10
385.07692105629104
20
303.26809349938662
30
0
0
LINE
5
105
100
AcDbEntity
8
0
100
AcDbLine
10
385.07692105629104
20
303.26809349938662
30
0
11
391.07692122168402
21
303.26809349938662
31
0
0
SPLINE
5
106
100
AcDbEntity
8
0
100
AcDbSpline
70
0
71
3
72
8
73
4
74
0
42
0.000000001
43
0.0000000001
44
0.0000000001
40
6
40
6
40
6
40
6
40
7
40
7
40
7
40
7
10
391.07692122168402
20
303.26809349938662
30
0
10
391.3530595349601
20
303.26809349938662
30
0
10
391.5769212354669
20
303.49194757049872
30
0
10
391.5769212354669
20
303.76809351316939
30
0
0
LINE
5
107
100
AcDbEntity
8
0
100
AcDbLine
10
391.5769212354669
20
303.76809351316939
30
0
11
391.5769212354669
21
317.76809389908635
31
0
0
SPLINE
5
108
100
AcDbEntity
8
0
100
AcDbSpline
70
0
71
3
72
8
73
4
74
0
42
0.000000001
43
0.0000000001
44
0.0000000001
40
0
40
0
40
0
40
0
40
1
40
1
40
1
40
1
10
296.32691860985284
20
317.76809389908635
30
0
10
296.32691860985284
20
318.04423602705981
30
0
10
296.1030645387404
20
318.26809391286918
30
0
10
295.82691859607013
20
318.26809391286918
30
0
0
LINE
5
109
100
AcDbEntity
8
0
100
AcDbLine
10
295.82691859607013
20
318.26809391286918
30
0
11
289.8269184306767
21
318.26809391286918
31
0
0
SPLINE
5
110
100
AcDbEntity
8
0
100
AcDbSpline
70
0
71
3
72
8
73
4
74
0
42
0.000000001
43
0.0000000001
44
0.0000000001
40
2
40
2
40
2
40
2
40
3
40
3
40
3
40
3
10
289.8269184306767
20
318.26809391286918
30
0
10
289.55077248800637
20
318.26809391286918
30
0
10
289.32691841689433
20
318.04423602705981
30
0
10
289.32691841689433
20
317.76809389908635
30
0
0
LINE
5
111
100
AcDbEntity
8
0
100
AcDbLine
10
289.32691841689433
20
317.76809389908635
30
0
11
289.32691841689433
21
303.76809351316939
31
0
0
SPLINE
5
112
100
AcDbEntity
8
0
100
AcDbSpline
70
0
71
3
72
8
73
4
74
0
42
0.000000001
43
0.0000000001
44
0.0000000001
40
4
40
4
40
4
40
4
40
5
40
5
40
5
40
5
10
289.32691841689433
20
303.76809351316939
30
0
10
289.32691841689433
20
303.49194757049872
30
0
10
289.55077248800637
20
303.26809349938662
30
0
10
289.8269184306767
20
303.26809349938662
30
0
0
LINE
5
113
100
AcDbEntity
8
0
100
AcDbLine
10
289.8269184306767
20
303.26809349938662
30
0
11
295.82691859607013
21
303.26809349938662
31
0
0
SPLINE
5
114
100
AcDbEntity
8
0
100
AcDbSpline
70
0
71
3
72
8
73
4
74
0
42
0.000000001
43
0.0000000001
44
0.0000000001
40
6
40
6
40
6
40
6
40
7
40
7
40
7
40
7
10
295.82691859607013
20
303.26809349938662
30
0
10
296.1030645387404
20
303.26809349938662
30
0
10
296.32691860985284
20
303.49194757049872
30
0
10
296.32691860985284
20
303.76809351316939
30
0
0
LINE
5
115
100
AcDbEntity
8
0
100
AcDbLine
10
296.32691860985284
20
303.76809351316939
30
0
11
296.32691860985284
21
317.76809389908635
31
0
0
SPLINE
5
116
100
AcDbEntity
8
0
100
AcDbSpline
70
0
71
3
72
8
73
4
74
0
42
0.000000001
43
0.0000000001
44
0.0000000001
40
0
40
0
40
0
40
0
40
1
40
1
40
1
40
1
10
286.80191682141253
20
317.76809389908635
30
0
10
286.80191682141253
20
318.04423602705981
30
0
10
286.57806275030043
20
318.26809391286918
30
0
10
286.30191680762971
20
318.26809391286918
30
0
0
LINE
5
117
100
AcDbEntity
8
0
100
AcDbLine
10
286.30191680762971
20
318.26809391286918
30
0
11
280.30191664223668
21
318.26809391286918
31
0
0
SPLINE
5
118
100
AcDbEntity
8
0
100
AcDbSpline
70
0
71
3
72
8
73
4
74
0
42
0.000000001
43
0.0000000001
44
0.0000000001
40
2
40
2
40
2
40
2
40
3
40
3
40
3
40
3
10
280.30191664223668
20
318.26809391286918
30
0
10
280.0257745142635
20
318.26809391286918
30
0
10
279.80191662845391
20
318.04423602705981
30
0
10
279.80191662845391
20
317.76809389908635
30
0
0
LINE
5
119
100
AcDbEntity
8
0
100
AcDbLine
10
279.80191662845391
20
317.76809389908635
30
0
11
279.80191662845391
21
303.76809351316939
31
0
0
SPLINE
5
120
100
AcDbEntity
8
0
100
AcDbSpline
70
0
71
3
72
8
73
4
74
0
42
0.000000001
43
0.0000000001
44
0.0000000001
40
4
40
4
40
4
40
4
40
5
40
5
40
5
40
5
10
279.80191662845391
20
303.76809351316939
30
0
10
279.80191662845391
20
303.49194757049872
30
0
10
280.0257745142635
20
303.26809349938662
30
0
10
280.30191664223668
20
303.26809349938662
30
0
0
LINE
5
121
100
AcDbEntity
8
0
100
AcDbLine
10
280.30191664223668
20
303.26809349938662
30
0
11
286.30191680762971
21
303.26809349938662
31
0
0
SPLINE
5
122
100
AcDbEntity
8
0
100
AcDbSpline
70
0
71
3
72
8
73
4
74
0
42
0.000000001
43
0.0000000001
44
0.0000000001
40
6
40
6
40
6
40
6
40
7
40
7
40
7
40
7
10
286.30191680762971
20
303.26809349938662
30
0
10
286.57806275030043
20
303.26809349938662
30
0
10
286.80191682141253
20
303.49194757049872
30
0
10
286.80191682141253
20
303.76809351316939
30
0
0
LINE
5
123
100
AcDbEntity
8
0
100
AcDbLine
10
286.80191682141253
20
303.76809351316939
30
0
11
286.80191682141253
21
317.76809389908635
31
0
0
SPLINE
5
124
100
AcDbEntity
8
0
100
AcDbSpline
70
0
71
3
72
8
73
4
74
0
42
0.000000001
43
0.0000000001
44
0.0000000001
40
0
40
0
40
0
40
0
40
1
40
1
40
1
40
1
10
333.45191963322202
20
360.91809661441664
30
0
10
333.45191963322202
20
360.64195448644341
30
0
10
333.67577370433401
20
360.41809660063399
30
0
10
333.95191964700479
20
360.41809660063399
30
0
0
LINE
5
125
100
AcDbEntity
8
0
100
AcDbLine
10
333.95191964700479
20
360.41809660063399
30
0
11
346.95192000535627
21
360.41809660063399
31
0
0
SPLINE
5
126
100
AcDbEntity
8
0
100
AcDbSpline
70
0
71
3
72
8
73
4
74
0
42
0.000000001
43
0.0000000001
44
0.0000000001
40
2
40
2
40
2
40
2
40
3
40
3
40
3
40
3
10
346.95192000535627
20
360.41809660063399
30
0
10
347.22805831863218
20
360.41809660063399
30
0
10
347.45192001913904
20
360.64195448644341
30
0
10
347.45192001913904
20
360.91809661441664
30
0
0
LINE
5
127
100
AcDbEntity
8
0
100
AcDbLine
10
347.45192001913904
20
360.91809661441664
30
0
11
347.45192001913904
21
373.91809697276818
31
0
0
SPLINE
5
128
100
AcDbEntity
8
0
100
AcDbSpline
70
0
71
3
72
8
73
4
74
0
42
0.000000001
43
0.0000000001
44
0.0000000001
40
4
40
4
40
4
40
4
40
5
40
5
40
5
40
5
10
347.45192001913904
20
373.91809697276818
30
0
10
347.45192001913904
20
374.19423935406132
30
0
10
347.22805831863218
20
374.41809698655101
30
0
10
346.95192000535627
20
374.41809698655101
30
0
0
LINE
5
129
100
AcDbEntity
8
0
100
AcDbLine
10
346.95192000535627
20
374.41809698655101
30
0
11
333.95191964700479
21
374.41809698655101
31
0
0
SPLINE
5
130
100
AcDbEntity
8
0
100
AcDbSpline
70
0
71
3
72
8
73
4
74
0
42
0.000000001
43
0.0000000001
44
0.0000000001
40
6
40
6
40
6
40
6
40
7
40
7
40
7
40
7
10
333.95191964700479
20
374.41809698655101
30
0
10
333.67577370433401
20
374.41809698655101
30
0
10
333.45191963322202
20
374.19423935406132
30
0
10
333.45191963322202
20
373.91809697276818
30
0
0
LINE
5
131
100
AcDbEntity
8
0
100
AcDbLine
10
333.45191963322202
20
373.91809697276818
30
0
11
333.45191963322202
21
360.91809661441664
31
0
0
SPLINE
5
132
100
AcDbEntity
8
0
100
AcDbSpline
70
0
71
3
72
8
73
4
74
0
42
0.000000001
43
0.0000000001
44
0.0000000001
40
0
40
0
40
0
40
0
40
1
40
1
40
1
40
1
10
219.15191343072746
20
360.91809661441664
30
0
10
219.15191343072746
20
360.64195448644341
30
0
10
219.37577106321712
20
360.41809660063399
30
0
10
219.65191344451011
20
360.41809660063399
30
0
0
LINE
5
133
100
AcDbEntity
8
0
100
AcDbLine
10
219.65191344451011
20
360.41809660063399
30
0
11
232.6519138028616
21
360.41809660063399
31
0
0
SPLINE
5
134
100
AcDbEntity
8
0
100
AcDbSpline
70
0
71
3
72
8
73
4
74
0
42
0.000000001
43
0.0000000001
44
0.0000000001
40
2
40
2
40
2
40
2
40
3
40
3
40
3
40
3
10
232.6519138028616
20
360.41809660063399
30
0
10
232.928055930835
20
360.41809660063399
30
0
10
233.15191381664442
20
360.64195448644341
30
0
10
233.15191381664442
20
360.91809661441664
30
0
0
LINE
5
135
100
AcDbEntity
8
0
100
AcDbLine
10
233.15191381664442
20
360.91809661441664
30
0
11
233.15191381664442
21
373.91809697276818
31
0
0
SPLINE
5
136
100
AcDbEntity
8
0
100
AcDbSpline
70
0
71
3
72
8
73
4
74
0
42
0.000000001
43
0.0000000001
44
0.0000000001
40
4
40
4
40
4
40
4
40
5
40
5
40
5
40
5
10
233.15191381664442
20
373.91809697276818
30
0
10
233.15191381664442
20
374.19423935406132
30
0
10
232.928055930835
20
374.41809698655101
30
0
10
232.6519138028616
20
374.41809698655101
30
0
0
LINE
5
137
100
AcDbEntity
8
0
100
AcDbLine
10
232.6519138028616
20
374.41809698655101
30
0
11
219.65191344451011
21
374.41809698655101
31
0
0
SPLINE
5
138
100
AcDbEntity
8
0
100
AcDbSpline
70
0
71
3
72
8
73
4
74
0
42
0.000000001
43
0.0000000001
44
0.0000000001
40
6
40
6
40
6
40
6
40
7
40
7
40
7
40
7
10
219.65191344451011
20
374.41809698655101
30
0
10
219.37577106321712
20
374.41809698655101
30
0
10
219.15191343072746
20
374.19423935406132
30
0
10
219.15191343072746
20
373.91809697276818
30
0
0
LINE
5
139
100
AcDbEntity
8
0
100
AcDbLine
10
219.15191343072746
20
373.91809697276818
30
0
11
219.15191343072746
21
360.91809661441664
31
0
0
SPLINE
5
140
100
AcDbEntity
8
0
100
AcDbSpline
70
0
71
3
72
8
73
4
74
0
42
0.000000001
43
0.0000000001
44
0.0000000001
40
0
40
0
40
0
40
0
40
1
40
1
40
1
40
1
10
271.53941563775453
20
322.81809709005006
30
0
10
271.53941563775453
20
322.54195496207677
30
0
10
271.7632735235639
20
322.31809707626729
30
0
10
272.0394156515373
20
322.31809707626729
30
0
0
LINE
5
141
100
AcDbEntity
8
0
100
AcDbLine
10
272.0394156515373
20
322.31809707626729
30
0
11
285.0394121951914
21
322.31809707626729
31
0
0
SPLINE
5
142
100
AcDbEntity
8
0
100
AcDbSpline
70
0
71
3
72
8
73
4
74
0
42
0.000000001
43
0.0000000001
44
0.0000000001
40
2
40
2
40
2
40
2
40
3
40
3
40
3
40
3
10
285.0394121951914
20
322.31809707626729
30
0
10
285.31555813786213
20
322.31809707626729
30
0
10
285.53941220897417
20
322.54195496207677
30
0
10
285.53941220897417
20
322.81809709005006
30
0
0
LINE
5
143
100
AcDbEntity
8
0
100
AcDbLine
10
285.53941220897417
20
322.81809709005006
30
0
11
285.53941220897417
21
335.81809744840166
31
0
0
SPLINE
5
144
100
AcDbEntity
8
0
100
AcDbSpline
70
0
71
3
72
8
73
4
74
0
42
0.000000001
43
0.0000000001
44
0.0000000001
40
4
40
4
40
4
40
4
40
5
40
5
40
5
40
5
10
285.53941220897417
20
335.81809744840166
30
0
10
285.53941220897417
20
336.09423957637489
30
0
10
285.31555813786213
20
336.31809746218437
30
0
10
285.0394121951914
20
336.31809746218437
30
0
0
LINE
5
145
100
AcDbEntity
8
0
100
AcDbLine
10
285.0394121951914
20
336.31809746218437
30
0
11
272.0394156515373
21
336.31809746218437
31
0
0
SPLINE
5
146
100
AcDbEntity
8
0
100
AcDbSpline
70
0
71
3
72
8
73
4
74
0
42
0.000000001
43
0.0000000001
44
0.0000000001
40
6
40
6
40
6
40
6
40
7
40
7
40
7
40
7
10
272.0394156515373
20
336.31809746218437
30
0
10
271.7632735235639
20
336.31809746218437
30
0
10
271.53941563775453
20
336.09423957637489
30
0
10
271.53941563775453
20
335.81809744840166
30
0
0
LINE
5
147
100
AcDbEntity
8
0
100
AcDbLine
10
271.53941563775453
20
335.81809744840166
30
0
11
271.53941563775453
21
322.81809709005006
31
0
0
SPLINE
5
148
100
AcDbEntity
8
0
100
AcDbSpline
70
0
71
3
72
8
73
4
74
0
42
0.000000001
43
0.0000000001
44
0.0000000001
40
0
40
0
40
0
40
0
40
1
40
1
40
1
40
1
10
328.68941492430451
20
322.81809709005006
30
0
10
328.68941492430451
20
322.54195496207677
30
0
10
328.91326899541662
20
322.31809707626729
30
0
10
329.18941493808688
20
322.31809707626729
30
0
0
LINE
5
149
100
AcDbEntity
8
0
100
AcDbLine
10
329.18941493808688
20
322.31809707626729
30
0
11
342.18941529643882
21
322.31809707626729
31
0
0
SPLINE
5
150
100
AcDbEntity
8
0
100
AcDbSpline
70
0
71
3
72
8
73
4
74
0
42
0.000000001
43
0.0000000001
44
0.0000000001
40
2
40
2
40
2
40
2
40
3
40
3
40
3
40
3
10
342.18941529643882
20
322.31809707626729
30
0
10
342.46556123910943
20
322.31809707626729
30
0
10
342.68941531022153
20
322.54195496207677
30
0
10
342.68941531022153
20
322.81809709005006
30
0
0
LINE
5
151
100
AcDbEntity
8
0
100
AcDbLine
10
342.68941531022153
20
322.81809709005006
30
0
11
342.68941531022153
21
335.81809744840166
31
0
0
SPLINE
5
152
100
AcDbEntity
8
0
100
AcDbSpline
70
0
71
3
72
8
73
4
74
0
42
0.000000001
43
0.0000000001
44
0.0000000001
40
4
40
4
40
4
40
4
40
5
40
5
40
5
40
5
10
342.68941531022153
20
335.81809744840166
30
0
10
342.68941531022153
20
336.09423957637489
30
0
10
342.46556123910943
20
336.31809746218437
30
0
10
342.18941529643882
20
336.31809746218437
30
0
0
LINE
5
153
100
AcDbEntity
8
0
100
AcDbLine
10
342.18941529643882
20
336.31809746218437
30
0
11
329.18941493808688
21
336.31809746218437
31
0
0
SPLINE
5
154
100
AcDbEntity
8
0
100
AcDbSpline
70
0
71
3
72
8
73
4
74
0
42
0.000000001
43
0.0000000001
44
0.0000000001
40
6
40
6
40
6
40
6
40
7
40
7
40
7
40
7
10
329.18941493808688
20
336.31809746218437
30
0
10
328.91326899541662
20
336.31809746218437
30
0
10
328.68941492430451
20
336.09423957637489
30
0
10
328.68941492430451
20
335.81809744840166
30
0
0
LINE
5
155
100
AcDbEntity
8
0
100
AcDbLine
10
328.68941492430451
20
335.81809744840166
30
0
11
328.68941492430451
21
322.81809709005006
31
0
0
SPLINE
5
156
100
AcDbEntity
8
0
100
AcDbSpline
70
0
71
3
72
8
73
4
74
0
42
0.000000001
43
0.0000000001
44
0.0000000001
40
0
40
0
40
0
40
0
40
1
40
1
40
1
40
1
10
347.73941087179037
20
322.81809709005006
30
0
10
347.73941087179037
20
322.54195496207677
30
0
10
347.96327257229729
20
322.31809707626729
30
0
10
348.23941088557319
20
322.31809707626729
30
0
0
LINE
5
157
100
AcDbEntity
8
0
100
AcDbLine
10
348.23941088557319
20
322.31809707626729
30
0
11
361.23941124392474
21
322.31809707626729
31
0
0
SPLINE
5
158
100
AcDbEntity
8
0
100
AcDbSpline
70
0
71
3
72
8
73
4
74
0
42
0.000000001
43
0.0000000001
44
0.0000000001
40
2
40
2
40
2
40
2
40
3
40
3
40
3
40
3
10
361.23941124392474
20
322.31809707626729
30
0
10
361.51554955720076
20
322.31809707626729
30
0
10
361.73941125770739
20
322.54195496207677
30
0
10
361.73941125770739
20
322.81809709005006
30
0
0
LINE
5
159
100
AcDbEntity
8
0
100
AcDbLine
10
361.73941125770739
20
322.81809709005006
30
0
11
361.73941125770739
21
335.81809744840166
31
0
0
SPLINE
5
160
100
AcDbEntity
8
0
100
AcDbSpline
70
0
71
3
72
8
73
4
74
0
42
0.000000001
43
0.0000000001
44
0.0000000001
40
4
40
4
40
4
40
4
40
5
40
5
40
5
40
5
10
361.73941125770739
20
335.81809744840166
30
0
10
361.73941125770739
20
336.09423957637489
30
0
10
361.51554955720076
20
336.31809746218437
30
0
10
361.23941124392474
20
336.31809746218437
30
0
0
LINE
5
161
100
AcDbEntity
8
0
100
AcDbLine
10
361.23941124392474
20
336.31809746218437
30
0
11
348.23941088557319
21
336.31809746218437
31
0
0
SPLINE
5
162
100
AcDbEntity
8
0
100
AcDbSpline
70
0
71
3
72
8
73
4
74
0
42
0.000000001
43
0.0000000001
44
0.0000000001
40
6
40
6
40
6
40
6
40
7
40
7
40
7
40
7
10
348.23941088557319
20
336.31809746218437
30
0
10
347.96327257229729
20
336.31809746218437
30
0
10
347.73941087179037
20
336.09423957637489
30
0
10
347.73941087179037
20
335.81809744840166
30
0
0
LINE
5
163
100
AcDbEntity
8
0
100
AcDbLine
10
347.73941087179037
20
335.81809744840166
30
0
11
347.73941087179037
21
322.81809709005006
31
0
0
SPLINE
5
164
100
AcDbEntity
8
0
100
AcDbSpline
70
0
71
3
72
8
73
4
74
0
42
0.000000001
43
0.0000000001
44
0.0000000001
40
0
40
0
40
0
40
0
40
1
40
1
40
1
40
1
10
385.83941802555188
20
322.81809709005006
30
0
10
385.83941802555188
20
322.54195496207677
30
0
10
386.06327972605868
20
322.31809707626729
30
0
10
386.33941803933465
20
322.31809707626729
30
0
0
LINE
5
165
100
AcDbEntity
8
0
100
AcDbLine
10
386.33941803933465
20
322.31809707626729
30
0
11
399.33941839768613
21
322.31809707626729
31
0
0
SPLINE
5
166
100
AcDbEntity
8
0
100
AcDbSpline
70
0
71
3
72
8
73
4
74
0
42
0.000000001
43
0.0000000001
44
0.0000000001
40
2
40
2
40
2
40
2
40
3
40
3
40
3
40
3
10
399.33941839768613
20
322.31809707626729
30
0
10
399.61555671096221
20
322.31809707626729
30
0
10
399.83941841146896
20
322.54195496207677
30
0
10
399.83941841146896
20
322.81809709005006
30
0
0
LINE
5
167
100
AcDbEntity
8
0
100
AcDbLine
10
399.83941841146896
20
322.81809709005006
30
0
11
399.83941841146896
21
335.81809744840166
31
0
0
SPLINE
5
168
100
AcDbEntity
8
0
100
AcDbSpline
70
0
71
3
72
8
73
4
74
0
42
0.000000001
43
0.0000000001
44
0.0000000001
40
4
40
4
40
4
40
4
40
5
40
5
40
5
40
5
10
399.83941841146896
20
335.81809744840166
30
0
10
399.83941841146896
20
336.09423957637489
30
0
10
399.61555671096221
20
336.31809746218437
30
0
10
399.33941839768613
20
336.31809746218437
30
0
0
LINE
5
169
100
AcDbEntity
8
0
100
AcDbLine
10
399.33941839768613
20
336.31809746218437
30
0
11
386.33941803933465
21
336.31809746218437
31
0
0
SPLINE
5
170
100
AcDbEntity
8
0
100
AcDbSpline
70
0
71
3
72
8
73
4
74
0
42
0.000000001
43
0.0000000001
44
0.0000000001
40
6
40
6
40
6
40
6
40
7
40
7
40
7
40
7
10
386.33941803933465
20
336.31809746218437
30
0
10
386.06327972605868
20
336.31809746218437
30
0
10
385.83941802555188
20
336.09423957637489
30
0
10
385.83941802555188
20
335.81809744840166
30
0
0
LINE
5
171
100
AcDbEntity
8
0
100
AcDbLine
10
385.83941802555188
20
335.81809744840166
30
0
11
385.83941802555188
21
322.81809709005006
31
0
0
SPLINE
5
172
100
AcDbEntity
8
0
100
AcDbSpline
70
0
71
3
72
8
73
4
74
0
42
0.000000001
43
0.0000000001
44
0.0000000001
40
0
40
0
40
0
40
0
40
1
40
1
40
1
40
1
10
362.02691736914835
20
303.76809351316939
30
0
10
362.02691736914835
20
303.49194757049872
30
0
10
362.25077906965515
20
303.26809349938662
30
0
10
362.52691738293117
20
303.26809349938662
30
0
0
LINE
5
173
100
AcDbEntity
8
0
100
AcDbLine
10
362.52691738293117
20
303.26809349938662
30
0
11
375.52691774128272
21
303.26809349938662
31
0
0
SPLINE
5
174
100
AcDbEntity
8
0
100
AcDbSpline
70
0
71
3
72
8
73
4
74
0
42
0.000000001
43
0.0000000001
44
0.0000000001
40
2
40
2
40
2
40
2
40
3
40
3
40
3
40
3
10
375.52691774128272
20
303.26809349938662
30
0
10
375.80305605455857
20
303.26809349938662
30
0
10
376.02691775506537
20
303.49194757049872
30
0
10
376.02691775506537
20
303.76809351316939
30
0
0
LINE
5
175
100
AcDbEntity
8
0
100
AcDbLine
10
376.02691775506537
20
303.76809351316939
30
0
11
376.02691775506537
21
316.76809387152093
31
0
0
SPLINE
5
176
100
AcDbEntity
8
0
100
AcDbSpline
70
0
71
3
72
8
73
4
74
0
42
0.000000001
43
0.0000000001
44
0.0000000001
40
4
40
4
40
4
40
4
40
5
40
5
40
5
40
5
10
376.02691775506537
20
316.76809387152093
30
0
10
376.02691775506537
20
317.04423599949416
30
0
10
375.80305605455857
20
317.26809388530359
30
0
10
375.52691774128272
20
317.26809388530359
30
0
0
LINE
5
177
100
AcDbEntity
8
0
100
AcDbLine
10
375.52691774128272
20
317.26809388530359
30
0
11
362.52691738293117
21
317.26809388530359
31
0
0
SPLINE
5
178
100
AcDbEntity
8
0
100
AcDbSpline
70
0
71
3
72
8
73
4
74
0
42
0.000000001
43
0.0000000001
44
0.0000000001
40
6
40
6
40
6
40
6
40
7
40
7
40
7
40
7
10
362.52691738293117
20
317.26809388530359
30
0
10
362.25077906965515
20
317.26809388530359
30
0
10
362.02691736914835
20
317.04423599949416
30
0
10
362.02691736914835
20
316.76809387152093
30
0
0
LINE
5
179
100
AcDbEntity
8
0
100
AcDbLine
10
362.02691736914835
20
316.76809387152093
30
0
11
362.02691736914835
21
303.76809351316939
31
0
0
SPLINE
5
180
100
AcDbEntity
8
0
100
AcDbSpline
70
0
71
3
72
8
73
4
74
0
42
0.000000001
43
0.0000000001
44
0.0000000001
40
0
40
0
40
0
40
0
40
1
40
1
40
1
40
1
10
404.88942160243255
20
322.81809709005006
30
0
10
404.88942160243255
20
322.54195496207677
30
0
10
405.11328330293929
20
322.31809707626729
30
0
10
405.3894216162152
20
322.31809707626729
30
0
0
LINE
5
181
100
AcDbEntity
8
0
100
AcDbLine
10
405.3894216162152
20
322.31809707626729
30
0
11
418.38942197456669
21
322.31809707626729
31
0
0
SPLINE
5
182
100
AcDbEntity
8
0
100
AcDbSpline
70
0
71
3
72
8
73
4
74
0
42
0.000000001
43
0.0000000001
44
0.0000000001
40
2
40
2
40
2
40
2
40
3
40
3
40
3
40
3
10
418.38942197456669
20
322.31809707626729
30
0
10
418.66556028784271
20
322.31809707626729
30
0
10
418.8894219883494
20
322.54195496207677
30
0
10
418.8894219883494
20
322.81809709005006
30
0
0
LINE
5
183
100
AcDbEntity
8
0
100
AcDbLine
10
418.8894219883494
20
322.81809709005006
30
0
11
418.8894219883494
21
335.81809744840166
31
0
0
SPLINE
5
184
100
AcDbEntity
8
0
100
AcDbSpline
70
0
71
3
72
8
73
4
74
0
42
0.000000001
43
0.0000000001
44
0.0000000001
40
4
40
4
40
4
40
4
40
5
40
5
40
5
40
5
10
418.8894219883494
20
335.81809744840166
30
0
10
418.8894219883494
20
336.09423957637489
30
0
10
418.66556028784271
20
336.31809746218437
30
0
10
418.38942197456669
20
336.31809746218437
30
0
0
LINE
5
185
100
AcDbEntity
8
0
100
AcDbLine
10
418.38942197456669
20
336.31809746218437
30
0
11
405.3894216162152
21
336.31809746218437
31
0
0
SPLINE
5
186
100
AcDbEntity
8
0
100
AcDbSpline
70
0
71
3
72
8
73
4
74
0
42
0.000000001
43
0.0000000001
44
0.0000000001
40
6
40
6
40
6
40
6
40
7
40
7
40
7
40
7
10
405.3894216162152
20
336.31809746218437
30
0
10
405.11328330293929
20
336.31809746218437
30
0
10
404.88942160243255
20
336.09423957637489
30
0
10
404.88942160243255
20
335.81809744840166
30
0
0
LINE
5
187
100
AcDbEntity
8
0
100
AcDbLine
10
404.88942160243255
20
335.81809744840166
30
0
11
404.88942160243255
21
322.81809709005006
31
0
0
SPLINE
5
188
100
AcDbEntity
8
0
100
AcDbSpline
70
0
71
3
72
8
73
4
74
0
42
0.000000001
43
0.0000000001
44
0.0000000001
40
0
40
0
40
0
40
0
40
1
40
1
40
1
40
1
10
401.10191539451245
20
317.76809389908635
30
0
10
401.10191539451245
20
318.04423602705981
30
0
10
400.87805369400553
20
318.26809391286918
30
0
10
400.60191538072962
20
318.26809391286918
30
0
0
LINE
5
189
100
AcDbEntity
8
0
100
AcDbLine
10
400.60191538072962
20
318.26809391286918
30
0
11
394.60191521533659
21
318.26809391286918
31
0
0
SPLINE
5
190
100
AcDbEntity
8
0
100
AcDbSpline
70
0
71
3
72
8
73
4
74
0
42
0.000000001
43
0.0000000001
44
0.0000000001
40
2
40
2
40
2
40
2
40
3
40
3
40
3
40
3
10
394.60191521533659
20
318.26809391286918
30
0
10
394.32577690206074
20
318.26809391286918
30
0
10
394.10191520155394
20
318.04423602705981
30
0
10
394.10191520155394
20
317.76809389908635
30
0
0
LINE
5
191
100
AcDbEntity
8
0
100
AcDbLine
10
394.10191520155394
20
317.76809389908635
30
0
11
394.10191520155394
21
303.76809351316939
31
0
0
SPLINE
5
192
100
AcDbEntity
8
0
100
AcDbSpline
70
0
71
3
72
8
73
4
74
0
42
0.000000001
43
0.0000000001
44
0.0000000001
40
4
40
4
40
4
40
4
40
5
40
5
40
5
40
5
10
394.10191520155394
20
303.76809351316939
30
0
10
394.10191520155394
20
303.49194757049872
30
0
10
394.32577690206074
20
303.26809349938662
30
0
10
394.60191521533659
20
303.26809349938662
30
0
0
LINE
5
193
100
AcDbEntity
8
0
100
AcDbLine
10
394.60191521533659
20
303.26809349938662
30
0
11
400.60191538072962
21
303.26809349938662
31
0
0
SPLINE
5
194
100
AcDbEntity
8
0
100
AcDbSpline
70
0
71
3
72
8
73
4
74
0
42
0.000000001
43
0.0000000001
44
0.0000000001
40
6
40
6
40
6
40
6
40
7
40
7
40
7
40
7
10
400.60191538072962
20
303.26809349938662
30
0
10
400.87805369400553
20
303.26809349938662
30
0
10
401.10191539451245
20
303.49194757049872
30
0
10
401.10191539451245
20
303.76809351316939
30
0
0
LINE
5
195
100
AcDbEntity
8
0
100
AcDbLine
10
401.10191539451245
20
303.76809351316939
30
0
11
401.10191539451245
21
317.76809389908635
31
0
0
SPLINE
5
196
100
AcDbEntity
8
0
100
AcDbSpline
70
0
71
3
72
8
73
4
74
0
42
0.000000001
43
0.0000000001
44
0.0000000001
40
0
40
0
40
0
40
0
40
1
40
1
40
1
40
1
10
366.78941444867115
20
322.81809709005006
30
0
10
366.78941444867115
20
322.54195496207677
30
0
10
367.01327614917784
20
322.31809707626729
30
0
10
367.28941446245386
20
322.31809707626729
30
0
0
LINE
5
197
100
AcDbEntity
8
0
100
AcDbLine
10
367.28941446245386
20
322.31809707626729
30
0
11
380.28941482080535
21
322.31809707626729
31
0
0
SPLINE
5
198
100
AcDbEntity
8
0
100
AcDbSpline
70
0
71
3
72
8
73
4
74
0
42
0.000000001
43
0.0000000001
44
0.0000000001
40
2
40
2
40
2
40
2
40
3
40
3
40
3
40
3
10
380.28941482080535
20
322.31809707626729
30
0
10
380.56555313408137
20
322.31809707626729
30
0
10
380.78941483458811
20
322.54195496207677
30
0
10
380.78941483458811
20
322.81809709005006
30
0
0
LINE
5
199
100
AcDbEntity
8
0
100
AcDbLine
10
380.78941483458811
20
322.81809709005006
30
0
11
380.78941483458811
21
335.81809744840166
31
0
0
SPLINE
5
200
100
AcDbEntity
8
0
100
AcDbSpline
70
0
71
3
72
8
73
4
74
0
42
0.000000001
43
0.0000000001
44
0.0000000001
40
4
40
4
40
4
40
4
40
5
40
5
40
5
40
5
10
380.78941483458811
20
335.81809744840166
30
0
10
380.78941483458811
20
336.09423957637489
30
0
10
380.56555313408137
20
336.31809746218437
30
0
10
380.28941482080535
20
336.31809746218437
30
0
0
LINE
5
201
100
AcDbEntity
8
0
100
AcDbLine
10
380.28941482080535
20
336.31809746218437
30
0
11
367.28941446245386
21
336.31809746218437
31
0
0
SPLINE
5
202
100
AcDbEntity
8
0
100
AcDbSpline
70
0
71
3
72
8
73
4
74
0
42
0.000000001
43
0.0000000001
44
0.0000000001
40
6
40
6
40
6
40
6
40
7
40
7
40
7
40
7
10
367.28941446245386
20
336.31809746218437
30
0
10
367.01327614917784
20
336.31809746218437
30
0
10
366.78941444867115
20
336.09423957637489
30
0
10
366.78941444867115
20
335.81809744840166
30
0
0
LINE
5
203
100
AcDbEntity
8
0
100
AcDbLine
10
366.78941444867115
20
335.81809744840166
30
0
11
366.78941444867115
21
322.81809709005006
31
0
0
SPLINE
5
204
100
AcDbEntity
8
0
100
AcDbSpline
70
0
71
3
72
8
73
4
74
0
42
0.000000001
43
0.0000000001
44
0.0000000001
40
0
40
0
40
0
40
0
40
1
40
1
40
1
40
1
10
290.58941539993782
20
322.81809709005006
30
0
10
290.58941539993782
20
322.54195496207677
30
0
10
290.81326947104986
20
322.31809707626729
30
0
10
291.08941541372064
20
322.31809707626729
30
0
0
LINE
5
205
100
AcDbEntity
8
0
100
AcDbLine
10
291.08941541372064
20
322.31809707626729
30
0
11
304.08941577207219
21
322.31809707626729
31
0
0
SPLINE
5
206
100
AcDbEntity
8
0
100
AcDbSpline
70
0
71
3
72
8
73
4
74
0
42
0.000000001
43
0.0000000001
44
0.0000000001
40
2
40
2
40
2
40
2
40
3
40
3
40
3
40
3
10
304.08941577207219
20
322.31809707626729
30
0
10
304.3655617147428
20
322.31809707626729
30
0
10
304.5894157858549
20
322.54195496207677
30
0
10
304.5894157858549
20
322.81809709005006
30
0
0
LINE
5
207
100
AcDbEntity
8
0
100
AcDbLine
10
304.5894157858549
20
322.81809709005006
30
0
11
304.5894157858549
21
335.81809744840166
31
0
0
SPLINE
5
208
100
AcDbEntity
8
0
100
AcDbSpline
70
0
71
3
72
8
73
4
74
0
42
0.000000001
43
0.0000000001
44
0.0000000001
40
4
40
4
40
4
40
4
40
5
40
5
40
5
40
5
10
304.5894157858549
20
335.81809744840166
30
0
10
304.5894157858549
20
336.09423957637489
30
0
10
304.3655617147428
20
336.31809746218437
30
0
10
304.08941577207219
20
336.31809746218437
30
0
0
LINE
5
209
100
AcDbEntity
8
0
100
AcDbLine
10
304.08941577207219
20
336.31809746218437
30
0
11
291.08941541372064
21
336.31809746218437
31
0
0
SPLINE
5
210
100
AcDbEntity
8
0
100
AcDbSpline
70
0
71
3
72
8
73
4
74
0
42
0.000000001
43
0.0000000001
44
0.0000000001
40
6
40
6
40
6
40
6
40
7
40
7
40
7
40
7
10
291.08941541372064
20
336.31809746218437
30
0
10
290.81326947104986
20
336.31809746218437
30
0
10
290.58941539993782
20
336.09423957637489
30
0
10
290.58941539993782
20
335.81809744840166
30
0
0
LINE
5
211
100
AcDbEntity
8
0
100
AcDbLine
10
290.58941539993782
20
335.81809744840166
30
0
11
290.58941539993782
21
322.81809709005006
31
0
0
SPLINE
5
212
100
AcDbEntity
8
0
100
AcDbSpline
70
0
71
3
72
8
73
4
74
0
42
0.000000001
43
0.0000000001
44
0.0000000001
40
0
40
0
40
0
40
0
40
1
40
1
40
1
40
1
10
252.48941587557118
20
322.81809709005006
30
0
10
252.48941587557118
20
322.54195496207677
30
0
10
252.71327376138061
20
322.31809707626729
30
0
10
252.98941588935401
20
322.31809707626729
30
0
0
LINE
5
213
100
AcDbEntity
8
0
100
AcDbLine
10
252.98941588935401
20
322.31809707626729
30
0
11
265.98941624770549
21
322.31809707626729
31
0
0
SPLINE
5
214
100
AcDbEntity
8
0
100
AcDbSpline
70
0
71
3
72
8
73
4
74
0
42
0.000000001
43
0.0000000001
44
0.0000000001
40
2
40
2
40
2
40
2
40
3
40
3
40
3
40
3
10
265.98941624770549
20
322.31809707626729
30
0
10
266.26555837567884
20
322.31809707626729
30
0
10
266.4894162614882
20
322.54195496207677
30
0
10
266.4894162614882
20
322.81809709005006
30
0
0
LINE
5
215
100
AcDbEntity
8
0
100
AcDbLine
10
266.4894162614882
20
322.81809709005006
30
0
11
266.4894162614882
21
335.81809744840166
31
0
0
SPLINE
5
216
100
AcDbEntity
8
0
100
AcDbSpline
70
0
71
3
72
8
73
4
74
0
42
0.000000001
43
0.0000000001
44
0.0000000001
40
4
40
4
40
4
40
4
40
5
40
5
40
5
40
5
10
266.4894162614882
20
335.81809744840166
30
0
10
266.4894162614882
20
336.09423957637489
30
0
10
266.26555837567884
20
336.31809746218437
30
0
10
265.98941624770549
20
336.31809746218437
30
0
0
LINE
5
217
100
AcDbEntity
8
0
100
AcDbLine
10
265.98941624770549
20
336.31809746218437
30
0
11
252.98941588935401
21
336.31809746218437
31
0
0
SPLINE
5
218
100
AcDbEntity
8
0
100
AcDbSpline
70
0
71
3
72
8
73
4
74
0
42
0.000000001
43
0.0000000001
44
0.0000000001
40
6
40
6
40
6
40
6
40
7
40
7
40
7
40
7
10
252.98941588935401
20
336.31809746218437
30
0
10
252.71327376138061
20
336.31809746218437
30
0
10
252.48941587557118
20
336.09423957637489
30
0
10
252.48941587557118
20
335.81809744840166
30
0
0
LINE
5
219
100
AcDbEntity
8
0
100
AcDbLine
10
252.48941587557118
20
335.81809744840166
30
0
11
252.48941587557118
21
322.81809709005006
31
0
0
SPLINE
5
220
100
AcDbEntity
8
0
100
AcDbSpline
70
0
71
3
72
8
73
4
74
0
42
0.000000001
43
0.0000000001
44
0.0000000001
40
0
40
0
40
0
40
0
40
1
40
1
40
1
40
1
10
226.29566381838347
20
322.81809709005006
30
0
10
226.29566381838347
20
322.54195496207677
30
0
10
226.5195212273556
20
322.31809707626729
30
0
10
226.79566383216621
20
322.31809707626729
30
0
0
LINE
5
221
100
AcDbEntity
8
0
100
AcDbLine
10
226.79566383216621
20
322.31809707626729
30
0
11
239.79566323684321
21
322.31809707626729
31
0
0
SPLINE
5
222
100
AcDbEntity
8
0
100
AcDbSpline
70
0
71
3
72
8
73
4
74
0
42
0.000000001
43
0.0000000001
44
0.0000000001
40
2
40
2
40
2
40
2
40
3
40
3
40
3
40
3
10
239.79566323684321
20
322.31809707626729
30
0
10
240.07180536481656
20
322.31809707626729
30
0
10
240.29566325062592
20
322.54195496207677
30
0
10
240.29566325062592
20
322.81809709005006
30
0
0
LINE
5
223
100
AcDbEntity
8
0
100
AcDbLine
10
240.29566325062592
20
322.81809709005006
30
0
11
240.29566325062592
21
335.81809744840166
31
0
0
SPLINE
5
224
100
AcDbEntity
8
0
100
AcDbSpline
70
0
71
3
72
8
73
4
74
0
42
0.000000001
43
0.0000000001
44
0.0000000001
40
4
40
4
40
4
40
4
40
5
40
5
40
5
40
5
10
240.29566325062592
20
335.81809744840166
30
0
10
240.29566325062592
20
336.09423957637489
30
0
10
240.07180536481656
20
336.31809746218437
30
0
10
239.79566323684321
20
336.31809746218437
30
0
0
LINE
5
225
100
AcDbEntity
8
0
100
AcDbLine
10
239.79566323684321
20
336.31809746218437
30
0
11
226.79566383216621
21
336.31809746218437
31
0
0
SPLINE
5
226
100
AcDbEntity
8
0
100
AcDbSpline
70
0
71
3
72
8
73
4
74
0
42
0.000000001
43
0.0000000001
44
0.0000000001
40
6
40
6
40
6
40
6
40
7
40
7
40
7
40
7
10
226.79566383216621
20
336.31809746218437
30
0
10
226.5195212273556
20
336.31809746218437
30
0
10
226.29566381838347
20
336.09423957637489
30
0
10
226.29566381838347
20
335.81809744840166
30
0
0
LINE
5
227
100
AcDbEntity
8
0
100
AcDbLine
10
226.29566381838347
20
335.81809744840166
30
0
11
226.29566381838347
21
322.81809709005006
31
0
0
SPLINE
5
228
100
AcDbEntity
8
0
100
AcDbSpline
70
0
71
3
72
8
73
4
74
0
42
0.000000001
43
0.0000000001
44
0.0000000001
40
0
40
0
40
0
40
0
40
1
40
1
40
1
40
1
10
309.63941897681866
20
322.81809709005006
30
0
10
309.63941897681866
20
322.54195496207677
30
0
10
309.86327304793065
20
322.31809707626729
30
0
10
310.13941899060131
20
322.31809707626729
30
0
0
LINE
5
229
100
AcDbEntity
8
0
100
AcDbLine
10
310.13941899060131
20
322.31809707626729
30
0
11
323.13941934895286
21
322.31809707626729
31
0
0
SPLINE
5
230
100
AcDbEntity
8
0
100
AcDbSpline
70
0
71
3
72
8
73
4
74
0
42
0.000000001
43
0.0000000001
44
0.0000000001
40
2
40
2
40
2
40
2
40
3
40
3
40
3
40
3
10
323.13941934895286
20
322.31809707626729
30
0
10
323.41556529162352
20
322.31809707626729
30
0
10
323.63941936273562
20
322.54195496207677
30
0
10
323.63941936273562
20
322.81809709005006
30
0
0
LINE
5
231
100
AcDbEntity
8
0
100
AcDbLine
10
323.63941936273562
20
322.81809709005006
30
0
11
323.63941936273562
21
335.81809744840166
31
0
0
SPLINE
5
232
100
AcDbEntity
8
0
100
AcDbSpline
70
0
71
3
72
8
73
4
74
0
42
0.000000001
43
0.0000000001
44
0.0000000001
40
4
40
4
40
4
40
4
40
5
40
5
40
5
40
5
10
323.63941936273562
20
335.81809744840166
30
0
10
323.63941936273562
20
336.09423957637489
30
0
10
323.41556529162352
20
336.31809746218437
30
0
10
323.13941934895286
20
336.31809746218437
30
0
0
LINE
5
233
100
AcDbEntity
8
0
100
AcDbLine
10
323.13941934895286
20
336.31809746218437
30
0
11
310.13941899060131
21
336.31809746218437
31
0
0
SPLINE
5
234
100
AcDbEntity
8
0
100
AcDbSpline
70
0
71
3
72
8
73
4
74
0
42
0.000000001
43
0.0000000001
44
0.0000000001
40
6
40
6
40
6
40
6
40
7
40
7
40
7
40
7
10
310.13941899060131
20
336.31809746218437
30
0
10
309.86327304793065
20
336.31809746218437
30
0
10
309.63941897681866
20
336.09423957637489
30
0
10
309.63941897681866
20
335.81809744840166
30
0
0
LINE
5
235
100
AcDbEntity
8
0
100
AcDbLine
10
309.63941897681866
20
335.81809744840166
30
0
11
309.63941897681866
21
322.81809709005006
31
0
0
SPLINE
5
236
100
AcDbEntity
8
0
100
AcDbSpline
70
0
71
3
72
8
73
4
74
0
42
0.000000001
43
0.0000000001
44
0.0000000001
40
0
40
0
40
0
40
0
40
1
40
1
40
1
40
1
10
395.36441218459743
20
341.86809685223346
30
0
10
395.36441218459743
20
341.59195472426012
30
0
10
395.58827388510429
20
341.3680968384507
30
0
10
395.86441219838014
20
341.3680968384507
30
0
0
LINE
5
237
100
AcDbEntity
8
0
100
AcDbLine
10
395.86441219838014
20
341.3680968384507
30
0
11
408.86441255673162
21
341.3680968384507
31
0
0
SPLINE
5
238
100
AcDbEntity
8
0
100
AcDbSpline
70
0
71
3
72
8
73
4
74
0
42
0.000000001
43
0.0000000001
44
0.0000000001
40
2
40
2
40
2
40
2
40
3
40
3
40
3
40
3
10
408.86441255673162
20
341.3680968384507
30
0
10
409.1405508700077
20
341.3680968384507
30
0
10
409.36441257051445
20
341.59195472426012
30
0
10
409.36441257051445
20
341.86809685223346
30
0
0
LINE
5
239
100
AcDbEntity
8
0
100
AcDbLine
10
409.36441257051445
20
341.86809685223346
30
0
11
409.36441257051445
21
354.86809721058489
31
0
0
SPLINE
5
240
100
AcDbEntity
8
0
100
AcDbSpline
70
0
71
3
72
8
73
4
74
0
42
0.000000001
43
0.0000000001
44
0.0000000001
40
4
40
4
40
4
40
4
40
5
40
5
40
5
40
5
10
409.36441257051445
20
354.86809721058489
30
0
10
409.36441257051445
20
355.14423933855818
30
0
10
409.1405508700077
20
355.36809722436766
30
0
10
408.86441255673162
20
355.36809722436766
30
0
0
LINE
5
241
100
AcDbEntity
8
0
100
AcDbLine
10
408.86441255673162
20
355.36809722436766
30
0
11
395.86441219838014
21
355.36809722436766
31
0
0
SPLINE
5
242
100
AcDbEntity
8
0
100
AcDbSpline
70
0
71
3
72
8
73
4
74
0
42
0.000000001
43
0.0000000001
44
0.0000000001
40
6
40
6
40
6
40
6
40
7
40
7
40
7
40
7
10
395.86441219838014
20
355.36809722436766
30
0
10
395.58827388510429
20
355.36809722436766
30
0
10
395.36441218459743
20
355.14423933855818
30
0
10
395.36441218459743
20
354.86809721058489
30
0
0
LINE
5
243
100
AcDbEntity
8
0
100
AcDbLine
10
395.36441218459743
20
354.86809721058489
30
0
11
395.36441218459743
21
341.86809685223346
31
0
0
SPLINE
5
244
100
AcDbEntity
8
0
100
AcDbSpline
70
0
71
3
72
8
73
4
74
0
42
0.000000001
43
0.0000000001
44
0.0000000001
40
0
40
0
40
0
40
0
40
1
40
1
40
1
40
1
10
440.60817258703764
20
341.86809685223346
30
0
10
440.60817258703764
20
341.59195472426012
30
0
10
440.8320342875445
20
341.3680968384507
30
0
10
441.10817260082047
20
341.3680968384507
30
0
0
LINE
5
245
100
AcDbEntity
8
0
100
AcDbLine
10
441.10817260082047
20
341.3680968384507
30
0
11
454.10817295917207
21
341.3680968384507
31
0
0
SPLINE
5
246
100
AcDbEntity
8
0
100
AcDbSpline
70
0
71
3
72
8
73
4
74
0
42
0.000000001
43
0.0000000001
44
0.0000000001
40
2
40
2
40
2
40
2
40
3
40
3
40
3
40
3
10
454.10817295917207
20
341.3680968384507
30
0
10
454.38431127244797
20
341.3680968384507
30
0
10
454.60817297295478
20
341.59195472426012
30
0
10
454.60817297295478
20
341.86809685223346
30
0
0
LINE
5
247
100
AcDbEntity
8
0
100
AcDbLine
10
454.60817297295478
20
341.86809685223346
30
0
11
454.60817297295478
21
354.86809721058489
31
0
0
SPLINE
5
248
100
AcDbEntity
8
0
100
AcDbSpline
70
0
71
3
72
8
73
4
74
0
42
0.000000001
43
0.0000000001
44
0.0000000001
40
4
40
4
40
4
40
4
40
5
40
5
40
5
40
5
10
454.60817297295478
20
354.86809721058489
30
0
10
454.60817297295478
20
355.14423933855818
30
0
10
454.38431127244797
20
355.36809722436766
30
0
10
454.10817295917207
20
355.36809722436766
30
0
0
LINE
5
249
100
AcDbEntity
8
0
100
AcDbLine
10
454.10817295917207
20
355.36809722436766
30
0
11
441.10817260082047
21
355.36809722436766
31
0
0
SPLINE
5
250
100
AcDbEntity
8
0
100
AcDbSpline
70
0
71
3
72
8
73
4
74
0
42
0.000000001
43
0.0000000001
44
0.0000000001
40
6
40
6
40
6
40
6
40
7
40
7
40
7
40
7
10
441.10817260082047
20
355.36809722436766
30
0
10
440.8320342875445
20
355.36809722436766
30
0
10
440.60817258703764
20
355.14423933855818
30
0
10
440.60817258703764
20
354.86809721058489
30
0
0
LINE
5
251
100
AcDbEntity
8
0
100
AcDbLine
10
440.60817258703764
20
354.86809721058489
30
0
11
440.60817258703764
21
341.86809685223346
31
0
0
SPLINE
5
252
100
AcDbEntity
8
0
100
AcDbSpline
70
0
71
3
72
8
73
4
74
0
42
0.000000001
43
0.0000000001
44
0.0000000001
40
0
40
0
40
0
40
0
40
1
40
1
40
1
40
1
10
319.16441313586415
20
341.86809685223346
30
0
10
319.16441313586415
20
341.59195472426012
30
0
10
319.3882672069762
20
341.3680968384507
30
0
10
319.66441314964686
20
341.3680968384507
30
0
0
LINE
5
253
100
AcDbEntity
8
0
100
AcDbLine
10
319.66441314964686
20
341.3680968384507
30
0
11
332.66441350799846
21
341.3680968384507
31
0
0
SPLINE
5
254
100
AcDbEntity
8
0
100
AcDbSpline
70
0
71
3
72
8
73
4
74
0
42
0.000000001
43
0.0000000001
44
0.0000000001
40
2
40
2
40
2
40
2
40
3
40
3
40
3
40
3
10
332.66441350799846
20
341.3680968384507
30
0
10
332.94055945066918
20
341.3680968384507
30
0
10
333.16441352178117
20
341.59195472426012
30
0
10
333.16441352178117
20
341.86809685223346
30
0
0
LINE
5
255
100
AcDbEntity
8
0
100
AcDbLine
10
333.16441352178117
20
341.86809685223346
30
0
11
333.16441352178117
21
354.86809721058489
31
0
0
SPLINE
5
256
100
AcDbEntity
8
0
100
AcDbSpline
70
0
71
3
72
8
73
4
74
0
42
0.000000001
43
0.0000000001
44
0.0000000001
40
4
40
4
40
4
40
4
40
5
40
5
40
5
40
5
10
333.16441352178117
20
354.86809721058489
30
0
10
333.16441352178117
20
355.14423933855818
30
0
10
332.94055945066918
20
355.36809722436766
30
0
10
332.66441350799846
20
355.36809722436766
30
0
0
LINE
5
257
100
AcDbEntity
8
0
100
AcDbLine
10
332.66441350799846
20
355.36809722436766
30
0
11
319.66441314964686
21
355.36809722436766
31
0
0
SPLINE
5
258
100
AcDbEntity
8
0
100
AcDbSpline
70
0
71
3
72
8
73
4
74
0
42
0.000000001
43
0.0000000001
44
0.0000000001
40
6
40
6
40
6
40
6
40
7
40
7
40
7
40
7
10
319.66441314964686
20
355.36809722436766
30
0
10
319.3882672069762
20
355.36809722436766
30
0
10
319.16441313586415
20
355.14423933855818
30
0
10
319.16441313586415
20
354.86809721058489
30
0
0
LINE
5
259
100
AcDbEntity
8
0
100
AcDbLine
10
319.16441313586415
20
354.86809721058489
30
0
11
319.16441313586415
21
341.86809685223346
31
0
0
SPLINE
5
260
100
AcDbEntity
8
0
100
AcDbSpline
70
0
71
3
72
8
73
4
74
0
42
0.000000001
43
0.0000000001
44
0.0000000001
40
0
40
0
40
0
40
0
40
1
40
1
40
1
40
1
10
357.26442028962549
20
341.86809685223346
30
0
10
357.26442028962549
20
341.59195472426012
30
0
10
357.48828199013235
20
341.3680968384507
30
0
10
357.76442030340826
20
341.3680968384507
30
0
0
LINE
5
261
100
AcDbEntity
8
0
100
AcDbLine
10
357.76442030340826
20
341.3680968384507
30
0
11
370.7644206617598
21
341.3680968384507
31
0
0
SPLINE
5
262
100
AcDbEntity
8
0
100
AcDbSpline
70
0
71
3
72
8
73
4
74
0
42
0.000000001
43
0.0000000001
44
0.0000000001
40
2
40
2
40
2
40
2
40
3
40
3
40
3
40
3
10
370.7644206617598
20
341.3680968384507
30
0
10
371.04055897503571
20
341.3680968384507
30
0
10
371.26442067554251
20
341.59195472426012
30
0
10
371.26442067554251
20
341.86809685223346
30
0
0
LINE
5
263
100
AcDbEntity
8
0
100
AcDbLine
10
371.26442067554251
20
341.86809685223346
30
0
11
371.26442067554251
21
354.86809721058489
31
0
0
SPLINE
5
264
100
AcDbEntity
8
0
100
AcDbSpline
70
0
71
3
72
8
73
4
74
0
42
0.000000001
43
0.0000000001
44
0.0000000001
40
4
40
4
40
4
40
4
40
5
40
5
40
5
40
5
10
371.26442067554251
20
354.86809721058489
30
0
10
371.26442067554251
20
355.14423933855818
30
0
10
371.04055897503571
20
355.36809722436766
30
0
10
370.7644206617598
20
355.36809722436766
30
0
0
LINE
5
265
100
AcDbEntity
8
0
100
AcDbLine
10
370.7644206617598
20
355.36809722436766
30
0
11
357.76442030340826
21
355.36809722436766
31
0
0
SPLINE
5
266
100
AcDbEntity
8
0
100
AcDbSpline
70
0
71
3
72
8
73
4
74
0
42
0.000000001
43
0.0000000001
44
0.0000000001
40
6
40
6
40
6
40
6
40
7
40
7
40
7
40
7
10
357.76442030340826
20
355.36809722436766
30
0
10
357.48828199013235
20
355.36809722436766
30
0
10
357.26442028962549
20
355.14423933855818
30
0
10
357.26442028962549
20
354.86809721058489
30
0
0
LINE
5
267
100
AcDbEntity
8
0
100
AcDbLine
10
357.26442028962549
20
354.86809721058489
30
0
11
357.26442028962549
21
341.86809685223346
31
0
0
SPLINE
5
268
100
AcDbEntity
8
0
100
AcDbSpline
70
0
71
3
72
8
73
4
74
0
42
0.000000001
43
0.0000000001
44
0.0000000001
40
0
40
0
40
0
40
0
40
1
40
1
40
1
40
1
10
414.41441576147804
20
341.86809685223346
30
0
10
414.41441576147804
20
341.59195472426012
30
0
10
414.6382774619849
20
341.3680968384507
30
0
10
414.91441577526086
20
341.3680968384507
30
0
0
LINE
5
269
100
AcDbEntity
8
0
100
AcDbLine
10
414.91441577526086
20
341.3680968384507
30
0
11
427.91441613361229
21
341.3680968384507
31
0
0
SPLINE
5
270
100
AcDbEntity
8
0
100
AcDbSpline
70
0
71
3
72
8
73
4
74
0
42
0.000000001
43
0.0000000001
44
0.0000000001
40
2
40
2
40
2
40
2
40
3
40
3
40
3
40
3
10
427.91441613361229
20
341.3680968384507
30
0
10
428.19055444688831
20
341.3680968384507
30
0
10
428.41441614739517
20
341.59195472426012
30
0
10
428.41441614739517
20
341.86809685223346
30
0
0
LINE
5
271
100
AcDbEntity
8
0
100
AcDbLine
10
428.41441614739517
20
341.86809685223346
30
0
11
428.41441614739517
21
354.86809721058489
31
0
0
SPLINE
5
272
100
AcDbEntity
8
0
100
AcDbSpline
70
0
71
3
72
8
73
4
74
0
42
0.000000001
43
0.0000000001
44
0.0000000001
40
4
40
4
40
4
40
4
40
5
40
5
40
5
40
5
10
428.41441614739517
20
354.86809721058489
30
0
10
428.41441614739517
20
355.14423933855818
30
0
10
428.19055444688831
20
355.36809722436766
30
0
10
427.91441613361229
20
355.36809722436766
30
0
0
LINE
5
273
100
AcDbEntity
8
0
100
AcDbLine
10
427.91441613361229
20
355.36809722436766
30
0
11
414.91441577526086
21
355.36809722436766
31
0
0
SPLINE
5
274
100
AcDbEntity
8
0
100
AcDbSpline
70
0
71
3
72
8
73
4
74
0
42
0.000000001
43
0.0000000001
44
0.0000000001
40
6
40
6
40
6
40
6
40
7
40
7
40
7
40
7
10
414.91441577526086
20
355.36809722436766
30
0
10
414.6382774619849
20
355.36809722436766
30
0
10
414.41441576147804
20
355.14423933855818
30
0
10
414.41441576147804
20
354.86809721058489
30
0
0
LINE
5
275
100
AcDbEntity
8
0
100
AcDbLine
10
414.41441576147804
20
354.86809721058489
30
0
11
414.41441576147804
21
341.86809685223346
31
0
0
LINE
5
276
100
AcDbEntity
8
0
100
AcDbLine
10
438.72691643166434
20
360.41809660063399
30
0
11
442.20192263097033
21
360.41809660063399
31
0
0
LINE
5
277
100
AcDbEntity
8
0
100
AcDbLine
10
442.20192263097033
20
360.41809660063399
30
0
11
448.2519258494994
21
360.41809660063399
31
0
0
LINE
5
278
100
AcDbEntity
8
0
100
AcDbLine
10
448.2519258494994
20
360.41809660063399
30
0
11
451.72691679001588
21
360.41809660063399
31
0
0
LINE
5
279
100
AcDbEntity
8
0
100
AcDbLine
10
451.72691679001588
20
360.41809660063399
30
0
11
453.6649203834769
21
360.41809660063399
31
0
0
LINE
5
280
100
AcDbEntity
8
0
100
AcDbLine
10
453.6649203834769
20
360.41809660063399
30
0
11
453.6649203834769
21
359.91809658685122
31
0
0
SPLINE
5
281
100
AcDbEntity
8
0
100
AcDbSpline
70
0
71
3
72
8
73
4
74
0
42
0.000000001
43
0.0000000001
44
0.0000000001
40
5
40
5
40
5
40
5
40
6
40
6
40
6
40
6
10
453.6649203834769
20
359.91809658685122
30
0
10
453.6649203834769
20
359.64195445887788
30
0
10
453.88878208398376
20
359.4180965730684
30
0
10
454.16492039725966
20
359.4180965730684
30
0
0
LINE
5
282
100
AcDbEntity
8
0
100
AcDbLine
10
454.16492039725966
20
359.4180965730684
30
0
11
460.16492056265264
21
359.4180965730684
31
0
0
SPLINE
5
283
100
AcDbEntity
8
0
100
AcDbSpline
70
0
71
3
72
8
73
4
74
0
42
0.000000001
43
0.0000000001
44
0.0000000001
40
7
40
7
40
7
40
7
40
8
40
8
40
8
40
8
10
460.16492056265264
20
359.4180965730684
30
0
10
460.44105887592872
20
359.4180965730684
30
0
10
460.66492057643541
20
359.64195445887788
30
0
10
460.66492057643541
20
359.91809658685122
30
0
0
LINE
5
284
100
AcDbEntity
8
0
100
AcDbLine
10
460.66492057643541
20
359.91809658685122
30
0
11
460.66492057643541
21
360.41809660063399
31
0
0
LINE
5
285
100
AcDbEntity
8
0
100
AcDbLine
10
460.66492057643541
20
360.41809660063399
30
0
11
461.25192620785094
21
360.41809660063399
31
0
0
SPLINE
5
286
100
AcDbEntity
8
0
100
AcDbSpline
70
0
71
3
72
8
73
4
74
0
42
0.000000001
43
0.0000000001
44
0.0000000001
40
10
40
10
40
10
40
10
40
11
40
11
40
11
40
11
10
461.25192620785094
20
360.41809660063399
30
0
10
461.52806452112685
20
360.41809660063399
30
0
10
461.75192622163371
20
360.64195448644341
30
0
10
461.75192622163371
20
360.91809661441664
30
0
0
LINE
5
287
100
AcDbEntity
8
0
100
AcDbLine
10
461.75192622163371
20
360.91809661441664
30
0
11
461.75192622163371
21
373.91809697276818
31
0
0
SPLINE
5
288
100
AcDbEntity
8
0
100
AcDbSpline
70
0
71
3
72
8
73
4
74
0
42
0.000000001
43
0.0000000001
44
0.0000000001
40
12
40
12
40
12
40
12
40
13
40
13
40
13
40
13
10
461.75192622163371
20
373.91809697276818
30
0
10
461.75192622163371
20
374.19423935406132
30
0
10
461.52806452112685
20
374.41809698655101
30
0
10
461.25192620785094
20
374.41809698655101
30
0
0
LINE
5
289
100
AcDbEntity
8
0
100
AcDbLine
10
461.25192620785094
20
374.41809698655101
30
0
11
460.16492056265264
21
374.41809698655101
31
0
0
LINE
5
290
100
AcDbEntity
8
0
100
AcDbLine
10
460.16492056265264
20
374.41809698655101
30
0
11
454.16492039725966
21
374.41809698655101
31
0
0
LINE
5
291
100
AcDbEntity
8
0
100
AcDbLine
10
454.16492039725966
20
374.41809698655101
30
0
11
451.72691679001588
21
374.41809698655101
31
0
0
LINE
5
292
100
AcDbEntity
8
0
100
AcDbLine
10
451.72691679001588
20
374.41809698655101
30
0
11
448.2519258494994
21
374.41809698655101
31
0
0
LINE
5
293
100
AcDbEntity
8
0
100
AcDbLine
10
448.2519258494994
20
374.41809698655101
30
0
11
442.20192263097033
21
374.41809698655101
31
0
0
LINE
5
294
100
AcDbEntity
8
0
100
AcDbLine
10
442.20192263097033
20
374.41809698655101
30
0
11
438.72691643166434
21
374.41809698655101
31
0
0
LINE
5
295
100
AcDbEntity
8
0
100
AcDbLine
10
438.72691643166434
20
374.41809698655101
30
0
11
436.28891282442044
21
374.41809698655101
31
0
0
LINE
5
296
100
AcDbEntity
8
0
100
AcDbLine
10
436.28891282442044
20
374.41809698655101
30
0
11
430.28891265902746
21
374.41809698655101
31
0
0
LINE
5
297
100
AcDbEntity
8
0
100
AcDbLine
10
430.28891265902746
20
374.41809698655101
30
0
11
429.20192227261879
21
374.41809698655101
31
0
0
SPLINE
5
298
100
AcDbEntity
8
0
100
AcDbSpline
70
0
71
3
72
8
73
4
74
0
42
0.000000001
43
0.0000000001
44
0.0000000001
40
22
40
22
40
22
40
22
40
23
40
23
40
23
40
23
10
429.20192227261879
20
374.41809698655101
30
0
10
428.92578395934265
20
374.41809698655101
30
0
10
428.70192225883602
20
374.19423935406132
30
0
10
428.70192225883602
20
373.91809697276818
30
0
0
LINE
5
299
100
AcDbEntity
8
0
100
AcDbLine
10
428.70192225883602
20
373.91809697276818
30
0
11
428.70192225883602
21
360.91809661441664
31
0
0
SPLINE
5
300
100
AcDbEntity
8
0
100
AcDbSpline
70
0
71
3
72
8
73
4
74
0
42
0.000000001
43
0.0000000001
44
0.0000000001
40
24
40
24
40
24
40
24
40
25
40
25
40
25
40
25
10
428.70192225883602
20
360.91809661441664
30
0
10
428.70192225883602
20
360.64195448644341
30
0
10
428.92578395934265
20
360.41809660063399
30
0
10
429.20192227261879
20
360.41809660063399
30
0
0
LINE
5
301
100
AcDbEntity
8
0
100
AcDbLine
10
429.20192227261879
20
360.41809660063399
30
0
11
429.78891264524469
21
360.41809660063399
31
0
0
LINE
5
302
100
AcDbEntity
8
0
100
AcDbLine
10
429.78891264524469
20
360.41809660063399
30
0
11
429.78891264524469
21
359.91809658685122
31
0
0
SPLINE
5
303
100
AcDbEntity
8
0
100
AcDbSpline
70
0
71
3
72
8
73
4
74
0
42
0.000000001
43
0.0000000001
44
0.0000000001
40
27
40
27
40
27
40
27
40
28
40
28
40
28
40
28
10
429.78891264524469
20
359.91809658685122
30
0
10
429.78891264524469
20
359.64195445887788
30
0
10
430.0127743457515
20
359.4180965730684
30
0
10
430.28891265902746
20
359.4180965730684
30
0
0
LINE
5
304
100
AcDbEntity
8
0
100
AcDbLine
10
430.28891265902746
20
359.4180965730684
30
0
11
436.28891282442044
21
359.4180965730684
31
0
0
SPLINE
5
305
100
AcDbEntity
8
0
100
AcDbSpline
70
0
71
3
72
8
73
4
74
0
42
0.000000001
43
0.0000000001
44
0.0000000001
40
29
40
29
40
29
40
29
40
30
40
30
40
30
40
30
10
436.28891282442044
20
359.4180965730684
30
0
10
436.5650511376964
20
359.4180965730684
30
0
10
436.7889128382032
20
359.64195445887788
30
0
10
436.7889128382032
20
359.91809658685122
30
0
0
LINE
5
306
100
AcDbEntity
8
0
100
AcDbLine
10
436.7889128382032
20
359.91809658685122
30
0
11
436.7889128382032
21
360.41809660063399
31
0
0
LINE
5
307
100
AcDbEntity
8
0
100
AcDbLine
10
436.7889128382032
20
360.41809660063399
30
0
11
438.72691643166434
21
360.41809660063399
31
0
0
SPLINE
5
308
100
AcDbEntity
8
0
100
AcDbSpline
70
0
71
3
72
8
73
4
74
0
42
0.000000001
43
0.0000000001
44
0.0000000001
40
0
40
0
40
0
40
0
40
1
40
1
40
1
40
1
10
352.50192321010269
20
360.91809661441664
30
0
10
352.50192321010269
20
360.64195448644341
30
0
10
352.72578491060949
20
360.41809660063399
30
0
10
353.00192322388557
20
360.41809660063399
30
0
0
LINE
5
309
100
AcDbEntity
8
0
100
AcDbLine
10
353.00192322388557
20
360.41809660063399
30
0
11
366.001923582237
21
360.41809660063399
31
0
0
SPLINE
5
310
100
AcDbEntity
8
0
100
AcDbSpline
70
0
71
3
72
8
73
4
74
0
42
0.000000001
43
0.0000000001
44
0.0000000001
40
2
40
2
40
2
40
2
40
3
40
3
40
3
40
3
10
366.001923582237
20
360.41809660063399
30
0
10
366.27806189551285
20
360.41809660063399
30
0
10
366.50192359601965
20
360.64195448644341
30
0
10
366.50192359601965
20
360.91809661441664
30
0
0
LINE
5
311
100
AcDbEntity
8
0
100
AcDbLine
10
366.50192359601965
20
360.91809661441664
30
0
11
366.50192359601965
21
373.91809697276818
31
0
0
SPLINE
5
312
100
AcDbEntity
8
0
100
AcDbSpline
70
0
71
3
72
8
73
4
74
0
42
0.000000001
43
0.0000000001
44
0.0000000001
40
4
40
4
40
4
40
4
40
5
40
5
40
5
40
5
10
366.50192359601965
20
373.91809697276818
30
0
10
366.50192359601965
20
374.19423935406132
30
0
10
366.27806189551285
20
374.41809698655101
30
0
10
366.001923582237
20
374.41809698655101
30
0
0
LINE
5
313
100
AcDbEntity
8
0
100
AcDbLine
10
366.001923582237
20
374.41809698655101
30
0
11
353.00192322388557
21
374.41809698655101
31
0
0
SPLINE
5
314
100
AcDbEntity
8
0
100
AcDbSpline
70
0
71
3
72
8
73
4
74
0
42
0.000000001
43
0.0000000001
44
0.0000000001
40
6
40
6
40
6
40
6
40
7
40
7
40
7
40
7
10
353.00192322388557
20
374.41809698655101
30
0
10
352.72578491060949
20
374.41809698655101
30
0
10
352.50192321010269
20
374.19423935406132
30
0
10
352.50192321010269
20
373.91809697276818
30
0
0
LINE
5
315
100
AcDbEntity
8
0
100
AcDbLine
10
352.50192321010269
20
373.91809697276818
30
0
11
352.50192321010269
21
360.91809661441664
31
0
0
SPLINE
5
316
100
AcDbEntity
8
0
100
AcDbSpline
70
0
71
3
72
8
73
4
74
0
42
0.000000001
43
0.0000000001
44
0.0000000001
40
0
40
0
40
0
40
0
40
1
40
1
40
1
40
1
10
276.30191653197465
20
360.91809661441664
30
0
10
276.30191653197465
20
360.64195448644341
30
0
10
276.52577441778408
20
360.41809660063399
30
0
10
276.80191654575742
20
360.41809660063399
30
0
0
LINE
5
317
100
AcDbEntity
8
0
100
AcDbLine
10
276.80191654575742
20
360.41809660063399
30
0
11
289.80191690410902
21
360.41809660063399
31
0
0
SPLINE
5
318
100
AcDbEntity
8
0
100
AcDbSpline
70
0
71
3
72
8
73
4
74
0
42
0.000000001
43
0.0000000001
44
0.0000000001
40
2
40
2
40
2
40
2
40
3
40
3
40
3
40
3
10
289.80191690410902
20
360.41809660063399
30
0
10
290.07806284677963
20
360.41809660063399
30
0
10
290.30191691789179
20
360.64195448644341
30
0
10
290.30191691789179
20
360.91809661441664
30
0
0
LINE
5
319
100
AcDbEntity
8
0
100
AcDbLine
10
290.30191691789179
20
360.91809661441664
30
0
11
290.30191691789179
21
373.91809697276818
31
0
0
SPLINE
5
320
100
AcDbEntity
8
0
100
AcDbSpline
70
0
71
3
72
8
73
4
74
0
42
0.000000001
43
0.0000000001
44
0.0000000001
40
4
40
4
40
4
40
4
40
5
40
5
40
5
40
5
10
290.30191691789179
20
373.91809697276818
30
0
10
290.30191691789179
20
374.19423935406132
30
0
10
290.07806284677963
20
374.41809698655101
30
0
10
289.80191690410902
20
374.41809698655101
30
0
0
LINE
5
321
100
AcDbEntity
8
0
100
AcDbLine
10
289.80191690410902
20
374.41809698655101
30
0
11
276.80191654575742
21
374.41809698655101
31
0
0
SPLINE
5
322
100
AcDbEntity
8
0
100
AcDbSpline
70
0
71
3
72
8
73
4
74
0
42
0.000000001
43
0.0000000001
44
0.0000000001
40
6
40
6
40
6
40
6
40
7
40
7
40
7
40
7
10
276.80191654575742
20
374.41809698655101
30
0
10
276.52577441778408
20
374.41809698655101
30
0
10
276.30191653197465
20
374.19423935406132
30
0
10
276.30191653197465
20
373.91809697276818
30
0
0
LINE
5
323
100
AcDbEntity
8
0
100
AcDbLine
10
276.30191653197465
20
373.91809697276818
30
0
11
276.30191653197465
21
360.91809661441664
31
0
0
ELLIPSE
5
324
100
AcDbEntity
8
0
100
AcDbEllipse
10
333.94723061528799
20
303.30097948452726
30
0
11
0.12668828336317078
21
-0.001304983234809562
31
0.0
40
0.25937744094237614
41
4.6533306237679382
42
4.7520814325844931
0
LINE
5
325
100
AcDbEntity
8
0
100
AcDbLine
10
333.95191964700479
20
303.26809349938662
30
0
11
346.95192000535627
21
303.26809349938662
31
0
0
SPLINE
5
326
100
AcDbEntity
8
0
100
AcDbSpline
70
0
71
3
72
8
73
4
74
0
42
0.000000001
43
0.0000000001
44
0.0000000001
40
2
40
2
40
2
40
2
40
3
40
3
40
3
40
3
10
346.95192000535627
20
303.26809349938662
30
0
10
346.95608565488521
20
303.26809349938662
30
0
10
346.96025130441421
20
303.26814690514982
30
0
10
346.96441695394293
20
303.26825371667616
30
0
0
SPLINE
5
327
100
AcDbEntity
8
0
100
AcDbSpline
70
0
71
3
72
8
73
4
74
0
42
0.000000001
43
0.0000000001
44
0.0000000001
40
3
40
3
40
3
40
3
40
4
40
4
40
4
40
4
10
346.96441695394293
20
303.26825371667616
30
0
10
346.96858260347193
20
303.26814690514982
30
0
10
346.97274825300087
20
303.26809349938662
30
0
10
346.97691390252965
20
303.26809349938662
30
0
0
LINE
5
328
100
AcDbEntity
8
0
100
AcDbLine
10
346.97691390252965
20
303.26809349938662
30
0
11
352.97691406792262
21
303.26809349938662
31
0
0
SPLINE
5
329
100
AcDbEntity
8
0
100
AcDbSpline
70
0
71
3
72
8
73
4
74
0
42
0.000000001
43
0.0000000001
44
0.0000000001
40
5
40
5
40
5
40
5
40
6
40
6
40
6
40
6
10
352.97691406792262
20
303.26809349938662
30
0
10
353.2530523811987
20
303.26809349938662
30
0
10
353.47691408170539
20
303.49194757049872
30
0
10
353.47691408170539
20
303.76809351316939
30
0
0
LINE
5
330
100
AcDbEntity
8
0
100
AcDbLine
10
353.47691408170539
20
303.76809351316939
30
0
11
353.47691408170539
21
317.76809389908635
31
0
0
SPLINE
5
331
100
AcDbEntity
8
0
100
AcDbSpline
70
0
71
3
72
8
73
4
74
0
42
0.000000001
43
0.0000000001
44
0.0000000001
40
7
40
7
40
7
40
7
40
8
40
8
40
8
40
8
10
353.47691408170539
20
317.76809389908635
30
0
10
353.47691408170539
20
318.04423602705981
30
0
10
353.2530523811987
20
318.26809391286918
30
0
10
352.97691406792262
20
318.26809391286918
30
0
0
LINE
5
332
100
AcDbEntity
8
0
100
AcDbLine
10
352.97691406792262
20
318.26809391286918
30
0
11
346.97691390252965
21
318.26809391286918
31
0
0
SPLINE
5
333
100
AcDbEntity
8
0
100
AcDbSpline
70
0
71
3
72
8
73
4
74
0
42
0.000000001
43
0.0000000001
44
0.0000000001
40
9
40
9
40
9
40
9
40
10
40
10
40
10
40
10
10
346.97691390252965
20
318.26809391286918
30
0
10
346.70076795985887
20
318.26809391286918
30
0
10
346.47691388874694
20
318.04423602705981
30
0
10
346.47691388874694
20
317.76809389908635
30
0
0
LINE
5
334
100
AcDbEntity
8
0
100
AcDbLine
10
346.47691388874694
20
317.76809389908635
30
0
11
346.47691388874694
21
317.26809388530359
31
0
0
LINE
5
335
100
AcDbEntity
8
0
100
AcDbLine
10
346.47691388874694
20
317.26809388530359
30
0
11
334.42691813421936
21
317.26809388530359
31
0
0
LINE
5
336
100
AcDbEntity
8
0
100
AcDbLine
10
334.42691813421936
20
317.26809388530359
30
0
11
334.42691813421936
21
317.76809389908635
31
0
0
SPLINE
5
337
100
AcDbEntity
8
0
100
AcDbSpline
70
0
71
3
72
8
73
4
74
0
42
0.000000001
43
0.0000000001
44
0.0000000001
40
13
40
13
40
13
40
13
40
14
40
14
40
14
40
14
10
334.42691813421936
20
317.76809389908635
30
0
10
334.42691813421936
20
318.04423602705981
30
0
10
334.20306406310738
20
318.26809391286918
30
0
10
333.92691812043671
20
318.26809391286918
30
0
0
LINE
5
338
100
AcDbEntity
8
0
100
AcDbLine
10
333.92691812043671
20
318.26809391286918
30
0
11
327.92691795504368
21
318.26809391286918
31
0
0
SPLINE
5
339
100
AcDbEntity
8
0
100
AcDbSpline
70
0
71
3
72
8
73
4
74
0
42
0.000000001
43
0.0000000001
44
0.0000000001
40
15
40
15
40
15
40
15
40
16
40
16
40
16
40
16
10
327.92691795504368
20
318.26809391286918
30
0
10
327.65077201237307
20
318.26809391286918
30
0
10
327.42691794126085
20
318.04423602705981
30
0
10
327.42691794126085
20
317.76809389908635
30
0
0
LINE
5
340
100
AcDbEntity
8
0
100
AcDbLine
10
327.42691794126085
20
317.76809389908635
30
0
11
327.42691794126085
21
303.76809351316939
31
0
0
SPLINE
5
341
100
AcDbEntity
8
0
100
AcDbSpline
70
0
71
3
72
8
73
4
74
0
42
0.000000001
43
0.0000000001
44
0.0000000001
40
17
40
17
40
17
40
17
40
18
40
18
40
18
40
18
10
327.42691794126085
20
303.76809351316939
30
0
10
327.42691794126085
20
303.49194757049872
30
0
10
327.65077201237307
20
303.26809349938662
30
0
10
327.92691795504368
20
303.26809349938662
30
0
0
LINE
5
342
100
AcDbEntity
8
0
100
AcDbLine
10
327.92691795504368
20
303.26809349938662
30
0
11
333.92691812043671
21
303.26809349938662
31
0
0
SPLINE
5
343
100
AcDbEntity
8
0
100
AcDbSpline
70
0
71
3
72
8
73
4
74
0
42
0.000000001
43
0.0000000001
44
0.0000000001
40
19
40
19
40
19
40
19
40
20
40
20
40
20
40
20
10
333.92691812043671
20
303.26809349938662
30
0
10
333.93108376996565
20
303.26809349938662
30
0
10
333.9352494194946
20
303.26814690514982
30
0
10
333.93941506902337
20
303.26825371667616
30
0
0
SPLINE
5
344
100
AcDbEntity
8
0
100
AcDbSpline
70
0
71
3
72
8
73
4
74
0
42
0.000000001
43
0.0000000001
44
0.0000000001
40
0
40
0
40
0
40
0
40
1
40
1
40
1
40
1
10
338.21441671274488
20
341.86809685223346
30
0
10
338.21441671274488
20
341.59195472426012
30
0
10
338.43827078385686
20
341.3680968384507
30
0
10
338.71441672652765
20
341.3680968384507
30
0
0
LINE
5
345
100
AcDbEntity
8
0
100
AcDbLine
10
338.71441672652765
20
341.3680968384507
30
0
11
351.71441708487913
21
341.3680968384507
31
0
0
SPLINE
5
346
100
AcDbEntity
8
0
100
AcDbSpline
70
0
71
3
72
8
73
4
74
0
42
0.000000001
43
0.0000000001
44
0.0000000001
40
2
40
2
40
2
40
2
40
3
40
3
40
3
40
3
10
351.71441708487913
20
341.3680968384507
30
0
10
351.99055539815498
20
341.3680968384507
30
0
10
352.2144170986619
20
341.59195472426012
30
0
10
352.2144170986619
20
341.86809685223346
30
0
0
LINE
5
347
100
AcDbEntity
8
0
100
AcDbLine
10
352.2144170986619
20
341.86809685223346
30
0
11
352.2144170986619
21
354.86809721058489
31
0
0
SPLINE
5
348
100
AcDbEntity
8
0
100
AcDbSpline
70
0
71
3
72
8
73
4
74
0
42
0.000000001
43
0.0000000001
44
0.0000000001
40
4
40
4
40
4
40
4
40
5
40
5
40
5
40
5
10
352.2144170986619
20
354.86809721058489
30
0
10
352.2144170986619
20
355.14423933855818
30
0
10
351.99055539815498
20
355.36809722436766
30
0
10
351.71441708487913
20
355.36809722436766
30
0
0
LINE
5
349
100
AcDbEntity
8
0
100
AcDbLine
10
351.71441708487913
20
355.36809722436766
30
0
11
338.71441672652765
21
355.36809722436766
31
0
0
SPLINE
5
350
100
AcDbEntity
8
0
100
AcDbSpline
70
0
71
3
72
8
73
4
74
0
42
0.000000001
43
0.0000000001
44
0.0000000001
40
6
40
6
40
6
40
6
40
7
40
7
40
7
40
7
10
338.71441672652765
20
355.36809722436766
30
0
10
338.43827078385686
20
355.36809722436766
30
0
10
338.21441671274488
20
355.14423933855818
30
0
10
338.21441671274488
20
354.86809721058489
30
0
0
LINE
5
351
100
AcDbEntity
8
0
100
AcDbLine
10
338.21441671274488
20
354.86809721058489
30
0
11
338.21441671274488
21
341.86809685223346
31
0
0
SPLINE
5
352
100
AcDbEntity
8
0
100
AcDbSpline
70
0
71
3
72
8
73
4
74
0
42
0.000000001
43
0.0000000001
44
0.0000000001
40
0
40
0
40
0
40
0
40
1
40
1
40
1
40
1
10
442.98941349740431
20
303.76809351316939
30
0
10
442.98941349740431
20
303.49194757049872
30
0
10
443.21327519791123
20
303.26809349938662
30
0
10
443.48941351118719
20
303.26809349938662
30
0
0
LINE
5
353
100
AcDbEntity
8
0
100
AcDbLine
10
443.48941351118719
20
303.26809349938662
30
0
11
445.87066968034333
21
303.26809349938662
31
0
0
LINE
5
354
100
AcDbEntity
8
0
100
AcDbLine
10
445.87066968034333
20
303.26809349938662
30
0
11
456.48941386953868
21
303.26809349938662
31
0
0
LINE
5
355
100
AcDbEntity
8
0
100
AcDbLine
10
456.48941386953868
20
303.26809349938662
30
0
11
458.87067003869481
21
303.26809349938662
31
0
0
SPLINE
5
356
100
AcDbEntity
8
0
100
AcDbSpline
70
0
71
3
72
8
73
4
74
0
42
0.000000001
43
0.0000000001
44
0.0000000001
40
4
40
4
40
4
40
4
40
5
40
5
40
5
40
5
10
458.87067003869481
20
303.26809349938662
30
0
10
459.14680835197066
20
303.26809349938662
30
0
10
459.37067005247752
20
303.49194757049872
30
0
10
459.37067005247752
20
303.76809351316939
30
0
0
LINE
5
357
100
AcDbEntity
8
0
100
AcDbLine
10
459.37067005247752
20
303.76809351316939
30
0
11
459.37067005247752
21
316.76809387152093
31
0
0
SPLINE
5
358
100
AcDbEntity
8
0
100
AcDbSpline
70
0
71
3
72
8
73
4
74
0
42
0.000000001
43
0.0000000001
44
0.0000000001
40
6
40
6
40
6
40
6
40
7
40
7
40
7
40
7
10
459.37067005247752
20
316.76809387152093
30
0
10
459.37067005247752
20
317.04423599949416
30
0
10
459.14680835197066
20
317.26809388530359
30
0
10
458.87067003869481
20
317.26809388530359
30
0
0
LINE
5
359
100
AcDbEntity
8
0
100
AcDbLine
10
458.87067003869481
20
317.26809388530359
30
0
11
456.48941386953868
21
317.26809388530359
31
0
0
LINE
5
360
100
AcDbEntity
8
0
100
AcDbLine
10
456.48941386953868
20
317.26809388530359
30
0
11
445.87066968034333
21
317.26809388530359
31
0
0
LINE
5
361
100
AcDbEntity
8
0
100
AcDbLine
10
445.87066968034333
20
317.26809388530359
30
0
11
443.48941351118719
21
317.26809388530359
31
0
0
SPLINE
5
362
100
AcDbEntity
8
0
100
AcDbSpline
70
0
71
3
72
8
73
4
74
0
42
0.000000001
43
0.0000000001
44
0.0000000001
40
10
40
10
40
10
40
10
40
11
40
11
40
11
40
11
10
443.48941351118719
20
317.26809388530359
30
0
10
443.21327519791123
20
317.26809388530359
30
0
10
442.98941349740431
20
317.04423599949416
30
0
10
442.98941349740431
20
316.76809387152093
30
0
0
LINE
5
363
100
AcDbEntity
8
0
100
AcDbLine
10
442.98941349740431
20
316.76809387152093
30
0
11
442.98941349740431
21
303.76809351316939
31
0
0
SPLINE
5
364
100
AcDbEntity
8
0
100
AcDbSpline
70
0
71
3
72
8
73
4
74
0
42
0.000000001
43
0.0000000001
44
0.0000000001
40
0
40
0
40
0
40
0
40
1
40
1
40
1
40
1
10
281.06441361149751
20
341.86809685223346
30
0
10
281.06441361149751
20
341.59195472426012
30
0
10
281.28827149730688
20
341.3680968384507
30
0
10
281.56441362528017
20
341.3680968384507
30
0
0
LINE
5
365
100
AcDbEntity
8
0
100
AcDbLine
10
281.56441362528017
20
341.3680968384507
30
0
11
294.56441398363182
21
341.3680968384507
31
0
0
SPLINE
5
366
100
AcDbEntity
8
0
100
AcDbSpline
70
0
71
3
72
8
73
4
74
0
42
0.000000001
43
0.0000000001
44
0.0000000001
40
2
40
2
40
2
40
2
40
3
40
3
40
3
40
3
10
294.56441398363182
20
341.3680968384507
30
0
10
294.84055992630238
20
341.3680968384507
30
0
10
295.06441399741453
20
341.59195472426012
30
0
10
295.06441399741453
20
341.86809685223346
30
0
0
LINE
5
367
100
AcDbEntity
8
0
100
AcDbLine
10
295.06441399741453
20
341.86809685223346
30
0
11
295.06441399741453
21
354.86809721058489
31
0
0
SPLINE
5
368
100
AcDbEntity
8
0
100
AcDbSpline
70
0
71
3
72
8
73
4
74
0
42
0.000000001
43
0.0000000001
44
0.0000000001
40
4
40
4
40
4
40
4
40
5
40
5
40
5
40
5
10
295.06441399741453
20
354.86809721058489
30
0
10
295.06441399741453
20
355.14423933855818
30
0
10
294.84055992630238
20
355.36809722436766
30
0
10
294.56441398363182
20
355.36809722436766
30
0
0
LINE
5
369
100
AcDbEntity
8
0
100
AcDbLine
10
294.56441398363182
20
355.36809722436766
30
0
11
281.56441362528017
21
355.36809722436766
31
0
0
SPLINE
5
370
100
AcDbEntity
8
0
100
AcDbSpline
70
0
71
3
72
8
73
4
74
0
42
0.000000001
43
0.0000000001
44
0.0000000001
40
6
40
6
40
6
40
6
40
7
40
7
40
7
40
7
10
281.56441362528017
20
355.36809722436766
30
0
10
281.28827149730688
20
355.36809722436766
30
0
10
281.06441361149751
20
355.14423933855818
30
0
10
281.06441361149751
20
354.86809721058489
30
0
0
LINE
5
371
100
AcDbEntity
8
0
100
AcDbLine
10
281.06441361149751
20
354.86809721058489
30
0
11
281.06441361149751
21
341.86809685223346
31
0
0
SPLINE
5
372
100
AcDbEntity
8
0
100
AcDbSpline
70
0
71
3
72
8
73
4
74
0
42
0.000000001
43
0.0000000001
44
0.0000000001
40
0
40
0
40
0
40
0
40
1
40
1
40
1
40
1
10
376.31442386650627
20
341.86809685223346
30
0
10
376.31442386650627
20
341.59195472426012
30
0
10
376.53828556701308
20
341.3680968384507
30
0
10
376.81442388028893
20
341.3680968384507
30
0
0
LINE
5
373
100
AcDbEntity
8
0
100
AcDbLine
10
376.81442388028893
20
341.3680968384507
30
0
11
389.81442423864053
21
341.3680968384507
31
0
0
SPLINE
5
374
100
AcDbEntity
8
0
100
AcDbSpline
70
0
71
3
72
8
73
4
74
0
42
0.000000001
43
0.0000000001
44
0.0000000001
40
2
40
2
40
2
40
2
40
3
40
3
40
3
40
3
10
389.81442423864053
20
341.3680968384507
30
0
10
390.09056255191638
20
341.3680968384507
30
0
10
390.31442425242318
20
341.59195472426012
30
0
10
390.31442425242318
20
341.86809685223346
30
0
0
LINE
5
375
100
AcDbEntity
8
0
100
AcDbLine
10
390.31442425242318
20
341.86809685223346
30
0
11
390.31442425242318
21
354.86809721058489
31
0
0
SPLINE
5
376
100
AcDbEntity
8
0
100
AcDbSpline
70
0
71
3
72
8
73
4
74
0
42
0.000000001
43
0.0000000001
44
0.0000000001
40
4
40
4
40
4
40
4
40
5
40
5
40
5
40
5
10
390.31442425242318
20
354.86809721058489
30
0
10
390.31442425242318
20
355.14423933855818
30
0
10
390.09056255191638
20
355.36809722436766
30
0
10
389.81442423864053
20
355.36809722436766
30
0
0
LINE
5
377
100
AcDbEntity
8
0
100
AcDbLine
10
389.81442423864053
20
355.36809722436766
30
0
11
376.81442388028893
21
355.36809722436766
31
0
0
SPLINE
5
378
100
AcDbEntity
8
0
100
AcDbSpline
70
0
71
3
72
8
73
4
74
0
42
0.000000001
43
0.0000000001
44
0.0000000001
40
6
40
6
40
6
40
6
40
7
40
7
40
7
40
7
10
376.81442388028893
20
355.36809722436766
30
0
10
376.53828556701308
20
355.36809722436766
30
0
10
376.31442386650627
20
355.14423933855818
30
0
10
376.31442386650627
20
354.86809721058489
30
0
0
LINE
5
379
100
AcDbEntity
8
0
100
AcDbLine
10
376.31442386650627
20
354.86809721058489
30
0
11
376.31442386650627
21
341.86809685223346
31
0
0
SPLINE
5
380
100
AcDbEntity
8
0
100
AcDbSpline
70
0
71
3
72
8
73
4
74
0
42
0.000000001
43
0.0000000001
44
0.0000000001
40
0
40
0
40
0
40
0
40
1
40
1
40
1
40
1
10
242.96441408713082
20
341.86809685223346
30
0
10
242.96441408713082
20
341.59195472426012
30
0
10
243.18827197294036
20
341.3680968384507
30
0
10
243.46441410091359
20
341.3680968384507
30
0
0
LINE
5
381
100
AcDbEntity
8
0
100
AcDbLine
10
243.46441410091359
20
341.3680968384507
30
0
11
256.46441445926507
21
341.3680968384507
31
0
0
SPLINE
5
382
100
AcDbEntity
8
0
100
AcDbSpline
70
0
71
3
72
8
73
4
74
0
42
0.000000001
43
0.0000000001
44
0.0000000001
40
2
40
2
40
2
40
2
40
3
40
3
40
3
40
3
10
256.46441445926507
20
341.3680968384507
30
0
10
256.74055658723853
20
341.3680968384507
30
0
10
256.9644144730479
20
341.59195472426012
30
0
10
256.9644144730479
20
341.86809685223346
30
0
0
LINE
5
383
100
AcDbEntity
8
0
100
AcDbLine
10
256.9644144730479
20
341.86809685223346
30
0
11
256.9644144730479
21
354.86809721058489
31
0
0
SPLINE
5
384
100
AcDbEntity
8
0
100
AcDbSpline
70
0
71
3
72
8
73
4
74
0
42
0.000000001
43
0.0000000001
44
0.0000000001
40
4
40
4
40
4
40
4
40
5
40
5
40
5
40
5
10
256.9644144730479
20
354.86809721058489
30
0
10
256.9644144730479
20
355.14423933855818
30
0
10
256.74055658723853
20
355.36809722436766
30
0
10
256.46441445926507
20
355.36809722436766
30
0
0
LINE
5
385
100
AcDbEntity
8
0
100
AcDbLine
10
256.46441445926507
20
355.36809722436766
30
0
11
243.46441410091359
21
355.36809722436766
31
0
0
SPLINE
5
386
100
AcDbEntity
8
0
100
AcDbSpline
70
0
71
3
72
8
73
4
74
0
42
0.000000001
43
0.0000000001
44
0.0000000001
40
6
40
6
40
6
40
6
40
7
40
7
40
7
40
7
10
243.46441410091359
20
355.36809722436766
30
0
10
243.18827197294036
20
355.36809722436766
30
0
10
242.96441408713082
20
355.14423933855818
30
0
10
242.96441408713082
20
354.86809721058489
30
0
0
LINE
5
387
100
AcDbEntity
8
0
100
AcDbLine
10
242.96441408713082
20
354.86809721058489
30
0
11
242.96441408713082
21
341.86809685223346
31
0
0
SPLINE
5
388
100
AcDbEntity
8
0
100
AcDbSpline
70
0
71
3
72
8
73
4
74
0
42
0.000000001
43
0.0000000001
44
0.0000000001
40
0
40
0
40
0
40
0
40
1
40
1
40
1
40
1
10
409.65191868195541
20
360.91809661441664
30
0
10
409.65191868195541
20
360.64195448644341
30
0
10
409.87578038246221
20
360.41809660063399
30
0
10
410.15191869573806
20
360.41809660063399
30
0
0
LINE
5
389
100
AcDbEntity
8
0
100
AcDbLine
10
410.15191869573806
20
360.41809660063399
30
0
11
423.15191905408949
21
360.41809660063399
31
0
0
SPLINE
5
390
100
AcDbEntity
8
0
100
AcDbSpline
70
0
71
3
72
8
73
4
74
0
42
0.000000001
43
0.0000000001
44
0.0000000001
40
2
40
2
40
2
40
2
40
3
40
3
40
3
40
3
10
423.15191905408949
20
360.41809660063399
30
0
10
423.42805736736551
20
360.41809660063399
30
0
10
423.6519190678722
20
360.64195448644341
30
0
10
423.6519190678722
20
360.91809661441664
30
0
0
LINE
5
391
100
AcDbEntity
8
0
100
AcDbLine
10
423.6519190678722
20
360.91809661441664
30
0
11
423.6519190678722
21
373.91809697276818
31
0
0
SPLINE
5
392
100
AcDbEntity
8
0
100
AcDbSpline
70
0
71
3
72
8
73
4
74
0
42
0.000000001
43
0.0000000001
44
0.0000000001
40
4
40
4
40
4
40
4
40
5
40
5
40
5
40
5
10
423.6519190678722
20
373.91809697276818
30
0
10
423.6519190678722
20
374.19423935406132
30
0
10
423.42805736736551
20
374.41809698655101
30
0
10
423.15191905408949
20
374.41809698655101
30
0
0
LINE
5
393
100
AcDbEntity
8
0
100
AcDbLine
10
423.15191905408949
20
374.41809698655101
30
0
11
410.15191869573806
21
374.41809698655101
31
0
0
SPLINE
5
394
100
AcDbEntity
8
0
100
AcDbSpline
70
0
71
3
72
8
73
4
74
0
42
0.000000001
43
0.0000000001
44
0.0000000001
40
6
40
6
40
6
40
6
40
7
40
7
40
7
40
7
10
410.15191869573806
20
374.41809698655101
30
0
10
409.87578038246221
20
374.41809698655101
30
0
10
409.65191868195541
20
374.19423935406132
30
0
10
409.65191868195541
20
373.91809697276818
30
0
0
LINE
5
395
100
AcDbEntity
8
0
100
AcDbLine
10
409.65191868195541
20
373.91809697276818
30
0
11
409.65191868195541
21
360.91809661441664
31
0
0
SPLINE
5
396
100
AcDbEntity
8
0
100
AcDbSpline
70
0
71
3
72
8
73
4
74
0
42
0.000000001
43
0.0000000001
44
0.0000000001
40
0
40
0
40
0
40
0
40
1
40
1
40
1
40
1
10
305.85191276889839
20
317.76809389908635
30
0
10
305.85191276889839
20
318.04423602705981
30
0
10
305.62805869778634
20
318.26809391286918
30
0
10
305.35191275511568
20
318.26809391286918
30
0
0
LINE
5
397
100
AcDbEntity
8
0
100
AcDbLine
10
305.35191275511568
20
318.26809391286918
30
0
11
299.3519125897227
21
318.26809391286918
31
0
0
SPLINE
5
398
100
AcDbEntity
8
0
100
AcDbSpline
70
0
71
3
72
8
73
4
74
0
42
0.000000001
43
0.0000000001
44
0.0000000001
40
2
40
2
40
2
40
2
40
3
40
3
40
3
40
3
10
299.3519125897227
20
318.26809391286918
30
0
10
299.07576664705198
20
318.26809391286918
30
0
10
298.85191257593988
20
318.04423602705981
30
0
10
298.85191257593988
20
317.76809389908635
30
0
0
LINE
5
399
100
AcDbEntity
8
0
100
AcDbLine
10
298.85191257593988
20
317.76809389908635
30
0
11
298.85191257593988
21
303.76809351316939
31
0
0
SPLINE
5
400
100
AcDbEntity
8
0
100
AcDbSpline
70
0
71
3
72
8
73
4
74
0
42
0.000000001
43
0.0000000001
44
0.0000000001
40
4
40
4
40
4
40
4
40
5
40
5
40
5
40
5
10
298.85191257593988
20
303.76809351316939
30
0
10
298.85191257593988
20
303.49194757049872
30
0
10
299.07576664705198
20
303.26809349938662
30
0
10
299.3519125897227
20
303.26809349938662
30
0
0
LINE
5
401
100
AcDbEntity
8
0
100
AcDbLine
10
299.3519125897227
20
303.26809349938662
30
0
11
305.35191275511568
21
303.26809349938662
31
0
0
ELLIPSE
5
402
100
AcDbEntity
8
0
100
AcDbEllipse
10
305.35660178689085
20
303.30097948289557
30
0
11
0.12668828021794867
21
0.0013049832139643621
31
0.0
40
0.2593774344989439
41
4.6726965268464351
42
4.771447338116479
0
SPLINE
5
403
100
AcDbEntity
8
0
100
AcDbSpline
70
0
71
3
72
8
73
4
74
0
42
0.000000001
43
0.0000000001
44
0.0000000001
40
7
40
7
40
7
40
7
40
8
40
8
40
8
40
8
10
305.36441733309709
20
303.26825371667616
30
0
10
305.36858298262598
20
303.26814690514982
30
0
10
305.37274863215487
20
303.26809349938662
30
0
10
305.37691428168375
20
303.26809349938662
30
0
0
LINE
5
404
100
AcDbEntity
8
0
100
AcDbLine
10
305.37691428168375
20
303.26809349938662
30
0
11
318.37691464003535
21
303.26809349938662
31
0
0
SPLINE
5
405
100
AcDbEntity
8
0
100
AcDbSpline
70
0
71
3
72
8
73
4
74
0
42
0.000000001
43
0.0000000001
44
0.0000000001
40
9
40
9
40
9
40
9
40
10
40
10
40
10
40
10
10
318.37691464003535
20
303.26809349938662
30
0
10
318.6530605827059
20
303.26809349938662
30
0
10
318.87691465381801
20
303.49194757049872
30
0
10
318.87691465381801
20
303.76809351316939
30
0
0
LINE
5
406
100
AcDbEntity
8
0
100
AcDbLine
10
318.87691465381801
20
303.76809351316939
30
0
11
318.87691465381801
21
316.76809387152093
31
0
0
SPLINE
5
407
100
AcDbEntity
8
0
100
AcDbSpline
70
0
71
3
72
8
73
4
74
0
42
0.000000001
43
0.0000000001
44
0.0000000001
40
11
40
11
40
11
40
11
40
12
40
12
40
12
40
12
10
318.87691465381801
20
316.76809387152093
30
0
10
318.87691465381801
20
317.04423599949416
30
0
10
318.6530605827059
20
317.26809388530359
30
0
10
318.37691464003535
20
317.26809388530359
30
0
0
LINE
5
408
100
AcDbEntity
8
0
100
AcDbLine
10
318.37691464003535
20
317.26809388530359
30
0
11
305.85191276889839
21
317.26809388530359
31
0
0
LINE
5
409
100
AcDbEntity
8
0
100
AcDbLine
10
305.85191276889839
20
317.26809388530359
30
0
11
305.85191276889839
21
317.76809389908635
31
0
0
SPLINE
5
410
100
AcDbEntity
8
0
100
AcDbSpline
70
0
71
3
72
8
73
4
74
0
42
0.000000001
43
0.0000000001
44
0.0000000001
40
0
40
0
40
0
40
0
40
1
40
1
40
1
40
1
10
295.35191247946062
20
360.91809661441664
30
0
10
295.35191247946062
20
360.64195448644341
30
0
10
295.57576655057278
20
360.41809660063399
30
0
10
295.85191249324339
20
360.41809660063399
30
0
0
LINE
5
411
100
AcDbEntity
8
0
100
AcDbLine
10
295.85191249324339
20
360.41809660063399
30
0
11
308.85191285159488
21
360.41809660063399
31
0
0
SPLINE
5
412
100
AcDbEntity
8
0
100
AcDbSpline
70
0
71
3
72
8
73
4
74
0
42
0.000000001
43
0.0000000001
44
0.0000000001
40
2
40
2
40
2
40
2
40
3
40
3
40
3
40
3
10
308.85191285159488
20
360.41809660063399
30
0
10
309.12805879426566
20
360.41809660063399
30
0
10
309.3519128653777
20
360.64195448644341
30
0
10
309.3519128653777
20
360.91809661441664
30
0
0
LINE
5
413
100
AcDbEntity
8
0
100
AcDbLine
10
309.3519128653777
20
360.91809661441664
30
0
11
309.3519128653777
21
373.91809697276818
31
0
0
SPLINE
5
414
100
AcDbEntity
8
0
100
AcDbSpline
70
0
71
3
72
8
73
4
74
0
42
0.000000001
43
0.0000000001
44
0.0000000001
40
4
40
4
40
4
40
4
40
5
40
5
40
5
40
5
10
309.3519128653777
20
373.91809697276818
30
0
10
309.3519128653777
20
374.19423935406132
30
0
10
309.12805879426566
20
374.41809698655101
30
0
10
308.85191285159488
20
374.41809698655101
30
0
0
LINE
5
415
100
AcDbEntity
8
0
100
AcDbLine
10
308.85191285159488
20
374.41809698655101
30
0
11
295.85191249324339
21
374.41809698655101
31
0
0
SPLINE
5
416
100
AcDbEntity
8
0
100
AcDbSpline
70
0
71
3
72
8
73
4
74
0
42
0.000000001
43
0.0000000001
44
0.0000000001
40
6
40
6
40
6
40
6
40
7
40
7
40
7
40
7
10
295.85191249324339
20
374.41809698655101
30
0
10
295.57576655057278
20
374.41809698655101
30
0
10
295.35191247946062
20
374.19423935406132
30
0
10
295.35191247946062
20
373.91809697276818
30
0
0
LINE
5
417
100
AcDbEntity
8
0
100
AcDbLine
10
295.35191247946062
20
373.91809697276818
30
0
11
295.35191247946062
21
360.91809661441664
31
0
0
SPLINE
5
418
100
AcDbEntity
8
0
100
AcDbSpline
70
0
71
3
72
8
73
4
74
0
42
0.000000001
43
0.0000000001
44
0.0000000001
40
0
40
0
40
0
40
0
40
1
40
1
40
1
40
1
10
300.11441718837818
20
341.86809685223346
30
0
10
300.11441718837818
20
341.59195472426012
30
0
10
300.33827125949023
20
341.3680968384507
30
0
10
300.61441720216101
20
341.3680968384507
30
0
0
LINE
5
419
100
AcDbEntity
8
0
100
AcDbLine
10
300.61441720216101
20
341.3680968384507
30
0
11
313.61441756051238
21
341.3680968384507
31
0
0
SPLINE
5
420
100
AcDbEntity
8
0
100
AcDbSpline
70
0
71
3
72
8
73
4
74
0
42
0.000000001
43
0.0000000001
44
0.0000000001
40
2
40
2
40
2
40
2
40
3
40
3
40
3
40
3
10
313.61441756051238
20
341.3680968384507
30
0
10
313.89056350318316
20
341.3680968384507
30
0
10
314.1144175742952
20
341.59195472426012
30
0
10
314.1144175742952
20
341.86809685223346
30
0
0
LINE
5
421
100
AcDbEntity
8
0
100
AcDbLine
10
314.1144175742952
20
341.86809685223346
30
0
11
314.1144175742952
21
354.86809721058489
31
0
0
SPLINE
5
422
100
AcDbEntity
8
0
100
AcDbSpline
70
0
71
3
72
8
73
4
74
0
42
0.000000001
43
0.0000000001
44
0.0000000001
40
4
40
4
40
4
40
4
40
5
40
5
40
5
40
5
10
314.1144175742952
20
354.86809721058489
30
0
10
314.1144175742952
20
355.14423933855818
30
0
10
313.89056350318316
20
355.36809722436766
30
0
10
313.61441756051238
20
355.36809722436766
30
0
0
LINE
5
423
100
AcDbEntity
8
0
100
AcDbLine
10
313.61441756051238
20
355.36809722436766
30
0
11
300.61441720216101
21
355.36809722436766
31
0
0
SPLINE
5
424
100
AcDbEntity
8
0
100
AcDbSpline
70
0
71
3
72
8
73
4
74
0
42
0.000000001
43
0.0000000001
44
0.0000000001
40
6
40
6
40
6
40
6
40
7
40
7
40
7
40
7
10
300.61441720216101
20
355.36809722436766
30
0
10
300.33827125949023
20
355.36809722436766
30
0
10
300.11441718837818
20
355.14423933855818
30
0
10
300.11441718837818
20
354.86809721058489
30
0
0
LINE
5
425
100
AcDbEntity
8
0
100
AcDbLine
10
300.11441718837818
20
354.86809721058489
30
0
11
300.11441718837818
21
341.86809685223346
31
0
0
SPLINE
5
426
100
AcDbEntity
8
0
100
AcDbSpline
70
0
71
3
72
8
73
4
74
0
42
0.000000001
43
0.0000000001
44
0.0000000001
40
0
40
0
40
0
40
0
40
1
40
1
40
1
40
1
10
262.01441384931417
20
341.86809685223346
30
0
10
262.01441384931417
20
341.59195472426012
30
0
10
262.23827173512359
20
341.3680968384507
30
0
10
262.51441386309693
20
341.3680968384507
30
0
0
LINE
5
427
100
AcDbEntity
8
0
100
AcDbLine
10
262.51441386309693
20
341.3680968384507
30
0
11
275.51441422144842
21
341.3680968384507
31
0
0
SPLINE
5
428
100
AcDbEntity
8
0
100
AcDbSpline
70
0
71
3
72
8
73
4
74
0
42
0.000000001
43
0.0000000001
44
0.0000000001
40
2
40
2
40
2
40
2
40
3
40
3
40
3
40
3
10
275.51441422144842
20
341.3680968384507
30
0
10
275.79055634942182
20
341.3680968384507
30
0
10
276.01441423523119
20
341.59195472426012
30
0
10
276.01441423523119
20
341.86809685223346
30
0
0
LINE
5
429
100
AcDbEntity
8
0
100
AcDbLine
10
276.01441423523119
20
341.86809685223346
30
0
11
276.01441423523119
21
354.86809721058489
31
0
0
SPLINE
5
430
100
AcDbEntity
8
0
100
AcDbSpline
70
0
71
3
72
8
73
4
74
0
42
0.000000001
43
0.0000000001
44
0.0000000001
40
4
40
4
40
4
40
4
40
5
40
5
40
5
40
5
10
276.01441423523119
20
354.86809721058489
30
0
10
276.01441423523119
20
355.14423933855818
30
0
10
275.79055634942182
20
355.36809722436766
30
0
10
275.51441422144842
20
355.36809722436766
30
0
0
LINE
5
431
100
AcDbEntity
8
0
100
AcDbLine
10
275.51441422144842
20
355.36809722436766
30
0
11
262.51441386309693
21
355.36809722436766
31
0
0
SPLINE
5
432
100
AcDbEntity
8
0
100
AcDbSpline
70
0
71
3
72
8
73
4
74
0
42
0.000000001
43
0.0000000001
44
0.0000000001
40
6
40
6
40
6
40
6
40
7
40
7
40
7
40
7
10
262.51441386309693
20
355.36809722436766
30
0
10
262.23827173512359
20
355.36809722436766
30
0
10
262.01441384931417
20
355.14423933855818
30
0
10
262.01441384931417
20
354.86809721058489
30
0
0
LINE
5
433
100
AcDbEntity
8
0
100
AcDbLine
10
262.01441384931417
20
354.86809721058489
30
0
11
262.01441384931417
21
341.86809685223346
31
0
0
SPLINE
5
434
100
AcDbEntity
8
0
100
AcDbSpline
70
0
71
3
72
8
73
4
74
0
42
0.000000001
43
0.0000000001
44
0.0000000001
40
0
40
0
40
0
40
0
40
1
40
1
40
1
40
1
10
257.25191295509399
20
360.91809661441664
30
0
10
257.25191295509399
20
360.64195448644341
30
0
10
257.47577084090341
20
360.41809660063399
30
0
10
257.7519129688767
20
360.41809660063399
30
0
0
LINE
5
435
100
AcDbEntity
8
0
100
AcDbLine
10
257.7519129688767
20
360.41809660063399
30
0
11
270.75191332722829
21
360.41809660063399
31
0
0
SPLINE
5
436
100
AcDbEntity
8
0
100
AcDbSpline
70
0
71
3
72
8
73
4
74
0
42
0.000000001
43
0.0000000001
44
0.0000000001
40
2
40
2
40
2
40
2
40
3
40
3
40
3
40
3
10
270.75191332722829
20
360.41809660063399
30
0
10
271.02805545520158
20
360.41809660063399
30
0
10
271.251913341011
20
360.64195448644341
30
0
10
271.251913341011
20
360.91809661441664
30
0
0
LINE
5
437
100
AcDbEntity
8
0
100
AcDbLine
10
271.251913341011
20
360.91809661441664
30
0
11
271.251913341011
21
373.91809697276818
31
0
0
SPLINE
5
438
100
AcDbEntity
8
0
100
AcDbSpline
70
0
71
3
72
8
73
4
74
0
42
0.000000001
43
0.0000000001
44
0.0000000001
40
4
40
4
40
4
40
4
40
5
40
5
40
5
40
5
10
271.251913341011
20
373.91809697276818
30
0
10
271.251913341011
20
374.19423935406132
30
0
10
271.02805545520158
20
374.41809698655101
30
0
10
270.75191332722829
20
374.41809698655101
30
0
0
LINE
5
439
100
AcDbEntity
8
0
100
AcDbLine
10
270.75191332722829
20
374.41809698655101
30
0
11
257.7519129688767
21
374.41809698655101
31
0
0
SPLINE
5
440
100
AcDbEntity
8
0
100
AcDbSpline
70
0
71
3
72
8
73
4
74
0
42
0.000000001
43
0.0000000001
44
0.0000000001
40
6
40
6
40
6
40
6
40
7
40
7
40
7
40
7
10
257.7519129688767
20
374.41809698655101
30
0
10
257.47577084090341
20
374.41809698655101
30
0
10
257.25191295509399
20
374.19423935406132
30
0
10
257.25191295509399
20
373.91809697276818
30
0
0
LINE
5
441
100
AcDbEntity
8
0
100
AcDbLine
10
257.25191295509399
20
373.91809697276818
30
0
11
257.25191295509399
21
360.91809661441664
31
0
0
SPLINE
5
442
100
AcDbEntity
8
0
100
AcDbSpline
70
0
71
3
72
8
73
4
74
0
42
0.000000001
43
0.0000000001
44
0.0000000001
40
0
40
0
40
0
40
0
40
1
40
1
40
1
40
1
10
423.93942517931322
20
322.81809709005006
30
0
10
423.93942517931322
20
322.54195496207677
30
0
10
424.1632868798194
20
322.31809707626729
30
0
10
424.43942519309587
20
322.31809707626729
30
0
0
LINE
5
443
100
AcDbEntity
8
0
100
AcDbLine
10
424.43942519309587
20
322.31809707626729
30
0
11
426.8206661034626
21
322.31809707626729
31
0
0
LINE
5
444
100
AcDbEntity
8
0
100
AcDbLine
10
426.8206661034626
20
322.31809707626729
30
0
11
437.43942555144758
21
322.31809707626729
31
0
0
LINE
5
445
100
AcDbEntity
8
0
100
AcDbLine
10
437.43942555144758
20
322.31809707626729
30
0
11
439.82066646181414
21
322.31809707626729
31
0
0
SPLINE
5
446
100
AcDbEntity
8
0
100
AcDbSpline
70
0
71
3
72
8
73
4
74
0
42
0.000000001
43
0.0000000001
44
0.0000000001
40
4
40
4
40
4
40
4
40
5
40
5
40
5
40
5
10
439.82066646181414
20
322.31809707626729
30
0
10
440.09680477509005
20
322.31809707626729
30
0
10
440.32066647559691
20
322.54195496207677
30
0
10
440.32066647559691
20
322.81809709005006
30
0
0
LINE
5
447
100
AcDbEntity
8
0
100
AcDbLine
10
440.32066647559691
20
322.81809709005006
30
0
11
440.32066647559691
21
335.81809744840166
31
0
0
SPLINE
5
448
100
AcDbEntity
8
0
100
AcDbSpline
70
0
71
3
72
8
73
4
74
0
42
0.000000001
43
0.0000000001
44
0.0000000001
40
6
40
6
40
6
40
6
40
7
40
7
40
7
40
7
10
440.32066647559691
20
335.81809744840166
30
0
10
440.32066647559691
20
336.09423957637489
30
0
10
440.09680477509005
20
336.31809746218437
30
0
10
439.82066646181414
20
336.31809746218437
30
0
0
LINE
5
449
100
AcDbEntity
8
0
100
AcDbLine
10
439.82066646181414
20
336.31809746218437
30
0
11
437.43942555144758
21
336.31809746218437
31
0
0
LINE
5
450
100
AcDbEntity
8
0
100
AcDbLine
10
437.43942555144758
20
336.31809746218437
30
0
11
426.8206661034626
21
336.31809746218437
31
0
0
LINE
5
451
100
AcDbEntity
8
0
100
AcDbLine
10
426.8206661034626
20
336.31809746218437
30
0
11
424.43942519309587
21
336.31809746218437
31
0
0
SPLINE
5
452
100
AcDbEntity
8
0
100
AcDbSpline
70
0
71
3
72
8
73
4
74
0
42
0.000000001
43
0.0000000001
44
0.0000000001
40
10
40
10
40
10
40
10
40
11
40
11
40
11
40
11
10
424.43942519309587
20
336.31809746218437
30
0
10
424.1632868798194
20
336.31809746218437
30
0
10
423.93942517931322
20
336.09423957637489
30
0
10
423.93942517931322
20
335.81809744840166
30
0
0
LINE
5
453
100
AcDbEntity
8
0
100
AcDbLine
10
423.93942517931322
20
335.81809744840166
30
0
11
423.93942517931322
21
322.81809709005006
31
0
0
SPLINE
5
454
100
AcDbEntity
8
0
100
AcDbSpline
70
0
71
3
72
8
73
4
74
0
42
0.000000001
43
0.0000000001
44
0.0000000001
40
0
40
0
40
0
40
0
40
1
40
1
40
1
40
1
10
402.50816543327636
20
303.76809351316939
30
0
10
402.50816543327636
20
303.49194757049872
30
0
10
402.73202713378311
20
303.26809349938662
30
0
10
403.00816544705913
20
303.26809349938662
30
0
0
LINE
5
455
100
AcDbEntity
8
0
100
AcDbLine
10
403.00816544705913
20
303.26809349938662
30
0
11
414.91441577526086
21
303.26809349938662
31
0
0
LINE
5
456
100
AcDbEntity
8
0
100
AcDbLine
10
414.91441577526086
20
303.26809349938662
30
0
11
416.00816580541061
21
303.26809349938662
31
0
0
LINE
5
457
100
AcDbEntity
8
0
100
AcDbLine
10
416.00816580541061
20
303.26809349938662
30
0
11
424.43942519309587
21
303.26809349938662
31
0
0
LINE
5
458
100
AcDbEntity
8
0
100
AcDbLine
10
424.43942519309587
20
303.26809349938662
30
0
11
427.91441613361229
21
303.26809349938662
31
0
0
LINE
5
459
100
AcDbEntity
8
0
100
AcDbLine
10
427.91441613361229
20
303.26809349938662
30
0
11
437.43942555144758
21
303.26809349938662
31
0
0
SPLINE
5
460
100
AcDbEntity
8
0
100
AcDbSpline
70
0
71
3
72
8
73
4
74
0
42
0.000000001
43
0.0000000001
44
0.0000000001
40
6
40
6
40
6
40
6
40
7
40
7
40
7
40
7
10
437.43942555144758
20
303.26809349938662
30
0
10
437.71556386472326
20
303.26809349938662
30
0
10
437.93942556523012
20
303.49194757049872
30
0
10
437.93942556523012
20
303.76809351316939
30
0
0
LINE
5
461
100
AcDbEntity
8
0
100
AcDbLine
10
437.93942556523012
20
303.76809351316939
30
0
11
437.93942556523012
21
316.76809387152093
31
0
0
SPLINE
5
462
100
AcDbEntity
8
0
100
AcDbSpline
70
0
71
3
72
8
73
4
74
0
42
0.000000001
43
0.0000000001
44
0.0000000001
40
8
40
8
40
8
40
8
40
9
40
9
40
9
40
9
10
437.93942556523012
20
316.76809387152093
30
0
10
437.93942556523012
20
317.04423599949416
30
0
10
437.71556386472326
20
317.26809388530359
30
0
10
437.43942555144758
20
317.26809388530359
30
0
0
LINE
5
463
100
AcDbEntity
8
0
100
AcDbLine
10
437.43942555144758
20
317.26809388530359
30
0
11
427.91441613361229
21
317.26809388530359
31
0
0
LINE
5
464
100
AcDbEntity
8
0
100
AcDbLine
10
427.91441613361229
20
317.26809388530359
30
0
11
424.43942519309587
21
317.26809388530359
31
0
0
LINE
5
465
100
AcDbEntity
8
0
100
AcDbLine
10
424.43942519309587
20
317.26809388530359
30
0
11
416.00816580541061
21
317.26809388530359
31
0
0
LINE
5
466
100
AcDbEntity
8
0
100
AcDbLine
10
416.00816580541061
20
317.26809388530359
30
0
11
414.91441577526086
21
317.26809388530359
31
0
0
LINE
5
467
100
AcDbEntity
8
0
100
AcDbLine
10
414.91441577526086
20
317.26809388530359
30
0
11
403.00816544705913
21
317.26809388530359
31
0
0
SPLINE
5
468
100
AcDbEntity
8
0
100
AcDbSpline
70
0
71
3
72
8
73
4
74
0
42
0.000000001
43
0.0000000001
44
0.0000000001
40
14
40
14
40
14
40
14
40
15
40
15
40
15
40
15
10
403.00816544705913
20
317.26809388530359
30
0
10
402.73202713378311
20
317.26809388530359
30
0
10
402.50816543327636
20
317.04423599949416
30
0
10
402.50816543327636
20
316.76809387152093
30
0
0
LINE
5
469
100
AcDbEntity
8
0
100
AcDbLine
10
402.50816543327636
20
316.76809387152093
30
0
11
402.50816543327636
21
303.76809351316939
31
0
0
SPLINE
5
470
100
AcDbEntity
8
0
100
AcDbSpline
70
0
71
3
72
8
73
4
74
0
42
0.000000001
43
0.0000000001
44
0.0000000001
40
0
40
0
40
0
40
0
40
1
40
1
40
1
40
1
10
242.96441408713082
20
303.76809351316939
30
0
10
242.96441408713082
20
303.49194757049872
30
0
10
243.18827197294036
20
303.26809349938662
30
0
10
243.46441410091359
20
303.26809349938662
30
0
0
LINE
5
471
100
AcDbEntity
8
0
100
AcDbLine
10
243.46441410091359
20
303.26809349938662
30
0
11
252.98941588935401
21
303.26809349938662
31
0
0
LINE
5
472
100
AcDbEntity
8
0
100
AcDbLine
10
252.98941588935401
20
303.26809349938662
30
0
11
256.46441445926507
21
303.26809349938662
31
0
0
LINE
5
473
100
AcDbEntity
8
0
100
AcDbLine
10
256.46441445926507
20
303.26809349938662
30
0
11
264.89566621755569
21
303.26809349938662
31
0
0
LINE
5
474
100
AcDbEntity
8
0
100
AcDbLine
10
264.89566621755569
20
303.26809349938662
30
0
11
265.98941624770549
21
303.26809349938662
31
0
0
LINE
5
475
100
AcDbEntity
8
0
100
AcDbLine
10
265.98941624770549
20
303.26809349938662
30
0
11
277.89566657590717
21
303.26809349938662
31
0
0
SPLINE
5
476
100
AcDbEntity
8
0
100
AcDbSpline
70
0
71
3
72
8
73
4
74
0
42
0.000000001
43
0.0000000001
44
0.0000000001
40
6
40
6
40
6
40
6
40
7
40
7
40
7
40
7
10
277.89566657590717
20
303.26809349938662
30
0
10
278.17180870388052
20
303.26809349938662
30
0
10
278.39566658968988
20
303.49194757049872
30
0
10
278.39566658968988
20
303.76809351316939
30
0
0
LINE
5
477
100
AcDbEntity
8
0
100
AcDbLine
10
278.39566658968988
20
303.76809351316939
30
0
11
278.39566658968988
21
316.76809387152093
31
0
0
SPLINE
5
478
100
AcDbEntity
8
0
100
AcDbSpline
70
0
71
3
72
8
73
4
74
0
42
0.000000001
43
0.0000000001
44
0.0000000001
40
8
40
8
40
8
40
8
40
9
40
9
40
9
40
9
10
278.39566658968988
20
316.76809387152093
30
0
10
278.39566658968988
20
317.04423599949416
30
0
10
278.17180870388052
20
317.26809388530359
30
0
10
277.89566657590717
20
317.26809388530359
30
0
0
LINE
5
479
100
AcDbEntity
8
0
100
AcDbLine
10
277.89566657590717
20
317.26809388530359
30
0
11
265.98941624770549
21
317.26809388530359
31
0
0
LINE
5
480
100
AcDbEntity
8
0
100
AcDbLine
10
265.98941624770549
20
317.26809388530359
30
0
11
264.89566621755569
21
317.26809388530359
31
0
0
LINE
5
481
100
AcDbEntity
8
0
100
AcDbLine
10
264.89566621755569
20
317.26809388530359
30
0
11
256.46441445926507
21
317.26809388530359
31
0
0
LINE
5
482
100
AcDbEntity
8
0
100
AcDbLine
10
256.46441445926507
20
317.26809388530359
30
0
11
252.98941588935401
21
317.26809388530359
31
0
0
LINE
5
483
100
AcDbEntity
8
0
100
AcDbLine
10
252.98941588935401
20
317.26809388530359
30
0
11
243.46441410091359
21
317.26809388530359
31
0
0
SPLINE
5
484
100
AcDbEntity
8
0
100
AcDbSpline
70
0
71
3
72
8
73
4
74
0
42
0.000000001
43
0.0000000001
44
0.0000000001
40
14
40
14
40
14
40
14
40
15
40
15
40
15
40
15
10
243.46441410091359
20
317.26809388530359
30
0
10
243.18827197294036
20
317.26809388530359
30
0
10
242.96441408713082
20
317.04423599949416
30
0
10
242.96441408713082
20
316.76809387152093
30
0
0
LINE
5
485
100
AcDbEntity
8
0
100
AcDbLine
10
242.96441408713082
20
316.76809387152093
30
0
11
242.96441408713082
21
303.76809351316939
31
0
0
SPLINE
5
486
100
AcDbEntity
8
0
100
AcDbSpline
70
0
71
3
72
8
73
4
74
0
42
0.000000001
43
0.0000000001
44
0.0000000001
40
0
40
0
40
0
40
0
40
1
40
1
40
1
40
1
10
371.5519115281939
20
360.91809661441664
30
0
10
371.5519115281939
20
360.64195448644341
30
0
10
371.7757732287007
20
360.41809660063399
30
0
10
372.05191154197666
20
360.41809660063399
30
0
0
LINE
5
487
100
AcDbEntity
8
0
100
AcDbLine
10
372.05191154197666
20
360.41809660063399
30
0
11
385.05191190032826
21
360.41809660063399
31
0
0
SPLINE
5
488
100
AcDbEntity
8
0
100
AcDbSpline
70
0
71
3
72
8
73
4
74
0
42
0.000000001
43
0.0000000001
44
0.0000000001
40
2
40
2
40
2
40
2
40
3
40
3
40
3
40
3
10
385.05191190032826
20
360.41809660063399
30
0
10
385.32805021360417
20
360.41809660063399
30
0
10
385.55191191411092
20
360.64195448644341
30
0
10
385.55191191411092
20
360.91809661441664
30
0
0
LINE
5
489
100
AcDbEntity
8
0
100
AcDbLine
10
385.55191191411092
20
360.91809661441664
30
0
11
385.55191191411092
21
373.91809697276818
31
0
0
SPLINE
5
490
100
AcDbEntity
8
0
100
AcDbSpline
70
0
71
3
72
8
73
4
74
0
42
0.000000001
43
0.0000000001
44
0.0000000001
40
4
40
4
40
4
40
4
40
5
40
5
40
5
40
5
10
385.55191191411092
20
373.91809697276818
30
0
10
385.55191191411092
20
374.19423935406132
30
0
10
385.32805021360417
20
374.41809698655101
30
0
10
385.05191190032826
20
374.41809698655101
30
0
0
LINE
5
491
100
AcDbEntity
8
0
100
AcDbLine
10
385.05191190032826
20
374.41809698655101
30
0
11
372.05191154197666
21
374.41809698655101
31
0
0
SPLINE
5
492
100
AcDbEntity
8
0
100
AcDbSpline
70
0
71
3
72
8
73
4
74
0
42
0.000000001
43
0.0000000001
44
0.0000000001
40
6
40
6
40
6
40
6
40
7
40
7
40
7
40
7
10
372.05191154197666
20
374.41809698655101
30
0
10
371.7757732287007
20
374.41809698655101
30
0
10
371.5519115281939
20
374.19423935406132
30
0
10
371.5519115281939
20
373.91809697276818
30
0
0
LINE
5
493
100
AcDbEntity
8
0
100
AcDbLine
10
371.5519115281939
20
373.91809697276818
30
0
11
371.5519115281939
21
360.91809661441664
31
0
0
SPLINE
5
494
100
AcDbEntity
8
0
100
AcDbSpline
70
0
71
3
72
8
73
4
74
0
42
0.000000001
43
0.0000000001
44
0.0000000001
40
0
40
0
40
0
40
0
40
1
40
1
40
1
40
1
10
390.60191510507468
20
360.91809661441664
30
0
10
390.60191510507468
20
360.64195448644341
30
0
10
390.82577680558137
20
360.41809660063399
30
0
10
391.10191511885739
20
360.41809660063399
30
0
0
LINE
5
495
100
AcDbEntity
8
0
100
AcDbLine
10
391.10191511885739
20
360.41809660063399
30
0
11
404.10191547720876
21
360.41809660063399
31
0
0
SPLINE
5
496
100
AcDbEntity
8
0
100
AcDbSpline
70
0
71
3
72
8
73
4
74
0
42
0.000000001
43
0.0000000001
44
0.0000000001
40
2
40
2
40
2
40
2
40
3
40
3
40
3
40
3
10
404.10191547720876
20
360.41809660063399
30
0
10
404.37805379048484
20
360.41809660063399
30
0
10
404.60191549099164
20
360.64195448644341
30
0
10
404.60191549099164
20
360.91809661441664
30
0
0
LINE
5
497
100
AcDbEntity
8
0
100
AcDbLine
10
404.60191549099164
20
360.91809661441664
30
0
11
404.60191549099164
21
373.91809697276818
31
0
0
SPLINE
5
498
100
AcDbEntity
8
0
100
AcDbSpline
70
0
71
3
72
8
73
4
74
0
42
0.000000001
43
0.0000000001
44
0.0000000001
40
4
40
4
40
4
40
4
40
5
40
5
40
5
40
5
10
404.60191549099164
20
373.91809697276818
30
0
10
404.60191549099164
20
374.19423935406132
30
0
10
404.37805379048484
20
374.41809698655101
30
0
10
404.10191547720876
20
374.41809698655101
30
0
0
LINE
5
499
100
AcDbEntity
8
0
100
AcDbLine
10
404.10191547720876
20
374.41809698655101
30
0
11
391.10191511885739
21
374.41809698655101
31
0
0
SPLINE
5
500
100
AcDbEntity
8
0
100
AcDbSpline
70
0
71
3
72
8
73
4
74
0
42
0.000000001
43
0.0000000001
44
0.0000000001
40
6
40
6
40
6
40
6
40
7
40
7
40
7
40
7
10
391.10191511885739
20
374.41809698655101
30
0
10
390.82577680558137
20
374.41809698655101
30
0
10
390.60191510507468
20
374.19423935406132
30
0
10
390.60191510507468
20
373.91809697276818
30
0
0
LINE
5
501
100
AcDbEntity
8
0
100
AcDbLine
10
390.60191510507468
20
373.91809697276818
30
0
11
390.60191510507468
21
360.91809661441664
31
0
0
SPLINE
5
502
100
AcDbEntity
8
0
100
AcDbSpline
70
0
71
3
72
8
73
4
74
0
42
0.000000001
43
0.0000000001
44
0.0000000001
40
0
40
0
40
0
40
0
40
1
40
1
40
1
40
1
10
238.20191319291069
20
360.91809661441664
30
0
10
238.20191319291069
20
360.64195448644341
30
0
10
238.42577107872012
20
360.41809660063399
30
0
10
238.70191320669346
20
360.41809660063399
30
0
0
LINE
5
503
100
AcDbEntity
8
0
100
AcDbLine
10
238.70191320669346
20
360.41809660063399
30
0
11
251.70191356504489
21
360.41809660063399
31
0
0
SPLINE
5
504
100
AcDbEntity
8
0
100
AcDbSpline
70
0
71
3
72
8
73
4
74
0
42
0.000000001
43
0.0000000001
44
0.0000000001
40
2
40
2
40
2
40
2
40
3
40
3
40
3
40
3
10
251.70191356504489
20
360.41809660063399
30
0
10
251.97805569301832
20
360.41809660063399
30
0
10
252.20191357882771
20
360.64195448644341
30
0
10
252.20191357882771
20
360.91809661441664
30
0
0
LINE
5
505
100
AcDbEntity
8
0
100
AcDbLine
10
252.20191357882771
20
360.91809661441664
30
0
11
252.20191357882771
21
373.91809697276818
31
0
0
SPLINE
5
506
100
AcDbEntity
8
0
100
AcDbSpline
70
0
71
3
72
8
73
4
74
0
42
0.000000001
43
0.0000000001
44
0.0000000001
40
4
40
4
40
4
40
4
40
5
40
5
40
5
40
5
10
252.20191357882771
20
373.91809697276818
30
0
10
252.20191357882771
20
374.19423935406132
30
0
10
251.97805569301832
20
374.41809698655101
30
0
10
251.70191356504489
20
374.41809698655101
30
0
0
LINE
5
507
100
AcDbEntity
8
0
100
AcDbLine
10
251.70191356504489
20
374.41809698655101
30
0
11
238.70191320669346
21
374.41809698655101
31
0
0
SPLINE
5
508
100
AcDbEntity
8
0
100
AcDbSpline
70
0
71
3
72
8
73
4
74
0
42
0.000000001
43
0.0000000001
44
0.0000000001
40
6
40
6
40
6
40
6
40
7
40
7
40
7
40
7
10
238.70191320669346
20
374.41809698655101
30
0
10
238.42577107872012
20
374.41809698655101
30
0
10
238.20191319291069
20
374.19423935406132
30
0
10
238.20191319291069
20
373.91809697276818
30
0
0
LINE
5
509
100
AcDbEntity
8
0
100
AcDbLine
10
238.20191319291069
20
373.91809697276818
30
0
11
238.20191319291069
21
360.91809661441664
31
0
0
SPLINE
5
510
100
AcDbEntity
8
0
100
AcDbSpline
70
0
71
3
72
8
73
4
74
0
42
0.000000001
43
0.0000000001
44
0.0000000001
40
0
40
0
40
0
40
0
40
1
40
1
40
1
40
1
10
221.53316340100019
20
341.86809685223346
30
0
10
221.53316340100019
20
341.59195472426012
30
0
10
221.75702104839107
20
341.3680968384507
30
0
10
222.03316341478299
20
341.3680968384507
30
0
0
LINE
5
511
100
AcDbEntity
8
0
100
AcDbLine
10
222.03316341478299
20
341.3680968384507
30
0
11
235.03316424997138
21
341.3680968384507
31
0
0
SPLINE
5
512
100
AcDbEntity
8
0
100
AcDbSpline
70
0
71
3
72
8
73
4
74
0
42
0.000000001
43
0.0000000001
44
0.0000000001
40
2
40
2
40
2
40
2
40
3
40
3
40
3
40
3
10
235.03316424997138
20
341.3680968384507
30
0
10
235.30930637794498
20
341.3680968384507
30
0
10
235.53316426375454
20
341.59195472426012
30
0
10
235.53316426375454
20
341.86809685223346
30
0
0
LINE
5
513
100
AcDbEntity
8
0
100
AcDbLine
10
235.53316426375454
20
341.86809685223346
30
0
11
235.53316426375454
21
354.86809721058489
31
0
0
SPLINE
5
514
100
AcDbEntity
8
0
100
AcDbSpline
70
0
71
3
72
8
73
4
74
0
42
0.000000001
43
0.0000000001
44
0.0000000001
40
4
40
4
40
4
40
4
40
5
40
5
40
5
40
5
10
235.53316426375454
20
354.86809721058489
30
0
10
235.53316426375454
20
355.14423933855818
30
0
10
235.30930637794498
20
355.36809722436766
30
0
10
235.03316424997138
20
355.36809722436766
30
0
0
LINE
5
515
100
AcDbEntity
8
0
100
AcDbLine
10
235.03316424997138
20
355.36809722436766
30
0
11
222.03316341478299
21
355.36809722436766
31
0
0
SPLINE
5
516
100
AcDbEntity
8
0
100
AcDbSpline
70
0
71
3
72
8
73
4
74
0
42
0.000000001
43
0.0000000001
44
0.0000000001
40
6
40
6
40
6
40
6
40
7
40
7
40
7
40
7
10
222.03316341478299
20
355.36809722436766
30
0
10
221.75702104839107
20
355.36809722436766
30
0
10
221.53316340100019
20
355.14423933855818
30
0
10
221.53316340100019
20
354.86809721058489
30
0
0
LINE
5
517
100
AcDbEntity
8
0
100
AcDbLine
10
221.53316340100019
20
354.86809721058489
30
0
11
221.53316340100019
21
341.86809685223346
31
0
0
SPLINE
5
518
100
AcDbEntity
8
0
100
AcDbSpline
70
0
71
3
72
8
73
4
74
0
42
0.000000001
43
0.0000000001
44
0.0000000001
40
0
40
0
40
0
40
0
40
1
40
1
40
1
40
1
10
314.40191605634135
20
360.91809661441664
30
0
10
314.40191605634135
20
360.64195448644341
30
0
10
314.62577012745339
20
360.41809660063399
30
0
10
314.90191607012412
20
360.41809660063399
30
0
0
LINE
5
519
100
AcDbEntity
8
0
100
AcDbLine
10
314.90191607012412
20
360.41809660063399
30
0
11
327.9019164284756
21
360.41809660063399
31
0
0
SPLINE
5
520
100
AcDbEntity
8
0
100
AcDbSpline
70
0
71
3
72
8
73
4
74
0
42
0.000000001
43
0.0000000001
44
0.0000000001
40
2
40
2
40
2
40
2
40
3
40
3
40
3
40
3
10
327.9019164284756
20
360.41809660063399
30
0
10
328.17806237114632
20
360.41809660063399
30
0
10
328.40191644225843
20
360.64195448644341
30
0
10
328.40191644225843
20
360.91809661441664
30
0
0
LINE
5
521
100
AcDbEntity
8
0
100
AcDbLine
10
328.40191644225843
20
360.91809661441664
30
0
11
328.40191644225843
21
373.91809697276818
31
0
0
SPLINE
5
522
100
AcDbEntity
8
0
100
AcDbSpline
70
0
71
3
72
8
73
4
74
0
42
0.000000001
43
0.0000000001
44
0.0000000001
40
4
40
4
40
4
40
4
40
5
40
5
40
5
40
5
10
328.40191644225843
20
373.91809697276818
30
0
10
328.40191644225843
20
374.19423935406132
30
0
10
328.17806237114632
20
374.41809698655101
30
0
10
327.9019164284756
20
374.41809698655101
30
0
0
LINE
5
523
100
AcDbEntity
8
0
100
AcDbLine
10
327.9019164284756
20
374.41809698655101
30
0
11
314.90191607012412
21
374.41809698655101
31
0
0
SPLINE
5
524
100
AcDbEntity
8
0
100
AcDbSpline
70
0
71
3
72
8
73
4
74
0
42
0.000000001
43
0.0000000001
44
0.0000000001
40
6
40
6
40
6
40
6
40
7
40
7
40
7
40
7
10
314.90191607012412
20
374.41809698655101
30
0
10
314.62577012745339
20
374.41809698655101
30
0
10
314.40191605634135
20
374.19423935406132
30
0
10
314.40191605634135
20
373.91809697276818
30
0
0
LINE
5
525
100
AcDbEntity
8
0
100
AcDbLine
10
314.40191605634135
20
373.91809697276818
30
0
11
314.40191605634135
21
360.91809661441664
31
0
0
SPLINE
5
526
100
AcDbEntity
8
0
100
AcDbSpline
70
0
71
3
72
8
73
4
74
0
42
0.000000001
43
0.0000000001
44
0.0000000001
40
0
40
0
40
0
40
0
40
1
40
1
40
1
40
1
10
237.41441469708178
20
303.26809349938662
30
0
10
237.69055682505481
20
303.26809349938662
30
0
10
237.91441471086449
20
303.49194757049872
30
0
10
237.91441471086449
20
303.76809351316939
30
0
0
LINE
5
527
100
AcDbEntity
8
0
100
AcDbLine
10
237.91441471086449
20
303.76809351316939
30
0
11
237.91441471086449
21
316.76809387152093
31
0
0
SPLINE
5
528
100
AcDbEntity
8
0
100
AcDbSpline
70
0
71
3
72
8
73
4
74
0
42
0.000000001
43
0.0000000001
44
0.0000000001
40
2
40
2
40
2
40
2
40
3
40
3
40
3
40
3
10
237.91441471086449
20
316.76809387152093
30
0
10
237.91441471086449
20
317.04423599949416
30
0
10
237.69055682505481
20
317.26809388530359
30
0
10
237.41441469708178
20
317.26809388530359
30
0
0
LINE
5
529
100
AcDbEntity
8
0
100
AcDbLine
10
237.41441469708178
20
317.26809388530359
30
0
11
235.03316424997138
21
317.26809388530359
31
0
0
LINE
5
530
100
AcDbEntity
8
0
100
AcDbLine
10
235.03316424997138
20
317.26809388530359
30
0
11
224.41441338505584
21
317.26809388530359
31
0
0
LINE
5
531
100
AcDbEntity
8
0
100
AcDbLine
10
224.41441338505584
20
317.26809388530359
30
0
11
222.03316341478299
21
317.26809388530359
31
0
0
SPLINE
5
532
100
AcDbEntity
8
0
100
AcDbSpline
70
0
71
3
72
8
73
4
74
0
42
0.000000001
43
0.0000000001
44
0.0000000001
40
6
40
6
40
6
40
6
40
7
40
7
40
7
40
7
10
222.03316341478299
20
317.26809388530359
30
0
10
221.75702104839107
20
317.26809388530359
30
0
10
221.53316340100019
20
317.04423599949416
30
0
10
221.53316340100019
20
316.76809387152093
30
0
0
LINE
5
533
100
AcDbEntity
8
0
100
AcDbLine
10
221.53316340100019
20
316.76809387152093
30
0
11
221.53316340100019
21
303.76809351316939
31
0
0
SPLINE
5
534
100
AcDbEntity
8
0
100
AcDbSpline
70
0
71
3
72
8
73
4
74
0
42
0.000000001
43
0.0000000001
44
0.0000000001
40
8
40
8
40
8
40
8
40
9
40
9
40
9
40
9
10
221.53316340100019
20
303.76809351316939
30
0
10
221.53316340100019
20
303.49194757049872
30
0
10
221.75702104839107
20
303.26809349938662
30
0
10
222.03316341478299
20
303.26809349938662
30
0
0
LINE
5
535
100
AcDbEntity
8
0
100
AcDbLine
10
222.03316341478299
20
303.26809349938662
30
0
11
224.41441338505584
21
303.26809349938662
31
0
0
LINE
5
536
100
AcDbEntity
8
0
100
AcDbLine
10
224.41441338505584
20
303.26809349938662
30
0
11
235.03316424997138
21
303.26809349938662
31
0
0
LINE
5
537
100
AcDbEntity
8
0
100
AcDbLine
10
235.03316424997138
20
303.26809349938662
30
0
11
237.41441469708178
21
303.26809349938662
31
0
0
SPLINE
5
538
100
AcDbEntity
8
0
100
AcDbSpline
70
0
71
3
72
8
73
4
74
0
42
0.000000001
43
0.0000000001
44
0.0000000001
40
0
40
0
40
0
40
0
40
1
40
1
40
1
40
1
10
445.37066966656056
20
322.81809709005006
30
0
10
445.37066966656056
20
322.54195496207677
30
0
10
445.59453136706736
20
322.31809707626729
30
0
10
445.87066968034333
20
322.31809707626729
30
0
0
LINE
5
539
100
AcDbEntity
8
0
100
AcDbLine
10
445.87066968034333
20
322.31809707626729
30
0
11
448.2519258494994
21
322.31809707626729
31
0
0
LINE
5
540
100
AcDbEntity
8
0
100
AcDbLine
10
448.2519258494994
20
322.31809707626729
30
0
11
458.87067003869481
21
322.31809707626729
31
0
0
LINE
5
541
100
AcDbEntity
8
0
100
AcDbLine
10
458.87067003869481
20
322.31809707626729
30
0
11
461.25192620785094
21
322.31809707626729
31
0
0
SPLINE
5
542
100
AcDbEntity
8
0
100
AcDbSpline
70
0
71
3
72
8
73
4
74
0
42
0.000000001
43
0.0000000001
44
0.0000000001
40
4
40
4
40
4
40
4
40
5
40
5
40
5
40
5
10
461.25192620785094
20
322.31809707626729
30
0
10
461.52806452112685
20
322.31809707626729
30
0
10
461.75192622163371
20
322.54195496207677
30
0
10
461.75192622163371
20
322.81809709005006
30
0
0
LINE
5
543
100
AcDbEntity
8
0
100
AcDbLine
10
461.75192622163371
20
322.81809709005006
30
0
11
461.75192622163371
21
335.81809744840166
31
0
0
SPLINE
5
544
100
AcDbEntity
8
0
100
AcDbSpline
70
0
71
3
72
8
73
4
74
0
42
0.000000001
43
0.0000000001
44
0.0000000001
40
6
40
6
40
6
40
6
40
7
40
7
40
7
40
7
10
461.75192622163371
20
335.81809744840166
30
0
10
461.75192622163371
20
336.09423957637489
30
0
10
461.52806452112685
20
336.31809746218437
30
0
10
461.25192620785094
20
336.31809746218437
30
0
0
LINE
5
545
100
AcDbEntity
8
0
100
AcDbLine
10
461.25192620785094
20
336.31809746218437
30
0
11
458.87067003869481
21
336.31809746218437
31
0
0
LINE
5
546
100
AcDbEntity
8
0
100
AcDbLine
10
458.87067003869481
20
336.31809746218437
30
0
11
448.2519258494994
21
336.31809746218437
31
0
0
LINE
5
547
100
AcDbEntity
8
0
100
AcDbLine
10
448.2519258494994
20
336.31809746218437
30
0
11
445.87066968034333
21
336.31809746218437
31
0
0
SPLINE
5
548
100
AcDbEntity
8
0
100
AcDbSpline
70
0
71
3
72
8
73
4
74
0
42
0.000000001
43
0.0000000001
44
0.0000000001
40
10
40
10
40
10
40
10
40
11
40
11
40
11
40
11
10
445.87066968034333
20
336.31809746218437
30
0
10
445.59453136706736
20
336.31809746218437
30
0
10
445.37066966656056
20
336.09423957637489
30
0
10
445.37066966656056
20
335.81809744840166
30
0
0
LINE
5
549
100
AcDbEntity
8
0
100
AcDbLine
10
445.37066966656056
20
335.81809744840166
30
0
11
445.37066966656056
21
322.81809709005006
31
0
0
LWPOLYLINE
5
550
100
AcDbEntity
8
0
100
AcDbPolyline
90
8
70
1
43
0.0
10
462.02692622163369
20
376.94309698655098
10
218.87691343072746
20
376.94309698655098
42
0.41421356237309503
10
216.62691343072743
20
374.69309698655093
10
216.62691343072743
20
302.99309349938665
42
0.41421356237309503
10
218.87691343072746
20
300.74309349938665
10
462.02692622163369
20
300.74309349938665
42
0.41421356237309503
10
464.27692622163369
20
302.99309349938665
10
464.27692622163369
20
374.69309698655093
42
0.41421356237309503
0
ENDSEC
0
SECTION
2
OBJECTS
0
DICTIONARY
5
C
100
AcDbDictionary
3
ACAD_GROUP
350
D
3
ACAD_MLINESTYLE
350
17
0
DICTIONARY
5
D
100
AcDbDictionary
0
DICTIONARY
5
1A
330
C
100
AcDbDictionary
0
DICTIONARY
5
17
100
AcDbDictionary
0
ENDSEC
0
EOF
