M48
; DRILL file {KiCad (6.0.0)} date Tue May  3 21:11:44 2022
; FORMAT={-:-/ absolute / metric / decimal}
; #@! TF.CreationDate,2022-05-03T21:11:44-05:00
; #@! TF.GenerationSoftware,Kicad,Pcbnew,(6.0.0)
; #@! TF.FileFunction,Plated,1,2,PTH
FMAT,2
METRIC
; #@! TA.AperFunction,Plated,PTH,ViaDrill
T1C0.300
; #@! TA.AperFunction,Plated,PTH,ViaDrill
T2C0.400
; #@! TA.AperFunction,Plated,PTH,ComponentDrill
T3C0.600
; #@! TA.AperFunction,Plated,PTH,ComponentDrill
T4C1.524
%
G90
G05
T1
X154.325Y-31.75
X155.34Y-31.75
X156.325Y-31.75
X157.325Y-31.75
T2
X50.8Y-63.57
X53.96Y-83.29
X54.69Y-70.57
X55.24Y-66.41
X60.26Y-64.99
X60.63Y-55.24
X62.53Y-50.79
X63.138Y-83.29
X64.558Y-75.881
X71.41Y-55.63
X71.83Y-88.89
X72.1Y-61.02
X122.237Y-79.375
X141.63Y-45.22
X150.49Y-45.21
X152.325Y-31.75
X153.39Y-31.47
X158.018Y-31.352
X158.825Y-31.75
X258.919Y-74.904
T4
X37.465Y-38.735
X39.846Y-95.885
X39.846Y-57.785
X42.227Y-95.885
X43.815Y-36.195
X44.609Y-76.835
X46.196Y-93.345
X46.196Y-55.245
X48.578Y-93.345
X50.959Y-74.295
X56.515Y-38.735
X61.278Y-57.785
X61.278Y-95.885
X62.865Y-36.195
X67.628Y-55.245
X67.628Y-93.345
X70.802Y-76.835
X70.802Y-95.885
X75.565Y-38.735
X77.153Y-74.295
X77.153Y-93.345
X80.328Y-57.785
X81.915Y-36.195
X82.709Y-95.885
X86.677Y-55.245
X89.059Y-93.345
X89.852Y-76.835
X94.615Y-38.735
X96.203Y-74.295
X99.377Y-57.785
X100.965Y-36.195
X105.727Y-55.245
X108.903Y-76.835
X113.665Y-38.735
X115.253Y-74.295
X118.427Y-57.785
X120.015Y-36.195
X123.19Y-95.885
X124.777Y-55.245
X127.953Y-76.835
X129.54Y-93.345
X132.715Y-38.735
X134.302Y-74.295
X137.478Y-57.785
X139.065Y-36.195
X142.24Y-95.885
X143.828Y-55.245
X147.003Y-76.835
X148.59Y-93.345
X151.765Y-95.885
X151.765Y-38.735
X153.353Y-74.295
X156.528Y-57.785
X158.115Y-93.345
X158.115Y-36.195
X162.878Y-55.245
X166.053Y-76.835
X170.815Y-38.735
X172.403Y-74.295
X175.577Y-57.785
X177.165Y-36.195
X180.34Y-95.885
X181.927Y-55.245
X185.102Y-76.835
X186.69Y-93.345
X189.865Y-38.735
X191.452Y-74.295
X194.627Y-57.785
X196.215Y-36.195
X200.977Y-55.245
X204.153Y-76.835
X208.915Y-38.735
X210.502Y-74.295
X213.677Y-57.785
X215.265Y-36.195
X220.028Y-55.245
X220.821Y-95.885
X223.202Y-76.835
X227.171Y-93.345
X227.965Y-38.735
X229.552Y-74.295
X232.727Y-95.885
X232.728Y-57.785
X234.315Y-36.195
X239.077Y-93.345
X239.078Y-55.245
X242.252Y-76.835
X242.252Y-95.885
X244.634Y-76.835
X247.015Y-38.735
X248.602Y-74.295
X248.602Y-93.345
X250.984Y-74.295
X253.365Y-36.195
X256.54Y-38.735
X258.921Y-57.785
X261.303Y-95.885
X262.89Y-36.195
X263.684Y-95.885
X263.684Y-76.835
X265.271Y-55.245
X266.065Y-38.735
X266.065Y-76.835
X267.652Y-93.345
X270.034Y-93.345
X270.034Y-74.295
X272.415Y-36.195
X272.415Y-74.295
T3
G00X151.255Y-24.05
M15
G01X151.255Y-24.65
M16
G05
G00X151.255Y-27.98
M15
G01X151.255Y-29.08
M16
G05
G00X159.895Y-24.05
M15
G01X159.895Y-24.65
M16
G05
G00X159.895Y-27.98
M15
G01X159.895Y-29.08
M16
G05
T0
M30
