%TF.GenerationSoftware,KiCad,Pcbnew,(6.0.0)*%
%TF.CreationDate,2022-05-03T21:15:31-05:00*%
%TF.ProjectId,QS-13u,51532d31-3375-42e6-9b69-6361645f7063,rev?*%
%TF.SameCoordinates,Original*%
%TF.FileFunction,Paste,Bot*%
%TF.FilePolarity,Positive*%
%FSLAX46Y46*%
G04 Gerber Fmt 4.6, Leading zero omitted, Abs format (unit mm)*
G04 Created by KiCad (PCBNEW (6.0.0)) date 2022-05-03 21:15:31*
%MOMM*%
%LPD*%
G01*
G04 APERTURE LIST*
G04 Aperture macros list*
%AMRoundRect*
0 Rectangle with rounded corners*
0 $1 Rounding radius*
0 $2 $3 $4 $5 $6 $7 $8 $9 X,Y pos of 4 corners*
0 Add a 4 corners polygon primitive as box body*
4,1,4,$2,$3,$4,$5,$6,$7,$8,$9,$2,$3,0*
0 Add four circle primitives for the rounded corners*
1,1,$1+$1,$2,$3*
1,1,$1+$1,$4,$5*
1,1,$1+$1,$6,$7*
1,1,$1+$1,$8,$9*
0 Add four rect primitives between the rounded corners*
20,1,$1+$1,$2,$3,$4,$5,0*
20,1,$1+$1,$4,$5,$6,$7,0*
20,1,$1+$1,$6,$7,$8,$9,0*
20,1,$1+$1,$8,$9,$2,$3,0*%
%AMRotRect*
0 Rectangle, with rotation*
0 The origin of the aperture is its center*
0 $1 length*
0 $2 width*
0 $3 Rotation angle, in degrees counterclockwise*
0 Add horizontal line*
21,1,$1,$2,0,0,$3*%
G04 Aperture macros list end*
%ADD10RotRect,0.400000X1.900000X315.000000*%
%ADD11RoundRect,0.150000X-0.150000X0.587500X-0.150000X-0.587500X0.150000X-0.587500X0.150000X0.587500X0*%
%ADD12RoundRect,0.200000X0.275000X-0.200000X0.275000X0.200000X-0.275000X0.200000X-0.275000X-0.200000X0*%
%ADD13R,0.600000X1.450000*%
%ADD14R,0.300000X1.450000*%
%ADD15RoundRect,0.207500X0.000000X0.293449X-0.293449X0.000000X0.000000X-0.293449X0.293449X0.000000X0*%
%ADD16RoundRect,0.062500X0.220971X0.309359X-0.309359X-0.220971X-0.220971X-0.309359X0.309359X0.220971X0*%
%ADD17RoundRect,0.062500X-0.220971X0.309359X-0.309359X0.220971X0.220971X-0.309359X0.309359X-0.220971X0*%
%ADD18RoundRect,0.200000X-0.200000X-0.275000X0.200000X-0.275000X0.200000X0.275000X-0.200000X0.275000X0*%
%ADD19RoundRect,0.225000X0.017678X-0.335876X0.335876X-0.017678X-0.017678X0.335876X-0.335876X0.017678X0*%
%ADD20R,1.800000X1.100000*%
%ADD21RoundRect,0.150000X-0.512500X-0.150000X0.512500X-0.150000X0.512500X0.150000X-0.512500X0.150000X0*%
%ADD22RoundRect,0.200000X0.200000X0.275000X-0.200000X0.275000X-0.200000X-0.275000X0.200000X-0.275000X0*%
%ADD23RoundRect,0.200000X-0.275000X0.200000X-0.275000X-0.200000X0.275000X-0.200000X0.275000X0.200000X0*%
%ADD24RoundRect,0.150000X0.150000X-0.587500X0.150000X0.587500X-0.150000X0.587500X-0.150000X-0.587500X0*%
%ADD25RoundRect,0.200000X-0.335876X-0.053033X-0.053033X-0.335876X0.335876X0.053033X0.053033X0.335876X0*%
%ADD26RoundRect,0.250000X0.375000X0.625000X-0.375000X0.625000X-0.375000X-0.625000X0.375000X-0.625000X0*%
%ADD27RoundRect,0.150000X-0.625000X0.150000X-0.625000X-0.150000X0.625000X-0.150000X0.625000X0.150000X0*%
%ADD28RoundRect,0.250000X-0.650000X0.350000X-0.650000X-0.350000X0.650000X-0.350000X0.650000X0.350000X0*%
G04 APERTURE END LIST*
D10*
%TO.C,Y1*%
X61687722Y-65197722D03*
X62536250Y-66046250D03*
X63384778Y-66894778D03*
%TD*%
D11*
%TO.C,D9*%
X130812501Y-61768750D03*
X132712501Y-61768750D03*
X131762501Y-63643750D03*
%TD*%
%TO.C,D1*%
X49850001Y-42718751D03*
X51750001Y-42718751D03*
X50800001Y-44593751D03*
%TD*%
%TO.C,D22*%
X213362500Y-99868750D03*
X215262500Y-99868750D03*
X214312500Y-101743750D03*
%TD*%
%TO.C,D11*%
X207012500Y-61768750D03*
X208912500Y-61768750D03*
X207962500Y-63643750D03*
%TD*%
D12*
%TO.C,R5*%
X57450000Y-57495000D03*
X57450000Y-55845000D03*
%TD*%
D11*
%TO.C,D4*%
X164150001Y-42718751D03*
X166050001Y-42718751D03*
X165100001Y-44593751D03*
%TD*%
D13*
%TO.C,J2*%
X152325000Y-29445000D03*
X153125000Y-29445000D03*
D14*
X154325000Y-29445000D03*
X155325000Y-29445000D03*
X155825000Y-29445000D03*
X156825000Y-29445000D03*
D13*
X158025000Y-29445000D03*
X158825000Y-29445000D03*
X158825000Y-29445000D03*
X158025000Y-29445000D03*
D14*
X157325000Y-29445000D03*
X156325000Y-29445000D03*
X154825000Y-29445000D03*
X153825000Y-29445000D03*
D13*
X153125000Y-29445000D03*
X152325000Y-29445000D03*
%TD*%
D11*
%TO.C,D5*%
X202250000Y-42718751D03*
X204150000Y-42718751D03*
X203200000Y-44593751D03*
%TD*%
%TO.C,D19*%
X54612500Y-99868751D03*
X56512500Y-99868751D03*
X55562500Y-101743751D03*
%TD*%
%TO.C,D12*%
X245112501Y-61768750D03*
X247012501Y-61768750D03*
X246062501Y-63643750D03*
%TD*%
D15*
%TO.C,U2*%
X61319481Y-70858937D03*
X60591161Y-70130617D03*
X59862841Y-69402297D03*
X59134521Y-71587257D03*
X59134521Y-70130617D03*
X59862841Y-72315577D03*
X59862841Y-70858937D03*
X60591161Y-71587257D03*
X58406201Y-70858937D03*
D16*
X60348977Y-67897927D03*
X60702530Y-68251481D03*
X61056084Y-68605034D03*
X61409637Y-68958588D03*
X61763190Y-69312141D03*
X62116744Y-69665694D03*
X62470297Y-70019248D03*
X62823851Y-70372801D03*
D17*
X62823851Y-71345073D03*
X62470297Y-71698626D03*
X62116744Y-72052180D03*
X61763190Y-72405733D03*
X61409637Y-72759286D03*
X61056084Y-73112840D03*
X60702530Y-73466393D03*
X60348977Y-73819947D03*
D16*
X59376705Y-73819947D03*
X59023152Y-73466393D03*
X58669598Y-73112840D03*
X58316045Y-72759286D03*
X57962492Y-72405733D03*
X57608938Y-72052180D03*
X57255385Y-71698626D03*
X56901831Y-71345073D03*
D17*
X56901831Y-70372801D03*
X57255385Y-70019248D03*
X57608938Y-69665694D03*
X57962492Y-69312141D03*
X58316045Y-68958588D03*
X58669598Y-68605034D03*
X59023152Y-68251481D03*
X59376705Y-67897927D03*
%TD*%
D11*
%TO.C,D16*%
X178437500Y-80818750D03*
X180337500Y-80818750D03*
X179387500Y-82693750D03*
%TD*%
D18*
%TO.C,R2*%
X157325000Y-33210000D03*
X158975000Y-33210000D03*
%TD*%
D11*
%TO.C,D3*%
X126050000Y-42718750D03*
X127950000Y-42718750D03*
X127000000Y-44593750D03*
%TD*%
D19*
%TO.C,C2*%
X58248243Y-67024258D03*
X59344259Y-65928242D03*
%TD*%
D11*
%TO.C,D8*%
X92712500Y-61768750D03*
X94612500Y-61768750D03*
X93662500Y-63643750D03*
%TD*%
%TO.C,D17*%
X216537501Y-80818751D03*
X218437501Y-80818751D03*
X217487501Y-82693751D03*
%TD*%
%TO.C,D20*%
X95093751Y-99868751D03*
X96993751Y-99868751D03*
X96043751Y-101743751D03*
%TD*%
D20*
%TO.C,RESET1*%
X45060000Y-67710000D03*
X51260000Y-67710000D03*
X45060000Y-71410000D03*
X51260000Y-71410000D03*
%TD*%
D19*
%TO.C,C3*%
X55328242Y-69334259D03*
X56424258Y-68238243D03*
%TD*%
D21*
%TO.C,U1*%
X70272500Y-51740000D03*
X70272500Y-50790000D03*
X70272500Y-49840000D03*
X72547500Y-49840000D03*
X72547500Y-50790000D03*
X72547500Y-51740000D03*
%TD*%
D22*
%TO.C,R1*%
X154325000Y-33210000D03*
X152675000Y-33210000D03*
%TD*%
D23*
%TO.C,R3*%
X53230000Y-69865000D03*
X53230000Y-71515000D03*
%TD*%
D11*
%TO.C,D15*%
X140337500Y-80818751D03*
X142237500Y-80818751D03*
X141287500Y-82693751D03*
%TD*%
D24*
%TO.C,D23*%
X262731250Y-89837500D03*
X260831250Y-89837500D03*
X261781250Y-87962500D03*
%TD*%
D25*
%TO.C,R6*%
X62502887Y-73832888D03*
X63669613Y-74999614D03*
%TD*%
D26*
%TO.C,F1*%
X76012500Y-47625000D03*
X73212500Y-47625000D03*
%TD*%
D11*
%TO.C,D14*%
X102237501Y-80818751D03*
X104137501Y-80818751D03*
X103187501Y-82693751D03*
%TD*%
%TO.C,D10*%
X168912501Y-61768750D03*
X170812501Y-61768750D03*
X169862501Y-63643750D03*
%TD*%
%TO.C,D7*%
X73662500Y-61768750D03*
X75562500Y-61768750D03*
X74612500Y-63643750D03*
%TD*%
%TO.C,D2*%
X87950000Y-42718751D03*
X89850000Y-42718751D03*
X88900000Y-44593751D03*
%TD*%
D27*
%TO.C,J1*%
X78290000Y-49290000D03*
X78290000Y-50290000D03*
X78290000Y-51290000D03*
X78290000Y-52290000D03*
D28*
X82165000Y-47990000D03*
X82165000Y-53590000D03*
%TD*%
D11*
%TO.C,D18*%
X257018750Y-80818750D03*
X258918750Y-80818750D03*
X257968750Y-82693750D03*
%TD*%
%TO.C,D21*%
X135575000Y-99868751D03*
X137475000Y-99868751D03*
X136525000Y-101743751D03*
%TD*%
D19*
%TO.C,C1*%
X64561992Y-68078008D03*
X65658008Y-66981992D03*
%TD*%
D11*
%TO.C,D6*%
X240350000Y-42718750D03*
X242250000Y-42718750D03*
X241300000Y-44593750D03*
%TD*%
D23*
%TO.C,R4*%
X55930000Y-55845000D03*
X55930000Y-57495000D03*
%TD*%
D11*
%TO.C,D13*%
X64137501Y-80818750D03*
X66037501Y-80818750D03*
X65087501Y-82693750D03*
%TD*%
M02*
