%TF.GenerationSoftware,KiCad,Pcbnew,(6.0.0)*%
%TF.CreationDate,2022-05-03T19:48:22-05:00*%
%TF.ProjectId,QS-13u,51532d31-3375-42e6-9b69-6361645f7063,rev?*%
%TF.SameCoordinates,Original*%
%TF.FileFunction,Profile,NP*%
%FSLAX46Y46*%
G04 Gerber Fmt 4.6, Leading zero omitted, Abs format (unit mm)*
G04 Created by KiCad (PCBNEW (6.0.0)) date 2022-05-03 19:48:22*
%MOMM*%
%LPD*%
G01*
G04 APERTURE LIST*
%TA.AperFunction,Profile*%
%ADD10C,0.100000*%
%TD*%
G04 APERTURE END LIST*
D10*
X160337501Y-30162501D02*
G75*
G03*
X160337501Y-31750001I0J-793750D01*
G01*
X160337501Y-30162501D02*
G75*
G03*
X161131251Y-29368751I0J793750D01*
G01*
X150812500Y-31750000D02*
G75*
G03*
X150812500Y-30162500I0J793750D01*
G01*
X260117516Y-107950000D02*
X276225000Y-107950000D01*
X51032484Y-107950000D02*
G75*
G03*
X52387500Y-107156250I-2J1553457D01*
G01*
X238125000Y-32543750D02*
G75*
G03*
X236537500Y-31750000I-1587501J-1190626D01*
G01*
X150812500Y-31750000D02*
X74380016Y-31750000D01*
X236537500Y-31750000D02*
X160337501Y-31750001D01*
X276225000Y-107950000D02*
G75*
G03*
X279400000Y-104775000I2J3174998D01*
G01*
X258762500Y-107156250D02*
G75*
G03*
X260117516Y-107950000I1355015J759702D01*
G01*
X161131251Y-23716202D02*
G75*
G03*
X160433799Y-23018750I-697452J0D01*
G01*
X74380016Y-31750000D02*
G75*
G03*
X73025000Y-32543750I-1J-1553452D01*
G01*
X60092516Y-107950000D02*
X251057484Y-107950000D01*
X161131251Y-29368751D02*
X161131251Y-23716202D01*
X245830016Y-31750000D02*
G75*
G03*
X244475000Y-32543750I-1J-1553452D01*
G01*
X65319984Y-31750000D02*
X34131250Y-31750000D01*
X258762500Y-107156250D02*
G75*
G03*
X252412500Y-107156250I-3175000J-806348D01*
G01*
X279400000Y-34131251D02*
G75*
G03*
X277018750Y-31750001I-2381250J0D01*
G01*
X58737500Y-107156250D02*
G75*
G03*
X60092516Y-107950000I1355015J759702D01*
G01*
X150812500Y-23018750D02*
G75*
G03*
X150018750Y-23812500I0J-793750D01*
G01*
X150018750Y-29368750D02*
G75*
G03*
X150812500Y-30162500I793750J0D01*
G01*
X238125000Y-32543750D02*
G75*
G03*
X244475000Y-32543750I3175000J806350D01*
G01*
X279400000Y-104775000D02*
X279400000Y-34131251D01*
X31750000Y-105568751D02*
G75*
G03*
X34131250Y-107950000I2381252J3D01*
G01*
X34131250Y-107950000D02*
X51032484Y-107950000D01*
X58737500Y-107156250D02*
G75*
G03*
X52387500Y-107156250I-3175000J-806348D01*
G01*
X34131250Y-31750000D02*
G75*
G03*
X31750000Y-34131250I0J-2381250D01*
G01*
X150018750Y-29368750D02*
X150018750Y-23812500D01*
X66675000Y-32543750D02*
G75*
G03*
X65319984Y-31750000I-1355018J-759707D01*
G01*
X277018750Y-31750001D02*
X245830016Y-31750001D01*
X251057484Y-107950000D02*
G75*
G03*
X252412500Y-107156250I-2J1553457D01*
G01*
X66675000Y-32543750D02*
G75*
G03*
X73025000Y-32543750I3175000J806350D01*
G01*
X160433799Y-23018750D02*
X150812500Y-23018750D01*
X31750000Y-105568751D02*
X31750000Y-34131250D01*
M02*
