M48
; DRILL file {KiCad (6.0.0)} date Tue May  3 21:15:33 2022
; FORMAT={-:-/ absolute / metric / decimal}
; #@! TF.CreationDate,2022-05-03T21:15:33-05:00
; #@! TF.GenerationSoftware,Kicad,Pcbnew,(6.0.0)
; #@! TF.FileFunction,NonPlated,1,2,NPTH
FMAT,2
METRIC
; #@! TA.AperFunction,NonPlated,NPTH,ComponentDrill
T1C0.650
; #@! TA.AperFunction,NonPlated,NPTH,ComponentDrill
T2C1.750
; #@! TA.AperFunction,NonPlated,NPTH,ComponentDrill
T3C3.048
; #@! TA.AperFunction,NonPlated,NPTH,ComponentDrill
T4C3.988
%
G90
G05
T1
X152.685Y-28.0
X158.465Y-28.0
T2
X36.195Y-41.275
X38.576Y-98.425
X38.576Y-60.325
X40.957Y-98.425
X43.339Y-79.375
X46.355Y-41.275
X48.736Y-98.425
X48.736Y-60.325
X51.117Y-98.425
X53.499Y-79.375
X55.245Y-41.275
X60.008Y-60.325
X60.008Y-98.425
X65.405Y-41.275
X69.532Y-79.375
X69.532Y-98.425
X70.168Y-60.325
X70.168Y-98.425
X74.295Y-41.275
X79.057Y-60.325
X79.692Y-79.375
X79.692Y-98.425
X81.439Y-98.425
X84.455Y-41.275
X88.582Y-79.375
X89.218Y-60.325
X91.599Y-98.425
X93.345Y-41.275
X98.108Y-60.325
X98.742Y-79.375
X103.505Y-41.275
X107.633Y-79.375
X108.267Y-60.325
X112.395Y-41.275
X117.157Y-60.325
X117.793Y-79.375
X121.92Y-98.425
X122.555Y-41.275
X126.682Y-79.375
X127.317Y-60.325
X131.445Y-41.275
X132.08Y-98.425
X136.208Y-60.325
X136.843Y-79.375
X140.97Y-98.425
X141.605Y-41.275
X145.733Y-79.375
X146.368Y-60.325
X150.495Y-98.425
X150.495Y-41.275
X151.13Y-98.425
X155.258Y-60.325
X155.893Y-79.375
X160.655Y-98.425
X160.655Y-41.275
X164.783Y-79.375
X165.418Y-60.325
X169.545Y-41.275
X174.308Y-60.325
X174.943Y-79.375
X179.07Y-98.425
X179.705Y-41.275
X183.832Y-79.375
X184.468Y-60.325
X188.595Y-41.275
X189.23Y-98.425
X193.357Y-60.325
X193.992Y-79.375
X198.755Y-41.275
X202.882Y-79.375
X203.517Y-60.325
X207.645Y-41.275
X212.407Y-60.325
X213.042Y-79.375
X217.805Y-41.275
X219.551Y-98.425
X221.932Y-79.375
X222.567Y-60.325
X226.695Y-41.275
X229.711Y-98.425
X231.457Y-98.425
X231.458Y-60.325
X232.093Y-79.375
X236.855Y-41.275
X240.982Y-79.375
X240.982Y-98.425
X241.617Y-98.425
X241.618Y-60.325
X243.364Y-79.375
X245.745Y-41.275
X251.142Y-79.375
X251.142Y-98.425
X253.524Y-79.375
X255.27Y-41.275
X255.905Y-41.275
X257.651Y-60.325
X260.032Y-98.425
X262.414Y-98.425
X262.414Y-79.375
X264.795Y-41.275
X264.795Y-79.375
X265.43Y-41.275
X267.811Y-60.325
X270.192Y-98.425
X272.574Y-98.425
X272.574Y-79.375
X274.955Y-41.275
X274.955Y-79.375
T3
X98.425Y-105.41
X107.95Y-105.41
X107.95Y-105.41
X115.094Y-105.41
X138.906Y-105.41
X146.05Y-105.41
X165.1Y-105.41
X172.244Y-105.41
X196.056Y-105.41
X203.2Y-105.41
X203.2Y-105.41
X212.725Y-105.41
X248.444Y-34.29
X272.256Y-34.29
T4
X41.275Y-41.275
X43.656Y-98.425
X43.656Y-60.325
X46.038Y-98.425
X48.419Y-79.375
X60.325Y-41.275
X65.088Y-60.325
X65.088Y-98.425
X74.612Y-79.375
X74.612Y-98.425
X79.375Y-41.275
X84.138Y-60.325
X86.519Y-98.425
X93.662Y-79.375
X98.425Y-41.275
X98.425Y-90.17
X103.188Y-60.325
X107.95Y-90.17
X107.95Y-90.17
X112.713Y-79.375
X115.094Y-90.17
X117.475Y-41.275
X122.237Y-60.325
X127.0Y-98.425
X131.762Y-79.375
X136.525Y-41.275
X138.906Y-90.17
X141.288Y-60.325
X146.05Y-90.17
X146.05Y-98.425
X150.813Y-79.375
X155.575Y-98.425
X155.575Y-41.275
X160.338Y-60.325
X165.1Y-90.17
X169.863Y-79.375
X172.244Y-90.17
X174.625Y-41.275
X179.387Y-60.325
X184.15Y-98.425
X188.912Y-79.375
X193.675Y-41.275
X196.056Y-90.17
X198.438Y-60.325
X203.2Y-90.17
X203.2Y-90.17
X207.962Y-79.375
X212.725Y-41.275
X212.725Y-90.17
X217.487Y-60.325
X224.631Y-98.425
X227.012Y-79.375
X231.775Y-41.275
X236.537Y-98.425
X236.538Y-60.325
X246.062Y-79.375
X246.062Y-98.425
X248.444Y-79.375
X248.444Y-49.53
X250.825Y-41.275
X260.35Y-41.275
X262.731Y-60.325
X265.113Y-98.425
X267.494Y-98.425
X267.494Y-79.375
X269.875Y-41.275
X269.875Y-79.375
X272.256Y-49.53
T0
M30
